G04*
G04 #@! TF.GenerationSoftware,Altium Limited,Altium Designer,23.1.1 (15)*
G04*
G04 Layer_Color=16711935*
%FSLAX25Y25*%
%MOIN*%
G70*
G04*
G04 #@! TF.SameCoordinates,D44E4BA0-DF0F-404E-B2C4-BA9F40E5660F*
G04*
G04*
G04 #@! TF.FilePolarity,Negative*
G04*
G01*
G75*
%ADD121O,0.04343X0.07493*%
%ADD122O,0.04343X0.08674*%
%ADD123C,0.00800*%
%ADD124R,0.06706X0.06706*%
%ADD125C,0.06706*%
%ADD126C,0.08674*%
%ADD127C,0.07099*%
%ADD128R,0.08674X0.08674*%
%ADD129R,0.06299X0.12205*%
%ADD130R,0.12205X0.06299*%
%ADD131C,0.00394*%
%ADD132C,0.11824*%
%ADD133R,0.00800X0.00800*%
%ADD134C,0.03162*%
D121*
X30352Y4650D02*
D03*
X64407D02*
D03*
D122*
X30352Y21106D02*
D03*
X64407D02*
D03*
D123*
X58758Y19138D02*
D03*
X36002D02*
D03*
X318300Y68221D02*
D03*
Y36724D02*
D03*
D124*
X120700Y55821D02*
D03*
D125*
Y45821D02*
D03*
Y35820D02*
D03*
Y25820D02*
D03*
Y15821D02*
D03*
Y5821D02*
D03*
D126*
X134324Y236749D02*
D03*
X161883D02*
D03*
X172432Y236729D02*
D03*
X199991D02*
D03*
X73262Y249932D02*
D03*
D127*
X156962Y246788D02*
D03*
X139245D02*
D03*
X195070Y246769D02*
D03*
X177353D02*
D03*
D128*
X63262Y249932D02*
D03*
D129*
X31648Y108121D02*
D03*
D130*
X40703Y121113D02*
D03*
Y95128D02*
D03*
D131*
X15900Y108121D02*
D03*
D132*
X43110Y177718D02*
D03*
Y158820D02*
D03*
Y139923D02*
D03*
X6890Y132639D02*
D03*
Y185002D02*
D03*
D133*
X324803Y9843D02*
D03*
X324803Y246063D02*
D03*
X9843Y246063D02*
D03*
Y9843D02*
D03*
D134*
X234156Y97826D02*
D03*
X217675Y106725D02*
D03*
X250500Y104756D02*
D03*
X253100Y239866D02*
D03*
Y248527D02*
D03*
X226963Y242071D02*
D03*
Y252171D02*
D03*
X235882Y236700D02*
D03*
X244401Y242071D02*
D03*
X244840Y252383D02*
D03*
X222300Y132172D02*
D03*
X210496Y69851D02*
D03*
X210545Y66446D02*
D03*
X182800Y29141D02*
D03*
X251900Y40465D02*
D03*
X27104Y15100D02*
D03*
Y10000D02*
D03*
X215000Y154400D02*
D03*
X255500D02*
D03*
X296000D02*
D03*
Y183900D02*
D03*
X255500D02*
D03*
X215000D02*
D03*
X106361Y25820D02*
D03*
X165186Y123658D02*
D03*
X153639Y55319D02*
D03*
X142600Y55300D02*
D03*
X95800Y33738D02*
D03*
Y37100D02*
D03*
X184100Y112200D02*
D03*
X173354Y117162D02*
D03*
X138961Y87020D02*
D03*
X117600Y88153D02*
D03*
X171186Y147280D02*
D03*
X186419D02*
D03*
X152600Y150600D02*
D03*
X221100Y14245D02*
D03*
X224907Y14220D02*
D03*
X317100Y235535D02*
D03*
X148631Y186900D02*
D03*
X115800Y160300D02*
D03*
Y165000D02*
D03*
Y169700D02*
D03*
Y174400D02*
D03*
X186419Y164406D02*
D03*
X74000Y147600D02*
D03*
X80600D02*
D03*
X115800Y205632D02*
D03*
X290285Y213882D02*
D03*
X267200Y239866D02*
D03*
Y248527D02*
D03*
X45472Y52200D02*
D03*
X58600Y36502D02*
D03*
X36159Y37760D02*
D03*
X163972Y41500D02*
D03*
Y29141D02*
D03*
X182800Y41500D02*
D03*
X194800Y4321D02*
D03*
X221100D02*
D03*
X288300Y15350D02*
D03*
X171186Y160469D02*
D03*
X184100Y106693D02*
D03*
X188200Y125036D02*
D03*
X159162Y143600D02*
D03*
X95400Y228700D02*
D03*
Y225157D02*
D03*
X42300D02*
D03*
Y228700D02*
D03*
X48501Y72766D02*
D03*
X42364Y18494D02*
D03*
X85400Y231400D02*
D03*
X80857Y210418D02*
D03*
X42300Y214843D02*
D03*
Y218387D02*
D03*
X68262Y241400D02*
D03*
Y237218D02*
D03*
Y233036D02*
D03*
X64500Y215061D02*
D03*
X72024D02*
D03*
Y222500D02*
D03*
X64500D02*
D03*
X68262Y218780D02*
D03*
X317100Y229535D02*
D03*
X188200Y108693D02*
D03*
X188189Y60321D02*
D03*
X216200Y132172D02*
D03*
X212326D02*
D03*
X138038Y98178D02*
D03*
X155919Y87020D02*
D03*
X134809Y101402D02*
D03*
X131809Y98178D02*
D03*
X140821Y101402D02*
D03*
X146300Y55300D02*
D03*
X151104Y217120D02*
D03*
X189212Y217100D02*
D03*
X115800Y197732D02*
D03*
X144961Y117845D02*
D03*
X149961D02*
D03*
X52659Y12800D02*
D03*
X42364D02*
D03*
X36159Y31769D02*
D03*
X193189Y60321D02*
D03*
Y65320D02*
D03*
X160939Y55300D02*
D03*
X157239D02*
D03*
X150000D02*
D03*
X183212Y217100D02*
D03*
X145104Y217120D02*
D03*
X29300Y239466D02*
D03*
Y247566D02*
D03*
X40900Y239466D02*
D03*
Y247566D02*
D03*
X96800Y239466D02*
D03*
Y247566D02*
D03*
X108400Y239466D02*
D03*
Y247566D02*
D03*
X38900Y57766D02*
D03*
Y72766D02*
D03*
X57300Y121520D02*
D03*
Y113420D02*
D03*
X68900Y121520D02*
D03*
Y113420D02*
D03*
X117600Y96253D02*
D03*
X106000D02*
D03*
Y88153D02*
D03*
X62800Y79650D02*
D03*
Y71550D02*
D03*
X74400Y79650D02*
D03*
Y71550D02*
D03*
X20500Y77400D02*
D03*
Y69300D02*
D03*
X8900D02*
D03*
Y77400D02*
D03*
X261738Y46903D02*
D03*
X226979Y60321D02*
D03*
X261714Y43417D02*
D03*
X202938Y150600D02*
D03*
X159987Y117162D02*
D03*
X153070Y126367D02*
D03*
X207700Y15321D02*
D03*
X69407Y27477D02*
D03*
X60459D02*
D03*
X30352D02*
D03*
X58600Y31769D02*
D03*
X33600Y10000D02*
D03*
Y15100D02*
D03*
X34300Y27477D02*
D03*
X251900Y23400D02*
D03*
X261714Y56094D02*
D03*
X237092Y25321D02*
D03*
X237100Y30321D02*
D03*
X241700Y54131D02*
D03*
X265528Y72200D02*
D03*
X261714Y32300D02*
D03*
X255300Y49000D02*
D03*
X261714Y59556D02*
D03*
Y65465D02*
D03*
X85436Y136000D02*
D03*
X77100Y161800D02*
D03*
X58900Y126700D02*
D03*
X70240D02*
D03*
X55250Y136021D02*
D03*
X91977Y151158D02*
D03*
X55250Y143820D02*
D03*
X61300D02*
D03*
X55250Y178718D02*
D03*
X61300D02*
D03*
X80600Y151741D02*
D03*
Y155883D02*
D03*
X61300Y173821D02*
D03*
X55250D02*
D03*
X52500Y96700D02*
D03*
X56600D02*
D03*
X52500Y100200D02*
D03*
X56600D02*
D03*
M02*
