G04*
G04 #@! TF.GenerationSoftware,Altium Limited,Altium Designer,23.6.0 (18)*
G04*
G04 Layer_Color=5220458*
%FSLAX25Y25*%
%MOIN*%
G70*
G04*
G04 #@! TF.SameCoordinates,B1711246-A666-457E-9349-3D56B44E1F9A*
G04*
G04*
G04 #@! TF.FilePolarity,Positive*
G04*
G01*
G75*
%ADD11C,0.01000*%
%ADD136C,0.01500*%
%ADD175C,0.00100*%
D11*
X470050Y311198D02*
Y305200D01*
X474049D01*
X477048Y309199D02*
X479047D01*
X480047Y308199D01*
Y305200D01*
X477048D01*
X476048Y306200D01*
X477048Y307199D01*
X480047D01*
X482046Y309199D02*
Y306200D01*
X483046Y305200D01*
X486045D01*
Y304200D01*
X485045Y303201D01*
X484046D01*
X486045Y305200D02*
Y309199D01*
X491043Y305200D02*
X489044D01*
X488044Y306200D01*
Y308199D01*
X489044Y309199D01*
X491043D01*
X492043Y308199D01*
Y307199D01*
X488044D01*
X494042Y309199D02*
Y305200D01*
Y307199D01*
X495042Y308199D01*
X496042Y309199D01*
X497041D01*
X474049Y245200D02*
X470050D01*
X474049Y249199D01*
Y250198D01*
X473049Y251198D01*
X471050D01*
X470050Y250198D01*
Y269200D02*
X472049D01*
X471050D01*
Y275198D01*
X470050Y274198D01*
X511041Y305200D02*
Y311198D01*
X515040Y305200D01*
Y311198D01*
X518039Y309199D02*
X520038D01*
X521038Y308199D01*
Y305200D01*
X518039D01*
X517039Y306200D01*
X518039Y307199D01*
X521038D01*
X523037Y305200D02*
Y309199D01*
X524037D01*
X525037Y308199D01*
Y305200D01*
Y308199D01*
X526036Y309199D01*
X527036Y308199D01*
Y305200D01*
X532034D02*
X530035D01*
X529036Y306200D01*
Y308199D01*
X530035Y309199D01*
X532034D01*
X533034Y308199D01*
Y307199D01*
X529036D01*
X511041Y227198D02*
Y221200D01*
X514040D01*
X515040Y222200D01*
Y223199D01*
X514040Y224199D01*
X511041D01*
X514040D01*
X515040Y225199D01*
Y226198D01*
X514040Y227198D01*
X511041D01*
X518039Y221200D02*
X520038D01*
X521038Y222200D01*
Y224199D01*
X520038Y225199D01*
X518039D01*
X517039Y224199D01*
Y222200D01*
X518039Y221200D01*
X524037Y226198D02*
Y225199D01*
X523037D01*
X525037D01*
X524037D01*
Y222200D01*
X525037Y221200D01*
X529036Y226198D02*
Y225199D01*
X528036D01*
X530035D01*
X529036D01*
Y222200D01*
X530035Y221200D01*
X534034D02*
X536033D01*
X537033Y222200D01*
Y224199D01*
X536033Y225199D01*
X534034D01*
X533034Y224199D01*
Y222200D01*
X534034Y221200D01*
X539032D02*
Y225199D01*
X540032D01*
X541032Y224199D01*
Y221200D01*
Y224199D01*
X542031Y225199D01*
X543031Y224199D01*
Y221200D01*
X554027Y227198D02*
X552028D01*
X551028Y226198D01*
Y222200D01*
X552028Y221200D01*
X554027D01*
X555027Y222200D01*
Y226198D01*
X554027Y227198D01*
X557026Y225199D02*
X559026Y221200D01*
X561025Y225199D01*
X566023Y221200D02*
X564024D01*
X563024Y222200D01*
Y224199D01*
X564024Y225199D01*
X566023D01*
X567023Y224199D01*
Y223199D01*
X563024D01*
X569023Y225199D02*
Y221200D01*
Y223199D01*
X570022Y224199D01*
X571022Y225199D01*
X572021D01*
X575021Y221200D02*
X577020D01*
X576020D01*
Y227198D01*
X575021D01*
X581019Y225199D02*
X583018D01*
X584018Y224199D01*
Y221200D01*
X581019D01*
X580019Y222200D01*
X581019Y223199D01*
X584018D01*
X586017Y225199D02*
Y222200D01*
X587017Y221200D01*
X590016D01*
Y220200D01*
X589016Y219201D01*
X588016D01*
X590016Y221200D02*
Y225199D01*
X511041Y239198D02*
Y233200D01*
X514040D01*
X515040Y234200D01*
Y235199D01*
X514040Y236199D01*
X511041D01*
X514040D01*
X515040Y237199D01*
Y238198D01*
X514040Y239198D01*
X511041D01*
X518039Y233200D02*
X520038D01*
X521038Y234200D01*
Y236199D01*
X520038Y237199D01*
X518039D01*
X517039Y236199D01*
Y234200D01*
X518039Y233200D01*
X524037Y238198D02*
Y237199D01*
X523037D01*
X525037D01*
X524037D01*
Y234200D01*
X525037Y233200D01*
X529036Y238198D02*
Y237199D01*
X528036D01*
X530035D01*
X529036D01*
Y234200D01*
X530035Y233200D01*
X534034D02*
X536033D01*
X537033Y234200D01*
Y236199D01*
X536033Y237199D01*
X534034D01*
X533034Y236199D01*
Y234200D01*
X534034Y233200D01*
X539032D02*
Y237199D01*
X540032D01*
X541032Y236199D01*
Y233200D01*
Y236199D01*
X542031Y237199D01*
X543031Y236199D01*
Y233200D01*
X555027Y238198D02*
X554027Y239198D01*
X552028D01*
X551028Y238198D01*
Y237199D01*
X552028Y236199D01*
X554027D01*
X555027Y235199D01*
Y234200D01*
X554027Y233200D01*
X552028D01*
X551028Y234200D01*
X558026Y233200D02*
X560025D01*
X561025Y234200D01*
Y236199D01*
X560025Y237199D01*
X558026D01*
X557026Y236199D01*
Y234200D01*
X558026Y233200D01*
X563024D02*
X565024D01*
X564024D01*
Y239198D01*
X563024D01*
X572021D02*
Y233200D01*
X569023D01*
X568023Y234200D01*
Y236199D01*
X569023Y237199D01*
X572021D01*
X577020Y233200D02*
X575021D01*
X574021Y234200D01*
Y236199D01*
X575021Y237199D01*
X577020D01*
X578020Y236199D01*
Y235199D01*
X574021D01*
X580019Y237199D02*
Y233200D01*
Y235199D01*
X581019Y236199D01*
X582018Y237199D01*
X583018D01*
X511041Y251198D02*
Y245200D01*
X514040D01*
X515040Y246200D01*
Y247199D01*
X514040Y248199D01*
X511041D01*
X514040D01*
X515040Y249199D01*
Y250198D01*
X514040Y251198D01*
X511041D01*
X518039Y245200D02*
X520038D01*
X521038Y246200D01*
Y248199D01*
X520038Y249199D01*
X518039D01*
X517039Y248199D01*
Y246200D01*
X518039Y245200D01*
X524037Y250198D02*
Y249199D01*
X523037D01*
X525037D01*
X524037D01*
Y246200D01*
X525037Y245200D01*
X529036Y250198D02*
Y249199D01*
X528036D01*
X530035D01*
X529036D01*
Y246200D01*
X530035Y245200D01*
X534034D02*
X536033D01*
X537033Y246200D01*
Y248199D01*
X536033Y249199D01*
X534034D01*
X533034Y248199D01*
Y246200D01*
X534034Y245200D01*
X539032D02*
Y249199D01*
X540032D01*
X541032Y248199D01*
Y245200D01*
Y248199D01*
X542031Y249199D01*
X543031Y248199D01*
Y245200D01*
X551028Y251198D02*
Y245200D01*
X555027D01*
X558026Y249199D02*
X560025D01*
X561025Y248199D01*
Y245200D01*
X558026D01*
X557026Y246200D01*
X558026Y247199D01*
X561025D01*
X563024Y249199D02*
Y246200D01*
X564024Y245200D01*
X567023D01*
Y244200D01*
X566023Y243201D01*
X565024D01*
X567023Y245200D02*
Y249199D01*
X572021Y245200D02*
X570022D01*
X569023Y246200D01*
Y248199D01*
X570022Y249199D01*
X572021D01*
X573021Y248199D01*
Y247199D01*
X569023D01*
X575021Y249199D02*
Y245200D01*
Y247199D01*
X576020Y248199D01*
X577020Y249199D01*
X578020D01*
X511041Y263198D02*
Y257200D01*
X514040D01*
X515040Y258200D01*
Y262198D01*
X514040Y263198D01*
X511041D01*
X517039Y257200D02*
X519039D01*
X518039D01*
Y261199D01*
X517039D01*
X525037Y257200D02*
X523037D01*
X522038Y258200D01*
Y260199D01*
X523037Y261199D01*
X525037D01*
X526036Y260199D01*
Y259199D01*
X522038D01*
X528036Y257200D02*
X530035D01*
X529036D01*
Y263198D01*
X528036D01*
X536033Y257200D02*
X534034D01*
X533034Y258200D01*
Y260199D01*
X534034Y261199D01*
X536033D01*
X537033Y260199D01*
Y259199D01*
X533034D01*
X543031Y261199D02*
X540032D01*
X539032Y260199D01*
Y258200D01*
X540032Y257200D01*
X543031D01*
X546030Y262198D02*
Y261199D01*
X545030D01*
X547030D01*
X546030D01*
Y258200D01*
X547030Y257200D01*
X550029Y261199D02*
Y257200D01*
Y259199D01*
X551028Y260199D01*
X552028Y261199D01*
X553028D01*
X556027Y257200D02*
X558026D01*
X557026D01*
Y261199D01*
X556027D01*
X565024D02*
X562025D01*
X561025Y260199D01*
Y258200D01*
X562025Y257200D01*
X565024D01*
X573021D02*
X575021D01*
X574021D01*
Y263198D01*
X573021Y262198D01*
X511041Y275198D02*
X515040D01*
X513041D01*
Y269200D01*
X518039D02*
X520038D01*
X521038Y270200D01*
Y272199D01*
X520038Y273199D01*
X518039D01*
X517039Y272199D01*
Y270200D01*
X518039Y269200D01*
X523037Y267201D02*
Y273199D01*
X526036D01*
X527036Y272199D01*
Y270200D01*
X526036Y269200D01*
X523037D01*
X535034Y275198D02*
Y269200D01*
X539032D01*
X542031Y273199D02*
X544031D01*
X545030Y272199D01*
Y269200D01*
X542031D01*
X541032Y270200D01*
X542031Y271199D01*
X545030D01*
X547030Y273199D02*
Y270200D01*
X548029Y269200D01*
X551028D01*
Y268200D01*
X550029Y267201D01*
X549029D01*
X551028Y269200D02*
Y273199D01*
X556027Y269200D02*
X554027D01*
X553028Y270200D01*
Y272199D01*
X554027Y273199D01*
X556027D01*
X557026Y272199D01*
Y271199D01*
X553028D01*
X559026Y273199D02*
Y269200D01*
Y271199D01*
X560025Y272199D01*
X561025Y273199D01*
X562025D01*
X511041Y287198D02*
X515040D01*
X513041D01*
Y281200D01*
X518039D02*
X520038D01*
X521038Y282200D01*
Y284199D01*
X520038Y285199D01*
X518039D01*
X517039Y284199D01*
Y282200D01*
X518039Y281200D01*
X523037Y279201D02*
Y285199D01*
X526036D01*
X527036Y284199D01*
Y282200D01*
X526036Y281200D01*
X523037D01*
X539032Y286198D02*
X538032Y287198D01*
X536033D01*
X535034Y286198D01*
Y285199D01*
X536033Y284199D01*
X538032D01*
X539032Y283199D01*
Y282200D01*
X538032Y281200D01*
X536033D01*
X535034Y282200D01*
X542031Y281200D02*
X544031D01*
X545030Y282200D01*
Y284199D01*
X544031Y285199D01*
X542031D01*
X541032Y284199D01*
Y282200D01*
X542031Y281200D01*
X547030D02*
X549029D01*
X548029D01*
Y287198D01*
X547030D01*
X556027D02*
Y281200D01*
X553028D01*
X552028Y282200D01*
Y284199D01*
X553028Y285199D01*
X556027D01*
X561025Y281200D02*
X559026D01*
X558026Y282200D01*
Y284199D01*
X559026Y285199D01*
X561025D01*
X562025Y284199D01*
Y283199D01*
X558026D01*
X564024Y285199D02*
Y281200D01*
Y283199D01*
X565024Y284199D01*
X566023Y285199D01*
X567023D01*
X511041Y299198D02*
X515040D01*
X513041D01*
Y293200D01*
X518039D02*
X520038D01*
X521038Y294200D01*
Y296199D01*
X520038Y297199D01*
X518039D01*
X517039Y296199D01*
Y294200D01*
X518039Y293200D01*
X523037Y291201D02*
Y297199D01*
X526036D01*
X527036Y296199D01*
Y294200D01*
X526036Y293200D01*
X523037D01*
X538032Y299198D02*
X536033D01*
X535034Y298198D01*
Y294200D01*
X536033Y293200D01*
X538032D01*
X539032Y294200D01*
Y298198D01*
X538032Y299198D01*
X541032Y297199D02*
X543031Y293200D01*
X545030Y297199D01*
X550029Y293200D02*
X548029D01*
X547030Y294200D01*
Y296199D01*
X548029Y297199D01*
X550029D01*
X551028Y296199D01*
Y295199D01*
X547030D01*
X553028Y297199D02*
Y293200D01*
Y295199D01*
X554027Y296199D01*
X555027Y297199D01*
X556027D01*
X559026Y293200D02*
X561025D01*
X560025D01*
Y299198D01*
X559026D01*
X565024Y297199D02*
X567023D01*
X568023Y296199D01*
Y293200D01*
X565024D01*
X564024Y294200D01*
X565024Y295199D01*
X568023D01*
X570022Y297199D02*
Y294200D01*
X571022Y293200D01*
X574021D01*
Y292200D01*
X573021Y291201D01*
X572021D01*
X574021Y293200D02*
Y297199D01*
X604016Y305200D02*
Y311198D01*
X606015Y309199D01*
X608014Y311198D01*
Y305200D01*
X611014Y309199D02*
X613013D01*
X614012Y308199D01*
Y305200D01*
X611014D01*
X610014Y306200D01*
X611014Y307199D01*
X614012D01*
X617011Y310198D02*
Y309199D01*
X616012D01*
X618011D01*
X617011D01*
Y306200D01*
X618011Y305200D01*
X624009D02*
X622010D01*
X621010Y306200D01*
Y308199D01*
X622010Y309199D01*
X624009D01*
X625009Y308199D01*
Y307199D01*
X621010D01*
X627008Y309199D02*
Y305200D01*
Y307199D01*
X628008Y308199D01*
X629008Y309199D01*
X630007D01*
X633006Y305200D02*
X635006D01*
X634006D01*
Y309199D01*
X633006D01*
X639004D02*
X641004D01*
X642003Y308199D01*
Y305200D01*
X639004D01*
X638005Y306200D01*
X639004Y307199D01*
X642003D01*
X644003Y305200D02*
X646002D01*
X645003D01*
Y311198D01*
X644003D01*
X608014Y238198D02*
X607015Y239198D01*
X605015D01*
X604016Y238198D01*
Y237199D01*
X605015Y236199D01*
X607015D01*
X608014Y235199D01*
Y234200D01*
X607015Y233200D01*
X605015D01*
X604016Y234200D01*
X611014Y233200D02*
X613013D01*
X614012Y234200D01*
Y236199D01*
X613013Y237199D01*
X611014D01*
X610014Y236199D01*
Y234200D01*
X611014Y233200D01*
X616012D02*
X618011D01*
X617011D01*
Y239198D01*
X616012D01*
X625009D02*
Y233200D01*
X622010D01*
X621010Y234200D01*
Y236199D01*
X622010Y237199D01*
X625009D01*
X630007Y233200D02*
X628008D01*
X627008Y234200D01*
Y236199D01*
X628008Y237199D01*
X630007D01*
X631007Y236199D01*
Y235199D01*
X627008D01*
X633006Y237199D02*
Y233200D01*
Y235199D01*
X634006Y236199D01*
X635006Y237199D01*
X636005D01*
X645003Y233200D02*
Y239198D01*
X648001D01*
X649001Y238198D01*
Y236199D01*
X648001Y235199D01*
X645003D01*
X647002D02*
X649001Y233200D01*
X654000D02*
X652000D01*
X651000Y234200D01*
Y236199D01*
X652000Y237199D01*
X654000D01*
X654999Y236199D01*
Y235199D01*
X651000D01*
X656999Y233200D02*
X659998D01*
X660997Y234200D01*
X659998Y235199D01*
X657998D01*
X656999Y236199D01*
X657998Y237199D01*
X660997D01*
X662997Y233200D02*
X664996D01*
X663996D01*
Y237199D01*
X662997D01*
X667995Y233200D02*
X670994D01*
X671994Y234200D01*
X670994Y235199D01*
X668995D01*
X667995Y236199D01*
X668995Y237199D01*
X671994D01*
X674993Y238198D02*
Y237199D01*
X673993D01*
X675992D01*
X674993D01*
Y234200D01*
X675992Y233200D01*
X608014Y263198D02*
X604016D01*
Y260199D01*
X606015D01*
X604016D01*
Y257200D01*
X610014D02*
Y263198D01*
X613013D01*
X614012Y262198D01*
Y260199D01*
X613013Y259199D01*
X610014D01*
X612013D02*
X614012Y257200D01*
X616012Y260199D02*
X620011D01*
X625009Y257200D02*
Y263198D01*
X622010Y260199D01*
X626009D01*
X608014Y286198D02*
X607015Y287198D01*
X605015D01*
X604016Y286198D01*
Y285199D01*
X605015Y284199D01*
X607015D01*
X608014Y283199D01*
Y282200D01*
X607015Y281200D01*
X605015D01*
X604016Y282200D01*
X611014Y281200D02*
X613013D01*
X614012Y282200D01*
Y284199D01*
X613013Y285199D01*
X611014D01*
X610014Y284199D01*
Y282200D01*
X611014Y281200D01*
X616012D02*
X618011D01*
X617011D01*
Y287198D01*
X616012D01*
X625009D02*
Y281200D01*
X622010D01*
X621010Y282200D01*
Y284199D01*
X622010Y285199D01*
X625009D01*
X630007Y281200D02*
X628008D01*
X627008Y282200D01*
Y284199D01*
X628008Y285199D01*
X630007D01*
X631007Y284199D01*
Y283199D01*
X627008D01*
X633006Y285199D02*
Y281200D01*
Y283199D01*
X634006Y284199D01*
X635006Y285199D01*
X636005D01*
X645003Y281200D02*
Y287198D01*
X648001D01*
X649001Y286198D01*
Y284199D01*
X648001Y283199D01*
X645003D01*
X647002D02*
X649001Y281200D01*
X654000D02*
X652000D01*
X651000Y282200D01*
Y284199D01*
X652000Y285199D01*
X654000D01*
X654999Y284199D01*
Y283199D01*
X651000D01*
X656999Y281200D02*
X659998D01*
X660997Y282200D01*
X659998Y283199D01*
X657998D01*
X656999Y284199D01*
X657998Y285199D01*
X660997D01*
X662997Y281200D02*
X664996D01*
X663996D01*
Y285199D01*
X662997D01*
X667995Y281200D02*
X670994D01*
X671994Y282200D01*
X670994Y283199D01*
X668995D01*
X667995Y284199D01*
X668995Y285199D01*
X671994D01*
X674993Y286198D02*
Y285199D01*
X673993D01*
X675992D01*
X674993D01*
Y282200D01*
X675992Y281200D01*
X689992Y311198D02*
X693991D01*
X691992D01*
Y305200D01*
X695991Y311198D02*
Y305200D01*
Y308199D01*
X696990Y309199D01*
X698989D01*
X699989Y308199D01*
Y305200D01*
X701989D02*
X703988D01*
X702988D01*
Y309199D01*
X701989D01*
X710986D02*
X707987D01*
X706987Y308199D01*
Y306200D01*
X707987Y305200D01*
X710986D01*
X712985D02*
Y311198D01*
Y307199D02*
X715984Y309199D01*
X712985Y307199D02*
X715984Y305200D01*
X718983D02*
Y309199D01*
X721982D01*
X722982Y308199D01*
Y305200D01*
X727980D02*
X725981D01*
X724981Y306200D01*
Y308199D01*
X725981Y309199D01*
X727980D01*
X728980Y308199D01*
Y307199D01*
X724981D01*
X730979Y305200D02*
X733978D01*
X734978Y306200D01*
X733978Y307199D01*
X731979D01*
X730979Y308199D01*
X731979Y309199D01*
X734978D01*
X736977Y305200D02*
X739976D01*
X740976Y306200D01*
X739976Y307199D01*
X737977D01*
X736977Y308199D01*
X737977Y309199D01*
X740976D01*
X689992Y238198D02*
X690992Y239198D01*
X692991D01*
X693991Y238198D01*
Y234200D01*
X692991Y233200D01*
X690992D01*
X689992Y234200D01*
Y238198D01*
X695991Y233200D02*
Y234200D01*
X696990D01*
Y233200D01*
X695991D01*
X700989Y238198D02*
X701989Y239198D01*
X703988D01*
X704988Y238198D01*
Y234200D01*
X703988Y233200D01*
X701989D01*
X700989Y234200D01*
Y238198D01*
X706987Y239198D02*
X710986D01*
Y238198D01*
X706987Y234200D01*
Y233200D01*
X716984Y239198D02*
X714984Y238198D01*
X712985Y236199D01*
Y234200D01*
X713985Y233200D01*
X715984D01*
X716984Y234200D01*
Y235199D01*
X715984Y236199D01*
X712985D01*
X718983Y233200D02*
Y237199D01*
X719983D01*
X720982Y236199D01*
Y233200D01*
Y236199D01*
X721982Y237199D01*
X722982Y236199D01*
Y233200D01*
X724981D02*
Y237199D01*
X725981D01*
X726980Y236199D01*
Y233200D01*
Y236199D01*
X727980Y237199D01*
X728980Y236199D01*
Y233200D01*
X689992Y250198D02*
X690992Y251198D01*
X692991D01*
X693991Y250198D01*
Y246200D01*
X692991Y245200D01*
X690992D01*
X689992Y246200D01*
Y250198D01*
X695991Y245200D02*
Y246200D01*
X696990D01*
Y245200D01*
X695991D01*
X704988D02*
X700989D01*
X704988Y249199D01*
Y250198D01*
X703988Y251198D01*
X701989D01*
X700989Y250198D01*
X710986Y251198D02*
X706987D01*
Y248199D01*
X708986Y249199D01*
X709986D01*
X710986Y248199D01*
Y246200D01*
X709986Y245200D01*
X707987D01*
X706987Y246200D01*
X715984Y245200D02*
Y251198D01*
X712985Y248199D01*
X716984D01*
X718983Y245200D02*
Y249199D01*
X719983D01*
X720982Y248199D01*
Y245200D01*
Y248199D01*
X721982Y249199D01*
X722982Y248199D01*
Y245200D01*
X724981D02*
Y249199D01*
X725981D01*
X726980Y248199D01*
Y245200D01*
Y248199D01*
X727980Y249199D01*
X728980Y248199D01*
Y245200D01*
X689992Y262198D02*
X690992Y263198D01*
X692991D01*
X693991Y262198D01*
Y258200D01*
X692991Y257200D01*
X690992D01*
X689992Y258200D01*
Y262198D01*
X695991Y257200D02*
Y258200D01*
X696990D01*
Y257200D01*
X695991D01*
X700989Y258200D02*
X701989Y257200D01*
X703988D01*
X704988Y258200D01*
Y262198D01*
X703988Y263198D01*
X701989D01*
X700989Y262198D01*
Y261199D01*
X701989Y260199D01*
X704988D01*
X709986Y257200D02*
Y263198D01*
X706987Y260199D01*
X710986D01*
X712985Y262198D02*
X713985Y263198D01*
X715984D01*
X716984Y262198D01*
Y258200D01*
X715984Y257200D01*
X713985D01*
X712985Y258200D01*
Y262198D01*
X718983Y257200D02*
Y261199D01*
X719983D01*
X720982Y260199D01*
Y257200D01*
Y260199D01*
X721982Y261199D01*
X722982Y260199D01*
Y257200D01*
X724981D02*
Y261199D01*
X725981D01*
X726980Y260199D01*
Y257200D01*
Y260199D01*
X727980Y261199D01*
X728980Y260199D01*
Y257200D01*
X689992Y274198D02*
X690992Y275198D01*
X692991D01*
X693991Y274198D01*
Y270200D01*
X692991Y269200D01*
X690992D01*
X689992Y270200D01*
Y274198D01*
X695991Y269200D02*
Y270200D01*
X696990D01*
Y269200D01*
X695991D01*
X704988D02*
X700989D01*
X704988Y273199D01*
Y274198D01*
X703988Y275198D01*
X701989D01*
X700989Y274198D01*
X710986Y275198D02*
X706987D01*
Y272199D01*
X708986Y273199D01*
X709986D01*
X710986Y272199D01*
Y270200D01*
X709986Y269200D01*
X707987D01*
X706987Y270200D01*
X715984Y269200D02*
Y275198D01*
X712985Y272199D01*
X716984D01*
X718983Y269200D02*
Y273199D01*
X719983D01*
X720982Y272199D01*
Y269200D01*
Y272199D01*
X721982Y273199D01*
X722982Y272199D01*
Y269200D01*
X724981D02*
Y273199D01*
X725981D01*
X726980Y272199D01*
Y269200D01*
Y272199D01*
X727980Y273199D01*
X728980Y272199D01*
Y269200D01*
X689992Y286198D02*
X690992Y287198D01*
X692991D01*
X693991Y286198D01*
Y282200D01*
X692991Y281200D01*
X690992D01*
X689992Y282200D01*
Y286198D01*
X695991Y281200D02*
Y282200D01*
X696990D01*
Y281200D01*
X695991D01*
X700989Y286198D02*
X701989Y287198D01*
X703988D01*
X704988Y286198D01*
Y282200D01*
X703988Y281200D01*
X701989D01*
X700989Y282200D01*
Y286198D01*
X706987Y287198D02*
X710986D01*
Y286198D01*
X706987Y282200D01*
Y281200D01*
X716984Y287198D02*
X714984Y286198D01*
X712985Y284199D01*
Y282200D01*
X713985Y281200D01*
X715984D01*
X716984Y282200D01*
Y283199D01*
X715984Y284199D01*
X712985D01*
X718983Y281200D02*
Y285199D01*
X719983D01*
X720982Y284199D01*
Y281200D01*
Y284199D01*
X721982Y285199D01*
X722982Y284199D01*
Y281200D01*
X724981D02*
Y285199D01*
X725981D01*
X726980Y284199D01*
Y281200D01*
Y284199D01*
X727980Y285199D01*
X728980Y284199D01*
Y281200D01*
X758975Y310198D02*
X757975Y311198D01*
X755976D01*
X754976Y310198D01*
Y306200D01*
X755976Y305200D01*
X757975D01*
X758975Y306200D01*
X761974Y305200D02*
X763973D01*
X764973Y306200D01*
Y308199D01*
X763973Y309199D01*
X761974D01*
X760974Y308199D01*
Y306200D01*
X761974Y305200D01*
X766972D02*
Y309199D01*
X769971D01*
X770971Y308199D01*
Y305200D01*
X772970D02*
X775969D01*
X776969Y306200D01*
X775969Y307199D01*
X773970D01*
X772970Y308199D01*
X773970Y309199D01*
X776969D01*
X779968Y310198D02*
Y309199D01*
X778968D01*
X780968D01*
X779968D01*
Y306200D01*
X780968Y305200D01*
X784966Y309199D02*
X786966D01*
X787965Y308199D01*
Y305200D01*
X784966D01*
X783967Y306200D01*
X784966Y307199D01*
X787965D01*
X789965Y305200D02*
Y309199D01*
X792964D01*
X793963Y308199D01*
Y305200D01*
X796962Y310198D02*
Y309199D01*
X795963D01*
X797962D01*
X796962D01*
Y306200D01*
X797962Y305200D01*
X754976Y238198D02*
X755976Y239198D01*
X757975D01*
X758975Y238198D01*
Y237199D01*
X757975Y236199D01*
X756975D01*
X757975D01*
X758975Y235199D01*
Y234200D01*
X757975Y233200D01*
X755976D01*
X754976Y234200D01*
X760974Y233200D02*
Y234200D01*
X761974D01*
Y233200D01*
X760974D01*
X769971Y239198D02*
X765972D01*
Y236199D01*
X767972Y237199D01*
X768971D01*
X769971Y236199D01*
Y234200D01*
X768971Y233200D01*
X766972D01*
X765972Y234200D01*
X757975Y257200D02*
Y263198D01*
X754976Y260199D01*
X758975D01*
X760974Y257200D02*
Y258200D01*
X761974D01*
Y257200D01*
X760974D01*
X769971Y263198D02*
X767972Y262198D01*
X765972Y260199D01*
Y258200D01*
X766972Y257200D01*
X768971D01*
X769971Y258200D01*
Y259199D01*
X768971Y260199D01*
X765972D01*
X754976Y286198D02*
X755976Y287198D01*
X757975D01*
X758975Y286198D01*
Y285199D01*
X757975Y284199D01*
X756975D01*
X757975D01*
X758975Y283199D01*
Y282200D01*
X757975Y281200D01*
X755976D01*
X754976Y282200D01*
X760974Y281200D02*
Y282200D01*
X761974D01*
Y281200D01*
X760974D01*
X769971Y287198D02*
X765972D01*
Y284199D01*
X767972Y285199D01*
X768971D01*
X769971Y284199D01*
Y282200D01*
X768971Y281200D01*
X766972D01*
X765972Y282200D01*
X811962Y311198D02*
Y305200D01*
X814961D01*
X815961Y306200D01*
Y307199D01*
X814961Y308199D01*
X811962D01*
X814961D01*
X815961Y309199D01*
Y310198D01*
X814961Y311198D01*
X811962D01*
X818960Y305200D02*
X820959D01*
X821959Y306200D01*
Y308199D01*
X820959Y309199D01*
X818960D01*
X817960Y308199D01*
Y306200D01*
X818960Y305200D01*
X824958Y309199D02*
X826957D01*
X827957Y308199D01*
Y305200D01*
X824958D01*
X823958Y306200D01*
X824958Y307199D01*
X827957D01*
X829956Y309199D02*
Y305200D01*
Y307199D01*
X830956Y308199D01*
X831956Y309199D01*
X832955D01*
X839953Y311198D02*
Y305200D01*
X836954D01*
X835954Y306200D01*
Y308199D01*
X836954Y309199D01*
X839953D01*
X847950Y311198D02*
Y305200D01*
X851949D01*
X854948Y309199D02*
X856948D01*
X857947Y308199D01*
Y305200D01*
X854948D01*
X853948Y306200D01*
X854948Y307199D01*
X857947D01*
X859947Y309199D02*
Y306200D01*
X860946Y305200D01*
X863945D01*
Y304200D01*
X862945Y303201D01*
X861946D01*
X863945Y305200D02*
Y309199D01*
X868944Y305200D02*
X866944D01*
X865945Y306200D01*
Y308199D01*
X866944Y309199D01*
X868944D01*
X869943Y308199D01*
Y307199D01*
X865945D01*
X871943Y309199D02*
Y305200D01*
Y307199D01*
X872942Y308199D01*
X873942Y309199D01*
X874942D01*
X887938Y310198D02*
X886938Y311198D01*
X884938D01*
X883939Y310198D01*
Y309199D01*
X884938Y308199D01*
X886938D01*
X887938Y307199D01*
Y306200D01*
X886938Y305200D01*
X884938D01*
X883939Y306200D01*
X890936Y310198D02*
Y309199D01*
X889937D01*
X891936D01*
X890936D01*
Y306200D01*
X891936Y305200D01*
X895935Y309199D02*
X897934D01*
X898934Y308199D01*
Y305200D01*
X895935D01*
X894935Y306200D01*
X895935Y307199D01*
X898934D01*
X904932Y309199D02*
X901933D01*
X900933Y308199D01*
Y306200D01*
X901933Y305200D01*
X904932D01*
X906931D02*
Y311198D01*
Y307199D02*
X909930Y309199D01*
X906931Y307199D02*
X909930Y305200D01*
X470050Y215198D02*
X474049D01*
X472049D01*
Y209200D01*
X477048D02*
X479047D01*
X480047Y210200D01*
Y212199D01*
X479047Y213199D01*
X477048D01*
X476048Y212199D01*
Y210200D01*
X477048Y209200D01*
X483046Y214198D02*
Y213199D01*
X482046D01*
X484046D01*
X483046D01*
Y210200D01*
X484046Y209200D01*
X488044Y213199D02*
X490043D01*
X491043Y212199D01*
Y209200D01*
X488044D01*
X487044Y210200D01*
X488044Y211199D01*
X491043D01*
X493043Y209200D02*
X495042D01*
X494042D01*
Y215198D01*
X493043D01*
X504039D02*
Y209200D01*
X507038D01*
X508038Y210200D01*
Y211199D01*
Y212199D01*
X507038Y213199D01*
X504039D01*
X511037Y209200D02*
X513036D01*
X514036Y210200D01*
Y212199D01*
X513036Y213199D01*
X511037D01*
X510037Y212199D01*
Y210200D01*
X511037Y209200D01*
X517035Y213199D02*
X519034D01*
X520034Y212199D01*
Y209200D01*
X517035D01*
X516035Y210200D01*
X517035Y211199D01*
X520034D01*
X522033Y213199D02*
Y209200D01*
Y211199D01*
X523033Y212199D01*
X524032Y213199D01*
X525032D01*
X532030Y215198D02*
Y209200D01*
X529031D01*
X528031Y210200D01*
Y212199D01*
X529031Y213199D01*
X532030D01*
X541027Y214198D02*
Y213199D01*
X540027D01*
X542027D01*
X541027D01*
Y210200D01*
X542027Y209200D01*
X545026Y215198D02*
Y209200D01*
Y212199D01*
X546025Y213199D01*
X548025D01*
X549024Y212199D01*
Y209200D01*
X551024D02*
X553023D01*
X552024D01*
Y213199D01*
X551024D01*
X560021D02*
X557022D01*
X556022Y212199D01*
Y210200D01*
X557022Y209200D01*
X560021D01*
X562020D02*
Y215198D01*
Y211199D02*
X565019Y213199D01*
X562020Y211199D02*
X565019Y209200D01*
X568018D02*
Y213199D01*
X571017D01*
X572017Y212199D01*
Y209200D01*
X577015D02*
X575016D01*
X574016Y210200D01*
Y212199D01*
X575016Y213199D01*
X577015D01*
X578015Y212199D01*
Y211199D01*
X574016D01*
X580014Y209200D02*
X583013D01*
X584013Y210200D01*
X583013Y211199D01*
X581014D01*
X580014Y212199D01*
X581014Y213199D01*
X584013D01*
X586013Y209200D02*
X589011D01*
X590011Y210200D01*
X589011Y211199D01*
X587012D01*
X586013Y212199D01*
X587012Y213199D01*
X590011D01*
X592010D02*
X593010D01*
Y212199D01*
X592010D01*
Y213199D01*
Y210200D02*
X593010D01*
Y209200D01*
X592010D01*
Y210200D01*
X689992Y209200D02*
X691992D01*
X690992D01*
Y215198D01*
X689992Y214198D01*
X694991Y209200D02*
Y210200D01*
X695991D01*
Y209200D01*
X694991D01*
X703988Y215198D02*
X701989Y214198D01*
X699989Y212199D01*
Y210200D01*
X700989Y209200D01*
X702988D01*
X703988Y210200D01*
Y211199D01*
X702988Y212199D01*
X699989D01*
X705987Y214198D02*
X706987Y215198D01*
X708986D01*
X709986Y214198D01*
Y210200D01*
X708986Y209200D01*
X706987D01*
X705987Y210200D01*
Y214198D01*
X711985D02*
X712985Y215198D01*
X714984D01*
X715984Y214198D01*
Y210200D01*
X714984Y209200D01*
X712985D01*
X711985Y210200D01*
Y214198D01*
X717983Y209200D02*
Y213199D01*
X718983D01*
X719983Y212199D01*
Y209200D01*
Y212199D01*
X720982Y213199D01*
X721982Y212199D01*
Y209200D01*
X723981D02*
Y213199D01*
X724981D01*
X725981Y212199D01*
Y209200D01*
Y212199D01*
X726980Y213199D01*
X727980Y212199D01*
Y209200D01*
D136*
X463050Y302200D02*
X916930D01*
X463050Y314200D02*
X916930D01*
X463050Y218200D02*
Y314200D01*
Y218200D02*
X504041D01*
X463050Y230200D02*
X504041D01*
X463050Y242200D02*
X504041D01*
X463050Y254200D02*
X504041D01*
X463050Y266200D02*
X504041D01*
X463050Y278200D02*
X504041D01*
X463050Y290200D02*
X504041D01*
Y218200D02*
Y314200D01*
Y218200D02*
X597016D01*
X504041Y230200D02*
X597016D01*
X504041Y242200D02*
X597016D01*
X504041Y254200D02*
X597016D01*
X504041Y266200D02*
X597016D01*
X504041Y278200D02*
X597016D01*
X504041Y290200D02*
X597016D01*
Y218200D02*
Y314200D01*
Y218200D02*
X682992D01*
X597016Y230200D02*
X682992D01*
X597016Y242200D02*
X682992D01*
X597016Y254200D02*
X682992D01*
X597016Y266200D02*
X682992D01*
X597016Y278200D02*
X682992D01*
X597016Y290200D02*
X682992D01*
Y218200D02*
Y314200D01*
Y218200D02*
X747976D01*
X682992Y230200D02*
X747976D01*
X682992Y242200D02*
X747976D01*
X682992Y254200D02*
X747976D01*
X682992Y266200D02*
X747976D01*
X682992Y278200D02*
X747976D01*
X682992Y290200D02*
X747976D01*
Y218200D02*
Y314200D01*
Y218200D02*
X804962D01*
X747976Y230200D02*
X804962D01*
X747976Y242200D02*
X804962D01*
X747976Y254200D02*
X804962D01*
X747976Y266200D02*
X804962D01*
X747976Y278200D02*
X804962D01*
X747976Y290200D02*
X804962D01*
Y218200D02*
Y314200D01*
Y218200D02*
X916930D01*
X804962Y230200D02*
X916930D01*
X804962Y242200D02*
X916930D01*
X804962Y254200D02*
X916930D01*
X804962Y266200D02*
X916930D01*
X804962Y278200D02*
X916930D01*
X804962Y290200D02*
X916930D01*
Y218200D02*
Y314200D01*
D175*
X910930Y218200D02*
X916930Y224200D01*
X904930Y218200D02*
X916930Y230200D01*
X898930Y218200D02*
X910930Y230200D01*
X892930Y218200D02*
X904930Y230200D01*
X886930Y218200D02*
X898930Y230200D01*
X880930Y218200D02*
X892930Y230200D01*
X874930Y218200D02*
X886930Y230200D01*
X868930Y218200D02*
X880930Y230200D01*
X862930Y218200D02*
X874930Y230200D01*
X856930Y218200D02*
X868930Y230200D01*
X850930Y218200D02*
X862930Y230200D01*
X844930Y218200D02*
X856930Y230200D01*
X838930Y218200D02*
X850930Y230200D01*
X832930Y218200D02*
X844930Y230200D01*
X826930Y218200D02*
X838930Y230200D01*
X820930Y218200D02*
X832930Y230200D01*
X814930Y218200D02*
X826930Y230200D01*
X808930Y218200D02*
X820930Y230200D01*
X804962Y220232D02*
X814930Y230200D01*
X804962Y226232D02*
X808930Y230200D01*
X910930D02*
X916930Y236200D01*
X904930Y230200D02*
X916930Y242200D01*
X898930Y230200D02*
X910930Y242200D01*
X892930Y230200D02*
X904930Y242200D01*
X886930Y230200D02*
X898930Y242200D01*
X880930Y230200D02*
X892930Y242200D01*
X874930Y230200D02*
X886930Y242200D01*
X868930Y230200D02*
X880930Y242200D01*
X862930Y230200D02*
X874930Y242200D01*
X856930Y230200D02*
X868930Y242200D01*
X850930Y230200D02*
X862930Y242200D01*
X844930Y230200D02*
X856930Y242200D01*
X838930Y230200D02*
X850930Y242200D01*
X832930Y230200D02*
X844930Y242200D01*
X826930Y230200D02*
X838930Y242200D01*
X820930Y230200D02*
X832930Y242200D01*
X814930Y230200D02*
X826930Y242200D01*
X808930Y230200D02*
X820930Y242200D01*
X804962Y232232D02*
X814930Y242200D01*
X804962Y238232D02*
X808930Y242200D01*
X910930D02*
X916930Y248200D01*
X904930Y242200D02*
X916930Y254200D01*
X898930Y242200D02*
X910930Y254200D01*
X892930Y242200D02*
X904930Y254200D01*
X886930Y242200D02*
X898930Y254200D01*
X880930Y242200D02*
X892930Y254200D01*
X874930Y242200D02*
X886930Y254200D01*
X868930Y242200D02*
X880930Y254200D01*
X862930Y242200D02*
X874930Y254200D01*
X856930Y242200D02*
X868930Y254200D01*
X850930Y242200D02*
X862930Y254200D01*
X844930Y242200D02*
X856930Y254200D01*
X838930Y242200D02*
X850930Y254200D01*
X832930Y242200D02*
X844930Y254200D01*
X826930Y242200D02*
X838930Y254200D01*
X820930Y242200D02*
X832930Y254200D01*
X814930Y242200D02*
X826930Y254200D01*
X808930Y242200D02*
X820930Y254200D01*
X804962Y244232D02*
X814930Y254200D01*
X804962Y250232D02*
X808930Y254200D01*
X910930D02*
X916930Y260200D01*
X904930Y254200D02*
X916930Y266200D01*
X898930Y254200D02*
X910930Y266200D01*
X892930Y254200D02*
X904930Y266200D01*
X886930Y254200D02*
X898930Y266200D01*
X880930Y254200D02*
X892930Y266200D01*
X874930Y254200D02*
X886930Y266200D01*
X868930Y254200D02*
X880930Y266200D01*
X862930Y254200D02*
X874930Y266200D01*
X856930Y254200D02*
X868930Y266200D01*
X850930Y254200D02*
X862930Y266200D01*
X844930Y254200D02*
X856930Y266200D01*
X838930Y254200D02*
X850930Y266200D01*
X832930Y254200D02*
X844930Y266200D01*
X826930Y254200D02*
X838930Y266200D01*
X820930Y254200D02*
X832930Y266200D01*
X814930Y254200D02*
X826930Y266200D01*
X808930Y254200D02*
X820930Y266200D01*
X804962Y256232D02*
X814930Y266200D01*
X804962Y262232D02*
X808930Y266200D01*
X910930D02*
X916930Y272200D01*
X904930Y266200D02*
X916930Y278200D01*
X898930Y266200D02*
X910930Y278200D01*
X892930Y266200D02*
X904930Y278200D01*
X886930Y266200D02*
X898930Y278200D01*
X880930Y266200D02*
X892930Y278200D01*
X874930Y266200D02*
X886930Y278200D01*
X868930Y266200D02*
X880930Y278200D01*
X862930Y266200D02*
X874930Y278200D01*
X856930Y266200D02*
X868930Y278200D01*
X850930Y266200D02*
X862930Y278200D01*
X844930Y266200D02*
X856930Y278200D01*
X838930Y266200D02*
X850930Y278200D01*
X832930Y266200D02*
X844930Y278200D01*
X826930Y266200D02*
X838930Y278200D01*
X820930Y266200D02*
X832930Y278200D01*
X814930Y266200D02*
X826930Y278200D01*
X808930Y266200D02*
X820930Y278200D01*
X804962Y268232D02*
X814930Y278200D01*
X804962Y274232D02*
X808930Y278200D01*
X910930D02*
X916930Y284200D01*
X904930Y278200D02*
X916930Y290200D01*
X898930Y278200D02*
X910930Y290200D01*
X892930Y278200D02*
X904930Y290200D01*
X886930Y278200D02*
X898930Y290200D01*
X880930Y278200D02*
X892930Y290200D01*
X874930Y278200D02*
X886930Y290200D01*
X868930Y278200D02*
X880930Y290200D01*
X862930Y278200D02*
X874930Y290200D01*
X856930Y278200D02*
X868930Y290200D01*
X850930Y278200D02*
X862930Y290200D01*
X844930Y278200D02*
X856930Y290200D01*
X838930Y278200D02*
X850930Y290200D01*
X832930Y278200D02*
X844930Y290200D01*
X826930Y278200D02*
X838930Y290200D01*
X820930Y278200D02*
X832930Y290200D01*
X814930Y278200D02*
X826930Y290200D01*
X808930Y278200D02*
X820930Y290200D01*
X804962Y280232D02*
X814930Y290200D01*
X804962Y286232D02*
X808930Y290200D01*
X910930D02*
X916930Y296200D01*
X904930Y290200D02*
X916930Y302200D01*
X898930Y290200D02*
X910930Y302200D01*
X892930Y290200D02*
X904930Y302200D01*
X886930Y290200D02*
X898930Y302200D01*
X880930Y290200D02*
X892930Y302200D01*
X874930Y290200D02*
X886930Y302200D01*
X868930Y290200D02*
X880930Y302200D01*
X862930Y290200D02*
X874930Y302200D01*
X856930Y290200D02*
X868930Y302200D01*
X850930Y290200D02*
X862930Y302200D01*
X844930Y290200D02*
X856930Y302200D01*
X838930Y290200D02*
X850930Y302200D01*
X832930Y290200D02*
X844930Y302200D01*
X826930Y290200D02*
X838930Y302200D01*
X820930Y290200D02*
X832930Y302200D01*
X814930Y290200D02*
X826930Y302200D01*
X808930Y290200D02*
X820930Y302200D01*
X804962Y292232D02*
X814930Y302200D01*
X804962Y298232D02*
X808930Y302200D01*
M02*
