G04*
G04 #@! TF.GenerationSoftware,Altium Limited,Altium Designer,23.6.0 (18)*
G04*
G04 Layer_Color=8388736*
%FSLAX25Y25*%
%MOIN*%
G70*
G04*
G04 #@! TF.SameCoordinates,B1711246-A666-457E-9349-3D56B44E1F9A*
G04*
G04*
G04 #@! TF.FilePolarity,Negative*
G04*
G01*
G75*
%ADD76R,0.01063X0.01378*%
%ADD77R,0.04973X0.07965*%
%ADD78R,0.05315X0.01575*%
%ADD79R,0.10236X0.08268*%
%ADD80O,0.07487X0.03550*%
%ADD81R,0.03162X0.02926*%
%ADD82R,0.01417X0.03780*%
%ADD83R,0.03780X0.01417*%
%ADD84R,0.11430X0.11430*%
G04:AMPARAMS|DCode=85|XSize=25.72mil|YSize=21.78mil|CornerRadius=6.07mil|HoleSize=0mil|Usage=FLASHONLY|Rotation=0.000|XOffset=0mil|YOffset=0mil|HoleType=Round|Shape=RoundedRectangle|*
%AMROUNDEDRECTD85*
21,1,0.02572,0.00965,0,0,0.0*
21,1,0.01358,0.02178,0,0,0.0*
1,1,0.01213,0.00679,-0.00482*
1,1,0.01213,-0.00679,-0.00482*
1,1,0.01213,-0.00679,0.00482*
1,1,0.01213,0.00679,0.00482*
%
%ADD85ROUNDEDRECTD85*%
G04:AMPARAMS|DCode=86|XSize=25.72mil|YSize=21.78mil|CornerRadius=6.07mil|HoleSize=0mil|Usage=FLASHONLY|Rotation=90.000|XOffset=0mil|YOffset=0mil|HoleType=Round|Shape=RoundedRectangle|*
%AMROUNDEDRECTD86*
21,1,0.02572,0.00965,0,0,90.0*
21,1,0.01358,0.02178,0,0,90.0*
1,1,0.01213,0.00482,0.00679*
1,1,0.01213,0.00482,-0.00679*
1,1,0.01213,-0.00482,-0.00679*
1,1,0.01213,-0.00482,0.00679*
%
%ADD86ROUNDEDRECTD86*%
%ADD87R,0.02233X0.02933*%
%ADD88R,0.07099X0.14580*%
%ADD89R,0.04300X0.03800*%
%ADD90R,0.14580X0.10052*%
%ADD91R,0.03800X0.04300*%
%ADD92R,0.04028X0.04422*%
%ADD93R,0.06312X0.07965*%
%ADD94R,0.03972X0.03472*%
%ADD95R,0.08268X0.03543*%
%ADD96R,0.03543X0.03543*%
%ADD97R,0.03543X0.03543*%
%ADD98R,0.07493X0.10642*%
%ADD99R,0.02272X0.02972*%
%ADD100R,0.06706X0.03359*%
%ADD101R,0.01890X0.01496*%
%ADD102R,0.02933X0.02233*%
%ADD103R,0.03472X0.03972*%
%ADD104R,0.01981X0.05524*%
%ADD105R,0.03162X0.05524*%
%ADD106R,0.15367X0.15367*%
%ADD107R,0.06706X0.04343*%
%ADD108R,0.04343X0.06706*%
%ADD109R,0.04028X0.07572*%
%ADD110R,0.03398X0.02965*%
%ADD111R,0.06706X0.07099*%
%ADD112R,0.07099X0.03556*%
%ADD113R,0.06706X0.05524*%
%ADD114R,0.09461X0.05524*%
G04:AMPARAMS|DCode=115|XSize=55.24mil|YSize=31.62mil|CornerRadius=6.95mil|HoleSize=0mil|Usage=FLASHONLY|Rotation=270.000|XOffset=0mil|YOffset=0mil|HoleType=Round|Shape=RoundedRectangle|*
%AMROUNDEDRECTD115*
21,1,0.05524,0.01772,0,0,270.0*
21,1,0.04134,0.03162,0,0,270.0*
1,1,0.01391,-0.00886,-0.02067*
1,1,0.01391,-0.00886,0.02067*
1,1,0.01391,0.00886,0.02067*
1,1,0.01391,0.00886,-0.02067*
%
%ADD115ROUNDEDRECTD115*%
%ADD116R,0.08280X0.11036*%
%ADD117R,0.02972X0.02272*%
%ADD118R,0.10249X0.11824*%
%ADD119R,0.02769X0.04737*%
%ADD120R,0.09461X0.07887*%
%ADD121R,0.05918X0.01981*%
%ADD122C,0.06706*%
%ADD123R,0.06706X0.06706*%
%ADD124O,0.04343X0.07493*%
%ADD125O,0.04343X0.08674*%
%ADD126C,0.00800*%
%ADD127C,0.08674*%
%ADD128C,0.07099*%
%ADD129R,0.08674X0.08674*%
%ADD130R,0.06299X0.12205*%
%ADD131R,0.12205X0.06299*%
%ADD132C,0.00394*%
%ADD133C,0.11824*%
%ADD134R,0.00800X0.00800*%
%ADD135C,0.03162*%
D76*
X28777Y30687D02*
D03*
X30352D02*
D03*
D77*
X18416Y26200D02*
D03*
X6384D02*
D03*
D78*
X243228Y102787D02*
D03*
Y104755D02*
D03*
Y106725D02*
D03*
Y108693D02*
D03*
Y110661D02*
D03*
Y112629D02*
D03*
D79*
X253366Y96134D02*
D03*
Y119283D02*
D03*
D80*
X259800Y213882D02*
D03*
Y218212D02*
D03*
Y222543D02*
D03*
Y226874D02*
D03*
Y231204D02*
D03*
Y235535D02*
D03*
Y239866D02*
D03*
Y244197D02*
D03*
Y248527D02*
D03*
X297685D02*
D03*
Y244197D02*
D03*
Y239866D02*
D03*
Y235535D02*
D03*
Y231204D02*
D03*
Y226874D02*
D03*
Y222543D02*
D03*
Y218212D02*
D03*
Y213882D02*
D03*
D81*
X249200Y240295D02*
D03*
Y243696D02*
D03*
D82*
X73774Y226654D02*
D03*
X72199D02*
D03*
X70624D02*
D03*
X69050D02*
D03*
X62750D02*
D03*
X67475D02*
D03*
X65900D02*
D03*
X64325D02*
D03*
X62750Y210906D02*
D03*
X64325D02*
D03*
X65900D02*
D03*
X67475D02*
D03*
X69050D02*
D03*
X70624D02*
D03*
X72199D02*
D03*
X73774D02*
D03*
D83*
X60388Y213268D02*
D03*
Y214843D02*
D03*
Y216418D02*
D03*
Y217993D02*
D03*
Y224292D02*
D03*
Y222717D02*
D03*
Y221143D02*
D03*
Y219568D02*
D03*
X76136Y213268D02*
D03*
Y214843D02*
D03*
Y216418D02*
D03*
Y217993D02*
D03*
Y224292D02*
D03*
Y222717D02*
D03*
Y221143D02*
D03*
Y219568D02*
D03*
D84*
X68262Y218780D02*
D03*
D85*
X159162Y130786D02*
D03*
Y128818D02*
D03*
Y132755D02*
D03*
Y126849D02*
D03*
X165186Y132755D02*
D03*
Y130786D02*
D03*
Y128818D02*
D03*
Y126849D02*
D03*
D86*
X161190Y132814D02*
D03*
X163158D02*
D03*
Y126790D02*
D03*
X161131D02*
D03*
D87*
X81700Y197732D02*
D03*
X85400D02*
D03*
X73500Y16385D02*
D03*
X69800D02*
D03*
X278930Y20100D02*
D03*
X282630D02*
D03*
X85400Y205632D02*
D03*
X81700D02*
D03*
X327353Y195000D02*
D03*
X331053D02*
D03*
X3594D02*
D03*
X7294D02*
D03*
D88*
X35100Y243190D02*
D03*
Y221143D02*
D03*
X14700Y50976D02*
D03*
Y73024D02*
D03*
X111800Y113924D02*
D03*
Y91876D02*
D03*
X102600Y243190D02*
D03*
Y221143D02*
D03*
X63100Y117144D02*
D03*
Y95097D02*
D03*
D89*
X164300Y180900D02*
D03*
Y186900D02*
D03*
X158900Y180900D02*
D03*
Y186900D02*
D03*
X152600Y160469D02*
D03*
Y154469D02*
D03*
X169750Y186900D02*
D03*
Y180900D02*
D03*
X62750Y195032D02*
D03*
Y201032D02*
D03*
X70240Y136521D02*
D03*
Y130520D02*
D03*
D90*
X90900Y78900D02*
D03*
Y55081D02*
D03*
D91*
X257900Y37507D02*
D03*
X251900D02*
D03*
X257900Y27079D02*
D03*
X251900D02*
D03*
X257900Y43417D02*
D03*
X251900D02*
D03*
X257900Y65465D02*
D03*
X251900D02*
D03*
X257900Y59556D02*
D03*
X251900D02*
D03*
X159800Y154886D02*
D03*
X165800D02*
D03*
X234600Y14220D02*
D03*
X228600D02*
D03*
X100361D02*
D03*
X106361D02*
D03*
X155961Y82320D02*
D03*
X149961D02*
D03*
X138961D02*
D03*
X144961D02*
D03*
X145104Y221388D02*
D03*
X151104D02*
D03*
X183212Y221369D02*
D03*
X189212D02*
D03*
X64900Y130520D02*
D03*
X58900D02*
D03*
Y136021D02*
D03*
X64900D02*
D03*
X147070Y130786D02*
D03*
X153070D02*
D03*
D92*
X166540Y160469D02*
D03*
X159060D02*
D03*
X162800Y168343D02*
D03*
D93*
X7046Y36800D02*
D03*
X17754D02*
D03*
D94*
X312900Y235535D02*
D03*
Y229535D02*
D03*
X307100Y235535D02*
D03*
Y229535D02*
D03*
X217100Y10321D02*
D03*
Y4321D02*
D03*
X211700Y10321D02*
D03*
Y4321D02*
D03*
X85400Y227143D02*
D03*
Y221143D02*
D03*
Y216418D02*
D03*
Y210418D02*
D03*
X46300Y218000D02*
D03*
Y212000D02*
D03*
X51200Y218000D02*
D03*
Y224000D02*
D03*
X61300Y162718D02*
D03*
Y168718D02*
D03*
X55250Y162718D02*
D03*
Y168718D02*
D03*
D95*
X235882Y253644D02*
D03*
Y243408D02*
D03*
D96*
X230764Y248526D02*
D03*
D97*
X241000Y248527D02*
D03*
D98*
X68600Y75274D02*
D03*
Y59526D02*
D03*
X90900Y107948D02*
D03*
Y92200D02*
D03*
D99*
X52250Y52200D02*
D03*
X48550D02*
D03*
X60625Y233036D02*
D03*
X64325D02*
D03*
X75899D02*
D03*
X72199D02*
D03*
X88236Y155883D02*
D03*
X84536D02*
D03*
X88236Y151158D02*
D03*
X84536D02*
D03*
D100*
X54330Y57766D02*
D03*
Y62766D02*
D03*
Y67766D02*
D03*
Y72766D02*
D03*
X33070D02*
D03*
Y67766D02*
D03*
Y62766D02*
D03*
Y57766D02*
D03*
D101*
X41080Y31800D02*
D03*
Y33965D02*
D03*
X54269Y31800D02*
D03*
Y33965D02*
D03*
D102*
X45472Y31850D02*
D03*
Y35550D02*
D03*
X50000Y31850D02*
D03*
Y35550D02*
D03*
D103*
X69800Y21106D02*
D03*
X75800D02*
D03*
X283780Y15100D02*
D03*
X277780D02*
D03*
X251900Y49031D02*
D03*
X245900D02*
D03*
X251900Y54131D02*
D03*
X245900D02*
D03*
X145104Y226688D02*
D03*
X151104D02*
D03*
X183212Y226669D02*
D03*
X189212D02*
D03*
X51900Y201732D02*
D03*
X57900D02*
D03*
X51900Y206732D02*
D03*
X57900D02*
D03*
X81600Y136000D02*
D03*
X75600D02*
D03*
X165186Y143600D02*
D03*
X171186D02*
D03*
X165186Y138586D02*
D03*
X171186D02*
D03*
D104*
X40490Y23350D02*
D03*
X42458D02*
D03*
X44427D02*
D03*
X46395D02*
D03*
X54269D02*
D03*
X52301D02*
D03*
X50332D02*
D03*
X48364D02*
D03*
D105*
X34781D02*
D03*
X59978D02*
D03*
X37931D02*
D03*
X56828D02*
D03*
D106*
X173386Y35320D02*
D03*
D107*
X133032Y70320D02*
D03*
X201929Y5320D02*
D03*
Y10321D02*
D03*
Y15321D02*
D03*
Y20321D02*
D03*
Y25321D02*
D03*
Y30321D02*
D03*
Y35320D02*
D03*
Y40321D02*
D03*
Y45320D02*
D03*
Y50321D02*
D03*
Y55321D02*
D03*
Y60321D02*
D03*
Y65320D02*
D03*
Y70320D02*
D03*
X133032Y65320D02*
D03*
Y60321D02*
D03*
Y55321D02*
D03*
Y50321D02*
D03*
Y45320D02*
D03*
Y40321D02*
D03*
Y35320D02*
D03*
Y30321D02*
D03*
Y25321D02*
D03*
Y20321D02*
D03*
Y15321D02*
D03*
Y10321D02*
D03*
Y5320D02*
D03*
D108*
X194961Y75242D02*
D03*
X189961D02*
D03*
X184961D02*
D03*
X179961D02*
D03*
X174961D02*
D03*
X169961D02*
D03*
X164961D02*
D03*
X159961D02*
D03*
X154961D02*
D03*
X149961D02*
D03*
X144961D02*
D03*
X139961D02*
D03*
D109*
X224907Y5821D02*
D03*
X238293D02*
D03*
X110054D02*
D03*
X96668D02*
D03*
D110*
X265528Y34161D02*
D03*
Y37507D02*
D03*
Y46764D02*
D03*
Y43417D02*
D03*
Y30425D02*
D03*
Y27079D02*
D03*
Y56209D02*
D03*
Y59556D02*
D03*
Y68811D02*
D03*
Y65465D02*
D03*
D111*
X278930Y83181D02*
D03*
D112*
X274993Y34756D02*
D03*
Y39087D02*
D03*
Y43417D02*
D03*
Y47748D02*
D03*
Y52079D02*
D03*
Y56410D02*
D03*
Y60740D02*
D03*
Y65071D02*
D03*
Y30425D02*
D03*
D113*
X278930Y25701D02*
D03*
D114*
X316725Y86724D02*
D03*
Y25701D02*
D03*
D115*
X73980Y142891D02*
D03*
X70240D02*
D03*
X66500D02*
D03*
Y153521D02*
D03*
X70240D02*
D03*
X73980D02*
D03*
D116*
X72095Y169921D02*
D03*
X88236D02*
D03*
D117*
X61300Y150850D02*
D03*
Y147150D02*
D03*
D118*
X102500Y173993D02*
D03*
Y155883D02*
D03*
D119*
X325147Y201200D02*
D03*
X331053D02*
D03*
X9500D02*
D03*
X3594D02*
D03*
D120*
X191598Y185666D02*
D03*
Y93934D02*
D03*
D121*
X178802Y178186D02*
D03*
Y176217D02*
D03*
Y174249D02*
D03*
Y172280D02*
D03*
Y170312D02*
D03*
Y168343D02*
D03*
Y166375D02*
D03*
Y164406D02*
D03*
Y162438D02*
D03*
Y160469D02*
D03*
Y158501D02*
D03*
Y156532D02*
D03*
Y154564D02*
D03*
Y152595D02*
D03*
Y150627D02*
D03*
Y148658D02*
D03*
Y146690D02*
D03*
Y144721D02*
D03*
Y142753D02*
D03*
Y140784D02*
D03*
Y138816D02*
D03*
Y136847D02*
D03*
Y134879D02*
D03*
Y132910D02*
D03*
Y130942D02*
D03*
Y128973D02*
D03*
Y127005D02*
D03*
Y125036D02*
D03*
Y123068D02*
D03*
Y121099D02*
D03*
Y119131D02*
D03*
Y117162D02*
D03*
Y115194D02*
D03*
Y113225D02*
D03*
Y111257D02*
D03*
Y109288D02*
D03*
Y107320D02*
D03*
Y105351D02*
D03*
Y103383D02*
D03*
Y101414D02*
D03*
D122*
X228600Y75300D02*
D03*
Y65300D02*
D03*
Y55300D02*
D03*
Y45300D02*
D03*
Y35300D02*
D03*
X215900Y75300D02*
D03*
Y65300D02*
D03*
Y55300D02*
D03*
Y45300D02*
D03*
Y35300D02*
D03*
X120700Y45821D02*
D03*
Y35820D02*
D03*
Y25820D02*
D03*
Y15821D02*
D03*
Y5821D02*
D03*
D123*
X228600Y25300D02*
D03*
X215900D02*
D03*
X120700Y55821D02*
D03*
D124*
X30352Y4650D02*
D03*
X64407D02*
D03*
D125*
X30352Y21106D02*
D03*
X64407D02*
D03*
D126*
X58758Y19138D02*
D03*
X36002D02*
D03*
X318300Y68221D02*
D03*
Y36724D02*
D03*
D127*
X134324Y236749D02*
D03*
X161883D02*
D03*
X172432Y236729D02*
D03*
X199991D02*
D03*
X73262Y249932D02*
D03*
D128*
X156962Y246788D02*
D03*
X139245D02*
D03*
X195070Y246769D02*
D03*
X177353D02*
D03*
D129*
X63262Y249932D02*
D03*
D130*
X31648Y108121D02*
D03*
D131*
X40703Y121113D02*
D03*
Y95128D02*
D03*
D132*
X15900Y108121D02*
D03*
D133*
X43110Y177718D02*
D03*
Y158820D02*
D03*
Y139923D02*
D03*
X6890Y132639D02*
D03*
Y185002D02*
D03*
D134*
X324803Y9843D02*
D03*
X324803Y246063D02*
D03*
X9843Y246063D02*
D03*
Y9843D02*
D03*
D135*
X192084Y30321D02*
D03*
X193189Y61321D02*
D03*
X192084Y35320D02*
D03*
X242600Y54131D02*
D03*
X240371Y29964D02*
D03*
X252700Y82200D02*
D03*
X204883Y77230D02*
D03*
X208245D02*
D03*
X95800Y37100D02*
D03*
Y33738D02*
D03*
X241300Y95300D02*
D03*
X217675Y106725D02*
D03*
X250500Y104756D02*
D03*
X253100Y239866D02*
D03*
Y248527D02*
D03*
X226963Y242071D02*
D03*
Y252171D02*
D03*
X235882Y236700D02*
D03*
X244401Y242071D02*
D03*
X244840Y252383D02*
D03*
X222300Y132172D02*
D03*
X182800Y29141D02*
D03*
X251900Y40465D02*
D03*
X27104Y15100D02*
D03*
Y10000D02*
D03*
X215000Y154400D02*
D03*
X255500D02*
D03*
X296000D02*
D03*
Y183900D02*
D03*
X255500D02*
D03*
X215000D02*
D03*
X106361Y25820D02*
D03*
X165186Y123658D02*
D03*
X153639Y55319D02*
D03*
X142600Y55300D02*
D03*
X184100Y112200D02*
D03*
X173354Y117162D02*
D03*
X138961Y87020D02*
D03*
X117600Y88153D02*
D03*
X171186Y147280D02*
D03*
X186419D02*
D03*
X152600Y150600D02*
D03*
X221100Y14245D02*
D03*
X224907Y14220D02*
D03*
X317100Y235535D02*
D03*
X148631Y186900D02*
D03*
X115800Y160300D02*
D03*
Y165000D02*
D03*
Y169700D02*
D03*
Y174400D02*
D03*
X186419Y164406D02*
D03*
X74000Y147600D02*
D03*
X80600D02*
D03*
X115800Y205632D02*
D03*
X290285Y213882D02*
D03*
X267200Y239866D02*
D03*
Y248527D02*
D03*
X45472Y52200D02*
D03*
X58600Y36502D02*
D03*
X36159Y37760D02*
D03*
X163972Y41500D02*
D03*
Y29141D02*
D03*
X182800Y41500D02*
D03*
X194800Y4321D02*
D03*
X221100D02*
D03*
X288300Y15350D02*
D03*
X171186Y160469D02*
D03*
X184100Y106693D02*
D03*
X188200Y125036D02*
D03*
X159162Y143600D02*
D03*
X95400Y228700D02*
D03*
Y225157D02*
D03*
X42300D02*
D03*
Y228700D02*
D03*
X48501Y72766D02*
D03*
X42364Y18494D02*
D03*
X85400Y231400D02*
D03*
X80857Y210418D02*
D03*
X42300Y214843D02*
D03*
Y218387D02*
D03*
X68262Y241400D02*
D03*
Y237218D02*
D03*
Y233036D02*
D03*
X64500Y215061D02*
D03*
X72024D02*
D03*
Y222500D02*
D03*
X64500D02*
D03*
X68262Y218780D02*
D03*
X317100Y229535D02*
D03*
X188200Y103693D02*
D03*
X188189Y54321D02*
D03*
X216200Y132172D02*
D03*
X212326D02*
D03*
X138038Y98178D02*
D03*
X155919Y87020D02*
D03*
X134809Y101402D02*
D03*
X131809Y98178D02*
D03*
X140821Y101402D02*
D03*
X146300Y55300D02*
D03*
X151104Y217120D02*
D03*
X189212Y217100D02*
D03*
X115800Y197732D02*
D03*
X144961Y117845D02*
D03*
X149961D02*
D03*
X52659Y12800D02*
D03*
X42364D02*
D03*
X36159Y31769D02*
D03*
X193189Y65320D02*
D03*
X160939Y55300D02*
D03*
X157239D02*
D03*
X150000D02*
D03*
X183212Y217100D02*
D03*
X145104Y217120D02*
D03*
X29300Y239466D02*
D03*
Y247566D02*
D03*
X40900Y239466D02*
D03*
Y247566D02*
D03*
X96800Y239466D02*
D03*
Y247566D02*
D03*
X108400Y239466D02*
D03*
Y247566D02*
D03*
X38900Y57766D02*
D03*
Y72766D02*
D03*
X57300Y121520D02*
D03*
Y113420D02*
D03*
X68900Y121520D02*
D03*
Y113420D02*
D03*
X117600Y96253D02*
D03*
X106000D02*
D03*
Y88153D02*
D03*
X62800Y79650D02*
D03*
Y71550D02*
D03*
X74400Y79650D02*
D03*
Y71550D02*
D03*
X20500Y77400D02*
D03*
Y69300D02*
D03*
X8900D02*
D03*
Y77400D02*
D03*
X261738Y46903D02*
D03*
X261714Y43417D02*
D03*
X202938Y150600D02*
D03*
X159987Y117162D02*
D03*
X153070Y126367D02*
D03*
X207700Y15321D02*
D03*
X69407Y27477D02*
D03*
X60459D02*
D03*
X30352D02*
D03*
X58600Y31769D02*
D03*
X33600Y10000D02*
D03*
Y15100D02*
D03*
X34300Y27477D02*
D03*
X251900Y23400D02*
D03*
X261714Y56094D02*
D03*
X237092Y25321D02*
D03*
X265528Y72200D02*
D03*
X261714Y32300D02*
D03*
X255300Y49000D02*
D03*
X261714Y59556D02*
D03*
Y65465D02*
D03*
X85436Y136000D02*
D03*
X77100Y161800D02*
D03*
X58900Y126700D02*
D03*
X70240D02*
D03*
X55250Y136021D02*
D03*
X91977Y151158D02*
D03*
X55250Y143820D02*
D03*
X61300D02*
D03*
X55250Y178718D02*
D03*
X61300D02*
D03*
X80600Y151741D02*
D03*
Y155883D02*
D03*
X61300Y173821D02*
D03*
X55250D02*
D03*
X52500Y96700D02*
D03*
X56600D02*
D03*
X52500Y100200D02*
D03*
X56600D02*
D03*
M02*
