G04*
G04 #@! TF.GenerationSoftware,Altium Limited,Altium Designer,23.6.0 (18)*
G04*
G04 Layer_Physical_Order=1*
G04 Layer_Color=255*
%FSLAX25Y25*%
%MOIN*%
G70*
G04*
G04 #@! TF.SameCoordinates,B1711246-A666-457E-9349-3D56B44E1F9A*
G04*
G04*
G04 #@! TF.FilePolarity,Positive*
G04*
G01*
G75*
%ADD11C,0.01000*%
%ADD17C,0.00600*%
%ADD19C,0.00800*%
%ADD20C,0.00700*%
%ADD34R,0.00906X0.01221*%
%ADD35R,0.04173X0.07165*%
%ADD36R,0.04921X0.01181*%
%ADD37R,0.09843X0.07874*%
%ADD38O,0.07087X0.03150*%
%ADD39R,0.02362X0.02126*%
%ADD40R,0.00787X0.03150*%
%ADD41R,0.03150X0.00787*%
%ADD42R,0.10630X0.10630*%
G04:AMPARAMS|DCode=43|XSize=17.72mil|YSize=13.78mil|CornerRadius=2.07mil|HoleSize=0mil|Usage=FLASHONLY|Rotation=0.000|XOffset=0mil|YOffset=0mil|HoleType=Round|Shape=RoundedRectangle|*
%AMROUNDEDRECTD43*
21,1,0.01772,0.00965,0,0,0.0*
21,1,0.01358,0.01378,0,0,0.0*
1,1,0.00413,0.00679,-0.00482*
1,1,0.00413,-0.00679,-0.00482*
1,1,0.00413,-0.00679,0.00482*
1,1,0.00413,0.00679,0.00482*
%
%ADD43ROUNDEDRECTD43*%
G04:AMPARAMS|DCode=44|XSize=17.72mil|YSize=13.78mil|CornerRadius=2.07mil|HoleSize=0mil|Usage=FLASHONLY|Rotation=90.000|XOffset=0mil|YOffset=0mil|HoleType=Round|Shape=RoundedRectangle|*
%AMROUNDEDRECTD44*
21,1,0.01772,0.00965,0,0,90.0*
21,1,0.01358,0.01378,0,0,90.0*
1,1,0.00413,0.00482,0.00679*
1,1,0.00413,0.00482,-0.00679*
1,1,0.00413,-0.00482,-0.00679*
1,1,0.00413,-0.00482,0.00679*
%
%ADD44ROUNDEDRECTD44*%
%ADD45R,0.01800X0.02500*%
%ADD46R,0.06299X0.13780*%
%ADD47R,0.03500X0.03000*%
%ADD48R,0.13780X0.09252*%
%ADD49R,0.03000X0.03500*%
%ADD50R,0.03228X0.03622*%
%ADD51R,0.05512X0.07165*%
%ADD52R,0.07874X0.03150*%
%ADD53R,0.03150X0.03150*%
%ADD54R,0.03150X0.03150*%
%ADD55R,0.06693X0.09843*%
%ADD56R,0.05906X0.02559*%
%ADD57R,0.01457X0.01063*%
%ADD58R,0.02500X0.01800*%
%ADD59R,0.01181X0.04724*%
%ADD60R,0.02362X0.04724*%
%ADD61R,0.14567X0.14567*%
%ADD62R,0.05906X0.03543*%
%ADD63R,0.03543X0.05906*%
%ADD64R,0.03228X0.06772*%
%ADD65R,0.02598X0.02165*%
%ADD66R,0.05906X0.06299*%
%ADD67R,0.06299X0.02756*%
%ADD68R,0.05906X0.04724*%
%ADD69R,0.08661X0.04724*%
G04:AMPARAMS|DCode=70|XSize=47.24mil|YSize=23.62mil|CornerRadius=2.95mil|HoleSize=0mil|Usage=FLASHONLY|Rotation=270.000|XOffset=0mil|YOffset=0mil|HoleType=Round|Shape=RoundedRectangle|*
%AMROUNDEDRECTD70*
21,1,0.04724,0.01772,0,0,270.0*
21,1,0.04134,0.02362,0,0,270.0*
1,1,0.00591,-0.00886,-0.02067*
1,1,0.00591,-0.00886,0.02067*
1,1,0.00591,0.00886,0.02067*
1,1,0.00591,0.00886,-0.02067*
%
%ADD70ROUNDEDRECTD70*%
%ADD71R,0.07480X0.10236*%
%ADD72R,0.09449X0.11024*%
%ADD73R,0.01968X0.03937*%
%ADD74R,0.08661X0.07087*%
%ADD75R,0.05118X0.01181*%
%ADD136C,0.01500*%
%ADD137C,0.02000*%
%ADD138C,0.01200*%
%ADD139R,0.03200X0.11728*%
%ADD140R,0.15350X0.03150*%
%ADD141R,0.13215X0.00775*%
%ADD142R,0.08289X0.00775*%
%ADD143R,0.09957X0.03150*%
%ADD144R,0.02259X0.02687*%
%ADD145R,0.27124X0.11024*%
%ADD146R,0.13000X0.76478*%
%ADD147R,0.03500X0.07422*%
%ADD148R,0.14750X0.03500*%
%ADD149R,0.44800X0.17787*%
%ADD150R,0.21300X0.22847*%
%ADD151R,0.09554X0.18183*%
%ADD152R,0.19874X0.03543*%
%ADD153R,0.03000X0.31458*%
%ADD154R,0.02598X0.05901*%
%ADD155R,0.06200X0.08600*%
%ADD156R,0.10450X0.03311*%
%ADD157R,0.03854X0.09145*%
%ADD158R,0.20176X0.04900*%
%ADD159R,0.15000X0.14300*%
%ADD160R,0.27350X0.13787*%
%ADD161R,0.32350X0.11700*%
%ADD162C,0.05906*%
%ADD163R,0.05906X0.05906*%
%ADD164O,0.03543X0.06693*%
%ADD165O,0.03543X0.07874*%
%ADD166C,0.07874*%
%ADD167C,0.06299*%
%ADD168R,0.07874X0.07874*%
%ADD169R,0.05906X0.11811*%
%ADD170R,0.11811X0.05906*%
%ADD171C,0.11024*%
%ADD172C,0.02362*%
G36*
X51284Y233357D02*
X51346Y233045D01*
X51523Y232780D01*
X51788Y232603D01*
X52100Y232541D01*
X52325D01*
X52494Y232524D01*
X52839Y232381D01*
X53075Y232146D01*
X53170Y231916D01*
X53049Y231641D01*
X52835Y231440D01*
X52769Y231416D01*
X27800D01*
X27488Y231354D01*
X27223Y231177D01*
X27046Y230912D01*
X26984Y230600D01*
Y214253D01*
X27046Y213941D01*
X27223Y213676D01*
X27488Y213499D01*
X27800Y213437D01*
X39800D01*
X40112Y213499D01*
X40377Y213676D01*
X40554Y213941D01*
X40616Y214253D01*
Y219762D01*
X40787Y219933D01*
X53062D01*
X54382Y218613D01*
X54647Y218436D01*
X54959Y218374D01*
X54959Y218374D01*
X62763D01*
Y219111D01*
X62779Y219190D01*
Y223098D01*
X62763Y223177D01*
Y223835D01*
X62779Y223914D01*
Y224264D01*
X63131D01*
X63210Y224280D01*
X65519D01*
Y225921D01*
X65644Y226108D01*
X65753Y226654D01*
Y230986D01*
X66025D01*
Y235086D01*
X63291D01*
Y238737D01*
X67776Y243222D01*
X67953Y243487D01*
X68015Y243799D01*
X68015Y243799D01*
X68510Y243799D01*
X68572Y243487D01*
X68748Y243222D01*
X68748Y243222D01*
X73233Y238737D01*
Y235086D01*
X70499D01*
Y230986D01*
X70772D01*
Y226654D01*
X70880Y226108D01*
X71005Y225921D01*
Y224280D01*
X73314D01*
X73393Y224264D01*
X73433D01*
X73750Y223843D01*
X73761Y223804D01*
Y223122D01*
X73757Y223098D01*
Y220761D01*
X73761Y220738D01*
Y219949D01*
X74557D01*
X74572Y219946D01*
X78448D01*
X78511Y219933D01*
X79069D01*
X79524Y219479D01*
X79524Y217957D01*
X79424Y217857D01*
X79029Y217846D01*
X76136D01*
X75590Y217737D01*
X75403Y217612D01*
X73761D01*
Y215224D01*
X75230D01*
X75383Y214883D01*
X75371Y214672D01*
X75148Y214462D01*
X73761D01*
Y213281D01*
X62763D01*
Y217612D01*
X61122D01*
X60934Y217737D01*
X60388Y217846D01*
X55468D01*
X55468Y217846D01*
X54921Y217737D01*
X54458Y217427D01*
X54458Y217427D01*
X50458Y213427D01*
X48850D01*
Y214300D01*
X43750D01*
Y209700D01*
X49401D01*
X49600Y209282D01*
Y204182D01*
Y199460D01*
X12275D01*
X11284Y200450D01*
Y203969D01*
X7858D01*
X7716Y203969D01*
X7359D01*
X7216Y203969D01*
X5879D01*
X5736Y203969D01*
X5379D01*
X5236Y203969D01*
X2600D01*
Y244034D01*
X3100Y244083D01*
X3112Y244021D01*
X3640Y242748D01*
X4406Y241601D01*
X5381Y240626D01*
X6527Y239860D01*
X7801Y239333D01*
X9153Y239064D01*
X10532D01*
X11884Y239333D01*
X13158Y239860D01*
X14304Y240626D01*
X15279Y241601D01*
X16045Y242748D01*
X16573Y244021D01*
X16842Y245374D01*
Y246752D01*
X16573Y248105D01*
X16045Y249378D01*
X15279Y250525D01*
X14304Y251500D01*
X13158Y252266D01*
X11884Y252793D01*
X10532Y253062D01*
X9153D01*
X7801Y252793D01*
X6527Y252266D01*
X5381Y251500D01*
X4406Y250525D01*
X3640Y249378D01*
X3112Y248105D01*
X3100Y248043D01*
X2600Y248092D01*
Y253600D01*
X51284D01*
Y233357D01*
D02*
G37*
G36*
X326671Y229058D02*
Y197253D01*
X326453D01*
X326141Y197191D01*
X325930Y197050D01*
X325653D01*
Y196516D01*
X325637Y196437D01*
Y193750D01*
X325653Y193671D01*
Y192950D01*
X326374D01*
X326453Y192934D01*
X328711D01*
X329053Y192950D01*
X329353D01*
X329353Y192950D01*
X332400D01*
Y2300D01*
X240707D01*
Y10006D01*
X236129D01*
Y11671D01*
X236900D01*
Y16770D01*
X236129D01*
Y16916D01*
X236013Y17501D01*
X235682Y17998D01*
X235330Y18349D01*
X235577Y18810D01*
X235669Y18791D01*
X256221D01*
X256806Y18907D01*
X257302Y19239D01*
X258981Y20919D01*
X259313Y21415D01*
X259429Y22000D01*
Y24529D01*
X260200D01*
Y25549D01*
X263428D01*
Y25196D01*
X267627D01*
Y25549D01*
X269875D01*
X270460Y25666D01*
X270956Y25997D01*
X273206Y28247D01*
X275177D01*
Y22539D01*
X276961D01*
X277230Y22150D01*
Y18050D01*
X276989Y17650D01*
X275480D01*
Y12550D01*
X280080D01*
Y15521D01*
X280343Y15915D01*
X280459Y16500D01*
Y18050D01*
X280630D01*
Y22150D01*
X280899Y22539D01*
X282683D01*
Y24171D01*
X311595D01*
Y22539D01*
X321856D01*
Y24171D01*
X323280D01*
X323865Y24288D01*
X324361Y24619D01*
X326671Y26930D01*
X327003Y27426D01*
X327119Y28011D01*
Y84294D01*
X327003Y84879D01*
X326671Y85375D01*
X324240Y87806D01*
X323744Y88137D01*
X323159Y88254D01*
X321856D01*
Y89887D01*
X311595D01*
Y85725D01*
X310580Y84711D01*
X282683D01*
Y87131D01*
X275177D01*
Y79232D01*
X282683D01*
Y81652D01*
X311213D01*
X311799Y81768D01*
X312295Y82100D01*
X313757Y83562D01*
X321856D01*
Y85195D01*
X322526D01*
X324060Y83660D01*
Y28645D01*
X322646Y27230D01*
X321856D01*
Y28863D01*
X311595D01*
Y27230D01*
X282683D01*
Y28863D01*
X278943D01*
Y32578D01*
Y36909D01*
Y41239D01*
Y45570D01*
Y49901D01*
Y54232D01*
Y58562D01*
Y62893D01*
Y67249D01*
X271043D01*
Y63125D01*
X270030D01*
X267753Y65402D01*
X267740Y65467D01*
X267627Y65636D01*
Y67347D01*
X263428D01*
Y67347D01*
X262949Y67314D01*
X262148Y67646D01*
X261280D01*
X260700Y67405D01*
X260200Y67689D01*
Y68015D01*
X255600D01*
Y62915D01*
X255600Y62915D01*
Y62902D01*
X255600D01*
X255600Y62415D01*
Y57006D01*
X255228Y56697D01*
X254216D01*
Y67215D01*
X254200Y67293D01*
Y68015D01*
X253479D01*
X253400Y68030D01*
X250400D01*
X250321Y68015D01*
X249600D01*
Y67293D01*
X249584Y67215D01*
Y55881D01*
Y47281D01*
Y35757D01*
X249600Y35678D01*
Y34957D01*
X250321D01*
X250400Y34941D01*
X253400D01*
X253479Y34957D01*
X254200D01*
Y35678D01*
X254216Y35757D01*
Y46466D01*
X255596D01*
X255600Y45967D01*
X255600D01*
Y40867D01*
X260200D01*
Y41193D01*
X260700Y41477D01*
X261280Y41236D01*
X262148D01*
X262949Y41568D01*
X263428Y41535D01*
Y41535D01*
X267627D01*
Y41926D01*
X267741D01*
X268326Y42042D01*
X268823Y42374D01*
X270582Y44133D01*
X271043Y43941D01*
Y40616D01*
X269987D01*
X269401Y40500D01*
X268905Y40168D01*
X268127Y39390D01*
X267627Y39390D01*
Y39390D01*
X263428D01*
Y39037D01*
X260200D01*
Y40057D01*
X255600D01*
Y34957D01*
X255948D01*
X256155Y34457D01*
X255527Y33829D01*
X244972D01*
X244129Y34672D01*
Y45973D01*
X244013Y46558D01*
X243681Y47054D01*
X235895Y54841D01*
Y59534D01*
X235779Y60120D01*
X235447Y60616D01*
X232040Y64023D01*
X232253Y64819D01*
Y65781D01*
X232004Y66710D01*
X231523Y67543D01*
X230843Y68223D01*
X230010Y68704D01*
X229081Y68953D01*
X228119D01*
X227190Y68704D01*
X226357Y68223D01*
X225677Y67543D01*
X225476Y67194D01*
X224827Y67070D01*
X224736Y67141D01*
Y82000D01*
X226707Y83971D01*
X250733D01*
X250924Y83509D01*
X250851Y83435D01*
X250519Y82634D01*
Y81766D01*
X250851Y80964D01*
X251465Y80351D01*
X252266Y80019D01*
X253134D01*
X253936Y80351D01*
X254255Y80671D01*
X263470D01*
X264055Y80787D01*
X264551Y81119D01*
X314314Y130881D01*
X314646Y131377D01*
X314762Y131963D01*
Y216736D01*
X314646Y217321D01*
X314314Y217817D01*
X304176Y227955D01*
X303680Y228287D01*
X303094Y228403D01*
X301488D01*
X301366Y228586D01*
X301062Y228789D01*
Y229289D01*
X301366Y229492D01*
X301891Y230278D01*
X302075Y231204D01*
X301891Y232131D01*
X301366Y232916D01*
X301247Y232996D01*
X301399Y233496D01*
X304550D01*
Y233235D01*
X309650D01*
Y233496D01*
X310350D01*
Y233235D01*
X315450D01*
Y233496D01*
X316323D01*
X316666Y233354D01*
X317534D01*
X318336Y233686D01*
X318655Y234006D01*
X321724D01*
X326671Y229058D01*
D02*
G37*
G36*
X84424Y233357D02*
X84159D01*
X83830Y233324D01*
X83223Y233073D01*
X82758Y232608D01*
X82507Y232001D01*
X82474Y231672D01*
X80524D01*
Y225900D01*
X78551Y223927D01*
X78488Y223914D01*
X74572D01*
X74561Y223923D01*
Y224784D01*
X74266Y225079D01*
X73393D01*
Y225921D01*
X73518Y226108D01*
X73627Y226654D01*
Y229046D01*
X74049Y229468D01*
Y239075D01*
X69325Y243799D01*
Y254500D01*
X84424D01*
Y233357D01*
D02*
G37*
G36*
X67199Y243799D02*
X62475Y239075D01*
Y229468D01*
X62898Y229046D01*
Y226654D01*
X63006Y226108D01*
X63131Y225921D01*
Y225079D01*
X62258D01*
X61963Y224784D01*
Y223914D01*
X58037D01*
X57973Y223927D01*
X56000Y225900D01*
Y231672D01*
X54050D01*
X54018Y232001D01*
X53766Y232608D01*
X53301Y233073D01*
X52694Y233324D01*
X52365Y233357D01*
X52100D01*
Y254500D01*
X67199D01*
Y243799D01*
D02*
G37*
G36*
X110100Y214253D02*
X96872D01*
X91482Y219642D01*
X80857D01*
X79751Y220749D01*
X78511D01*
Y220761D01*
X74572D01*
Y223098D01*
X78511D01*
Y223098D01*
X78551Y223111D01*
X79711D01*
X81000Y224400D01*
X91540D01*
Y229840D01*
X93100Y231400D01*
X110100D01*
Y214253D01*
D02*
G37*
G36*
X54900Y225500D02*
X57289Y223111D01*
X57973D01*
X58013Y223098D01*
Y223098D01*
X61963D01*
Y219190D01*
X54959D01*
X53400Y220749D01*
X40449D01*
X39800Y220100D01*
Y214253D01*
X27800D01*
Y230600D01*
X54900D01*
Y225500D01*
D02*
G37*
G36*
X82850Y214118D02*
X87950D01*
Y214634D01*
X89498D01*
X89698Y214434D01*
Y207853D01*
X89261Y207417D01*
X87100D01*
Y207682D01*
X83900D01*
X83700Y207682D01*
Y207682D01*
X83400D01*
Y207682D01*
X80000D01*
Y207060D01*
X78204D01*
X77564Y207700D01*
Y212075D01*
X78511D01*
Y214462D01*
X77341D01*
X77320Y214491D01*
X77571Y214991D01*
X82850D01*
Y214118D01*
D02*
G37*
G36*
X332400Y203969D02*
X329730D01*
Y229692D01*
X329614Y230277D01*
X329282Y230773D01*
X323439Y236616D01*
X322942Y236948D01*
X322357Y237065D01*
X318655D01*
X318336Y237384D01*
X317534Y237716D01*
X316666D01*
X316323Y237574D01*
X315450D01*
Y237835D01*
X310350D01*
Y237574D01*
X309650D01*
Y237835D01*
X309139D01*
Y242446D01*
X308984Y243227D01*
X308542Y243888D01*
X306792Y245638D01*
X306130Y246080D01*
X305350Y246236D01*
X301399D01*
X301247Y246736D01*
X301366Y246815D01*
X301891Y247601D01*
X302075Y248527D01*
X301891Y249454D01*
X301366Y250239D01*
X300581Y250764D01*
X299654Y250949D01*
X295717D01*
X294790Y250764D01*
X294005Y250239D01*
X293480Y249454D01*
X293296Y248527D01*
X293480Y247601D01*
X294005Y246815D01*
X294309Y246612D01*
Y246112D01*
X294005Y245909D01*
X293480Y245123D01*
X293296Y244197D01*
X293480Y243270D01*
X294005Y242484D01*
X294309Y242281D01*
Y241781D01*
X294005Y241578D01*
X293480Y240792D01*
X293296Y239866D01*
X293480Y238939D01*
X294005Y238154D01*
X294309Y237950D01*
Y237450D01*
X294005Y237247D01*
X293480Y236462D01*
X293296Y235535D01*
X293480Y234609D01*
X294005Y233823D01*
X294309Y233620D01*
Y233120D01*
X294005Y232916D01*
X293480Y232131D01*
X293296Y231204D01*
X293480Y230278D01*
X294005Y229492D01*
X294309Y229289D01*
Y228789D01*
X294005Y228586D01*
X293480Y227800D01*
X293296Y226874D01*
X293480Y225947D01*
X294005Y225162D01*
X294309Y224958D01*
Y224458D01*
X294005Y224255D01*
X293480Y223470D01*
X293296Y222543D01*
X293480Y221616D01*
X294005Y220831D01*
X294309Y220628D01*
Y220128D01*
X294005Y219924D01*
X293480Y219139D01*
X293296Y218212D01*
X293480Y217286D01*
X294005Y216500D01*
X294790Y215975D01*
X295717Y215791D01*
X299654D01*
X300581Y215975D01*
X301366Y216500D01*
X301488Y216683D01*
X302460D01*
X305624Y213519D01*
Y135316D01*
X260384Y90076D01*
X224433D01*
X223848Y89960D01*
X223351Y89628D01*
X219878Y86155D01*
X219547Y85659D01*
X219430Y85074D01*
Y70993D01*
X217177Y68739D01*
X216381Y68953D01*
X215419D01*
X214490Y68704D01*
X213657Y68223D01*
X212977Y67543D01*
X212496Y66710D01*
X212247Y65781D01*
Y64819D01*
X212460Y64023D01*
X206179Y57742D01*
X205682Y57952D01*
Y62749D01*
Y65695D01*
X206445D01*
X206952Y65796D01*
X207382Y66083D01*
X209182Y67883D01*
X209469Y68313D01*
X209570Y68820D01*
Y75471D01*
X210094Y75995D01*
X210426Y76797D01*
Y77664D01*
X210094Y78466D01*
X209480Y79079D01*
X208679Y79411D01*
X207811D01*
X207009Y79079D01*
X206564Y78634D01*
X206118Y79079D01*
X205316Y79411D01*
X204449D01*
X203647Y79079D01*
X203033Y78466D01*
X202701Y77664D01*
Y76797D01*
X203033Y75995D01*
X203647Y75381D01*
X204449Y75049D01*
X204838D01*
X205319Y74568D01*
Y72892D01*
X198177D01*
Y67749D01*
Y61850D01*
X198100D01*
X197515Y61733D01*
X197019Y61402D01*
X195422Y59806D01*
X195038Y60085D01*
X195370Y60887D01*
Y61754D01*
X195038Y62556D01*
X194594Y63000D01*
X194479Y63320D01*
X194594Y63641D01*
X195038Y64085D01*
X195370Y64887D01*
Y65754D01*
X195038Y66556D01*
X194424Y67169D01*
X193623Y67502D01*
X192755D01*
X191954Y67169D01*
X191634Y66850D01*
X136784D01*
Y72892D01*
X129279D01*
Y71850D01*
X128937D01*
X128352Y71733D01*
X127856Y71402D01*
X126273Y69819D01*
X125941Y69323D01*
X125825Y68737D01*
Y38541D01*
X124633Y37350D01*
X124035D01*
X123623Y38063D01*
X122943Y38743D01*
X122110Y39224D01*
X121181Y39473D01*
X120219D01*
X119290Y39224D01*
X118457Y38743D01*
X117777Y38063D01*
X117365Y37350D01*
X103949D01*
X103363Y37233D01*
X102867Y36902D01*
X99279Y33314D01*
X98948Y32818D01*
X98831Y32232D01*
Y16770D01*
X98061D01*
Y11671D01*
X98831D01*
Y10006D01*
X94254D01*
Y2300D01*
X67167D01*
X66850Y2686D01*
X66927Y3075D01*
Y6225D01*
X66735Y7189D01*
X66191Y8003D01*
Y17163D01*
X66735Y17977D01*
X66927Y18941D01*
Y19322D01*
X67500D01*
Y18556D01*
X68016D01*
Y16385D01*
X68100Y15961D01*
Y14335D01*
X71500D01*
Y15961D01*
X71584Y16385D01*
Y18556D01*
X72100D01*
Y23656D01*
X67500D01*
Y22891D01*
X66927D01*
Y23272D01*
X66735Y24236D01*
X66189Y25054D01*
X65372Y25600D01*
X64407Y25792D01*
X63443Y25600D01*
X62625Y25054D01*
X62079Y24236D01*
X61887Y23272D01*
Y18941D01*
X62079Y17977D01*
X62623Y17163D01*
Y8003D01*
X62079Y7189D01*
X61887Y6225D01*
Y3075D01*
X61964Y2686D01*
X61647Y2300D01*
X33112D01*
X32795Y2686D01*
X32872Y3075D01*
Y6225D01*
X32680Y7189D01*
X32134Y8006D01*
X31316Y8553D01*
X30352Y8745D01*
X29388Y8553D01*
X28570Y8006D01*
X28024Y7189D01*
X27832Y6225D01*
Y3075D01*
X27909Y2686D01*
X27592Y2300D01*
X2600D01*
Y7813D01*
X3100Y7863D01*
X3112Y7801D01*
X3640Y6527D01*
X4406Y5381D01*
X5381Y4406D01*
X6527Y3640D01*
X7801Y3112D01*
X9153Y2843D01*
X10532D01*
X11884Y3112D01*
X13158Y3640D01*
X14304Y4406D01*
X15279Y5381D01*
X16045Y6527D01*
X16573Y7801D01*
X16842Y9153D01*
Y10532D01*
X16573Y11884D01*
X16045Y13158D01*
X15279Y14304D01*
X14304Y15279D01*
X13158Y16045D01*
X11884Y16573D01*
X10532Y16842D01*
X9153D01*
X7801Y16573D01*
X6527Y16045D01*
X5381Y15279D01*
X4406Y14304D01*
X3640Y13158D01*
X3112Y11884D01*
X3100Y11822D01*
X2600Y11872D01*
Y21384D01*
X11033D01*
X11346Y21446D01*
X11610Y21623D01*
X11787Y21888D01*
X11849Y22200D01*
Y40383D01*
X11787Y40695D01*
X11610Y40959D01*
X11346Y41136D01*
X11104Y41184D01*
X11153Y41684D01*
X13662D01*
X14183Y41164D01*
Y33217D01*
X14198Y33138D01*
Y32417D01*
X14198D01*
X14209Y31917D01*
X14198Y31861D01*
Y31781D01*
X14183Y31702D01*
X14183Y23914D01*
Y22667D01*
X14245Y22355D01*
X14422Y22090D01*
X14422Y22090D01*
X14888Y21623D01*
X15153Y21446D01*
X15465Y21384D01*
X15465Y21384D01*
X24821D01*
X24821Y21384D01*
X25133Y21446D01*
X25398Y21623D01*
X25398Y21623D01*
X26577Y22802D01*
X26577Y22803D01*
X26754Y23067D01*
X26816Y23379D01*
X26816Y23379D01*
X26816Y30235D01*
X27716Y31135D01*
X27716Y31135D01*
X27862Y31282D01*
X27862Y31282D01*
X27862Y31282D01*
X29099D01*
Y29277D01*
X29951D01*
X30030Y29261D01*
X30110D01*
X30110Y29261D01*
X35585D01*
X35585Y29261D01*
X35934Y28912D01*
Y28912D01*
X35934Y28912D01*
Y26513D01*
X35947Y26449D01*
Y21058D01*
X35620D01*
X34914Y20766D01*
X34374Y20226D01*
X34081Y19520D01*
Y18756D01*
X34374Y18050D01*
X34914Y17510D01*
X35620Y17217D01*
X35934D01*
Y8077D01*
X35950Y7998D01*
X35950Y7917D01*
X35964Y7843D01*
X35995Y7769D01*
X35996Y7764D01*
X35999Y7760D01*
X36052Y7632D01*
X36053Y7627D01*
X36055Y7623D01*
X36086Y7549D01*
X36128Y7486D01*
X36185Y7429D01*
X36230Y7363D01*
X37888Y5705D01*
X37955Y5660D01*
X38011Y5603D01*
X38074Y5561D01*
X38148Y5530D01*
X38152Y5528D01*
X38157Y5527D01*
X38285Y5474D01*
X38289Y5471D01*
X38294Y5470D01*
X38368Y5439D01*
X38442Y5424D01*
X38523Y5424D01*
X38602Y5409D01*
X56676D01*
X56755Y5424D01*
X56836Y5424D01*
X56910Y5439D01*
X56984Y5470D01*
X56989Y5471D01*
X56992Y5474D01*
X57121Y5527D01*
X57126Y5528D01*
X57130Y5530D01*
X57204Y5561D01*
X57267Y5603D01*
X57323Y5660D01*
X57390Y5705D01*
X58529Y6844D01*
X58574Y6910D01*
X58631Y6967D01*
X58673Y7030D01*
X58704Y7104D01*
X58706Y7108D01*
X58707Y7113D01*
X58760Y7242D01*
X58763Y7245D01*
X58764Y7250D01*
X58795Y7324D01*
X58809Y7398D01*
X58809Y7479D01*
X58825Y7558D01*
Y17217D01*
X59140D01*
X59845Y17510D01*
X60386Y18050D01*
X60678Y18756D01*
Y19520D01*
X60386Y20226D01*
X59845Y20766D01*
X59140Y21058D01*
X58812D01*
Y26449D01*
X58825Y26513D01*
Y27616D01*
X58825Y27616D01*
X59018Y27810D01*
X59063Y27876D01*
X59120Y27933D01*
X59207Y28064D01*
X59238Y28138D01*
X59283Y28205D01*
X59302Y28250D01*
X59686Y28634D01*
X59731Y28653D01*
X59797Y28698D01*
X59872Y28728D01*
X60003Y28816D01*
X60059Y28873D01*
X60126Y28917D01*
X61420Y30211D01*
X61465Y30278D01*
X61521Y30335D01*
X61563Y30398D01*
X61594Y30472D01*
X61597Y30476D01*
X61598Y30480D01*
X61651Y30609D01*
X61654Y30613D01*
X61655Y30617D01*
X61685Y30691D01*
X61700Y30766D01*
X61700Y30846D01*
X61716Y30925D01*
Y33062D01*
X61700Y33140D01*
Y33221D01*
X61685Y33295D01*
X61655Y33369D01*
X61654Y33374D01*
X61651Y33378D01*
X61598Y33506D01*
X61597Y33511D01*
X61594Y33515D01*
X61563Y33589D01*
X61521Y33652D01*
X61465Y33709D01*
X61420Y33775D01*
X60975Y34220D01*
X60909Y34265D01*
X60852Y34321D01*
X60789Y34363D01*
X60715Y34394D01*
X60711Y34397D01*
X60706Y34398D01*
X60578Y34451D01*
X60574Y34454D01*
X60569Y34455D01*
X60495Y34485D01*
X60421Y34500D01*
X60340Y34500D01*
X60261Y34516D01*
X57499D01*
X57420Y34500D01*
X57340Y34500D01*
X57266Y34485D01*
X57192Y34455D01*
X57187Y34454D01*
X57183Y34451D01*
X57055Y34398D01*
X57050Y34397D01*
X57046Y34394D01*
X56972Y34363D01*
X56909Y34321D01*
X56852Y34265D01*
X56785Y34220D01*
X56355Y33790D01*
X56310Y33723D01*
X56254Y33666D01*
X56197Y33581D01*
X56166Y33507D01*
X56151Y33485D01*
X55798Y33132D01*
X54976D01*
X54855Y33213D01*
X54269Y33329D01*
X53684Y33213D01*
X53562Y33132D01*
X52741D01*
Y31805D01*
X52740Y31800D01*
Y26513D01*
X51771D01*
Y30150D01*
X52050D01*
Y33350D01*
X52050Y33850D01*
X52050Y34050D01*
Y37250D01*
X50793D01*
X50528Y37750D01*
X50636Y37910D01*
X60316D01*
X64544Y33682D01*
X64974Y33394D01*
X65481Y33293D01*
X81917D01*
X82197Y32909D01*
D01*
X82352Y32129D01*
X82794Y31467D01*
X83455Y31025D01*
X84236Y30870D01*
X85016Y31025D01*
X85636Y31439D01*
X86256Y31025D01*
X87036Y30870D01*
X87816Y31025D01*
X88478Y31467D01*
X88920Y32129D01*
X89075Y32909D01*
D01*
X89355Y33293D01*
X93623D01*
X93951Y32502D01*
X94564Y31889D01*
X95366Y31557D01*
X96234D01*
X97035Y31889D01*
X97649Y32502D01*
X97981Y33304D01*
Y34172D01*
X97649Y34973D01*
X97203Y35419D01*
X97649Y35864D01*
X97981Y36666D01*
Y37534D01*
X97649Y38335D01*
X97035Y38949D01*
X96234Y39281D01*
X95366D01*
X94564Y38949D01*
X93951Y38335D01*
X93623Y37544D01*
X66693D01*
X62464Y41773D01*
X62034Y42060D01*
X61527Y42161D01*
X49115D01*
X48608Y42060D01*
X48178Y41773D01*
X45999Y39594D01*
X45712Y39164D01*
X45611Y38657D01*
Y37384D01*
X45565Y37375D01*
X45379Y37250D01*
X43422D01*
Y34050D01*
X43422Y33550D01*
X43422Y33350D01*
Y32471D01*
X42961Y32280D01*
X42609Y32631D01*
Y33132D01*
X41969D01*
X41894Y33182D01*
X41309Y33298D01*
X40723Y33182D01*
X40649Y33132D01*
X40336D01*
X39912Y33395D01*
X39897Y33469D01*
X39866Y33543D01*
X39865Y33548D01*
X39863Y33552D01*
X39810Y33680D01*
X39809Y33685D01*
X39806Y33689D01*
X39775Y33763D01*
X39733Y33826D01*
X39676Y33883D01*
X39632Y33949D01*
X37511Y36070D01*
X37444Y36115D01*
X37388Y36171D01*
X37325Y36213D01*
X37251Y36244D01*
X37247Y36247D01*
X37242Y36248D01*
X37113Y36301D01*
X37110Y36304D01*
X37105Y36305D01*
X37031Y36335D01*
X36957Y36350D01*
X36876Y36350D01*
X36797Y36366D01*
X33886D01*
Y38443D01*
X33871Y38522D01*
Y38602D01*
X33856Y38677D01*
X33825Y38751D01*
X33824Y38755D01*
X33821Y38759D01*
X33768Y38888D01*
X33767Y38892D01*
X33765Y38896D01*
X33734Y38971D01*
X33692Y39033D01*
X33635Y39090D01*
X33590Y39157D01*
X32728Y40020D01*
X32661Y40065D01*
X32604Y40121D01*
X32541Y40163D01*
X32467Y40194D01*
X32463Y40197D01*
X32458Y40198D01*
X32330Y40251D01*
X32326Y40254D01*
X32321Y40255D01*
X32247Y40285D01*
X32173Y40300D01*
X32092Y40300D01*
X32014Y40316D01*
X25480D01*
X25401Y40300D01*
X25321Y40300D01*
X25247Y40285D01*
X25173Y40255D01*
X25168Y40254D01*
X25164Y40251D01*
X25036Y40198D01*
X25031Y40197D01*
X25027Y40194D01*
X24953Y40163D01*
X24890Y40121D01*
X24884Y40125D01*
X24795Y40743D01*
X27836Y43784D01*
X57200D01*
X57200Y43784D01*
X57512Y43846D01*
X57777Y44023D01*
X57777Y44023D01*
X59877Y46123D01*
X60054Y46388D01*
X60116Y46700D01*
X60116Y46700D01*
Y58000D01*
X60054Y58312D01*
X59877Y58577D01*
X59877Y58577D01*
X59269Y59184D01*
X59476Y59684D01*
X61362D01*
X62284Y58762D01*
Y48600D01*
X62346Y48288D01*
X62523Y48023D01*
X62523Y48023D01*
X63423Y47123D01*
X63688Y46946D01*
X64000Y46884D01*
X64000Y46884D01*
X102400D01*
X102400Y46884D01*
X102712Y46946D01*
X102977Y47123D01*
X104377Y48523D01*
X104554Y48788D01*
X104616Y49100D01*
X104616Y49100D01*
Y62900D01*
X104554Y63212D01*
X104377Y63477D01*
X104377Y63477D01*
X102577Y65277D01*
X102312Y65454D01*
X102000Y65516D01*
X102000Y65516D01*
X88533D01*
X88483Y66016D01*
X88996Y66118D01*
X89575Y66505D01*
X92162Y69091D01*
X92549Y69670D01*
X92684Y70353D01*
X92684Y70353D01*
Y73458D01*
X101400D01*
X101712Y73520D01*
X101977Y73697D01*
X102154Y73962D01*
X102216Y74274D01*
Y97121D01*
X102154Y97433D01*
X101977Y97698D01*
X101712Y97875D01*
X101400Y97937D01*
X80100D01*
X79788Y97875D01*
X79523Y97698D01*
X79346Y97433D01*
X79284Y97121D01*
Y74274D01*
X79346Y73962D01*
X79523Y73697D01*
X79788Y73520D01*
X80100Y73458D01*
X89116D01*
Y71092D01*
X87574Y69550D01*
X58083D01*
Y69846D01*
X50578D01*
Y65714D01*
X50578Y65687D01*
X50636Y65589D01*
X50728Y65298D01*
X50578Y64846D01*
X50578D01*
Y60687D01*
X50578D01*
X50584Y60500D01*
X50589Y60478D01*
X50604Y60195D01*
X50578Y59846D01*
X50578Y59846D01*
X50578Y59846D01*
Y59124D01*
X50562Y59046D01*
Y54250D01*
X50550D01*
Y50416D01*
X27838Y50416D01*
X25216Y53038D01*
X25216Y60300D01*
X25154Y60612D01*
X24977Y60877D01*
X24977Y60877D01*
X23877Y61977D01*
X23612Y62154D01*
X23300Y62216D01*
X23300Y62216D01*
X8300D01*
X7988Y62154D01*
X7723Y61977D01*
X7723Y61977D01*
X6623Y60877D01*
X6446Y60612D01*
X6384Y60300D01*
X6384Y60300D01*
Y43200D01*
X6384Y43200D01*
X6446Y42888D01*
X6623Y42623D01*
X7323Y41923D01*
X7588Y41746D01*
X7829Y41698D01*
X7780Y41198D01*
X2600D01*
Y127477D01*
X3100Y127701D01*
X3948Y127135D01*
X5078Y126666D01*
X6278Y126428D01*
X7502D01*
X8702Y126666D01*
X9832Y127135D01*
X10850Y127814D01*
X11715Y128680D01*
X12395Y129697D01*
X12863Y130827D01*
X13102Y132028D01*
Y133251D01*
X12863Y134451D01*
X12395Y135582D01*
X11715Y136599D01*
X10850Y137464D01*
X9832Y138144D01*
X8702Y138612D01*
X7502Y138851D01*
X6278D01*
X5078Y138612D01*
X3948Y138144D01*
X3100Y137578D01*
X2600Y137802D01*
Y179839D01*
X3100Y180063D01*
X3948Y179497D01*
X5078Y179028D01*
X6278Y178790D01*
X7502D01*
X8702Y179028D01*
X9832Y179497D01*
X10850Y180176D01*
X11715Y181042D01*
X12395Y182059D01*
X12863Y183190D01*
X13102Y184390D01*
Y185613D01*
X12863Y186813D01*
X12395Y187944D01*
X11715Y188961D01*
X10850Y189827D01*
X9832Y190506D01*
X8702Y190975D01*
X7502Y191213D01*
X6278D01*
X5078Y190975D01*
X3948Y190506D01*
X3100Y189940D01*
X2600Y190164D01*
Y192950D01*
X5094D01*
X5595Y192950D01*
X5794Y192950D01*
X8995D01*
Y193471D01*
X60200D01*
Y192732D01*
X65300D01*
Y192732D01*
X65594Y192854D01*
X73471Y184976D01*
X74050Y184589D01*
X74733Y184453D01*
X74733Y184453D01*
X99161D01*
X100716Y182899D01*
Y180320D01*
X97776D01*
X97697Y180305D01*
X96976D01*
Y179584D01*
X96960Y179505D01*
Y168481D01*
X96976Y168402D01*
Y167681D01*
X97697D01*
X97776Y167665D01*
X111084D01*
Y121629D01*
X80100D01*
X79788Y121567D01*
X79523Y121390D01*
X79346Y121125D01*
X79284Y120813D01*
Y103027D01*
X79346Y102715D01*
X79523Y102450D01*
X79788Y102273D01*
X80100Y102211D01*
X118916D01*
Y59473D01*
X117047D01*
Y52168D01*
X124353D01*
Y59473D01*
X122484D01*
Y102211D01*
X124900D01*
X125212Y102273D01*
X125477Y102450D01*
X125654Y102715D01*
X125716Y103027D01*
Y179505D01*
X125654Y179817D01*
X125477Y180081D01*
X125212Y180258D01*
X124900Y180320D01*
X104284D01*
Y183638D01*
X104149Y184320D01*
X103762Y184899D01*
X103762Y184899D01*
X101162Y187499D01*
X100878Y187689D01*
X101030Y188189D01*
X125350D01*
X130382Y183157D01*
Y99835D01*
X129960Y99414D01*
X129628Y98612D01*
Y97745D01*
X129960Y96943D01*
X130574Y96329D01*
X131375Y95997D01*
X132243D01*
X133045Y96329D01*
X133658Y96943D01*
X133990Y97745D01*
Y98612D01*
X133877Y98886D01*
X134260Y99269D01*
X134375Y99221D01*
X135243D01*
X135635Y99383D01*
X136018Y99000D01*
X135857Y98612D01*
Y97745D01*
X136189Y96943D01*
X136802Y96329D01*
X137604Y95997D01*
X138472D01*
X139273Y96329D01*
X139887Y96943D01*
X140219Y97745D01*
Y98612D01*
X140150Y98778D01*
X140236Y98938D01*
X140508Y99221D01*
X141255D01*
X142057Y99553D01*
X142670Y100166D01*
X142931Y100797D01*
X143431Y100697D01*
Y84870D01*
X142661D01*
Y79770D01*
X143431D01*
Y78995D01*
X137389D01*
Y71489D01*
X197532D01*
Y78995D01*
X186745D01*
Y82615D01*
X188006Y83876D01*
X199661D01*
X200343Y84012D01*
X200922Y84399D01*
X204200Y87677D01*
X204587Y88255D01*
X204722Y88938D01*
Y149300D01*
X204787Y149364D01*
X205119Y150166D01*
Y151034D01*
X204787Y151836D01*
X204174Y152449D01*
X203372Y152781D01*
X202504D01*
X201703Y152449D01*
X201089Y151836D01*
X200757Y151034D01*
Y150166D01*
X201089Y149364D01*
X201154Y149300D01*
Y127382D01*
X200654Y127175D01*
X197774Y130055D01*
X197278Y130386D01*
X196693Y130503D01*
X178802D01*
X178217Y130386D01*
X178183Y130364D01*
X175443D01*
Y128534D01*
X173354D01*
X172769Y128418D01*
X172273Y128086D01*
X163879Y119693D01*
X163548Y119196D01*
X163431Y118611D01*
Y78995D01*
X161517D01*
Y115607D01*
X161837Y115927D01*
X162169Y116728D01*
Y117596D01*
X161837Y118398D01*
X161223Y119011D01*
X160421Y119343D01*
X159554D01*
X158752Y119011D01*
X158138Y118398D01*
X157806Y117596D01*
Y116728D01*
X158138Y115927D01*
X158458Y115607D01*
Y87896D01*
X157958Y87797D01*
X157768Y88256D01*
X157154Y88870D01*
X156353Y89202D01*
X155485D01*
X154683Y88870D01*
X154070Y88256D01*
X153738Y87454D01*
Y86587D01*
X154070Y85785D01*
X154156Y85699D01*
Y84870D01*
X153661D01*
Y79770D01*
X158010D01*
X158296Y79285D01*
X158215Y79105D01*
X158105Y78995D01*
X151490D01*
Y79770D01*
X152261D01*
Y84870D01*
X151490D01*
Y116289D01*
X151810Y116609D01*
X152142Y117411D01*
Y117863D01*
X154887Y120608D01*
X154887Y120608D01*
X159620Y125340D01*
X159841D01*
X160234Y125419D01*
X160567Y125641D01*
X160790Y125974D01*
X160868Y126367D01*
Y127331D01*
X160790Y127724D01*
X160567Y128057D01*
X160234Y128280D01*
X159841Y128358D01*
X159266D01*
X159162Y128379D01*
X158965D01*
X158861Y128358D01*
X158483D01*
X158090Y128280D01*
X157757Y128057D01*
X157535Y127724D01*
X157499Y127546D01*
X152725Y122771D01*
X152725Y122771D01*
X151675Y121721D01*
X151286Y122040D01*
X151552Y122437D01*
X151668Y123023D01*
Y128236D01*
X155370D01*
Y129257D01*
X159162D01*
X159266Y129278D01*
X159841D01*
X160234Y129356D01*
X160567Y129578D01*
X160790Y129911D01*
X160868Y130304D01*
Y131108D01*
X161672D01*
X162065Y131186D01*
X162174Y131259D01*
X162283Y131186D01*
X162676Y131108D01*
X163480D01*
Y130304D01*
X163558Y129911D01*
X163781Y129578D01*
X164114Y129356D01*
X164507Y129278D01*
X165082D01*
X165186Y129257D01*
X165290Y129278D01*
X165865D01*
X166258Y129356D01*
X166591Y129578D01*
X166813Y129911D01*
X166891Y130304D01*
Y131269D01*
X166813Y131661D01*
X166740Y131771D01*
X166813Y131880D01*
X166891Y132272D01*
Y133237D01*
X166813Y133630D01*
X166715Y133776D01*
Y136036D01*
X167486D01*
Y141050D01*
Y146150D01*
X162886D01*
Y145129D01*
X160717D01*
X160398Y145449D01*
X159596Y145781D01*
X158728D01*
X157927Y145449D01*
X157607Y145129D01*
X148631D01*
X148045Y145013D01*
X147549Y144681D01*
X145988Y143121D01*
X145657Y142624D01*
X145540Y142039D01*
Y133336D01*
X144770D01*
Y128236D01*
X148609D01*
Y123656D01*
X144979Y120026D01*
X144527D01*
X143725Y119694D01*
X143112Y119080D01*
X142780Y118278D01*
Y117411D01*
X143112Y116609D01*
X143431Y116289D01*
Y102106D01*
X142931Y102007D01*
X142670Y102637D01*
X142057Y103251D01*
X141255Y103583D01*
X140659D01*
X137737Y106505D01*
Y185936D01*
X137737Y185936D01*
X137628Y186482D01*
X137319Y186945D01*
X137319Y186945D01*
X129138Y195125D01*
X128675Y195435D01*
X128129Y195544D01*
X128129Y195544D01*
X117403D01*
X117196Y196044D01*
X117649Y196497D01*
X117981Y197299D01*
Y198166D01*
X117673Y198911D01*
X117860Y199411D01*
X235538D01*
X235538Y199410D01*
X236084Y199519D01*
X236547Y199829D01*
X253503Y216785D01*
X255929D01*
X256119Y216500D01*
X256423Y216297D01*
Y215797D01*
X256119Y215594D01*
X255594Y214808D01*
X255410Y213882D01*
X255594Y212955D01*
X256119Y212169D01*
X256905Y211645D01*
X257831Y211460D01*
X261768D01*
X262695Y211645D01*
X263480Y212169D01*
X264005Y212955D01*
X264189Y213882D01*
X264005Y214808D01*
X263480Y215594D01*
X263176Y215797D01*
Y216297D01*
X263480Y216500D01*
X263670Y216785D01*
X266196D01*
X267773Y215209D01*
Y141957D01*
X264635Y138820D01*
X211223D01*
X211223Y138820D01*
X210677Y138711D01*
X210214Y138402D01*
X210214Y138401D01*
X208374Y136561D01*
X208064Y136098D01*
X207956Y135552D01*
X207956Y135552D01*
Y130333D01*
X207956Y130333D01*
X208064Y129786D01*
X208374Y129323D01*
X209706Y127991D01*
X209706Y127991D01*
X210169Y127681D01*
X210716Y127573D01*
X210716Y127573D01*
X214773D01*
Y113638D01*
X214773Y113638D01*
X214881Y113092D01*
X215191Y112629D01*
X218558Y109261D01*
X218275Y108837D01*
X218109Y108906D01*
X217241D01*
X216440Y108574D01*
X215826Y107960D01*
X215494Y107159D01*
Y106291D01*
X215826Y105489D01*
X216440Y104876D01*
X217241Y104544D01*
X218109D01*
X218911Y104876D01*
X219230Y105195D01*
X239968D01*
Y103365D01*
X242654D01*
X242687Y103343D01*
X243272Y103227D01*
X248945D01*
X249265Y102907D01*
X250066Y102575D01*
X250934D01*
X251735Y102907D01*
X252349Y103521D01*
X252681Y104323D01*
Y105190D01*
X252349Y105992D01*
X251735Y106605D01*
X250934Y106937D01*
X250066D01*
X249265Y106605D01*
X248945Y106286D01*
X246489D01*
Y109271D01*
Y114020D01*
X243848D01*
X243814Y114043D01*
X243228Y114160D01*
X224906D01*
X223829Y115236D01*
Y130617D01*
X224149Y130937D01*
X224481Y131738D01*
Y132606D01*
X224177Y133341D01*
X224369Y133841D01*
X266813D01*
X266813Y133841D01*
X267359Y133950D01*
X267822Y134259D01*
X272362Y138800D01*
X272362Y138800D01*
X272672Y139263D01*
X272780Y139809D01*
Y219539D01*
X272780Y219539D01*
X272672Y220085D01*
X272362Y220548D01*
X272362Y220548D01*
X269358Y223552D01*
X268895Y223862D01*
X268349Y223970D01*
X268349Y223970D01*
X263670D01*
X263480Y224255D01*
X263176Y224458D01*
Y224958D01*
X263480Y225162D01*
X264005Y225947D01*
X264189Y226874D01*
X264005Y227800D01*
X263633Y228357D01*
X263648Y228512D01*
X263776Y228931D01*
X263792Y228950D01*
X263946Y229053D01*
X264122Y229317D01*
X264184Y229630D01*
Y231179D01*
X264189Y231204D01*
X264184Y231230D01*
Y232779D01*
X264122Y233091D01*
X263946Y233356D01*
X263792Y233458D01*
X263776Y233477D01*
X263648Y233897D01*
X263633Y234052D01*
X264005Y234609D01*
X264189Y235535D01*
X264005Y236462D01*
X263480Y237247D01*
X262695Y237772D01*
X261768Y237956D01*
X257831D01*
X256905Y237772D01*
X256119Y237247D01*
X255594Y236462D01*
X255410Y235535D01*
X255594Y234609D01*
X255937Y234095D01*
X255670Y233595D01*
X251616D01*
Y241358D01*
X252018Y241806D01*
X257676D01*
X257831Y241775D01*
X261768D01*
X261923Y241806D01*
X263369D01*
X263681Y241868D01*
X263946Y242045D01*
X264122Y242309D01*
X264184Y242622D01*
Y244171D01*
X264189Y244197D01*
X264184Y244222D01*
Y245771D01*
X264122Y246083D01*
X263946Y246348D01*
X263681Y246525D01*
X263369Y246587D01*
X261923D01*
X261768Y246618D01*
X257831D01*
X257676Y246587D01*
X250936D01*
X250845Y247275D01*
X250436Y248263D01*
X249785Y249112D01*
X248936Y249763D01*
X247948Y250173D01*
X246887Y250312D01*
Y250311D01*
X243375D01*
Y250902D01*
X239425D01*
Y252464D01*
X232339D01*
Y244984D01*
X239425D01*
Y246152D01*
X243375D01*
Y246743D01*
X246887D01*
X246931Y246751D01*
X247132Y246668D01*
X247306Y246145D01*
X247265Y246083D01*
X247203Y245771D01*
Y242622D01*
X247219Y242543D01*
Y242065D01*
X247023Y241935D01*
X246846Y241670D01*
X246784Y241358D01*
Y229630D01*
X246846Y229317D01*
X247023Y229053D01*
X247288Y228876D01*
X247600Y228814D01*
X255670D01*
X255937Y228314D01*
X255594Y227800D01*
X255410Y226874D01*
X255594Y225947D01*
X256119Y225162D01*
X256423Y224958D01*
Y224458D01*
X256119Y224255D01*
X255929Y223970D01*
X254679D01*
X254133Y223862D01*
X253670Y223552D01*
X253670Y223552D01*
X234063Y203945D01*
X117851D01*
X117669Y204445D01*
X117981Y205199D01*
Y206066D01*
X117649Y206868D01*
X117035Y207481D01*
X116234Y207813D01*
X115366D01*
X114565Y207481D01*
X114500Y207417D01*
X93266D01*
Y213552D01*
X93366Y214011D01*
X93766Y214011D01*
X95822D01*
X95822Y214011D01*
Y214011D01*
X96210Y213761D01*
X96295Y213676D01*
X96560Y213499D01*
X96872Y213437D01*
X96872Y213437D01*
X110100D01*
X110412Y213499D01*
X110677Y213676D01*
X110854Y213941D01*
X110916Y214253D01*
Y231400D01*
X110854Y231712D01*
X110677Y231977D01*
X110412Y232154D01*
X110100Y232216D01*
X93100D01*
X92788Y232154D01*
X92523Y231977D01*
X92523Y231977D01*
X90963Y230416D01*
X90786Y230152D01*
X90724Y229840D01*
X90724Y229840D01*
Y225216D01*
X81631D01*
X81518Y225335D01*
X81303Y225716D01*
X81340Y225900D01*
X81340Y225900D01*
Y230856D01*
X82474D01*
X82592Y230880D01*
X82711Y230891D01*
X82747Y230910D01*
X82787Y230918D01*
X82886Y230985D01*
X82992Y231041D01*
X83017Y231073D01*
X83051Y231095D01*
X83118Y231195D01*
X83194Y231287D01*
X83205Y231326D01*
X83228Y231360D01*
X83251Y231477D01*
X83286Y231592D01*
X83307Y231800D01*
X83450Y232146D01*
X83685Y232381D01*
X84031Y232524D01*
X84199Y232541D01*
X84424D01*
X84737Y232603D01*
X85001Y232780D01*
X85178Y233045D01*
X85240Y233357D01*
Y253600D01*
X332400D01*
Y203969D01*
D02*
G37*
G36*
X175443Y113895D02*
X175428Y113816D01*
Y110666D01*
X175443Y110587D01*
Y109866D01*
X176164D01*
X176243Y109851D01*
X186200D01*
X186671Y109463D01*
Y105248D01*
X186351Y104929D01*
X186019Y104127D01*
Y103259D01*
X186351Y102458D01*
X186964Y101844D01*
X187766Y101512D01*
X188634D01*
X189351Y101809D01*
X189697Y101691D01*
X189881Y101583D01*
X189919Y101308D01*
X189204Y100592D01*
X182161D01*
Y103961D01*
Y108710D01*
X175443D01*
Y103961D01*
Y100024D01*
X175795D01*
X175986Y99562D01*
X173879Y97455D01*
X173548Y96959D01*
X173431Y96373D01*
Y78995D01*
X171490D01*
Y115235D01*
X171990Y115442D01*
X172119Y115313D01*
X172920Y114981D01*
X173788D01*
X174590Y115313D01*
X174909Y115633D01*
X175443D01*
Y113895D01*
D02*
G37*
G36*
X263428Y57673D02*
Y57673D01*
X267405D01*
X269750Y55328D01*
X270246Y54997D01*
X270831Y54880D01*
X271043D01*
Y53863D01*
X261470D01*
X259940Y55393D01*
X259361Y55780D01*
X259257Y55801D01*
Y57006D01*
X260200D01*
Y57332D01*
X260700Y57615D01*
X261280Y57375D01*
X262148D01*
X262949Y57707D01*
X263428Y57673D01*
D02*
G37*
G36*
X103800Y62900D02*
Y49100D01*
X102400Y47700D01*
X64000D01*
X63100Y48600D01*
Y59100D01*
X61700Y60500D01*
X51400D01*
Y64700D01*
X102000D01*
X103800Y62900D01*
D02*
G37*
G36*
X259469Y50817D02*
X259469Y50817D01*
X260048Y50430D01*
X260731Y50295D01*
X260731Y50295D01*
X271043D01*
Y48404D01*
X270604Y48316D01*
X270108Y47985D01*
X267423Y45300D01*
X263428D01*
Y45300D01*
X262949Y45266D01*
X262148Y45598D01*
X261280D01*
X260700Y45358D01*
X260200Y45641D01*
Y45967D01*
X257239D01*
Y46797D01*
X257354Y46969D01*
X257416Y47281D01*
Y48409D01*
X257481Y48566D01*
Y49434D01*
X257416Y49591D01*
Y52347D01*
X257939D01*
X259469Y50817D01*
D02*
G37*
G36*
X24400Y60300D02*
X24400Y52700D01*
X27500Y49600D01*
X51378Y49600D01*
Y55708D01*
Y59046D01*
X58254D01*
X59300Y58000D01*
Y46700D01*
X57200Y44600D01*
X27498D01*
X21650Y38752D01*
Y33217D01*
X14998D01*
Y41502D01*
X14000Y42500D01*
X7900D01*
X7200Y43200D01*
Y60300D01*
X8300Y61400D01*
X23300D01*
X24400Y60300D01*
D02*
G37*
G36*
X191008Y61339D02*
Y60887D01*
X191340Y60085D01*
X191954Y59471D01*
X191974Y59463D01*
X191875Y58963D01*
X186318D01*
X185732Y58846D01*
X185236Y58515D01*
X183355Y56634D01*
X183024Y56137D01*
X182907Y55552D01*
Y46521D01*
X183024Y45935D01*
X183355Y45439D01*
X190554Y38240D01*
Y36876D01*
X190234Y36556D01*
X189902Y35754D01*
Y34887D01*
X190234Y34085D01*
X190848Y33471D01*
X191650Y33139D01*
X192517D01*
X193319Y33471D01*
X193932Y34085D01*
X194265Y34887D01*
Y35754D01*
X193932Y36556D01*
X193613Y36876D01*
Y38408D01*
X194113Y38818D01*
X194248Y38791D01*
X198177D01*
Y31850D01*
X193639D01*
X193319Y32169D01*
X192517Y32502D01*
X191650D01*
X190848Y32169D01*
X190234Y31556D01*
X189902Y30754D01*
Y29887D01*
X190234Y29085D01*
X190848Y28471D01*
X191650Y28139D01*
X192517D01*
X193319Y28471D01*
X193639Y28791D01*
X198177D01*
Y22749D01*
Y17749D01*
Y12171D01*
X198161Y12092D01*
Y8549D01*
X198177Y8470D01*
Y7749D01*
X198898D01*
X198977Y7733D01*
X218850D01*
X219162Y7795D01*
X219427Y7972D01*
X219459Y8021D01*
X219650D01*
Y8470D01*
X219666Y8549D01*
Y11655D01*
X230100D01*
X230179Y11671D01*
X233071D01*
Y6890D01*
X233187Y6305D01*
X233519Y5808D01*
X234588Y4739D01*
X235084Y4408D01*
X235669Y4291D01*
X235879D01*
Y2300D01*
X99082D01*
Y4291D01*
X99291D01*
X99877Y4408D01*
X100373Y4739D01*
X101442Y5808D01*
X101774Y6305D01*
X101890Y6890D01*
Y11671D01*
X102661D01*
Y16770D01*
X101890D01*
Y31599D01*
X104582Y34291D01*
X117365D01*
X117777Y33578D01*
X118457Y32897D01*
X118762Y32722D01*
X118628Y32222D01*
X117608D01*
X117608Y32222D01*
X117061Y32113D01*
X116598Y31804D01*
X116598Y31804D01*
X114691Y29896D01*
X114381Y29433D01*
X114273Y28887D01*
X114273Y28887D01*
Y20821D01*
X114273Y20821D01*
X114381Y20274D01*
X114691Y19811D01*
X117291Y17211D01*
X117047Y16301D01*
Y15340D01*
X117296Y14411D01*
X117777Y13578D01*
X118457Y12898D01*
X119290Y12417D01*
X120219Y12168D01*
X121181D01*
X122110Y12417D01*
X122943Y12898D01*
X123623Y13578D01*
X124104Y14411D01*
X124353Y15340D01*
Y16301D01*
X124104Y17230D01*
X123623Y18063D01*
X122943Y18743D01*
X122110Y19224D01*
X121181Y19473D01*
X120219D01*
X119310Y19229D01*
X117127Y21412D01*
Y23703D01*
X117627Y23837D01*
X117777Y23578D01*
X118457Y22897D01*
X119290Y22417D01*
X120219Y22168D01*
X121181D01*
X122090Y22411D01*
X125191Y19311D01*
X125191Y19311D01*
X125654Y19002D01*
X126200Y18893D01*
X129279D01*
Y12749D01*
Y7749D01*
X136784D01*
Y12749D01*
Y17749D01*
Y22749D01*
Y28791D01*
X158020D01*
X158606Y28907D01*
X159102Y29239D01*
X162021Y32158D01*
X162352Y32654D01*
X162469Y33239D01*
Y53745D01*
X162788Y54065D01*
X163120Y54866D01*
Y55734D01*
X162788Y56536D01*
X162175Y57149D01*
X161373Y57481D01*
X160505D01*
X159704Y57149D01*
X159416Y56861D01*
X159089Y56537D01*
X158763Y56861D01*
X158475Y57149D01*
X157673Y57481D01*
X156805D01*
X156004Y57149D01*
X155449Y56594D01*
X154875Y57168D01*
X154073Y57500D01*
X153205D01*
X152404Y57168D01*
X151810Y56574D01*
X151235Y57149D01*
X150434Y57481D01*
X149566D01*
X148765Y57149D01*
X148477Y56861D01*
X148150Y56537D01*
X147823Y56861D01*
X147536Y57149D01*
X146734Y57481D01*
X145866D01*
X145064Y57149D01*
X144777Y56861D01*
X144450Y56537D01*
X144123Y56861D01*
X143835Y57149D01*
X143034Y57481D01*
X142166D01*
X141365Y57149D01*
X141045Y56829D01*
X136784D01*
Y58791D01*
X137690D01*
X138275Y58908D01*
X138771Y59239D01*
X141103Y61571D01*
X190776D01*
X191008Y61339D01*
D02*
G37*
G36*
X263428Y35624D02*
X267627D01*
Y35923D01*
X271043D01*
Y32578D01*
Y30410D01*
X269241Y28608D01*
X267627D01*
Y28961D01*
X263428D01*
Y28608D01*
X260200D01*
Y29629D01*
X255600D01*
Y24529D01*
X256371D01*
Y22634D01*
X255587Y21850D01*
X254088D01*
X253826Y22350D01*
X254081Y22966D01*
Y23834D01*
X253949Y24153D01*
X254200Y24529D01*
X254200D01*
Y29629D01*
X249600D01*
Y24529D01*
X249600D01*
X249851Y24153D01*
X249719Y23834D01*
Y22966D01*
X249974Y22350D01*
X249712Y21850D01*
X236303D01*
X235392Y22761D01*
Y23282D01*
X235854Y23474D01*
X235856Y23471D01*
X236658Y23139D01*
X237526D01*
X238327Y23471D01*
X238941Y24085D01*
X239273Y24887D01*
Y25754D01*
X238941Y26556D01*
X238621Y26876D01*
Y27976D01*
X239083Y28168D01*
X239136Y28115D01*
X239937Y27783D01*
X240805D01*
X241607Y28115D01*
X242220Y28729D01*
X242552Y29530D01*
Y30398D01*
X242220Y31199D01*
X241960Y31460D01*
X241997Y31789D01*
X242496Y31981D01*
X243258Y31219D01*
X243754Y30887D01*
X244339Y30771D01*
X256161D01*
X256746Y30887D01*
X257242Y31219D01*
X258981Y32958D01*
X259313Y33454D01*
X259429Y34039D01*
Y34957D01*
X260200D01*
Y35978D01*
X263428D01*
Y35624D01*
D02*
G37*
G36*
X32088Y39485D02*
X32151Y39443D01*
X33014Y38580D01*
X33056Y38517D01*
X33070Y38443D01*
Y35550D01*
X36797D01*
X36871Y35535D01*
X36934Y35493D01*
X39055Y33373D01*
X39097Y33310D01*
X39112Y33236D01*
X39112Y29309D01*
Y26513D01*
X39099D01*
Y20188D01*
X39166D01*
X39239Y19822D01*
X39537Y19375D01*
X40183Y18729D01*
Y18061D01*
X40515Y17259D01*
X41129Y16645D01*
X41930Y16313D01*
X42599D01*
X43159Y15753D01*
X43606Y15455D01*
X44133Y15350D01*
X50777D01*
X51303Y15455D01*
X51750Y15753D01*
X53274Y17277D01*
X53274Y17277D01*
X53572Y17724D01*
X53669Y18210D01*
X55647Y20188D01*
X55660D01*
Y22732D01*
X55682Y22765D01*
X55799Y23350D01*
Y29589D01*
X56875Y30666D01*
Y33128D01*
X56932Y33213D01*
X57362Y33643D01*
X57425Y33685D01*
X57499Y33700D01*
X60261D01*
X60336Y33685D01*
X60399Y33643D01*
X60843Y33199D01*
X60885Y33136D01*
X60900Y33062D01*
Y30925D01*
X60885Y30851D01*
X60843Y30788D01*
X59549Y29494D01*
X59418Y29406D01*
X59224Y29326D01*
X58610Y28712D01*
X58529Y28517D01*
X58442Y28386D01*
X58248Y28193D01*
X58248Y28193D01*
X58248Y28193D01*
X58009Y27954D01*
Y27616D01*
X58009Y27616D01*
X58009Y27616D01*
Y26513D01*
X57997D01*
Y20901D01*
X57670Y20766D01*
X57129Y20226D01*
X56837Y19520D01*
Y18756D01*
X57129Y18050D01*
X57670Y17510D01*
X58009Y17369D01*
Y7558D01*
X57995Y7483D01*
X57953Y7421D01*
X56814Y6281D01*
X56751Y6239D01*
X56676Y6225D01*
X38602D01*
X38527Y6239D01*
X38464Y6281D01*
X36806Y7939D01*
X36764Y8002D01*
X36750Y8077D01*
Y17369D01*
X37089Y17510D01*
X37630Y18050D01*
X37922Y18756D01*
Y19520D01*
X37630Y20226D01*
X37089Y20766D01*
X36762Y20901D01*
Y26513D01*
X36750D01*
Y28912D01*
X36750Y28912D01*
X36750Y28912D01*
Y29250D01*
X36162Y29838D01*
X36162Y29838D01*
X36162Y29838D01*
X35923Y30077D01*
X35585D01*
X35585Y30077D01*
X35585Y30077D01*
X30110D01*
X30110Y30077D01*
X30030D01*
Y32098D01*
X27862D01*
X27862Y32098D01*
X27862Y32098D01*
X27524D01*
X27139Y31712D01*
X27139Y31712D01*
X26000Y30573D01*
X26000Y23379D01*
X24821Y22200D01*
X15465D01*
X14998Y22667D01*
Y23914D01*
X14998Y31702D01*
X15010Y31758D01*
X15034Y31783D01*
X21783D01*
X22800Y32800D01*
Y36900D01*
X25343Y39443D01*
X25406Y39485D01*
X25480Y39500D01*
X32014D01*
X32088Y39485D01*
D02*
G37*
%LPC*%
G36*
X318657Y70928D02*
X317944D01*
X317255Y70744D01*
X316637Y70387D01*
X316133Y69883D01*
X315777Y69266D01*
X315592Y68577D01*
Y67864D01*
X315777Y67175D01*
X316133Y66558D01*
X316637Y66054D01*
X317255Y65697D01*
X317944Y65513D01*
X318657D01*
X319345Y65697D01*
X319963Y66054D01*
X320467Y66558D01*
X320823Y67175D01*
X321008Y67864D01*
Y68577D01*
X320823Y69266D01*
X320467Y69883D01*
X319963Y70387D01*
X319345Y70744D01*
X318657Y70928D01*
D02*
G37*
G36*
Y39432D02*
X317944D01*
X317255Y39248D01*
X316637Y38891D01*
X316133Y38387D01*
X315777Y37770D01*
X315592Y37081D01*
Y36368D01*
X315777Y35679D01*
X316133Y35062D01*
X316637Y34558D01*
X317255Y34201D01*
X317944Y34016D01*
X318657D01*
X319345Y34201D01*
X319963Y34558D01*
X320467Y35062D01*
X320823Y35679D01*
X321008Y36368D01*
Y37081D01*
X320823Y37770D01*
X320467Y38387D01*
X319963Y38891D01*
X319345Y39248D01*
X318657Y39432D01*
D02*
G37*
G36*
X325493Y16842D02*
X324114D01*
X322762Y16573D01*
X321488Y16045D01*
X320341Y15279D01*
X319367Y14304D01*
X318601Y13158D01*
X318073Y11884D01*
X317804Y10532D01*
Y9153D01*
X318073Y7801D01*
X318601Y6527D01*
X319367Y5381D01*
X320341Y4406D01*
X321488Y3640D01*
X322762Y3112D01*
X324114Y2843D01*
X325493D01*
X326845Y3112D01*
X328118Y3640D01*
X329265Y4406D01*
X330240Y5381D01*
X331006Y6527D01*
X331533Y7801D01*
X331802Y9153D01*
Y10532D01*
X331533Y11884D01*
X331006Y13158D01*
X330240Y14304D01*
X329265Y15279D01*
X328118Y16045D01*
X326845Y16573D01*
X325493Y16842D01*
D02*
G37*
G36*
X157469Y250638D02*
X156455D01*
X155476Y250376D01*
X154598Y249869D01*
X153881Y249152D01*
X153375Y248274D01*
X153112Y247295D01*
Y246282D01*
X153362Y245351D01*
X150022Y242011D01*
X149691Y241515D01*
X149574Y240930D01*
Y229238D01*
X148804D01*
Y224138D01*
X148804D01*
Y223938D01*
X148804D01*
Y218838D01*
X149031D01*
X149255Y218355D01*
X148923Y217553D01*
Y216686D01*
X149255Y215884D01*
X149868Y215271D01*
X150670Y214939D01*
X151538D01*
X152339Y215271D01*
X152953Y215884D01*
X153285Y216686D01*
Y217553D01*
X152953Y218355D01*
X153177Y218838D01*
X153404D01*
Y223938D01*
X153404D01*
Y224138D01*
X153404D01*
Y229238D01*
X152633D01*
Y240297D01*
X155525Y243188D01*
X156455Y242939D01*
X157469D01*
X158448Y243201D01*
X159326Y243708D01*
X160042Y244425D01*
X160549Y245302D01*
X160811Y246282D01*
Y247295D01*
X160549Y248274D01*
X160042Y249152D01*
X159326Y249869D01*
X158448Y250376D01*
X157469Y250638D01*
D02*
G37*
G36*
X195577Y250618D02*
X194563D01*
X193584Y250356D01*
X192706Y249849D01*
X191989Y249132D01*
X191483Y248254D01*
X191220Y247275D01*
Y246262D01*
X191470Y245331D01*
X188130Y241992D01*
X187799Y241496D01*
X187682Y240910D01*
Y229219D01*
X186912D01*
Y224119D01*
X186911D01*
Y223919D01*
X186912D01*
Y218819D01*
X187138D01*
X187363Y218336D01*
X187030Y217534D01*
Y216666D01*
X187363Y215864D01*
X187976Y215251D01*
X188778Y214919D01*
X189645D01*
X190447Y215251D01*
X191061Y215864D01*
X191393Y216666D01*
Y217534D01*
X191061Y218336D01*
X191285Y218819D01*
X191512D01*
Y223919D01*
X191512D01*
Y224119D01*
X191512D01*
Y229219D01*
X190741D01*
Y240277D01*
X193632Y243168D01*
X194563Y242919D01*
X195577D01*
X196556Y243181D01*
X197433Y243688D01*
X198150Y244405D01*
X198657Y245283D01*
X198919Y246262D01*
Y247275D01*
X198657Y248254D01*
X198150Y249132D01*
X197433Y249849D01*
X196556Y250356D01*
X195577Y250618D01*
D02*
G37*
G36*
X325493Y253062D02*
X324114D01*
X322762Y252793D01*
X321488Y252266D01*
X320341Y251500D01*
X319367Y250525D01*
X318601Y249378D01*
X318073Y248105D01*
X317804Y246752D01*
Y245374D01*
X318073Y244021D01*
X318601Y242748D01*
X319367Y241601D01*
X320341Y240626D01*
X321488Y239860D01*
X322762Y239333D01*
X324114Y239064D01*
X325493D01*
X326845Y239333D01*
X328119Y239860D01*
X329265Y240626D01*
X330240Y241601D01*
X331006Y242748D01*
X331533Y244021D01*
X331802Y245374D01*
Y246752D01*
X331533Y248105D01*
X331006Y249378D01*
X330240Y250525D01*
X329265Y251500D01*
X328119Y252266D01*
X326845Y252793D01*
X325493Y253062D01*
D02*
G37*
G36*
X162494Y241386D02*
X161273D01*
X160093Y241070D01*
X159036Y240459D01*
X158173Y239596D01*
X157562Y238539D01*
X157246Y237359D01*
Y236139D01*
X157562Y234959D01*
X158173Y233902D01*
X159036Y233038D01*
X160093Y232428D01*
X161273Y232112D01*
X162494D01*
X163673Y232428D01*
X164730Y233038D01*
X165594Y233902D01*
X166204Y234959D01*
X166520Y236139D01*
Y237359D01*
X166204Y238539D01*
X165594Y239596D01*
X164730Y240459D01*
X163673Y241070D01*
X162494Y241386D01*
D02*
G37*
G36*
X134934D02*
X133714D01*
X132534Y241070D01*
X131477Y240459D01*
X130614Y239596D01*
X130003Y238539D01*
X129687Y237359D01*
Y236139D01*
X130003Y234959D01*
X130614Y233902D01*
X131477Y233038D01*
X132534Y232428D01*
X133714Y232112D01*
X134934D01*
X136114Y232428D01*
X137171Y233038D01*
X138035Y233902D01*
X138645Y234959D01*
X138961Y236139D01*
Y237359D01*
X138645Y238539D01*
X138035Y239596D01*
X137171Y240459D01*
X136114Y241070D01*
X134934Y241386D01*
D02*
G37*
G36*
X200602Y241366D02*
X199381D01*
X198201Y241050D01*
X197144Y240440D01*
X196281Y239576D01*
X195670Y238519D01*
X195354Y237340D01*
Y236119D01*
X195670Y234939D01*
X196281Y233882D01*
X197144Y233019D01*
X198201Y232408D01*
X199381Y232092D01*
X200602D01*
X201781Y232408D01*
X202838Y233019D01*
X203702Y233882D01*
X204312Y234939D01*
X204628Y236119D01*
Y237340D01*
X204312Y238519D01*
X203702Y239576D01*
X202838Y240440D01*
X201781Y241050D01*
X200602Y241366D01*
D02*
G37*
G36*
X173043D02*
X171822D01*
X170642Y241050D01*
X169585Y240440D01*
X168721Y239576D01*
X168111Y238519D01*
X167795Y237340D01*
Y236119D01*
X168111Y234939D01*
X168721Y233882D01*
X169585Y233019D01*
X170642Y232408D01*
X171822Y232092D01*
X173043D01*
X174222Y232408D01*
X175279Y233019D01*
X176143Y233882D01*
X176753Y234939D01*
X177069Y236119D01*
Y237340D01*
X176753Y238519D01*
X176143Y239576D01*
X175279Y240440D01*
X174222Y241050D01*
X173043Y241366D01*
D02*
G37*
G36*
X147404Y223938D02*
X142804D01*
Y218838D01*
X143031D01*
X143255Y218355D01*
X142922Y217553D01*
Y216686D01*
X143255Y215884D01*
X143868Y215271D01*
X144670Y214939D01*
X145537D01*
X146339Y215271D01*
X146953Y215884D01*
X147285Y216686D01*
Y217553D01*
X146953Y218355D01*
X147177Y218838D01*
X147404D01*
Y223938D01*
D02*
G37*
G36*
X185512Y223919D02*
X180912D01*
Y218819D01*
X181139D01*
X181362Y218336D01*
X181030Y217534D01*
Y216666D01*
X181362Y215864D01*
X181976Y215251D01*
X182778Y214919D01*
X183645D01*
X184447Y215251D01*
X185061Y215864D01*
X185393Y216666D01*
Y217534D01*
X185061Y218336D01*
X185285Y218819D01*
X185512D01*
Y223919D01*
D02*
G37*
G36*
X161450Y189200D02*
Y189200D01*
X156350D01*
Y188684D01*
X149931D01*
X149866Y188749D01*
X149065Y189081D01*
X148197D01*
X147395Y188749D01*
X146782Y188136D01*
X146450Y187334D01*
Y186466D01*
X146782Y185664D01*
X147395Y185051D01*
X148197Y184719D01*
X149065D01*
X149866Y185051D01*
X149931Y185116D01*
X156350D01*
Y184600D01*
X161450D01*
Y184600D01*
X161750D01*
Y184600D01*
X166850D01*
Y184600D01*
X167200D01*
Y184600D01*
X172300D01*
Y189200D01*
X167335D01*
X167200Y189200D01*
Y189200D01*
X166850D01*
X166850Y189200D01*
X166715Y189200D01*
X161750D01*
Y189200D01*
X161450D01*
D02*
G37*
G36*
X196728Y190009D02*
X186467D01*
Y181323D01*
X196728D01*
Y190009D01*
D02*
G37*
G36*
X93900Y179016D02*
X93900Y179016D01*
X84737D01*
X84737Y179016D01*
X84424Y178954D01*
X84160Y178777D01*
X83060Y177677D01*
X82883Y177412D01*
X82821Y177100D01*
X82821Y177100D01*
Y160299D01*
X82821Y160299D01*
X82883Y159987D01*
X83060Y159722D01*
X83060Y159722D01*
X84665Y158117D01*
X84666Y158117D01*
X84930Y157940D01*
X85242Y157878D01*
X85242Y157878D01*
X86521D01*
Y149106D01*
X86583Y148793D01*
X86760Y148529D01*
X86760Y148529D01*
X87660Y147629D01*
X87924Y147452D01*
X88236Y147390D01*
X88236Y147390D01*
X106430D01*
X106430Y147390D01*
X106742Y147452D01*
X107007Y147629D01*
X107007Y147629D01*
X107801Y148423D01*
X107978Y148688D01*
X108040Y149000D01*
X108040Y149000D01*
Y161395D01*
X108025Y161473D01*
Y162195D01*
X107303D01*
X107225Y162210D01*
X95943D01*
X95616Y162538D01*
Y177300D01*
X95554Y177612D01*
X95377Y177877D01*
X95377Y177877D01*
X94477Y178777D01*
X94212Y178954D01*
X93900Y179016D01*
D02*
G37*
G36*
X161450Y183200D02*
Y183200D01*
X156350D01*
Y178600D01*
X157371D01*
Y176473D01*
X157487Y175888D01*
X157819Y175392D01*
X160043Y173167D01*
X160539Y172836D01*
X161124Y172719D01*
X178802D01*
X179388Y172836D01*
X179421Y172858D01*
X182161D01*
Y174827D01*
Y179576D01*
X180250D01*
X180169Y179985D01*
X179837Y180481D01*
X178337Y181981D01*
X177841Y182313D01*
X177256Y182429D01*
X172300D01*
Y183200D01*
X167335D01*
X167200Y183200D01*
Y183200D01*
X166850D01*
X166850Y183200D01*
X166715Y183200D01*
X161750D01*
Y183200D01*
X161450D01*
D02*
G37*
G36*
X43722Y183930D02*
X42498D01*
X41298Y183691D01*
X40168Y183223D01*
X39151Y182543D01*
X38285Y181678D01*
X37606Y180660D01*
X37137Y179530D01*
X36898Y178330D01*
Y177106D01*
X37137Y175906D01*
X37606Y174776D01*
X38285Y173758D01*
X39151Y172893D01*
X40168Y172213D01*
X41298Y171745D01*
X42498Y171506D01*
X43722D01*
X44922Y171745D01*
X46053Y172213D01*
X47070Y172893D01*
X47935Y173758D01*
X48615Y174776D01*
X49083Y175906D01*
X49322Y177106D01*
Y178330D01*
X49083Y179530D01*
X48615Y180660D01*
X47935Y181678D01*
X47070Y182543D01*
X46053Y183223D01*
X44922Y183691D01*
X43722Y183930D01*
D02*
G37*
G36*
X68200Y179016D02*
X67888Y178954D01*
X67623Y178777D01*
X67623Y178777D01*
X66531Y177685D01*
X66531Y177685D01*
X66355Y177420D01*
X66293Y177108D01*
X66293Y177108D01*
X66293Y165883D01*
X65793Y165834D01*
X65754Y166030D01*
X65577Y166295D01*
X65312Y166472D01*
X65000Y166534D01*
X35400D01*
X35088Y166472D01*
X34823Y166295D01*
X34646Y166030D01*
X34584Y165718D01*
Y149908D01*
X34646Y149596D01*
X34823Y149331D01*
X35088Y149155D01*
X35400Y149093D01*
X67108D01*
X67108Y149093D01*
X67420Y149155D01*
X67685Y149331D01*
X67685Y149331D01*
X68258Y149904D01*
X68258Y149904D01*
X68359Y150056D01*
X68447Y150176D01*
X68777Y150378D01*
X69089Y150316D01*
X69089Y150316D01*
X71301D01*
X71301Y150316D01*
X71613Y150378D01*
X71877Y150555D01*
X71877Y150555D01*
X72159Y150837D01*
X72336Y151101D01*
X72398Y151413D01*
X72398Y151413D01*
Y156044D01*
X74231Y157878D01*
X77493D01*
X77806Y157940D01*
X78070Y158117D01*
X78070Y158117D01*
X79277Y159323D01*
X79454Y159588D01*
X79516Y159900D01*
X79516Y159900D01*
Y177206D01*
X79516Y177206D01*
X79454Y177518D01*
X79277Y177782D01*
X79277Y177782D01*
X78282Y178777D01*
X78018Y178954D01*
X77706Y179016D01*
X77706Y179016D01*
X68200Y179016D01*
D02*
G37*
G36*
X182161Y171702D02*
X175443D01*
Y171616D01*
X161186D01*
X160874Y171554D01*
X160609Y171377D01*
X160432Y171112D01*
X160401Y170954D01*
X160386D01*
Y170879D01*
X160370Y170800D01*
Y165900D01*
X160386Y165821D01*
Y165732D01*
X160404D01*
X160432Y165588D01*
X160609Y165323D01*
X160874Y165146D01*
X161186Y165084D01*
X175443D01*
Y163016D01*
X178183D01*
X178217Y162993D01*
X178802Y162877D01*
X184864D01*
X185183Y162557D01*
X185985Y162225D01*
X186853D01*
X187654Y162557D01*
X188268Y163171D01*
X188600Y163972D01*
Y164840D01*
X188268Y165642D01*
X187654Y166255D01*
X186853Y166587D01*
X185985D01*
X185183Y166255D01*
X184864Y165936D01*
X182177D01*
Y170800D01*
X182161Y170879D01*
Y171702D01*
D02*
G37*
G36*
X161300Y163096D02*
X150850D01*
X150538Y163034D01*
X150273Y162857D01*
X150215Y162769D01*
X150050D01*
Y162359D01*
X150034Y162280D01*
Y158969D01*
X150050Y158890D01*
Y158169D01*
X150771D01*
X150850Y158154D01*
X156630D01*
Y153136D01*
X156692Y152824D01*
X156869Y152559D01*
X157133Y152382D01*
X157446Y152320D01*
X161300D01*
X161379Y152336D01*
X162100D01*
Y153057D01*
X162116Y153136D01*
Y162280D01*
X162054Y162592D01*
X161877Y162857D01*
X161612Y163034D01*
X161474Y163061D01*
Y163080D01*
X161379D01*
X161300Y163096D01*
D02*
G37*
G36*
X155150Y156769D02*
X150050D01*
Y152169D01*
X150389D01*
X150468Y152097D01*
X150682Y151669D01*
X150419Y151034D01*
Y150166D01*
X150751Y149364D01*
X151365Y148751D01*
X152166Y148419D01*
X153034D01*
X153835Y148751D01*
X154449Y149364D01*
X154781Y150166D01*
Y151034D01*
X154518Y151669D01*
X154732Y152097D01*
X154811Y152169D01*
X155150D01*
Y156769D01*
D02*
G37*
G36*
X74866Y146074D02*
X73095D01*
X72667Y145989D01*
X72452Y145845D01*
X72110Y145783D01*
X71769Y145845D01*
X71553Y145989D01*
X71126Y146074D01*
X69354D01*
X68927Y145989D01*
X68712Y145845D01*
X68370Y145783D01*
X68029Y145845D01*
X67813Y145989D01*
X67386Y146074D01*
X65614D01*
X65187Y145989D01*
X64825Y145747D01*
X64583Y145385D01*
X64498Y144957D01*
Y141870D01*
X63819Y141191D01*
X63487Y140695D01*
X63371Y140109D01*
Y138821D01*
X53500D01*
Y133071D01*
X56600D01*
Y127971D01*
X56600D01*
X56858Y127471D01*
X56719Y127134D01*
Y126266D01*
X57051Y125464D01*
X57665Y124851D01*
X58466Y124519D01*
X59334D01*
X60136Y124851D01*
X60749Y125464D01*
X61081Y126266D01*
Y127134D01*
X60942Y127471D01*
X61200Y127971D01*
X61200D01*
Y133071D01*
X62600D01*
Y127971D01*
X67200D01*
Y128197D01*
X67690Y128220D01*
X67700Y128220D01*
X68023D01*
X68302Y127720D01*
X68059Y127134D01*
Y126266D01*
X68391Y125464D01*
X69005Y124851D01*
X69806Y124519D01*
X70674D01*
X71476Y124851D01*
X72089Y125464D01*
X72421Y126266D01*
Y127134D01*
X72178Y127720D01*
X72458Y128220D01*
X72790D01*
Y132820D01*
X67700D01*
X67690Y132820D01*
X67598Y132825D01*
X67200Y133071D01*
Y133470D01*
X67200D01*
Y134197D01*
X67690Y134221D01*
Y134221D01*
X72790D01*
Y138821D01*
X71770D01*
Y139578D01*
X72255Y139972D01*
X72452Y139936D01*
X72667Y139792D01*
X73095Y139707D01*
X73820D01*
X74071Y139456D01*
Y138550D01*
X73300D01*
Y133450D01*
X77900D01*
Y138550D01*
X77129D01*
Y140090D01*
X77013Y140675D01*
X76681Y141171D01*
X75983Y141870D01*
Y144957D01*
X75898Y145385D01*
X75656Y145747D01*
X75294Y145989D01*
X74866Y146074D01*
D02*
G37*
G36*
X83900Y138550D02*
X79300D01*
Y133450D01*
X83900D01*
Y133799D01*
X84400Y134069D01*
X85003Y133819D01*
X85870D01*
X86672Y134151D01*
X87286Y134765D01*
X87617Y135566D01*
Y136434D01*
X87286Y137235D01*
X86672Y137849D01*
X85870Y138181D01*
X85003D01*
X84400Y137932D01*
X83900Y138201D01*
Y138550D01*
D02*
G37*
G36*
X50400Y147716D02*
X35400D01*
X35088Y147654D01*
X34823Y147477D01*
X34646Y147212D01*
X34584Y146900D01*
Y132600D01*
X34646Y132288D01*
X34823Y132023D01*
X35088Y131846D01*
X35400Y131784D01*
X50400D01*
X50712Y131846D01*
X50977Y132023D01*
X51154Y132288D01*
X51216Y132600D01*
Y146900D01*
X51154Y147212D01*
X50977Y147477D01*
X50712Y147654D01*
X50400Y147716D01*
D02*
G37*
G36*
X259088Y124021D02*
X247645D01*
Y114547D01*
X259088D01*
Y124021D01*
D02*
G37*
G36*
X16536Y112954D02*
X15264D01*
X14034Y112625D01*
X12932Y111988D01*
X12032Y111089D01*
X11396Y109986D01*
X11066Y108757D01*
Y107484D01*
X11396Y106255D01*
X12032Y105152D01*
X12932Y104252D01*
X14034Y103616D01*
X15264Y103287D01*
X16536D01*
X17766Y103616D01*
X18868Y104252D01*
X19768Y105152D01*
X20404Y106255D01*
X20734Y107484D01*
Y108757D01*
X20404Y109986D01*
X19768Y111089D01*
X18868Y111988D01*
X17766Y112625D01*
X16536Y112954D01*
D02*
G37*
G36*
X259088Y100871D02*
X247645D01*
Y91396D01*
X259088D01*
Y100871D01*
D02*
G37*
G36*
X66250Y102802D02*
X38900D01*
X38588Y102740D01*
X38323Y102563D01*
X38146Y102299D01*
X38084Y101987D01*
Y100716D01*
X33900D01*
X33588Y100654D01*
X33323Y100477D01*
X33146Y100212D01*
X33084Y99900D01*
Y88200D01*
X33146Y87888D01*
X33323Y87623D01*
X33588Y87446D01*
X33900Y87384D01*
X66250D01*
X66364Y87407D01*
X67050D01*
Y88121D01*
X67065Y88200D01*
Y101987D01*
X67050Y102065D01*
Y102787D01*
X66329D01*
X66250Y102802D01*
D02*
G37*
G36*
X139395Y89202D02*
X138527D01*
X137725Y88870D01*
X137112Y88256D01*
X136780Y87454D01*
Y86587D01*
X137112Y85785D01*
X137176Y85720D01*
Y84870D01*
X136661D01*
Y79770D01*
X141261D01*
Y84870D01*
X140745D01*
Y85720D01*
X140810Y85785D01*
X141142Y86587D01*
Y87454D01*
X140810Y88256D01*
X140196Y88870D01*
X139395Y89202D01*
D02*
G37*
G36*
X121181Y49473D02*
X120219D01*
X119290Y49224D01*
X118457Y48743D01*
X117777Y48063D01*
X117296Y47230D01*
X117047Y46301D01*
Y45340D01*
X117296Y44411D01*
X117777Y43578D01*
X118457Y42897D01*
X119290Y42417D01*
X120219Y42168D01*
X121181D01*
X122110Y42417D01*
X122943Y42897D01*
X123623Y43578D01*
X124104Y44411D01*
X124353Y45340D01*
Y46301D01*
X124104Y47230D01*
X123623Y48063D01*
X122943Y48743D01*
X122110Y49224D01*
X121181Y49473D01*
D02*
G37*
G36*
X30352Y25792D02*
X29388Y25600D01*
X28570Y25054D01*
X28024Y24236D01*
X27832Y23272D01*
Y18941D01*
X28024Y17977D01*
X28570Y17159D01*
X29388Y16613D01*
X30352Y16421D01*
X31316Y16613D01*
X32134Y17159D01*
X32680Y17977D01*
X32872Y18941D01*
Y23272D01*
X32680Y24236D01*
X32134Y25054D01*
X31316Y25600D01*
X30352Y25792D01*
D02*
G37*
%LPD*%
G36*
X94800Y177300D02*
Y162200D01*
X95605Y161395D01*
X107225D01*
Y149000D01*
X106430Y148205D01*
X88236D01*
X87336Y149106D01*
Y158693D01*
X85242D01*
X83636Y160299D01*
Y177100D01*
X84737Y178200D01*
X93900D01*
X94800Y177300D01*
D02*
G37*
G36*
X77706Y178200D02*
X78700Y177206D01*
Y159900D01*
X77493Y158693D01*
X73893D01*
X71582Y156382D01*
Y151413D01*
X71301Y151132D01*
X69089D01*
X68818Y151403D01*
Y156382D01*
X67108Y158092D01*
X67108Y177108D01*
X68200Y178200D01*
X77706Y178200D01*
D02*
G37*
G36*
X65000Y157800D02*
Y155883D01*
X67681D01*
Y150481D01*
X67108Y149908D01*
X35400D01*
Y165718D01*
X65000D01*
X65000Y157800D01*
D02*
G37*
%LPC*%
G36*
X106795Y28002D02*
X105927D01*
X105125Y27670D01*
X104512Y27056D01*
X104180Y26254D01*
Y25387D01*
X104512Y24585D01*
X104831Y24265D01*
Y16770D01*
X104061D01*
Y11671D01*
X108661D01*
Y16770D01*
X107890D01*
Y24265D01*
X108210Y24585D01*
X108542Y25387D01*
Y26254D01*
X108210Y27056D01*
X107596Y27670D01*
X106795Y28002D01*
D02*
G37*
%LPD*%
D11*
X235882Y253644D02*
X236957Y252569D01*
X239718D01*
X239905Y252383D01*
X244840D01*
X192084Y30321D02*
X201929D01*
X191410Y63100D02*
X193189Y61321D01*
X140469Y63100D02*
X191410D01*
X192084Y35320D02*
Y38873D01*
X184436Y46521D02*
Y55552D01*
Y46521D02*
X192084Y38873D01*
X184436Y55552D02*
X186318Y57433D01*
X195213D02*
X198100Y60321D01*
X186318Y57433D02*
X195213D01*
X188189Y46380D02*
X194248Y40321D01*
X201929D01*
X188189Y46380D02*
Y54321D01*
X198100Y60321D02*
X201929D01*
X235669Y20321D02*
X256221D01*
X233863Y22127D02*
X235669Y20321D01*
X228600Y35300D02*
X233863Y30037D01*
Y22127D02*
Y30037D01*
X229670Y45300D02*
X237092Y37879D01*
Y25321D02*
Y37879D01*
X228600Y55300D02*
X240371Y43529D01*
Y29964D02*
Y43529D01*
X228600Y65300D02*
X234366Y59534D01*
Y54207D02*
Y59534D01*
Y54207D02*
X242600Y45973D01*
X244339Y32300D02*
X256161D01*
X242600Y34039D02*
Y45973D01*
Y34039D02*
X244339Y32300D01*
X263470Y82200D02*
X313232Y131963D01*
X252700Y82200D02*
X263470D01*
X219354Y30321D02*
X221533Y32500D01*
Y39119D02*
X227715Y45300D01*
X221533Y32500D02*
Y39119D01*
X213592Y40321D02*
X218783D01*
X222934Y44471D02*
Y58469D01*
X218783Y40321D02*
X222934Y44471D01*
X211821Y30321D02*
X219354D01*
X223293Y29993D02*
X228600Y35300D01*
X223293Y22347D02*
Y29993D01*
X201929Y20321D02*
X221266D01*
X223293Y22347D01*
X228600Y64135D02*
Y65300D01*
X222934Y58469D02*
X228600Y64135D01*
X215900Y55300D02*
X223207Y62607D01*
Y82633D01*
X210921Y50321D02*
X215900Y55300D01*
X201929Y45320D02*
X201950Y45300D01*
X215900D01*
X223207Y82633D02*
X226074Y85500D01*
X220960Y70360D02*
Y85074D01*
X215900Y65300D02*
X220960Y70360D01*
X205921Y55321D02*
X215900Y65300D01*
X220960Y85074D02*
X224433Y88547D01*
X261017D01*
X227715Y45300D02*
X229670D01*
X208592Y35320D02*
X213592Y40321D01*
X201929Y35320D02*
X208592D01*
X201929Y55321D02*
X205921D01*
X201929Y50321D02*
X210921D01*
X206800Y25300D02*
X211821Y30321D01*
X201929Y25321D02*
X201950Y25300D01*
X206800D01*
X241300Y95300D02*
X243228Y97228D01*
Y102788D01*
X313232Y131963D02*
Y216736D01*
X303233Y222543D02*
X310237Y215539D01*
Y133215D02*
Y215539D01*
X262522Y85500D02*
X310237Y133215D01*
X226074Y85500D02*
X262522D01*
X261017Y88547D02*
X307153Y134683D01*
Y214153D01*
X201929Y60321D02*
X203201Y61592D01*
X197355Y88361D02*
X199723Y90728D01*
X179961Y85661D02*
X182661Y88361D01*
X197355D01*
X314757Y86724D02*
X323159D01*
X278930Y83181D02*
X311213D01*
X314757Y86724D01*
X217675Y106725D02*
X243228D01*
X222300Y114603D02*
X224272Y112630D01*
X243228D01*
X222300Y114603D02*
Y132172D01*
X243272Y104756D02*
X250500D01*
X243228Y104800D02*
X243272Y104756D01*
X106361Y14220D02*
Y25820D01*
X317100Y235535D02*
X322357D01*
X165186Y123658D02*
Y126849D01*
X153639Y42939D02*
Y55319D01*
X133052Y55300D02*
X142600D01*
X173354Y117162D02*
X178802D01*
X169961Y75242D02*
Y120442D01*
X174555Y125036D01*
X178802Y164406D02*
X186419D01*
X327353Y195000D02*
Y195350D01*
X328201Y196198D02*
Y229692D01*
X322357Y235535D02*
X328201Y229692D01*
X327353Y195350D02*
X328201Y196198D01*
X169750Y180900D02*
X177256D01*
X178756Y178232D02*
Y179400D01*
Y178232D02*
X178802Y178186D01*
X177256Y180900D02*
X178756Y179400D01*
X3594Y195000D02*
Y201200D01*
X54269Y35441D02*
X55330Y36502D01*
X58600D01*
X54269Y33965D02*
Y35441D01*
X36159Y37760D02*
X39698D01*
X41080Y33965D02*
Y36377D01*
X39698Y37760D02*
X41080Y36377D01*
X186232Y123068D02*
X188200Y125036D01*
X178802Y123068D02*
X186232D01*
X178802Y121099D02*
X189683D01*
X191598Y119184D01*
X148631Y143600D02*
X159162D01*
X147070Y142039D02*
X148631Y143600D01*
X147070Y130786D02*
Y142039D01*
X159162Y143600D02*
X165186D01*
X207700Y15321D02*
X210380Y18000D01*
X233516D01*
X201929Y15321D02*
X207700D01*
X234600Y6890D02*
Y16916D01*
X233516Y18000D02*
X234600Y16916D01*
Y6890D02*
X235669Y5821D01*
X238293D01*
X47282Y18577D02*
X49500D01*
X46395Y19463D02*
X47282Y18577D01*
X49500D02*
X50332Y19409D01*
X137690Y60321D02*
X140469Y63100D01*
X191598Y100824D02*
Y119184D01*
X188200Y103693D02*
Y117753D01*
X186822Y119131D02*
X188200Y117753D01*
X178802Y119131D02*
X186822D01*
X151104Y240930D02*
X156962Y246788D01*
X151104Y226688D02*
Y240930D01*
Y221388D02*
Y226688D01*
Y217120D02*
Y221388D01*
X189212Y240910D02*
X195070Y246769D01*
X189212Y226669D02*
Y240910D01*
Y221369D02*
Y226669D01*
Y217100D02*
Y221369D01*
X146300Y52171D02*
Y55300D01*
X144450Y50321D02*
X146300Y52171D01*
X133032Y50321D02*
X144450D01*
X144961Y82320D02*
Y117845D01*
X150139Y123023D02*
Y134326D01*
X144961Y117845D02*
X150139Y123023D01*
X133032Y65320D02*
X193189D01*
X151021Y40321D02*
X153639Y42939D01*
X154520Y35320D02*
X157239Y38039D01*
X158020Y30321D02*
X160939Y33239D01*
X147320Y45320D02*
X150000Y48000D01*
Y55300D01*
X157239Y38039D02*
Y55300D01*
X160939Y33239D02*
Y55300D01*
X133032Y60321D02*
X137690D01*
X183212Y217100D02*
Y221369D01*
X145104Y217120D02*
Y221388D01*
Y226688D02*
Y240930D01*
X139245Y246788D02*
X145104Y240930D01*
X7294Y195000D02*
X62718D01*
X144961Y75242D02*
Y82320D01*
X133032Y30321D02*
X158020D01*
X133032Y35320D02*
X154520D01*
X133032Y45320D02*
X147320D01*
X133032Y40321D02*
X151021D01*
X127354Y37908D02*
Y68737D01*
X120700Y35820D02*
X125267D01*
X127354Y37908D01*
X103949Y35820D02*
X120700D01*
X127354Y68737D02*
X128937Y70320D01*
X133032D01*
X265458Y46834D02*
X265528Y46764D01*
X261738Y46903D02*
X261808Y46834D01*
X265458D01*
X261714Y43417D02*
X265528D01*
X257900D02*
X261714D01*
X159987Y75269D02*
Y117162D01*
X164961Y75242D02*
Y118611D01*
X173354Y127005D02*
X178802D01*
X164961Y118611D02*
X173354Y127005D01*
X174555Y125036D02*
X178802D01*
X174961Y96373D02*
X177650Y99063D01*
X189837D02*
X191598Y100824D01*
X177650Y99063D02*
X189837D01*
X174961Y75242D02*
Y96373D01*
X199723Y90728D02*
Y125943D01*
X196693Y128973D02*
X199723Y125943D01*
X178802Y128973D02*
X196693D01*
X179961Y75242D02*
Y85661D01*
X149961Y117845D02*
X153806Y121690D01*
X149961Y82320D02*
Y117845D01*
Y75242D02*
Y82320D01*
X153806Y121690D02*
X153806D01*
X158776Y126660D01*
Y126660D01*
X158965Y126849D02*
X159162D01*
X158776Y126660D02*
X158965Y126849D01*
X153070Y126367D02*
X154994D01*
X157445Y128818D01*
X159162D01*
X150139Y134326D02*
X151592Y135779D01*
X155941D02*
X158965Y132755D01*
X151592Y135779D02*
X155941D01*
X158965Y132755D02*
X159162D01*
X161160Y126820D02*
X165156D01*
X165186Y130786D02*
Y132755D01*
Y138586D01*
Y143600D01*
X303094Y226874D02*
X313232Y216736D01*
X297685Y226874D02*
X303094D01*
X297685Y222543D02*
X303233D01*
X303093Y218212D02*
X307153Y214153D01*
X297685Y218212D02*
X303093D01*
X45000Y27300D02*
X47645D01*
X48364Y26581D01*
Y23350D02*
Y26581D01*
Y29309D01*
X44398Y23379D02*
Y26698D01*
X45000Y27300D01*
X44398Y23379D02*
X44427Y23350D01*
X46395Y19463D02*
Y23350D01*
X50332Y19409D02*
Y23350D01*
X50242D02*
Y31608D01*
X100361Y32232D02*
X103949Y35820D01*
X100361Y14220D02*
Y32232D01*
X96668Y5821D02*
X99291D01*
X100361Y6890D01*
Y14220D01*
X256221Y20321D02*
X257900Y22000D01*
Y34039D02*
Y37507D01*
X256161Y32300D02*
X257900Y34039D01*
Y22000D02*
Y27079D01*
X265388Y56069D02*
X265528Y56209D01*
X261738Y56069D02*
X265388D01*
X261714Y65465D02*
X265528D01*
X257900D02*
X261714D01*
Y59556D02*
X265528D01*
X257900D02*
X261714D01*
X265528Y68811D02*
Y72200D01*
X265176Y32300D02*
X265968Y31508D01*
X261714Y32300D02*
X265176D01*
X265528Y43417D02*
X265565Y43455D01*
X267741D01*
X271189Y46903D01*
X274148D02*
X274993Y47748D01*
X271189Y46903D02*
X274148D01*
X269397Y61595D02*
X274138D01*
X274993Y60740D01*
X265528Y65465D02*
X265744D01*
X266327Y64882D01*
Y64665D02*
X269397Y61595D01*
X266327Y64665D02*
Y64882D01*
X270831Y56410D02*
X274993D01*
X267741Y59500D02*
X270831Y56410D01*
X265729Y59554D02*
X265784Y59500D01*
X267741D01*
X316725Y25701D02*
X323280D01*
X325590Y28011D02*
Y84294D01*
X323280Y25701D02*
X325590Y28011D01*
X278930Y25701D02*
X316725D01*
X323159Y86724D02*
X325590Y84294D01*
X278930Y20100D02*
Y25701D01*
Y16500D02*
Y20100D01*
X277780Y15350D02*
X278930Y16500D01*
X277780Y15100D02*
Y15350D01*
X273221Y30425D02*
X274993D01*
X269875Y27079D02*
X273221Y30425D01*
X265528Y27079D02*
X269875D01*
X257900D02*
X265528D01*
X257900Y37507D02*
X265528D01*
X268407D01*
X269987Y39087D02*
X274993D01*
X268407Y37507D02*
X269987Y39087D01*
X45822Y31850D02*
X48364Y29309D01*
X45472Y31850D02*
X45822D01*
X50000D02*
X50242Y31608D01*
X42458Y23350D02*
Y30619D01*
X41309Y31769D02*
X42458Y30619D01*
X54269Y23350D02*
Y31800D01*
X81600Y136000D02*
X85436D01*
X58900Y126700D02*
Y130520D01*
X70240Y126700D02*
Y130520D01*
X165156Y126820D02*
X165186Y126849D01*
Y128818D01*
X153070Y130786D02*
X159162D01*
X158900Y176473D02*
Y180900D01*
X161124Y174249D02*
X178802D01*
X158900Y176473D02*
X161124Y174249D01*
X164300Y178015D02*
Y180900D01*
Y178015D02*
X166130Y176186D01*
X178756D01*
X75600Y136000D02*
Y140090D01*
X74661Y141028D02*
X74661D01*
X75600Y140090D01*
X73980Y141709D02*
X74661Y141028D01*
X73980Y141709D02*
Y142891D01*
X70240Y136521D02*
Y142891D01*
X55250Y136021D02*
X58900D01*
X64900Y130520D02*
Y140109D01*
X66500Y141709D01*
Y142891D01*
D17*
X88436Y34619D02*
G03*
X87736Y33919I0J-700D01*
G01*
X86336Y32909D02*
G03*
X87736Y32909I700J0D01*
G01*
X86336Y33919D02*
G03*
X84936Y33919I-700J0D01*
G01*
X83536Y32909D02*
G03*
X84936Y32909I700J0D01*
G01*
X83536Y33919D02*
G03*
X82836Y34619I-700J0D01*
G01*
X88436D02*
X90900D01*
X87736Y32909D02*
Y33919D01*
X86336Y32909D02*
Y33919D01*
X84936Y32909D02*
Y33919D01*
X83536Y32909D02*
Y33919D01*
X81136Y34619D02*
X82836D01*
X90900D02*
X94567D01*
X65481D02*
X81136D01*
X88656Y36219D02*
X94145D01*
X206645Y69483D02*
Y75117D01*
X205782Y68621D02*
X206645Y69483D01*
X208245Y68820D02*
Y75117D01*
X206445Y67020D02*
X208245Y68820D01*
Y75117D02*
Y77230D01*
X204883Y76879D02*
X206645Y75117D01*
X204883Y76879D02*
Y77230D01*
X204810Y67020D02*
X206445D01*
X201929Y65320D02*
X203110D01*
X204810Y67020D01*
X95448Y37100D02*
X95800D01*
X49115Y40835D02*
X61527D01*
X66144Y36219D01*
X46936Y38657D02*
X49115Y40835D01*
X66144Y36219D02*
X88656D01*
X46936Y36502D02*
Y38657D01*
X94567Y36219D02*
X95448Y37100D01*
X94145Y36219D02*
X94567D01*
X46585Y36150D02*
X46936Y36502D01*
X46072Y36150D02*
X46585D01*
X45472Y35550D02*
X46072Y36150D01*
X201929Y70320D02*
X203110D01*
X204810Y68621D01*
X205782D01*
X49778Y39235D02*
X60865D01*
X48536Y37994D02*
X49778Y39235D01*
X48536Y36502D02*
X48888Y36150D01*
X49400D01*
X48536Y36502D02*
Y37994D01*
X95448Y33738D02*
X95800D01*
X49400Y36150D02*
X50000Y35550D01*
X60865Y39235D02*
X65481Y34619D01*
X94567D02*
X95448Y33738D01*
D19*
X221145Y108693D02*
X243228D01*
X216200Y113638D02*
X221145Y108693D01*
X216200Y113638D02*
Y129966D01*
X221819Y110662D02*
X243228D01*
X218961Y113520D02*
X221819Y110662D01*
X218961Y113520D02*
Y133671D01*
X217363Y135269D02*
X218961Y133671D01*
X213506Y135269D02*
X217363D01*
X266813D01*
X216200Y129966D02*
Y132172D01*
X209383Y135552D02*
X211223Y137392D01*
X265226D02*
X269200Y141366D01*
X211223Y137392D02*
X265226D01*
X269200Y141366D02*
Y215800D01*
X266813Y135269D02*
X271353Y139809D01*
Y219539D01*
X209383Y130333D02*
Y135552D01*
Y130333D02*
X210716Y129000D01*
X215233D01*
X216200Y129966D01*
X212326Y132172D02*
Y134089D01*
X213506Y135269D01*
X57827Y213262D02*
X60388D01*
X115700Y20821D02*
Y28887D01*
X117608Y30795D02*
X124670D01*
X115700Y28887D02*
X117608Y30795D01*
X126461Y26313D02*
Y29004D01*
Y26313D02*
X127453Y25321D01*
X133032D01*
X124670Y30795D02*
X126461Y29004D01*
X76136Y216418D02*
X85400D01*
X136309Y105914D02*
Y185936D01*
X78117Y194116D02*
X128129D01*
X136309Y185936D01*
X77429Y192616D02*
X127441D01*
X134809Y185248D01*
X75929Y189616D02*
X125941D01*
X131809Y98178D02*
Y183748D01*
X133309Y102902D02*
Y184627D01*
X134809Y105179D02*
Y185248D01*
X76808Y191116D02*
X126820D01*
X125941Y189616D02*
X131809Y183748D01*
X126820Y191116D02*
X133309Y184627D01*
X331053Y195000D02*
Y201200D01*
X11683Y198032D02*
X59535D01*
X9500Y200216D02*
X11683Y198032D01*
X9500Y200216D02*
Y201200D01*
X69050Y198875D02*
X76808Y191116D01*
X67475Y198071D02*
X75929Y189616D01*
X70624Y199421D02*
X77429Y192616D01*
X72199Y200034D02*
X78117Y194116D01*
X72199Y226654D02*
Y233036D01*
X64325Y226654D02*
Y233036D01*
X138038Y98178D02*
Y101950D01*
X136309Y105914D02*
X140821Y101402D01*
X134809Y105179D02*
X138038Y101950D01*
X133309Y102902D02*
X134809Y101402D01*
X76892Y197732D02*
X81700D01*
X73774Y200850D02*
Y210906D01*
Y200850D02*
X76892Y197732D01*
X259800Y222543D02*
X268349D01*
X271353Y219539D01*
X266788Y218212D02*
X269200Y215800D01*
X259800Y218212D02*
X266788D01*
X61400Y199932D02*
X62500Y201032D01*
X59535Y198032D02*
X61400Y199898D01*
Y199932D01*
X62500Y201032D02*
X62750D01*
X53988Y202991D02*
X54895Y203898D01*
X53000Y202991D02*
X53988D01*
X54895Y203898D02*
Y210331D01*
X51900Y201891D02*
X53000Y202991D01*
X51900Y201732D02*
Y201891D01*
X46300Y212000D02*
X51049D01*
X55468Y216418D02*
X60388D01*
X51049Y212000D02*
X55468Y216418D01*
X51900Y206732D02*
Y210097D01*
X56646Y214843D02*
X60388D01*
X51900Y210097D02*
X56646Y214843D01*
X54895Y210331D02*
X57827Y213262D01*
X57900Y201732D02*
Y206732D01*
X61865D01*
X62750Y207618D02*
Y210906D01*
X61865Y206732D02*
X62750Y207618D01*
X64325Y205655D02*
Y210906D01*
X62750Y201032D02*
Y204080D01*
X64325Y205655D01*
X82834Y202518D02*
X234654D01*
X254679Y222543D02*
X259800D01*
X234654Y202518D02*
X254679Y222543D01*
X81701Y203651D02*
X82834Y202518D01*
X81700Y199712D02*
X82826Y200838D01*
X235538D01*
X252912Y218212D01*
X81700Y197732D02*
Y199712D01*
X252912Y218212D02*
X259800D01*
X81700Y205632D02*
X81701Y205631D01*
Y203651D02*
Y205631D01*
X77613Y205632D02*
X81700D01*
X76136Y207109D02*
Y213268D01*
Y207109D02*
X77613Y205632D01*
X69050Y198875D02*
Y210906D01*
X72199Y200034D02*
Y210906D01*
X70624Y199421D02*
Y210906D01*
X67475Y198071D02*
Y210906D01*
X115700Y20821D02*
X120700Y15821D01*
Y25820D02*
X126200Y20321D01*
X133032D01*
D20*
X44133Y16726D02*
X50777D01*
X42364Y18494D02*
X44133Y16726D01*
X40510Y20348D02*
X42364Y18494D01*
X40490Y23350D02*
X40510Y23330D01*
Y20348D02*
Y23330D01*
X50777Y16726D02*
X52301Y18250D01*
Y23350D01*
D34*
X28777Y30687D02*
D03*
X30352D02*
D03*
D35*
X18416Y26200D02*
D03*
X6384D02*
D03*
D36*
X243228Y102787D02*
D03*
Y104755D02*
D03*
Y106725D02*
D03*
Y108693D02*
D03*
Y110661D02*
D03*
Y112629D02*
D03*
D37*
X253366Y96134D02*
D03*
Y119283D02*
D03*
D38*
X259800Y213882D02*
D03*
Y218212D02*
D03*
Y222543D02*
D03*
Y226874D02*
D03*
Y231204D02*
D03*
Y235535D02*
D03*
Y239866D02*
D03*
Y244197D02*
D03*
Y248527D02*
D03*
X297685D02*
D03*
Y244197D02*
D03*
Y239866D02*
D03*
Y235535D02*
D03*
Y231204D02*
D03*
Y226874D02*
D03*
Y222543D02*
D03*
Y218212D02*
D03*
Y213882D02*
D03*
D39*
X249200Y240295D02*
D03*
Y243696D02*
D03*
D40*
X73774Y226654D02*
D03*
X72199D02*
D03*
X70624D02*
D03*
X69050D02*
D03*
X62750D02*
D03*
X67475D02*
D03*
X65900D02*
D03*
X64325D02*
D03*
X62750Y210906D02*
D03*
X64325D02*
D03*
X65900D02*
D03*
X67475D02*
D03*
X69050D02*
D03*
X70624D02*
D03*
X72199D02*
D03*
X73774D02*
D03*
D41*
X60388Y213268D02*
D03*
Y214843D02*
D03*
Y216418D02*
D03*
Y217993D02*
D03*
Y224292D02*
D03*
Y222717D02*
D03*
Y221143D02*
D03*
Y219568D02*
D03*
X76136Y213268D02*
D03*
Y214843D02*
D03*
Y216418D02*
D03*
Y217993D02*
D03*
Y224292D02*
D03*
Y222717D02*
D03*
Y221143D02*
D03*
Y219568D02*
D03*
D42*
X68262Y218780D02*
D03*
D43*
X159162Y130786D02*
D03*
Y128818D02*
D03*
Y132755D02*
D03*
Y126849D02*
D03*
X165186Y132755D02*
D03*
Y130786D02*
D03*
Y128818D02*
D03*
Y126849D02*
D03*
D44*
X161190Y132814D02*
D03*
X163158D02*
D03*
Y126790D02*
D03*
X161131D02*
D03*
D45*
X81700Y197732D02*
D03*
X85400D02*
D03*
X52250Y52200D02*
D03*
X48550D02*
D03*
X73500Y16385D02*
D03*
X69800D02*
D03*
X278930Y20100D02*
D03*
X282630D02*
D03*
X85400Y205632D02*
D03*
X81700D02*
D03*
X60625Y233036D02*
D03*
X64325D02*
D03*
X75899D02*
D03*
X72199D02*
D03*
X88236Y155883D02*
D03*
X84536D02*
D03*
X88236Y151158D02*
D03*
X84536D02*
D03*
X327353Y195000D02*
D03*
X331053D02*
D03*
X3594D02*
D03*
X7294D02*
D03*
D46*
X35100Y243190D02*
D03*
Y221143D02*
D03*
X14700Y50976D02*
D03*
Y73024D02*
D03*
X111800Y113924D02*
D03*
Y91876D02*
D03*
X102600Y243190D02*
D03*
Y221143D02*
D03*
X63100Y117144D02*
D03*
Y95097D02*
D03*
D47*
X164300Y180900D02*
D03*
Y186900D02*
D03*
X158900Y180900D02*
D03*
Y186900D02*
D03*
X152600Y160469D02*
D03*
Y154469D02*
D03*
X169750Y186900D02*
D03*
Y180900D02*
D03*
X312900Y235535D02*
D03*
Y229535D02*
D03*
X307100Y235535D02*
D03*
Y229535D02*
D03*
X217100Y10321D02*
D03*
Y4321D02*
D03*
X211700Y10321D02*
D03*
Y4321D02*
D03*
X85400Y227143D02*
D03*
Y221143D02*
D03*
X62750Y195032D02*
D03*
Y201032D02*
D03*
X85400Y216418D02*
D03*
Y210418D02*
D03*
X46300Y218000D02*
D03*
Y212000D02*
D03*
X51200Y218000D02*
D03*
Y224000D02*
D03*
X70240Y136521D02*
D03*
Y130520D02*
D03*
X61300Y162718D02*
D03*
Y168718D02*
D03*
X55250Y162718D02*
D03*
Y168718D02*
D03*
D48*
X90900Y78900D02*
D03*
Y55081D02*
D03*
D49*
X257900Y37507D02*
D03*
X251900D02*
D03*
X257900Y27079D02*
D03*
X251900D02*
D03*
X257900Y43417D02*
D03*
X251900D02*
D03*
X257900Y65465D02*
D03*
X251900D02*
D03*
X257900Y59556D02*
D03*
X251900D02*
D03*
X159800Y154886D02*
D03*
X165800D02*
D03*
X69800Y21106D02*
D03*
X75800D02*
D03*
X234600Y14220D02*
D03*
X228600D02*
D03*
X100361D02*
D03*
X106361D02*
D03*
X155961Y82320D02*
D03*
X149961D02*
D03*
X138961D02*
D03*
X144961D02*
D03*
X283780Y15100D02*
D03*
X277780D02*
D03*
X251900Y49031D02*
D03*
X245900D02*
D03*
X251900Y54131D02*
D03*
X245900D02*
D03*
X145104Y226688D02*
D03*
X151104D02*
D03*
X145104Y221388D02*
D03*
X151104D02*
D03*
X183212Y221369D02*
D03*
X189212D02*
D03*
X183212Y226669D02*
D03*
X189212D02*
D03*
X51900Y201732D02*
D03*
X57900D02*
D03*
X51900Y206732D02*
D03*
X57900D02*
D03*
X64900Y130520D02*
D03*
X58900D02*
D03*
X81600Y136000D02*
D03*
X75600D02*
D03*
X58900Y136021D02*
D03*
X64900D02*
D03*
X165186Y143600D02*
D03*
X171186D02*
D03*
X165186Y138586D02*
D03*
X171186D02*
D03*
X147070Y130786D02*
D03*
X153070D02*
D03*
D50*
X166540Y160469D02*
D03*
X159060D02*
D03*
X162800Y168343D02*
D03*
D51*
X7046Y36800D02*
D03*
X17754D02*
D03*
D52*
X235882Y253644D02*
D03*
Y243408D02*
D03*
D53*
X230764Y248526D02*
D03*
D54*
X241000Y248527D02*
D03*
D55*
X68600Y75274D02*
D03*
Y59526D02*
D03*
X90900Y107948D02*
D03*
Y92200D02*
D03*
D56*
X54330Y57766D02*
D03*
Y62766D02*
D03*
Y67766D02*
D03*
Y72766D02*
D03*
X33070D02*
D03*
Y67766D02*
D03*
Y62766D02*
D03*
Y57766D02*
D03*
D57*
X41080Y31800D02*
D03*
Y33965D02*
D03*
X54269Y31800D02*
D03*
Y33965D02*
D03*
D58*
X45472Y31850D02*
D03*
Y35550D02*
D03*
X50000Y31850D02*
D03*
Y35550D02*
D03*
X61300Y150850D02*
D03*
Y147150D02*
D03*
D59*
X40490Y23350D02*
D03*
X42458D02*
D03*
X44427D02*
D03*
X46395D02*
D03*
X54269D02*
D03*
X52301D02*
D03*
X50332D02*
D03*
X48364D02*
D03*
D60*
X34781D02*
D03*
X59978D02*
D03*
X37931D02*
D03*
X56828D02*
D03*
D61*
X173386Y35320D02*
D03*
D62*
X133032Y70320D02*
D03*
X201929Y5320D02*
D03*
Y10321D02*
D03*
Y15321D02*
D03*
Y20321D02*
D03*
Y25321D02*
D03*
Y30321D02*
D03*
Y35320D02*
D03*
Y40321D02*
D03*
Y45320D02*
D03*
Y50321D02*
D03*
Y55321D02*
D03*
Y60321D02*
D03*
Y65320D02*
D03*
Y70320D02*
D03*
X133032Y65320D02*
D03*
Y60321D02*
D03*
Y55321D02*
D03*
Y50321D02*
D03*
Y45320D02*
D03*
Y40321D02*
D03*
Y35320D02*
D03*
Y30321D02*
D03*
Y25321D02*
D03*
Y20321D02*
D03*
Y15321D02*
D03*
Y10321D02*
D03*
Y5320D02*
D03*
D63*
X194961Y75242D02*
D03*
X189961D02*
D03*
X184961D02*
D03*
X179961D02*
D03*
X174961D02*
D03*
X169961D02*
D03*
X164961D02*
D03*
X159961D02*
D03*
X154961D02*
D03*
X149961D02*
D03*
X144961D02*
D03*
X139961D02*
D03*
D64*
X224907Y5821D02*
D03*
X238293D02*
D03*
X110054D02*
D03*
X96668D02*
D03*
D65*
X265528Y34161D02*
D03*
Y37507D02*
D03*
Y46764D02*
D03*
Y43417D02*
D03*
Y30425D02*
D03*
Y27079D02*
D03*
Y56209D02*
D03*
Y59556D02*
D03*
Y68811D02*
D03*
Y65465D02*
D03*
D66*
X278930Y83181D02*
D03*
D67*
X274993Y34756D02*
D03*
Y39087D02*
D03*
Y43417D02*
D03*
Y47748D02*
D03*
Y52079D02*
D03*
Y56410D02*
D03*
Y60740D02*
D03*
Y65071D02*
D03*
Y30425D02*
D03*
D68*
X278930Y25701D02*
D03*
D69*
X316725Y86724D02*
D03*
Y25701D02*
D03*
D70*
X73980Y142891D02*
D03*
X70240D02*
D03*
X66500D02*
D03*
Y153521D02*
D03*
X70240D02*
D03*
X73980D02*
D03*
D71*
X72095Y169921D02*
D03*
X88236D02*
D03*
D72*
X102500Y173993D02*
D03*
Y155883D02*
D03*
D73*
X325147Y201200D02*
D03*
X331053D02*
D03*
X9500D02*
D03*
X3594D02*
D03*
D74*
X191598Y185666D02*
D03*
Y93934D02*
D03*
D75*
X178802Y178186D02*
D03*
Y176217D02*
D03*
Y174249D02*
D03*
Y172280D02*
D03*
Y170312D02*
D03*
Y168343D02*
D03*
Y166375D02*
D03*
Y164406D02*
D03*
Y162438D02*
D03*
Y160469D02*
D03*
Y158501D02*
D03*
Y156532D02*
D03*
Y154564D02*
D03*
Y152595D02*
D03*
Y150627D02*
D03*
Y148658D02*
D03*
Y146690D02*
D03*
Y144721D02*
D03*
Y142753D02*
D03*
Y140784D02*
D03*
Y138816D02*
D03*
Y136847D02*
D03*
Y134879D02*
D03*
Y132910D02*
D03*
Y130942D02*
D03*
Y128973D02*
D03*
Y127005D02*
D03*
Y125036D02*
D03*
Y123068D02*
D03*
Y121099D02*
D03*
Y119131D02*
D03*
Y117162D02*
D03*
Y115194D02*
D03*
Y113225D02*
D03*
Y111257D02*
D03*
Y109288D02*
D03*
Y107320D02*
D03*
Y105351D02*
D03*
Y103383D02*
D03*
Y101414D02*
D03*
D136*
X249200Y246215D02*
G03*
X246887Y248527I-2313J0D01*
G01*
X242600Y54131D02*
X245900D01*
X241000Y248527D02*
X246887D01*
X249200Y243696D02*
Y246215D01*
X120700Y117900D02*
X120900Y118100D01*
X120700Y55821D02*
Y117900D01*
X171186Y138586D02*
Y147280D01*
X158900Y186900D02*
X164300D01*
X148631D02*
X158900D01*
X164300D02*
X169750D01*
X85400Y197732D02*
X115800D01*
X90237Y216418D02*
X91482Y215173D01*
Y207114D02*
Y215173D01*
X85400Y216418D02*
X90237D01*
X90000Y205632D02*
X115800D01*
X85400D02*
X90000D01*
X91482Y207114D01*
X102500Y173993D02*
Y183638D01*
X99900Y186238D02*
X102500Y183638D01*
X74733Y186238D02*
X99900D01*
X65938Y195032D02*
X74733Y186238D01*
X62750Y195032D02*
X65938D01*
X290285Y213882D02*
X297685D01*
X259800Y239866D02*
X267200D01*
X259800Y248527D02*
X267200D01*
X45472Y52200D02*
X48550D01*
X283744Y15225D02*
X288175D01*
X283744D02*
X283780Y15189D01*
X283620Y15348D02*
X283744Y15225D01*
X288175D02*
X288300Y15350D01*
X283780Y15100D02*
Y15189D01*
X166540Y160469D02*
X171186D01*
X90900Y70353D02*
Y78900D01*
X88313Y67766D02*
X90900Y70353D01*
X54330Y67766D02*
X88313D01*
X312900Y229535D02*
X317100D01*
X307100D02*
X312900D01*
X155919Y87020D02*
X155940Y87000D01*
Y82341D02*
Y87000D01*
Y82341D02*
X155961Y82320D01*
X64407Y4650D02*
Y21106D01*
X202938Y88938D02*
Y150600D01*
X199661Y85661D02*
X202938Y88938D01*
X187267Y85661D02*
X199661D01*
X184961Y75242D02*
Y83355D01*
X187267Y85661D01*
X64407Y21106D02*
X69800D01*
Y16385D02*
Y21106D01*
X251900Y23400D02*
Y27079D01*
X245900Y49031D02*
Y54131D01*
X251900D02*
X258678D01*
X260731Y52079D02*
X274993D01*
X258678Y54131D02*
X260731Y52079D01*
X138961Y82320D02*
Y87020D01*
D137*
X312900Y235535D02*
X317100D01*
X307100D02*
X312900D01*
X297685Y244197D02*
X305350D01*
X307100Y242446D01*
Y235535D02*
Y242446D01*
X297685Y235535D02*
X307100D01*
D138*
X152600Y150600D02*
Y154469D01*
D139*
X249200Y235494D02*
D03*
D140*
X255694Y231204D02*
D03*
Y244197D02*
D03*
D141*
X56057Y217987D02*
D03*
D142*
X78706Y214850D02*
D03*
D143*
X181222Y112241D02*
D03*
D144*
X327582Y195094D02*
D03*
D145*
X111338Y173993D02*
D03*
D146*
X118400Y141266D02*
D03*
D147*
X217100Y12260D02*
D03*
D148*
X222725Y14220D02*
D03*
D149*
X102500Y111920D02*
D03*
D150*
X90750Y85698D02*
D03*
D151*
X6256Y31291D02*
D03*
D152*
X208913Y10321D02*
D03*
D153*
X251900Y51486D02*
D03*
D154*
X265528Y32293D02*
D03*
D155*
X253500Y51581D02*
D03*
D156*
X156075Y160625D02*
D03*
D157*
X159373Y157708D02*
D03*
D158*
X171274Y168350D02*
D03*
D159*
X42900Y139750D02*
D03*
D160*
X52575Y95093D02*
D03*
D161*
X50075Y94050D02*
D03*
D162*
X228600Y75300D02*
D03*
Y65300D02*
D03*
Y55300D02*
D03*
Y45300D02*
D03*
Y35300D02*
D03*
X215900Y75300D02*
D03*
Y65300D02*
D03*
Y55300D02*
D03*
Y45300D02*
D03*
Y35300D02*
D03*
X120700Y45821D02*
D03*
Y35820D02*
D03*
Y25820D02*
D03*
Y15821D02*
D03*
Y5821D02*
D03*
D163*
X228600Y25300D02*
D03*
X215900D02*
D03*
X120700Y55821D02*
D03*
D164*
X30352Y4650D02*
D03*
X64407D02*
D03*
D165*
X30352Y21106D02*
D03*
X64407D02*
D03*
D166*
X134324Y236749D02*
D03*
X161883D02*
D03*
X172432Y236729D02*
D03*
X199991D02*
D03*
X73262Y249932D02*
D03*
D167*
X156962Y246788D02*
D03*
X139245D02*
D03*
X195070Y246769D02*
D03*
X177353D02*
D03*
D168*
X63262Y249932D02*
D03*
D169*
X31648Y108121D02*
D03*
D170*
X40703Y121113D02*
D03*
Y95128D02*
D03*
D171*
X43110Y177718D02*
D03*
Y158820D02*
D03*
Y139923D02*
D03*
X6890Y132639D02*
D03*
Y185002D02*
D03*
D172*
X192084Y30321D02*
D03*
X193189Y61321D02*
D03*
X192084Y35320D02*
D03*
X242600Y54131D02*
D03*
X240371Y29964D02*
D03*
X252700Y82200D02*
D03*
X204883Y77230D02*
D03*
X208245D02*
D03*
X95800Y37100D02*
D03*
Y33738D02*
D03*
X241300Y95300D02*
D03*
X217675Y106725D02*
D03*
X250500Y104756D02*
D03*
X253100Y239866D02*
D03*
Y248527D02*
D03*
X226963Y242071D02*
D03*
Y252171D02*
D03*
X235882Y236700D02*
D03*
X244401Y242071D02*
D03*
X244840Y252383D02*
D03*
X222300Y132172D02*
D03*
X182800Y29141D02*
D03*
X251900Y40465D02*
D03*
X27104Y15100D02*
D03*
Y10000D02*
D03*
X215000Y154400D02*
D03*
X255500D02*
D03*
X296000D02*
D03*
Y183900D02*
D03*
X255500D02*
D03*
X215000D02*
D03*
X106361Y25820D02*
D03*
X165186Y123658D02*
D03*
X153639Y55319D02*
D03*
X142600Y55300D02*
D03*
X184100Y112200D02*
D03*
X173354Y117162D02*
D03*
X138961Y87020D02*
D03*
X117600Y88153D02*
D03*
X171186Y147280D02*
D03*
X186419D02*
D03*
X152600Y150600D02*
D03*
X221100Y14245D02*
D03*
X224907Y14220D02*
D03*
X317100Y235535D02*
D03*
X148631Y186900D02*
D03*
X115800Y160300D02*
D03*
Y165000D02*
D03*
Y169700D02*
D03*
Y174400D02*
D03*
X186419Y164406D02*
D03*
X74000Y147600D02*
D03*
X80600D02*
D03*
X115800Y205632D02*
D03*
X290285Y213882D02*
D03*
X267200Y239866D02*
D03*
Y248527D02*
D03*
X45472Y52200D02*
D03*
X58600Y36502D02*
D03*
X36159Y37760D02*
D03*
X163972Y41500D02*
D03*
Y29141D02*
D03*
X182800Y41500D02*
D03*
X194800Y4321D02*
D03*
X221100D02*
D03*
X288300Y15350D02*
D03*
X171186Y160469D02*
D03*
X184100Y106693D02*
D03*
X188200Y125036D02*
D03*
X159162Y143600D02*
D03*
X95400Y228700D02*
D03*
Y225157D02*
D03*
X42300D02*
D03*
Y228700D02*
D03*
X48501Y72766D02*
D03*
X42364Y18494D02*
D03*
X85400Y231400D02*
D03*
X80857Y210418D02*
D03*
X42300Y214843D02*
D03*
Y218387D02*
D03*
X68262Y241400D02*
D03*
Y237218D02*
D03*
Y233036D02*
D03*
X64500Y215061D02*
D03*
X72024D02*
D03*
Y222500D02*
D03*
X64500D02*
D03*
X68262Y218780D02*
D03*
X317100Y229535D02*
D03*
X188200Y103693D02*
D03*
X188189Y54321D02*
D03*
X216200Y132172D02*
D03*
X212326D02*
D03*
X138038Y98178D02*
D03*
X155919Y87020D02*
D03*
X134809Y101402D02*
D03*
X131809Y98178D02*
D03*
X140821Y101402D02*
D03*
X146300Y55300D02*
D03*
X151104Y217120D02*
D03*
X189212Y217100D02*
D03*
X115800Y197732D02*
D03*
X144961Y117845D02*
D03*
X149961D02*
D03*
X52659Y12800D02*
D03*
X42364D02*
D03*
X36159Y31769D02*
D03*
X193189Y65320D02*
D03*
X160939Y55300D02*
D03*
X157239D02*
D03*
X150000D02*
D03*
X183212Y217100D02*
D03*
X145104Y217120D02*
D03*
X29300Y239466D02*
D03*
Y247566D02*
D03*
X40900Y239466D02*
D03*
Y247566D02*
D03*
X96800Y239466D02*
D03*
Y247566D02*
D03*
X108400Y239466D02*
D03*
Y247566D02*
D03*
X38900Y57766D02*
D03*
Y72766D02*
D03*
X57300Y121520D02*
D03*
Y113420D02*
D03*
X68900Y121520D02*
D03*
Y113420D02*
D03*
X117600Y96253D02*
D03*
X106000D02*
D03*
Y88153D02*
D03*
X62800Y79650D02*
D03*
Y71550D02*
D03*
X74400Y79650D02*
D03*
Y71550D02*
D03*
X20500Y77400D02*
D03*
Y69300D02*
D03*
X8900D02*
D03*
Y77400D02*
D03*
X261738Y46903D02*
D03*
X261714Y43417D02*
D03*
X202938Y150600D02*
D03*
X159987Y117162D02*
D03*
X153070Y126367D02*
D03*
X207700Y15321D02*
D03*
X69407Y27477D02*
D03*
X60459D02*
D03*
X30352D02*
D03*
X58600Y31769D02*
D03*
X33600Y10000D02*
D03*
Y15100D02*
D03*
X34300Y27477D02*
D03*
X251900Y23400D02*
D03*
X261714Y56094D02*
D03*
X237092Y25321D02*
D03*
X265528Y72200D02*
D03*
X261714Y32300D02*
D03*
X255300Y49000D02*
D03*
X261714Y59556D02*
D03*
Y65465D02*
D03*
X85436Y136000D02*
D03*
X77100Y161800D02*
D03*
X58900Y126700D02*
D03*
X70240D02*
D03*
X55250Y136021D02*
D03*
X91977Y151158D02*
D03*
X55250Y143820D02*
D03*
X61300D02*
D03*
X55250Y178718D02*
D03*
X61300D02*
D03*
X80600Y151741D02*
D03*
Y155883D02*
D03*
X61300Y173821D02*
D03*
X55250D02*
D03*
X52500Y96700D02*
D03*
X56600D02*
D03*
X52500Y100200D02*
D03*
X56600D02*
D03*
M02*
