G04*
G04 #@! TF.GenerationSoftware,Altium Limited,Altium Designer,23.6.0 (18)*
G04*
G04 Layer_Color=255*
%FSLAX25Y25*%
%MOIN*%
G70*
G04*
G04 #@! TF.SameCoordinates,B1711246-A666-457E-9349-3D56B44E1F9A*
G04*
G04*
G04 #@! TF.FilePolarity,Positive*
G04*
G01*
G75*
%ADD162C,0.05906*%
%ADD163R,0.05906X0.05906*%
%ADD164O,0.03543X0.06693*%
%ADD165O,0.03543X0.07874*%
%ADD166C,0.07874*%
%ADD167C,0.06299*%
%ADD168R,0.07874X0.07874*%
%ADD169R,0.05906X0.11811*%
%ADD170R,0.11811X0.05906*%
%ADD171C,0.11024*%
D162*
X228600Y75300D02*
D03*
Y65300D02*
D03*
Y55300D02*
D03*
Y45300D02*
D03*
Y35300D02*
D03*
X215900Y75300D02*
D03*
Y65300D02*
D03*
Y55300D02*
D03*
Y45300D02*
D03*
Y35300D02*
D03*
X120700Y45821D02*
D03*
Y35820D02*
D03*
Y25820D02*
D03*
Y15821D02*
D03*
Y5821D02*
D03*
D163*
X228600Y25300D02*
D03*
X215900D02*
D03*
X120700Y55821D02*
D03*
D164*
X30352Y4650D02*
D03*
X64407D02*
D03*
D165*
X30352Y21106D02*
D03*
X64407D02*
D03*
D166*
X134324Y236749D02*
D03*
X161883D02*
D03*
X172432Y236729D02*
D03*
X199991D02*
D03*
X73262Y249932D02*
D03*
D167*
X156962Y246788D02*
D03*
X139245D02*
D03*
X195070Y246769D02*
D03*
X177353D02*
D03*
D168*
X63262Y249932D02*
D03*
D169*
X31648Y108121D02*
D03*
D170*
X40703Y121113D02*
D03*
Y95128D02*
D03*
D171*
X43110Y177718D02*
D03*
Y158820D02*
D03*
Y139923D02*
D03*
X6890Y132639D02*
D03*
Y185002D02*
D03*
M02*
