G04*
G04 #@! TF.GenerationSoftware,Altium Limited,Altium Designer,23.6.0 (18)*
G04*
G04 Layer_Color=128*
%FSLAX25Y25*%
%MOIN*%
G70*
G04*
G04 #@! TF.SameCoordinates,B1711246-A666-457E-9349-3D56B44E1F9A*
G04*
G04*
G04 #@! TF.FilePolarity,Positive*
G04*
G01*
G75*
%ADD10C,0.00500*%
D10*
X226829Y75300D02*
X230372D01*
X228600Y73528D02*
Y77072D01*
X226829Y65300D02*
X230372D01*
X228600Y63528D02*
Y67072D01*
X226829Y55300D02*
X230372D01*
X228600Y53528D02*
Y57072D01*
X226829Y45300D02*
X230372D01*
X228600Y43528D02*
Y47072D01*
X226829Y35300D02*
X230372D01*
X228600Y33528D02*
Y37072D01*
X226829Y25300D02*
X230372D01*
X228600Y23528D02*
Y27072D01*
X214128Y75300D02*
X217672D01*
X215900Y73528D02*
Y77072D01*
X214128Y65300D02*
X217672D01*
X215900Y63528D02*
Y67072D01*
X214128Y55300D02*
X217672D01*
X215900Y53528D02*
Y57072D01*
X214128Y45300D02*
X217672D01*
X215900Y43528D02*
Y47072D01*
X214128Y35300D02*
X217672D01*
X215900Y33528D02*
Y37072D01*
X214128Y25300D02*
X217672D01*
X215900Y23528D02*
Y27072D01*
X29171Y4650D02*
X31533D01*
X30352Y3469D02*
Y5831D01*
X63226Y4650D02*
X65588D01*
X64407Y3469D02*
Y5831D01*
X29171Y21106D02*
X31533D01*
X30352Y19925D02*
Y22287D01*
X63226Y21106D02*
X65588D01*
X64407Y19925D02*
Y22287D01*
X57537Y19138D02*
X59978D01*
X58758Y17917D02*
Y20358D01*
X34781Y19138D02*
X37222D01*
X36002Y17917D02*
Y20358D01*
X118928Y55821D02*
X122472D01*
X120700Y54049D02*
Y57592D01*
X118928Y45821D02*
X122472D01*
X120700Y44049D02*
Y47592D01*
X118928Y35820D02*
X122472D01*
X120700Y34049D02*
Y37592D01*
X118928Y25820D02*
X122472D01*
X120700Y24049D02*
Y27592D01*
X118928Y15821D02*
X122472D01*
X120700Y14049D02*
Y17592D01*
X118928Y5821D02*
X122472D01*
X120700Y4049D02*
Y7592D01*
X316292Y68221D02*
X320308D01*
X318300Y66213D02*
Y70228D01*
X316292Y36724D02*
X320308D01*
X318300Y34716D02*
Y38732D01*
X131765Y236749D02*
X136883D01*
X134324Y234190D02*
Y239308D01*
X154993Y246788D02*
X158930D01*
X156962Y244820D02*
Y248757D01*
X137277Y246788D02*
X141214D01*
X139245Y244820D02*
Y248757D01*
X159324Y236749D02*
X164442D01*
X161883Y234190D02*
Y239308D01*
X169873Y236729D02*
X174991D01*
X172432Y234170D02*
Y239288D01*
X193101Y246769D02*
X197038D01*
X195070Y244800D02*
Y248737D01*
X175385Y246769D02*
X179322D01*
X177353Y244800D02*
Y248737D01*
X197432Y236729D02*
X202550D01*
X199991Y234170D02*
Y239288D01*
X61294Y249932D02*
X65231D01*
X63262Y247964D02*
Y251901D01*
X71294Y249932D02*
X75231D01*
X73262Y247964D02*
Y251901D01*
X29680Y108121D02*
X33617D01*
X31648Y106152D02*
Y110089D01*
X38735Y121113D02*
X42672D01*
X40703Y119144D02*
Y123081D01*
X38735Y95128D02*
X42672D01*
X40703Y93160D02*
Y97097D01*
X11766Y108121D02*
X20034D01*
X15900Y103987D02*
Y112254D01*
X39961Y177718D02*
X46260D01*
X43110Y174568D02*
Y180868D01*
X39961Y158820D02*
X46260D01*
X43110Y155671D02*
Y161970D01*
X39961Y139923D02*
X46260D01*
X43110Y136773D02*
Y143072D01*
X3740Y132639D02*
X10040D01*
X6890Y129490D02*
Y135789D01*
X3740Y185002D02*
X10040D01*
X6890Y181852D02*
Y188151D01*
X318504Y9843D02*
X331102D01*
X324803Y3543D02*
Y16142D01*
X318504Y246063D02*
X331102D01*
X324803Y239764D02*
Y252362D01*
X3543Y246063D02*
X16142D01*
X9843Y239764D02*
Y252362D01*
X3543Y9843D02*
X16142D01*
X9843Y3543D02*
Y16142D01*
X191493Y30321D02*
X192674D01*
X192084Y29730D02*
Y30911D01*
X192598Y61321D02*
X193780D01*
X193189Y60730D02*
Y61911D01*
X191493Y35320D02*
X192674D01*
X192084Y34730D02*
Y35911D01*
X242009Y54131D02*
X243191D01*
X242600Y53541D02*
Y54722D01*
X239781Y29964D02*
X240962D01*
X240371Y29373D02*
Y30555D01*
X252110Y82200D02*
X253291D01*
X252700Y81609D02*
Y82790D01*
X204292Y77230D02*
X205473D01*
X204883Y76640D02*
Y77821D01*
X207654Y77230D02*
X208835D01*
X208245Y76640D02*
Y77821D01*
X95209Y37100D02*
X96390D01*
X95800Y36509D02*
Y37691D01*
X95209Y33738D02*
X96390D01*
X95800Y33147D02*
Y34328D01*
X240709Y95300D02*
X241891D01*
X241300Y94709D02*
Y95890D01*
X217085Y106725D02*
X218266D01*
X217675Y106134D02*
Y107315D01*
X249909Y104756D02*
X251091D01*
X250500Y104166D02*
Y105347D01*
X252509Y239866D02*
X253691D01*
X253100Y239275D02*
Y240456D01*
X252509Y248527D02*
X253691D01*
X253100Y247937D02*
Y249118D01*
X226372Y242071D02*
X227554D01*
X226963Y241480D02*
Y242661D01*
X226372Y252171D02*
X227554D01*
X226963Y251580D02*
Y252761D01*
X235291Y236700D02*
X236473D01*
X235882Y236109D02*
Y237291D01*
X243810Y242071D02*
X244992D01*
X244401Y241480D02*
Y242661D01*
X244250Y252383D02*
X245431D01*
X244840Y251792D02*
Y252973D01*
X221709Y132172D02*
X222890D01*
X222300Y131582D02*
Y132763D01*
X182209Y29141D02*
X183391D01*
X182800Y28550D02*
Y29732D01*
X251309Y40465D02*
X252490D01*
X251900Y39874D02*
Y41055D01*
X26513Y15100D02*
X27694D01*
X27104Y14510D02*
Y15690D01*
X26513Y10000D02*
X27694D01*
X27104Y9409D02*
Y10591D01*
X214409Y154400D02*
X215591D01*
X215000Y153809D02*
Y154991D01*
X254909Y154400D02*
X256090D01*
X255500Y153809D02*
Y154991D01*
X295409Y154400D02*
X296590D01*
X296000Y153809D02*
Y154991D01*
X295409Y183900D02*
X296590D01*
X296000Y183309D02*
Y184491D01*
X254909Y183900D02*
X256090D01*
X255500Y183309D02*
Y184491D01*
X214409Y183900D02*
X215591D01*
X215000Y183309D02*
Y184491D01*
X105770Y25820D02*
X106951D01*
X106361Y25230D02*
Y26411D01*
X164595Y123658D02*
X165776D01*
X165186Y123068D02*
Y124249D01*
X153049Y55319D02*
X154230D01*
X153639Y54728D02*
Y55910D01*
X142009Y55300D02*
X143191D01*
X142600Y54710D02*
Y55891D01*
X183509Y112200D02*
X184691D01*
X184100Y111609D02*
Y112791D01*
X172764Y117162D02*
X173945D01*
X173354Y116572D02*
Y117753D01*
X138370Y87020D02*
X139551D01*
X138961Y86430D02*
Y87611D01*
X117009Y88153D02*
X118191D01*
X117600Y87562D02*
Y88743D01*
X170595Y147280D02*
X171776D01*
X171186Y146690D02*
Y147871D01*
X185828Y147280D02*
X187009D01*
X186419Y146690D02*
Y147871D01*
X152009Y150600D02*
X153191D01*
X152600Y150009D02*
Y151191D01*
X220510Y14245D02*
X221691D01*
X221100Y13654D02*
Y14836D01*
X224317Y14220D02*
X225498D01*
X224907Y13630D02*
Y14811D01*
X316510Y235535D02*
X317690D01*
X317100Y234945D02*
Y236126D01*
X148040Y186900D02*
X149221D01*
X148631Y186309D02*
Y187491D01*
X115209Y160300D02*
X116391D01*
X115800Y159709D02*
Y160891D01*
X115209Y165000D02*
X116391D01*
X115800Y164409D02*
Y165591D01*
X115209Y169700D02*
X116391D01*
X115800Y169109D02*
Y170291D01*
X115209Y174400D02*
X116391D01*
X115800Y173809D02*
Y174991D01*
X185828Y164406D02*
X187009D01*
X186419Y163816D02*
Y164997D01*
X73409Y147600D02*
X74590D01*
X74000Y147009D02*
Y148191D01*
X80010Y147600D02*
X81191D01*
X80600Y147009D02*
Y148191D01*
X115209Y205632D02*
X116391D01*
X115800Y205042D02*
Y206223D01*
X289694Y213882D02*
X290876D01*
X290285Y213291D02*
Y214472D01*
X266610Y239866D02*
X267791D01*
X267200Y239275D02*
Y240456D01*
X266610Y248527D02*
X267791D01*
X267200Y247937D02*
Y249118D01*
X44882Y52200D02*
X46063D01*
X45472Y51609D02*
Y52790D01*
X58009Y36502D02*
X59190D01*
X58600Y35911D02*
Y37092D01*
X35568Y37760D02*
X36750D01*
X36159Y37169D02*
Y38350D01*
X163381Y41500D02*
X164562D01*
X163972Y40909D02*
Y42091D01*
X163381Y29141D02*
X164562D01*
X163972Y28550D02*
Y29732D01*
X182209Y41500D02*
X183391D01*
X182800Y40909D02*
Y42091D01*
X194209Y4321D02*
X195391D01*
X194800Y3730D02*
Y4911D01*
X220510Y4321D02*
X221691D01*
X221100Y3730D02*
Y4911D01*
X287709Y15350D02*
X288891D01*
X288300Y14760D02*
Y15940D01*
X170595Y160469D02*
X171776D01*
X171186Y159879D02*
Y161060D01*
X183509Y106693D02*
X184691D01*
X184100Y106103D02*
Y107284D01*
X187609Y125036D02*
X188791D01*
X188200Y124446D02*
Y125627D01*
X158572Y143600D02*
X159753D01*
X159162Y143009D02*
Y144191D01*
X94809Y228700D02*
X95990D01*
X95400Y228110D02*
Y229291D01*
X94809Y225157D02*
X95990D01*
X95400Y224566D02*
Y225747D01*
X41709Y225157D02*
X42891D01*
X42300Y224566D02*
Y225747D01*
X41709Y228700D02*
X42891D01*
X42300Y228110D02*
Y229291D01*
X47910Y72766D02*
X49091D01*
X48501Y72176D02*
Y73357D01*
X41774Y18494D02*
X42955D01*
X42364Y17904D02*
Y19085D01*
X84809Y231400D02*
X85991D01*
X85400Y230809D02*
Y231991D01*
X80267Y210418D02*
X81448D01*
X80857Y209828D02*
Y211009D01*
X41709Y214843D02*
X42891D01*
X42300Y214253D02*
Y215434D01*
X41709Y218387D02*
X42891D01*
X42300Y217796D02*
Y218977D01*
X67672Y241400D02*
X68853D01*
X68262Y240809D02*
Y241990D01*
X67672Y237218D02*
X68853D01*
X68262Y236628D02*
Y237809D01*
X67672Y233036D02*
X68853D01*
X68262Y232446D02*
Y233627D01*
X63910Y215061D02*
X65091D01*
X64500Y214470D02*
Y215651D01*
X71434Y215061D02*
X72615D01*
X72024Y214470D02*
Y215651D01*
X71434Y222500D02*
X72615D01*
X72024Y221909D02*
Y223091D01*
X63910Y222500D02*
X65091D01*
X64500Y221909D02*
Y223091D01*
X67672Y218780D02*
X68853D01*
X68262Y218190D02*
Y219371D01*
X316510Y229535D02*
X317690D01*
X317100Y228944D02*
Y230126D01*
X187609Y103693D02*
X188791D01*
X188200Y103103D02*
Y104284D01*
X187599Y54321D02*
X188780D01*
X188189Y53730D02*
Y54911D01*
X215610Y132172D02*
X216791D01*
X216200Y131582D02*
Y132763D01*
X211736Y132172D02*
X212917D01*
X212326Y131582D02*
Y132763D01*
X137447Y98178D02*
X138628D01*
X138038Y97588D02*
Y98769D01*
X155328Y87020D02*
X156509D01*
X155919Y86430D02*
Y87611D01*
X134219Y101402D02*
X135400D01*
X134809Y100811D02*
Y101992D01*
X131219Y98178D02*
X132400D01*
X131809Y97588D02*
Y98769D01*
X140231Y101402D02*
X141412D01*
X140821Y100811D02*
Y101992D01*
X145709Y55300D02*
X146891D01*
X146300Y54710D02*
Y55891D01*
X150513Y217120D02*
X151694D01*
X151104Y216529D02*
Y217710D01*
X188621Y217100D02*
X189802D01*
X189212Y216510D02*
Y217690D01*
X115209Y197732D02*
X116391D01*
X115800Y197142D02*
Y198323D01*
X144370Y117845D02*
X145551D01*
X144961Y117254D02*
Y118435D01*
X149370Y117845D02*
X150551D01*
X149961Y117254D02*
Y118435D01*
X52069Y12800D02*
X53250D01*
X52659Y12209D02*
Y13390D01*
X41774Y12800D02*
X42955D01*
X42364Y12209D02*
Y13390D01*
X35568Y31769D02*
X36750D01*
X36159Y31178D02*
Y32359D01*
X192598Y65320D02*
X193780D01*
X193189Y64730D02*
Y65911D01*
X160349Y55300D02*
X161530D01*
X160939Y54710D02*
Y55891D01*
X156649Y55300D02*
X157830D01*
X157239Y54710D02*
Y55891D01*
X149409Y55300D02*
X150591D01*
X150000Y54710D02*
Y55891D01*
X182621Y217100D02*
X183802D01*
X183212Y216510D02*
Y217690D01*
X144513Y217120D02*
X145694D01*
X145104Y216529D02*
Y217710D01*
X28709Y239466D02*
X29891D01*
X29300Y238876D02*
Y240057D01*
X28709Y247566D02*
X29891D01*
X29300Y246976D02*
Y248157D01*
X40309Y239466D02*
X41491D01*
X40900Y238876D02*
Y240057D01*
X40309Y247566D02*
X41491D01*
X40900Y246976D02*
Y248157D01*
X96209Y239466D02*
X97390D01*
X96800Y238876D02*
Y240057D01*
X96209Y247566D02*
X97390D01*
X96800Y246976D02*
Y248157D01*
X107809Y239466D02*
X108991D01*
X108400Y238876D02*
Y240057D01*
X107809Y247566D02*
X108991D01*
X108400Y246976D02*
Y248157D01*
X38309Y57766D02*
X39491D01*
X38900Y57176D02*
Y58357D01*
X38309Y72766D02*
X39491D01*
X38900Y72176D02*
Y73357D01*
X56710Y121520D02*
X57891D01*
X57300Y120930D02*
Y122111D01*
X56710Y113420D02*
X57891D01*
X57300Y112830D02*
Y114011D01*
X68310Y121520D02*
X69491D01*
X68900Y120930D02*
Y122111D01*
X68310Y113420D02*
X69491D01*
X68900Y112830D02*
Y114011D01*
X117009Y96253D02*
X118191D01*
X117600Y95662D02*
Y96843D01*
X105409Y96253D02*
X106591D01*
X106000Y95662D02*
Y96843D01*
X105409Y88153D02*
X106591D01*
X106000Y87562D02*
Y88743D01*
X62209Y79650D02*
X63390D01*
X62800Y79060D02*
Y80241D01*
X62209Y71550D02*
X63390D01*
X62800Y70960D02*
Y72141D01*
X73809Y79650D02*
X74990D01*
X74400Y79060D02*
Y80241D01*
X73809Y71550D02*
X74990D01*
X74400Y70960D02*
Y72141D01*
X19909Y77400D02*
X21091D01*
X20500Y76810D02*
Y77991D01*
X19909Y69300D02*
X21091D01*
X20500Y68709D02*
Y69890D01*
X8309Y69300D02*
X9491D01*
X8900Y68709D02*
Y69890D01*
X8309Y77400D02*
X9491D01*
X8900Y76810D02*
Y77991D01*
X261148Y46903D02*
X262329D01*
X261738Y46313D02*
Y47494D01*
X261123Y43417D02*
X262304D01*
X261714Y42827D02*
Y44008D01*
X202348Y150600D02*
X203529D01*
X202938Y150009D02*
Y151191D01*
X159397Y117162D02*
X160578D01*
X159987Y116572D02*
Y117753D01*
X152479Y126367D02*
X153660D01*
X153070Y125776D02*
Y126957D01*
X207109Y15321D02*
X208291D01*
X207700Y14730D02*
Y15911D01*
X68817Y27477D02*
X69998D01*
X69407Y26886D02*
Y28067D01*
X59869Y27477D02*
X61050D01*
X60459Y26886D02*
Y28067D01*
X29761Y27477D02*
X30942D01*
X30352Y26886D02*
Y28067D01*
X58009Y31769D02*
X59190D01*
X58600Y31178D02*
Y32359D01*
X33009Y10000D02*
X34191D01*
X33600Y9409D02*
Y10591D01*
X33009Y15100D02*
X34191D01*
X33600Y14510D02*
Y15690D01*
X33709Y27477D02*
X34891D01*
X34300Y26886D02*
Y28067D01*
X251309Y23400D02*
X252490D01*
X251900Y22809D02*
Y23990D01*
X261123Y56094D02*
X262304D01*
X261714Y55503D02*
Y56684D01*
X236501Y25321D02*
X237682D01*
X237092Y24730D02*
Y25911D01*
X264937Y72200D02*
X266118D01*
X265528Y71609D02*
Y72790D01*
X261123Y32300D02*
X262304D01*
X261714Y31709D02*
Y32891D01*
X254710Y49000D02*
X255890D01*
X255300Y48409D02*
Y49591D01*
X261123Y59556D02*
X262304D01*
X261714Y58965D02*
Y60146D01*
X261123Y65465D02*
X262304D01*
X261714Y64874D02*
Y66055D01*
X84846Y136000D02*
X86027D01*
X85436Y135409D02*
Y136591D01*
X76509Y161800D02*
X77691D01*
X77100Y161209D02*
Y162391D01*
X58310Y126700D02*
X59491D01*
X58900Y126109D02*
Y127291D01*
X69650Y126700D02*
X70831D01*
X70240Y126109D02*
Y127291D01*
X54660Y136021D02*
X55841D01*
X55250Y135430D02*
Y136611D01*
X91386Y151158D02*
X92567D01*
X91977Y150568D02*
Y151749D01*
X54660Y143820D02*
X55841D01*
X55250Y143230D02*
Y144411D01*
X60710Y143820D02*
X61891D01*
X61300Y143230D02*
Y144411D01*
X54660Y178718D02*
X55841D01*
X55250Y178128D02*
Y179309D01*
X60710Y178718D02*
X61891D01*
X61300Y178128D02*
Y179309D01*
X80010Y151741D02*
X81191D01*
X80600Y151151D02*
Y152332D01*
X80010Y155883D02*
X81191D01*
X80600Y155292D02*
Y156473D01*
X60710Y173821D02*
X61891D01*
X61300Y173230D02*
Y174411D01*
X54660Y173821D02*
X55841D01*
X55250Y173230D02*
Y174411D01*
X51910Y96700D02*
X53091D01*
X52500Y96109D02*
Y97290D01*
X56010Y96700D02*
X57191D01*
X56600Y96109D02*
Y97290D01*
X51910Y100200D02*
X53091D01*
X52500Y99610D02*
Y100791D01*
X56010Y100200D02*
X57191D01*
X56600Y99610D02*
Y100791D01*
M02*
