G04*
G04 #@! TF.GenerationSoftware,Altium Limited,Altium Designer,23.6.0 (18)*
G04*
G04 Layer_Color=2752767*
%FSLAX25Y25*%
%MOIN*%
G70*
G04*
G04 #@! TF.SameCoordinates,B1711246-A666-457E-9349-3D56B44E1F9A*
G04*
G04*
G04 #@! TF.FilePolarity,Positive*
G04*
G01*
G75*
%ADD10C,0.00500*%
%ADD11C,0.01000*%
%ADD136C,0.01500*%
%ADD177C,0.01600*%
%ADD178C,0.01400*%
D10*
X43203Y95128D02*
G03*
X43203Y95128I-2500J0D01*
G01*
Y121113D02*
G03*
X43203Y121113I-2500J0D01*
G01*
X34148Y108121D02*
G03*
X34148Y108121I-2500J0D01*
G01*
X74762Y249932D02*
G03*
X74762Y249932I-1500J0D01*
G01*
X75762D02*
G03*
X75762Y249932I-2500J0D01*
G01*
X64762D02*
G03*
X64762Y249932I-1500J0D01*
G01*
X65762D02*
G03*
X65762Y249932I-2500J0D01*
G01*
X178853Y246769D02*
G03*
X178853Y246769I-1500J0D01*
G01*
X179853D02*
G03*
X179853Y246769I-2500J0D01*
G01*
X196570D02*
G03*
X196570Y246769I-1500J0D01*
G01*
X197570D02*
G03*
X197570Y246769I-2500J0D01*
G01*
X140745Y246788D02*
G03*
X140745Y246788I-1500J0D01*
G01*
X141745D02*
G03*
X141745Y246788I-2500J0D01*
G01*
X158462D02*
G03*
X158462Y246788I-1500J0D01*
G01*
X159462D02*
G03*
X159462Y246788I-2500J0D01*
G01*
X56600Y98700D02*
X58100Y101700D01*
X55100D02*
X58100D01*
X55100D02*
X56600Y98700D01*
Y97700D02*
X59100Y102700D01*
X54100D02*
X59100D01*
X54100D02*
X56600Y97700D01*
X52500Y98700D02*
X54000Y101700D01*
X51000D02*
X54000D01*
X51000D02*
X52500Y98700D01*
Y97700D02*
X55000Y102700D01*
X50000D02*
X55000D01*
X50000D02*
X52500Y97700D01*
X56600Y95200D02*
X58100Y98200D01*
X55100D02*
X58100D01*
X55100D02*
X56600Y95200D01*
Y94200D02*
X59100Y99200D01*
X54100D02*
X59100D01*
X54100D02*
X56600Y94200D01*
X52500Y95200D02*
X54000Y98200D01*
X51000D02*
X54000D01*
X51000D02*
X52500Y95200D01*
Y94200D02*
X55000Y99200D01*
X50000D02*
X55000D01*
X50000D02*
X52500Y94200D01*
X55250Y172321D02*
X56750Y175321D01*
X53750D02*
X56750D01*
X53750D02*
X55250Y172321D01*
Y171321D02*
X57750Y176321D01*
X52750D02*
X57750D01*
X52750D02*
X55250Y171321D01*
X61300Y172321D02*
X62800Y175321D01*
X59800D02*
X62800D01*
X59800D02*
X61300Y172321D01*
Y171321D02*
X63800Y176321D01*
X58800D02*
X63800D01*
X58800D02*
X61300Y171321D01*
X80600Y154383D02*
X82100Y157383D01*
X79100D02*
X82100D01*
X79100D02*
X80600Y154383D01*
Y153383D02*
X83100Y158383D01*
X78100D02*
X83100D01*
X78100D02*
X80600Y153383D01*
Y150241D02*
X82100Y153241D01*
X79100D02*
X82100D01*
X79100D02*
X80600Y150241D01*
Y149241D02*
X83100Y154241D01*
X78100D02*
X83100D01*
X78100D02*
X80600Y149241D01*
X61300Y177218D02*
X62800Y180218D01*
X59800D02*
X62800D01*
X59800D02*
X61300Y177218D01*
Y176218D02*
X63800Y181218D01*
X58800D02*
X63800D01*
X58800D02*
X61300Y176218D01*
X55250Y177218D02*
X56750Y180218D01*
X53750D02*
X56750D01*
X53750D02*
X55250Y177218D01*
Y176218D02*
X57750Y181218D01*
X52750D02*
X57750D01*
X52750D02*
X55250Y176218D01*
X61300Y142320D02*
X62800Y145320D01*
X59800D02*
X62800D01*
X59800D02*
X61300Y142320D01*
Y141320D02*
X63800Y146320D01*
X58800D02*
X63800D01*
X58800D02*
X61300Y141320D01*
X55250Y142320D02*
X56750Y145320D01*
X53750D02*
X56750D01*
X53750D02*
X55250Y142320D01*
Y141320D02*
X57750Y146320D01*
X52750D02*
X57750D01*
X52750D02*
X55250Y141320D01*
X91977Y149658D02*
X93477Y152658D01*
X90477D02*
X93477D01*
X90477D02*
X91977Y149658D01*
Y148658D02*
X94477Y153658D01*
X89477D02*
X94477D01*
X89477D02*
X91977Y148658D01*
X55250Y134520D02*
X56750Y137521D01*
X53750D02*
X56750D01*
X53750D02*
X55250Y134520D01*
Y133520D02*
X57750Y138521D01*
X52750D02*
X57750D01*
X52750D02*
X55250Y133520D01*
X70240Y125200D02*
X71740Y128200D01*
X68740D02*
X71740D01*
X68740D02*
X70240Y125200D01*
Y124200D02*
X72740Y129200D01*
X67740D02*
X72740D01*
X67740D02*
X70240Y124200D01*
X58900Y125200D02*
X60400Y128200D01*
X57400D02*
X60400D01*
X57400D02*
X58900Y125200D01*
Y124200D02*
X61400Y129200D01*
X56400D02*
X61400D01*
X56400D02*
X58900Y124200D01*
X77100Y160300D02*
X78600Y163300D01*
X75600D02*
X78600D01*
X75600D02*
X77100Y160300D01*
Y159300D02*
X79600Y164300D01*
X74600D02*
X79600D01*
X74600D02*
X77100Y159300D01*
X85436Y134500D02*
X86936Y137500D01*
X83936D02*
X86936D01*
X83936D02*
X85436Y134500D01*
Y133500D02*
X87936Y138500D01*
X82936D02*
X87936D01*
X82936D02*
X85436Y133500D01*
X261714Y63965D02*
X263214Y66965D01*
X260214D02*
X263214D01*
X260214D02*
X261714Y63965D01*
Y62965D02*
X264214Y67965D01*
X259214D02*
X264214D01*
X259214D02*
X261714Y62965D01*
Y58056D02*
X263214Y61056D01*
X260214D02*
X263214D01*
X260214D02*
X261714Y58056D01*
Y57056D02*
X264214Y62056D01*
X259214D02*
X264214D01*
X259214D02*
X261714Y57056D01*
X255300Y47500D02*
X256800Y50500D01*
X253800D02*
X256800D01*
X253800D02*
X255300Y47500D01*
Y46500D02*
X257800Y51500D01*
X252800D02*
X257800D01*
X252800D02*
X255300Y46500D01*
X261714Y30800D02*
X263214Y33800D01*
X260214D02*
X263214D01*
X260214D02*
X261714Y30800D01*
Y29800D02*
X264214Y34800D01*
X259214D02*
X264214D01*
X259214D02*
X261714Y29800D01*
X265528Y70700D02*
X267028Y73700D01*
X264028D02*
X267028D01*
X264028D02*
X265528Y70700D01*
Y69700D02*
X268028Y74700D01*
X263028D02*
X268028D01*
X263028D02*
X265528Y69700D01*
X237092Y23821D02*
X238592Y26820D01*
X235592D02*
X238592D01*
X235592D02*
X237092Y23821D01*
Y22820D02*
X239592Y27821D01*
X234592D02*
X239592D01*
X234592D02*
X237092Y22820D01*
X261714Y54594D02*
X263214Y57594D01*
X260214D02*
X263214D01*
X260214D02*
X261714Y54594D01*
Y53594D02*
X264214Y58594D01*
X259214D02*
X264214D01*
X259214D02*
X261714Y53594D01*
X251900Y21900D02*
X253400Y24900D01*
X250400D02*
X253400D01*
X250400D02*
X251900Y21900D01*
Y20900D02*
X254400Y25900D01*
X249400D02*
X254400D01*
X249400D02*
X251900Y20900D01*
X34300Y25977D02*
X35800Y28977D01*
X32800D02*
X35800D01*
X32800D02*
X34300Y25977D01*
Y24977D02*
X36800Y29977D01*
X31800D02*
X36800D01*
X31800D02*
X34300Y24977D01*
X33600Y13600D02*
X35100Y16600D01*
X32100D02*
X35100D01*
X32100D02*
X33600Y13600D01*
Y12600D02*
X36100Y17600D01*
X31100D02*
X36100D01*
X31100D02*
X33600Y12600D01*
Y8500D02*
X35100Y11500D01*
X32100D02*
X35100D01*
X32100D02*
X33600Y8500D01*
Y7500D02*
X36100Y12500D01*
X31100D02*
X36100D01*
X31100D02*
X33600Y7500D01*
X58600Y30269D02*
X60100Y33269D01*
X57100D02*
X60100D01*
X57100D02*
X58600Y30269D01*
Y29269D02*
X61100Y34269D01*
X56100D02*
X61100D01*
X56100D02*
X58600Y29269D01*
X30352Y25977D02*
X31852Y28977D01*
X28852D02*
X31852D01*
X28852D02*
X30352Y25977D01*
Y24977D02*
X32852Y29977D01*
X27852D02*
X32852D01*
X27852D02*
X30352Y24977D01*
X60459Y25977D02*
X61959Y28977D01*
X58959D02*
X61959D01*
X58959D02*
X60459Y25977D01*
Y24977D02*
X62959Y29977D01*
X57959D02*
X62959D01*
X57959D02*
X60459Y24977D01*
X69407Y25977D02*
X70907Y28977D01*
X67907D02*
X70907D01*
X67907D02*
X69407Y25977D01*
Y24977D02*
X71907Y29977D01*
X66907D02*
X71907D01*
X66907D02*
X69407Y24977D01*
X207700Y13821D02*
X209200Y16820D01*
X206200D02*
X209200D01*
X206200D02*
X207700Y13821D01*
Y12821D02*
X210200Y17820D01*
X205200D02*
X210200D01*
X205200D02*
X207700Y12821D01*
X153070Y124867D02*
X154570Y127867D01*
X151570D02*
X154570D01*
X151570D02*
X153070Y124867D01*
Y123867D02*
X155570Y128867D01*
X150570D02*
X155570D01*
X150570D02*
X153070Y123867D01*
X159987Y115662D02*
X161487Y118662D01*
X158487D02*
X161487D01*
X158487D02*
X159987Y115662D01*
Y114662D02*
X162487Y119662D01*
X157487D02*
X162487D01*
X157487D02*
X159987Y114662D01*
X202938Y149100D02*
X204438Y152100D01*
X201438D02*
X204438D01*
X201438D02*
X202938Y149100D01*
Y148100D02*
X205438Y153100D01*
X200438D02*
X205438D01*
X200438D02*
X202938Y148100D01*
X261714Y41917D02*
X263214Y44917D01*
X260214D02*
X263214D01*
X260214D02*
X261714Y41917D01*
Y40917D02*
X264214Y45917D01*
X259214D02*
X264214D01*
X259214D02*
X261714Y40917D01*
X261738Y45403D02*
X263238Y48403D01*
X260238D02*
X263238D01*
X260238D02*
X261738Y45403D01*
Y44403D02*
X264238Y49403D01*
X259238D02*
X264238D01*
X259238D02*
X261738Y44403D01*
X8900Y75900D02*
X10400Y78900D01*
X7400D02*
X10400D01*
X7400D02*
X8900Y75900D01*
Y74900D02*
X11400Y79900D01*
X6400D02*
X11400D01*
X6400D02*
X8900Y74900D01*
Y67800D02*
X10400Y70800D01*
X7400D02*
X10400D01*
X7400D02*
X8900Y67800D01*
Y66800D02*
X11400Y71800D01*
X6400D02*
X11400D01*
X6400D02*
X8900Y66800D01*
X20500Y67800D02*
X22000Y70800D01*
X19000D02*
X22000D01*
X19000D02*
X20500Y67800D01*
Y66800D02*
X23000Y71800D01*
X18000D02*
X23000D01*
X18000D02*
X20500Y66800D01*
Y75900D02*
X22000Y78900D01*
X19000D02*
X22000D01*
X19000D02*
X20500Y75900D01*
Y74900D02*
X23000Y79900D01*
X18000D02*
X23000D01*
X18000D02*
X20500Y74900D01*
X74400Y70050D02*
X75900Y73050D01*
X72900D02*
X75900D01*
X72900D02*
X74400Y70050D01*
Y69050D02*
X76900Y74050D01*
X71900D02*
X76900D01*
X71900D02*
X74400Y69050D01*
Y78150D02*
X75900Y81150D01*
X72900D02*
X75900D01*
X72900D02*
X74400Y78150D01*
Y77150D02*
X76900Y82150D01*
X71900D02*
X76900D01*
X71900D02*
X74400Y77150D01*
X62800Y70050D02*
X64300Y73050D01*
X61300D02*
X64300D01*
X61300D02*
X62800Y70050D01*
Y69050D02*
X65300Y74050D01*
X60300D02*
X65300D01*
X60300D02*
X62800Y69050D01*
Y78150D02*
X64300Y81150D01*
X61300D02*
X64300D01*
X61300D02*
X62800Y78150D01*
Y77150D02*
X65300Y82150D01*
X60300D02*
X65300D01*
X60300D02*
X62800Y77150D01*
X106000Y86653D02*
X107500Y89653D01*
X104500D02*
X107500D01*
X104500D02*
X106000Y86653D01*
Y85653D02*
X108500Y90653D01*
X103500D02*
X108500D01*
X103500D02*
X106000Y85653D01*
Y94753D02*
X107500Y97753D01*
X104500D02*
X107500D01*
X104500D02*
X106000Y94753D01*
Y93753D02*
X108500Y98753D01*
X103500D02*
X108500D01*
X103500D02*
X106000Y93753D01*
X117600Y94753D02*
X119100Y97753D01*
X116100D02*
X119100D01*
X116100D02*
X117600Y94753D01*
Y93753D02*
X120100Y98753D01*
X115100D02*
X120100D01*
X115100D02*
X117600Y93753D01*
X68900Y111920D02*
X70400Y114920D01*
X67400D02*
X70400D01*
X67400D02*
X68900Y111920D01*
Y110921D02*
X71400Y115920D01*
X66400D02*
X71400D01*
X66400D02*
X68900Y110921D01*
Y120020D02*
X70400Y123021D01*
X67400D02*
X70400D01*
X67400D02*
X68900Y120020D01*
Y119020D02*
X71400Y124021D01*
X66400D02*
X71400D01*
X66400D02*
X68900Y119020D01*
X57300Y111920D02*
X58800Y114920D01*
X55800D02*
X58800D01*
X55800D02*
X57300Y111920D01*
Y110921D02*
X59800Y115920D01*
X54800D02*
X59800D01*
X54800D02*
X57300Y110921D01*
Y120020D02*
X58800Y123021D01*
X55800D02*
X58800D01*
X55800D02*
X57300Y120020D01*
Y119020D02*
X59800Y124021D01*
X54800D02*
X59800D01*
X54800D02*
X57300Y119020D01*
X38900Y71266D02*
X40400Y74266D01*
X37400D02*
X40400D01*
X37400D02*
X38900Y71266D01*
Y70266D02*
X41400Y75266D01*
X36400D02*
X41400D01*
X36400D02*
X38900Y70266D01*
Y56266D02*
X40400Y59266D01*
X37400D02*
X40400D01*
X37400D02*
X38900Y56266D01*
Y55266D02*
X41400Y60266D01*
X36400D02*
X41400D01*
X36400D02*
X38900Y55266D01*
X108400Y246066D02*
X109900Y249066D01*
X106900D02*
X109900D01*
X106900D02*
X108400Y246066D01*
Y245066D02*
X110900Y250066D01*
X105900D02*
X110900D01*
X105900D02*
X108400Y245066D01*
Y237966D02*
X109900Y240966D01*
X106900D02*
X109900D01*
X106900D02*
X108400Y237966D01*
Y236966D02*
X110900Y241966D01*
X105900D02*
X110900D01*
X105900D02*
X108400Y236966D01*
X96800Y246066D02*
X98300Y249066D01*
X95300D02*
X98300D01*
X95300D02*
X96800Y246066D01*
Y245066D02*
X99300Y250066D01*
X94300D02*
X99300D01*
X94300D02*
X96800Y245066D01*
Y237966D02*
X98300Y240966D01*
X95300D02*
X98300D01*
X95300D02*
X96800Y237966D01*
Y236966D02*
X99300Y241966D01*
X94300D02*
X99300D01*
X94300D02*
X96800Y236966D01*
X40900Y246066D02*
X42400Y249066D01*
X39400D02*
X42400D01*
X39400D02*
X40900Y246066D01*
Y245066D02*
X43400Y250066D01*
X38400D02*
X43400D01*
X38400D02*
X40900Y245066D01*
Y237966D02*
X42400Y240966D01*
X39400D02*
X42400D01*
X39400D02*
X40900Y237966D01*
Y236966D02*
X43400Y241966D01*
X38400D02*
X43400D01*
X38400D02*
X40900Y236966D01*
X29300Y246066D02*
X30800Y249066D01*
X27800D02*
X30800D01*
X27800D02*
X29300Y246066D01*
Y245066D02*
X31800Y250066D01*
X26800D02*
X31800D01*
X26800D02*
X29300Y245066D01*
Y237966D02*
X30800Y240966D01*
X27800D02*
X30800D01*
X27800D02*
X29300Y237966D01*
Y236966D02*
X31800Y241966D01*
X26800D02*
X31800D01*
X26800D02*
X29300Y236966D01*
X145104Y215620D02*
X146604Y218620D01*
X143604D02*
X146604D01*
X143604D02*
X145104Y215620D01*
Y214620D02*
X147604Y219620D01*
X142604D02*
X147604D01*
X142604D02*
X145104Y214620D01*
X183212Y215600D02*
X184712Y218600D01*
X181712D02*
X184712D01*
X181712D02*
X183212Y215600D01*
Y214600D02*
X185712Y219600D01*
X180712D02*
X185712D01*
X180712D02*
X183212Y214600D01*
X150000Y53800D02*
X151500Y56800D01*
X148500D02*
X151500D01*
X148500D02*
X150000Y53800D01*
Y52800D02*
X152500Y57800D01*
X147500D02*
X152500D01*
X147500D02*
X150000Y52800D01*
X157239Y53800D02*
X158739Y56800D01*
X155739D02*
X158739D01*
X155739D02*
X157239Y53800D01*
Y52800D02*
X159739Y57800D01*
X154739D02*
X159739D01*
X154739D02*
X157239Y52800D01*
X160939Y53800D02*
X162439Y56800D01*
X159439D02*
X162439D01*
X159439D02*
X160939Y53800D01*
Y52800D02*
X163439Y57800D01*
X158439D02*
X163439D01*
X158439D02*
X160939Y52800D01*
X193189Y63820D02*
X194689Y66821D01*
X191689D02*
X194689D01*
X191689D02*
X193189Y63820D01*
Y62821D02*
X195689Y67821D01*
X190689D02*
X195689D01*
X190689D02*
X193189Y62821D01*
X36159Y30269D02*
X37659Y33269D01*
X34659D02*
X37659D01*
X34659D02*
X36159Y30269D01*
Y29269D02*
X38659Y34269D01*
X33659D02*
X38659D01*
X33659D02*
X36159Y29269D01*
X42364Y11300D02*
X43864Y14300D01*
X40864D02*
X43864D01*
X40864D02*
X42364Y11300D01*
Y10300D02*
X44864Y15300D01*
X39864D02*
X44864D01*
X39864D02*
X42364Y10300D01*
X52659Y11300D02*
X54159Y14300D01*
X51159D02*
X54159D01*
X51159D02*
X52659Y11300D01*
Y10300D02*
X55159Y15300D01*
X50159D02*
X55159D01*
X50159D02*
X52659Y10300D01*
X149961Y116345D02*
X151461Y119345D01*
X148461D02*
X151461D01*
X148461D02*
X149961Y116345D01*
Y115345D02*
X152461Y120345D01*
X147461D02*
X152461D01*
X147461D02*
X149961Y115345D01*
X144961Y116345D02*
X146461Y119345D01*
X143461D02*
X146461D01*
X143461D02*
X144961Y116345D01*
Y115345D02*
X147461Y120345D01*
X142461D02*
X147461D01*
X142461D02*
X144961Y115345D01*
X115800Y196232D02*
X117300Y199232D01*
X114300D02*
X117300D01*
X114300D02*
X115800Y196232D01*
Y195232D02*
X118300Y200232D01*
X113300D02*
X118300D01*
X113300D02*
X115800Y195232D01*
X189212Y215600D02*
X190712Y218600D01*
X187712D02*
X190712D01*
X187712D02*
X189212Y215600D01*
Y214600D02*
X191712Y219600D01*
X186712D02*
X191712D01*
X186712D02*
X189212Y214600D01*
X151104Y215620D02*
X152604Y218620D01*
X149604D02*
X152604D01*
X149604D02*
X151104Y215620D01*
Y214620D02*
X153604Y219620D01*
X148604D02*
X153604D01*
X148604D02*
X151104Y214620D01*
X146300Y53800D02*
X147800Y56800D01*
X144800D02*
X147800D01*
X144800D02*
X146300Y53800D01*
Y52800D02*
X148800Y57800D01*
X143800D02*
X148800D01*
X143800D02*
X146300Y52800D01*
X140821Y99902D02*
X142321Y102902D01*
X139321D02*
X142321D01*
X139321D02*
X140821Y99902D01*
Y98902D02*
X143321Y103902D01*
X138321D02*
X143321D01*
X138321D02*
X140821Y98902D01*
X131809Y96678D02*
X133309Y99678D01*
X130309D02*
X133309D01*
X130309D02*
X131809Y96678D01*
Y95678D02*
X134309Y100678D01*
X129309D02*
X134309D01*
X129309D02*
X131809Y95678D01*
X134809Y99902D02*
X136309Y102902D01*
X133309D02*
X136309D01*
X133309D02*
X134809Y99902D01*
Y98902D02*
X137309Y103902D01*
X132309D02*
X137309D01*
X132309D02*
X134809Y98902D01*
X155919Y85520D02*
X157419Y88520D01*
X154419D02*
X157419D01*
X154419D02*
X155919Y85520D01*
Y84521D02*
X158419Y89521D01*
X153419D02*
X158419D01*
X153419D02*
X155919Y84521D01*
X138038Y96678D02*
X139538Y99678D01*
X136538D02*
X139538D01*
X136538D02*
X138038Y96678D01*
Y95678D02*
X140538Y100678D01*
X135538D02*
X140538D01*
X135538D02*
X138038Y95678D01*
X212326Y130672D02*
X213826Y133672D01*
X210826D02*
X213826D01*
X210826D02*
X212326Y130672D01*
Y129672D02*
X214826Y134672D01*
X209826D02*
X214826D01*
X209826D02*
X212326Y129672D01*
X216200Y130672D02*
X217700Y133672D01*
X214700D02*
X217700D01*
X214700D02*
X216200Y130672D01*
Y129672D02*
X218700Y134672D01*
X213700D02*
X218700D01*
X213700D02*
X216200Y129672D01*
X188189Y52820D02*
X189689Y55821D01*
X186689D02*
X189689D01*
X186689D02*
X188189Y52820D01*
Y51820D02*
X190689Y56820D01*
X185689D02*
X190689D01*
X185689D02*
X188189Y51820D01*
X188200Y102193D02*
X189700Y105193D01*
X186700D02*
X189700D01*
X186700D02*
X188200Y102193D01*
Y101193D02*
X190700Y106193D01*
X185700D02*
X190700D01*
X185700D02*
X188200Y101193D01*
X317100Y228035D02*
X318600Y231035D01*
X315600D02*
X318600D01*
X315600D02*
X317100Y228035D01*
Y227035D02*
X319600Y232035D01*
X314600D02*
X319600D01*
X314600D02*
X317100Y227035D01*
X68262Y217280D02*
X69762Y220280D01*
X66762D02*
X69762D01*
X66762D02*
X68262Y217280D01*
Y216280D02*
X70762Y221280D01*
X65762D02*
X70762D01*
X65762D02*
X68262Y216280D01*
X64500Y221000D02*
X66000Y224000D01*
X63000D02*
X66000D01*
X63000D02*
X64500Y221000D01*
Y220000D02*
X67000Y225000D01*
X62000D02*
X67000D01*
X62000D02*
X64500Y220000D01*
X72024Y221000D02*
X73524Y224000D01*
X70524D02*
X73524D01*
X70524D02*
X72024Y221000D01*
Y220000D02*
X74524Y225000D01*
X69524D02*
X74524D01*
X69524D02*
X72024Y220000D01*
Y213561D02*
X73524Y216561D01*
X70524D02*
X73524D01*
X70524D02*
X72024Y213561D01*
Y212561D02*
X74524Y217561D01*
X69524D02*
X74524D01*
X69524D02*
X72024Y212561D01*
X64500Y213561D02*
X66000Y216561D01*
X63000D02*
X66000D01*
X63000D02*
X64500Y213561D01*
Y212561D02*
X67000Y217561D01*
X62000D02*
X67000D01*
X62000D02*
X64500Y212561D01*
X68262Y231536D02*
X69762Y234536D01*
X66762D02*
X69762D01*
X66762D02*
X68262Y231536D01*
Y230536D02*
X70762Y235536D01*
X65762D02*
X70762D01*
X65762D02*
X68262Y230536D01*
Y235718D02*
X69762Y238718D01*
X66762D02*
X69762D01*
X66762D02*
X68262Y235718D01*
Y234718D02*
X70762Y239718D01*
X65762D02*
X70762D01*
X65762D02*
X68262Y234718D01*
Y239900D02*
X69762Y242900D01*
X66762D02*
X69762D01*
X66762D02*
X68262Y239900D01*
Y238900D02*
X70762Y243900D01*
X65762D02*
X70762D01*
X65762D02*
X68262Y238900D01*
X42300Y216887D02*
X43800Y219887D01*
X40800D02*
X43800D01*
X40800D02*
X42300Y216887D01*
Y215887D02*
X44800Y220887D01*
X39800D02*
X44800D01*
X39800D02*
X42300Y215887D01*
Y213343D02*
X43800Y216343D01*
X40800D02*
X43800D01*
X40800D02*
X42300Y213343D01*
Y212343D02*
X44800Y217343D01*
X39800D02*
X44800D01*
X39800D02*
X42300Y212343D01*
X80857Y208918D02*
X82358Y211918D01*
X79357D02*
X82358D01*
X79357D02*
X80857Y208918D01*
Y207918D02*
X83358Y212918D01*
X78357D02*
X83358D01*
X78357D02*
X80857Y207918D01*
X85400Y229900D02*
X86900Y232900D01*
X83900D02*
X86900D01*
X83900D02*
X85400Y229900D01*
Y228900D02*
X87900Y233900D01*
X82900D02*
X87900D01*
X82900D02*
X85400Y228900D01*
X42364Y16994D02*
X43864Y19994D01*
X40864D02*
X43864D01*
X40864D02*
X42364Y16994D01*
Y15994D02*
X44864Y20994D01*
X39864D02*
X44864D01*
X39864D02*
X42364Y15994D01*
X48501Y71266D02*
X50001Y74266D01*
X47001D02*
X50001D01*
X47001D02*
X48501Y71266D01*
Y70266D02*
X51001Y75266D01*
X46001D02*
X51001D01*
X46001D02*
X48501Y70266D01*
X42300Y227200D02*
X43800Y230200D01*
X40800D02*
X43800D01*
X40800D02*
X42300Y227200D01*
Y226200D02*
X44800Y231200D01*
X39800D02*
X44800D01*
X39800D02*
X42300Y226200D01*
Y223657D02*
X43800Y226657D01*
X40800D02*
X43800D01*
X40800D02*
X42300Y223657D01*
Y222657D02*
X44800Y227657D01*
X39800D02*
X44800D01*
X39800D02*
X42300Y222657D01*
X95400Y223657D02*
X96900Y226657D01*
X93900D02*
X96900D01*
X93900D02*
X95400Y223657D01*
Y222657D02*
X97900Y227657D01*
X92900D02*
X97900D01*
X92900D02*
X95400Y222657D01*
Y227200D02*
X96900Y230200D01*
X93900D02*
X96900D01*
X93900D02*
X95400Y227200D01*
Y226200D02*
X97900Y231200D01*
X92900D02*
X97900D01*
X92900D02*
X95400Y226200D01*
X159162Y142100D02*
X160662Y145100D01*
X157662D02*
X160662D01*
X157662D02*
X159162Y142100D01*
Y141100D02*
X161662Y146100D01*
X156662D02*
X161662D01*
X156662D02*
X159162Y141100D01*
X188200Y123536D02*
X189700Y126536D01*
X186700D02*
X189700D01*
X186700D02*
X188200Y123536D01*
Y122536D02*
X190700Y127536D01*
X185700D02*
X190700D01*
X185700D02*
X188200Y122536D01*
X184100Y105193D02*
X185600Y108193D01*
X182600D02*
X185600D01*
X182600D02*
X184100Y105193D01*
Y104193D02*
X186600Y109193D01*
X181600D02*
X186600D01*
X181600D02*
X184100Y104193D01*
X171186Y158969D02*
X172686Y161969D01*
X169686D02*
X172686D01*
X169686D02*
X171186Y158969D01*
Y157969D02*
X173686Y162969D01*
X168686D02*
X173686D01*
X168686D02*
X171186Y157969D01*
X288300Y13850D02*
X289800Y16850D01*
X286800D02*
X289800D01*
X286800D02*
X288300Y13850D01*
Y12850D02*
X290800Y17850D01*
X285800D02*
X290800D01*
X285800D02*
X288300Y12850D01*
X221100Y2820D02*
X222600Y5821D01*
X219600D02*
X222600D01*
X219600D02*
X221100Y2820D01*
Y1821D02*
X223600Y6820D01*
X218600D02*
X223600D01*
X218600D02*
X221100Y1821D01*
X194800Y2820D02*
X196300Y5821D01*
X193300D02*
X196300D01*
X193300D02*
X194800Y2820D01*
Y1821D02*
X197300Y6820D01*
X192300D02*
X197300D01*
X192300D02*
X194800Y1821D01*
X182800Y40000D02*
X184300Y43000D01*
X181300D02*
X184300D01*
X181300D02*
X182800Y40000D01*
Y39000D02*
X185300Y44000D01*
X180300D02*
X185300D01*
X180300D02*
X182800Y39000D01*
X163972Y27641D02*
X165472Y30641D01*
X162472D02*
X165472D01*
X162472D02*
X163972Y27641D01*
Y26641D02*
X166472Y31641D01*
X161472D02*
X166472D01*
X161472D02*
X163972Y26641D01*
Y40000D02*
X165472Y43000D01*
X162472D02*
X165472D01*
X162472D02*
X163972Y40000D01*
Y39000D02*
X166472Y44000D01*
X161472D02*
X166472D01*
X161472D02*
X163972Y39000D01*
X36159Y36260D02*
X37659Y39260D01*
X34659D02*
X37659D01*
X34659D02*
X36159Y36260D01*
Y35260D02*
X38659Y40260D01*
X33659D02*
X38659D01*
X33659D02*
X36159Y35260D01*
X58600Y35002D02*
X60100Y38001D01*
X57100D02*
X60100D01*
X57100D02*
X58600Y35002D01*
Y34001D02*
X61100Y39002D01*
X56100D02*
X61100D01*
X56100D02*
X58600Y34001D01*
X45472Y50700D02*
X46972Y53700D01*
X43972D02*
X46972D01*
X43972D02*
X45472Y50700D01*
Y49700D02*
X47972Y54700D01*
X42972D02*
X47972D01*
X42972D02*
X45472Y49700D01*
X267200Y247027D02*
X268700Y250027D01*
X265700D02*
X268700D01*
X265700D02*
X267200Y247027D01*
Y246027D02*
X269700Y251027D01*
X264700D02*
X269700D01*
X264700D02*
X267200Y246027D01*
Y238366D02*
X268700Y241366D01*
X265700D02*
X268700D01*
X265700D02*
X267200Y238366D01*
Y237366D02*
X269700Y242366D01*
X264700D02*
X269700D01*
X264700D02*
X267200Y237366D01*
X290285Y212382D02*
X291785Y215382D01*
X288785D02*
X291785D01*
X288785D02*
X290285Y212382D01*
Y211382D02*
X292785Y216382D01*
X287785D02*
X292785D01*
X287785D02*
X290285Y211382D01*
X115800Y204132D02*
X117300Y207132D01*
X114300D02*
X117300D01*
X114300D02*
X115800Y204132D01*
Y203132D02*
X118300Y208132D01*
X113300D02*
X118300D01*
X113300D02*
X115800Y203132D01*
X80600Y146100D02*
X82100Y149100D01*
X79100D02*
X82100D01*
X79100D02*
X80600Y146100D01*
Y145100D02*
X83100Y150100D01*
X78100D02*
X83100D01*
X78100D02*
X80600Y145100D01*
X74000Y146100D02*
X75500Y149100D01*
X72500D02*
X75500D01*
X72500D02*
X74000Y146100D01*
Y145100D02*
X76500Y150100D01*
X71500D02*
X76500D01*
X71500D02*
X74000Y145100D01*
X186419Y162906D02*
X187919Y165906D01*
X184919D02*
X187919D01*
X184919D02*
X186419Y162906D01*
Y161906D02*
X188919Y166906D01*
X183919D02*
X188919D01*
X183919D02*
X186419Y161906D01*
X115800Y172900D02*
X117300Y175900D01*
X114300D02*
X117300D01*
X114300D02*
X115800Y172900D01*
Y171900D02*
X118300Y176900D01*
X113300D02*
X118300D01*
X113300D02*
X115800Y171900D01*
Y168200D02*
X117300Y171200D01*
X114300D02*
X117300D01*
X114300D02*
X115800Y168200D01*
Y167200D02*
X118300Y172200D01*
X113300D02*
X118300D01*
X113300D02*
X115800Y167200D01*
Y163500D02*
X117300Y166500D01*
X114300D02*
X117300D01*
X114300D02*
X115800Y163500D01*
Y162500D02*
X118300Y167500D01*
X113300D02*
X118300D01*
X113300D02*
X115800Y162500D01*
Y158800D02*
X117300Y161800D01*
X114300D02*
X117300D01*
X114300D02*
X115800Y158800D01*
Y157800D02*
X118300Y162800D01*
X113300D02*
X118300D01*
X113300D02*
X115800Y157800D01*
X148631Y185400D02*
X150131Y188400D01*
X147131D02*
X150131D01*
X147131D02*
X148631Y185400D01*
Y184400D02*
X151131Y189400D01*
X146131D02*
X151131D01*
X146131D02*
X148631Y184400D01*
X317100Y234035D02*
X318600Y237035D01*
X315600D02*
X318600D01*
X315600D02*
X317100Y234035D01*
Y233035D02*
X319600Y238035D01*
X314600D02*
X319600D01*
X314600D02*
X317100Y233035D01*
X224907Y12720D02*
X226407Y15721D01*
X223407D02*
X226407D01*
X223407D02*
X224907Y12720D01*
Y11721D02*
X227407Y16721D01*
X222407D02*
X227407D01*
X222407D02*
X224907Y11721D01*
X221100Y12745D02*
X222600Y15745D01*
X219600D02*
X222600D01*
X219600D02*
X221100Y12745D01*
Y11745D02*
X223600Y16745D01*
X218600D02*
X223600D01*
X218600D02*
X221100Y11745D01*
X152600Y149100D02*
X154100Y152100D01*
X151100D02*
X154100D01*
X151100D02*
X152600Y149100D01*
Y148100D02*
X155100Y153100D01*
X150100D02*
X155100D01*
X150100D02*
X152600Y148100D01*
X186419Y145780D02*
X187919Y148780D01*
X184919D02*
X187919D01*
X184919D02*
X186419Y145780D01*
Y144780D02*
X188919Y149780D01*
X183919D02*
X188919D01*
X183919D02*
X186419Y144780D01*
X171186Y145780D02*
X172686Y148780D01*
X169686D02*
X172686D01*
X169686D02*
X171186Y145780D01*
Y144780D02*
X173686Y149780D01*
X168686D02*
X173686D01*
X168686D02*
X171186Y144780D01*
X117600Y86653D02*
X119100Y89653D01*
X116100D02*
X119100D01*
X116100D02*
X117600Y86653D01*
Y85653D02*
X120100Y90653D01*
X115100D02*
X120100D01*
X115100D02*
X117600Y85653D01*
X138961Y85520D02*
X140461Y88520D01*
X137461D02*
X140461D01*
X137461D02*
X138961Y85520D01*
Y84521D02*
X141461Y89521D01*
X136461D02*
X141461D01*
X136461D02*
X138961Y84521D01*
X173354Y115662D02*
X174854Y118662D01*
X171854D02*
X174854D01*
X171854D02*
X173354Y115662D01*
Y114662D02*
X175854Y119662D01*
X170854D02*
X175854D01*
X170854D02*
X173354Y114662D01*
X184100Y110700D02*
X185600Y113700D01*
X182600D02*
X185600D01*
X182600D02*
X184100Y110700D01*
Y109700D02*
X186600Y114700D01*
X181600D02*
X186600D01*
X181600D02*
X184100Y109700D01*
X142600Y53800D02*
X144100Y56800D01*
X141100D02*
X144100D01*
X141100D02*
X142600Y53800D01*
Y52800D02*
X145100Y57800D01*
X140100D02*
X145100D01*
X140100D02*
X142600Y52800D01*
X153639Y53819D02*
X155139Y56819D01*
X152139D02*
X155139D01*
X152139D02*
X153639Y53819D01*
Y52819D02*
X156139Y57819D01*
X151139D02*
X156139D01*
X151139D02*
X153639Y52819D01*
X165186Y122158D02*
X166686Y125158D01*
X163686D02*
X166686D01*
X163686D02*
X165186Y122158D01*
Y121158D02*
X167686Y126158D01*
X162686D02*
X167686D01*
X162686D02*
X165186Y121158D01*
X106361Y24320D02*
X107861Y27321D01*
X104861D02*
X107861D01*
X104861D02*
X106361Y24320D01*
Y23321D02*
X108861Y28321D01*
X103861D02*
X108861D01*
X103861D02*
X106361Y23321D01*
X215000Y182400D02*
X216500Y185400D01*
X213500D02*
X216500D01*
X213500D02*
X215000Y182400D01*
Y181400D02*
X217500Y186400D01*
X212500D02*
X217500D01*
X212500D02*
X215000Y181400D01*
X255500Y182400D02*
X257000Y185400D01*
X254000D02*
X257000D01*
X254000D02*
X255500Y182400D01*
Y181400D02*
X258000Y186400D01*
X253000D02*
X258000D01*
X253000D02*
X255500Y181400D01*
X296000Y182400D02*
X297500Y185400D01*
X294500D02*
X297500D01*
X294500D02*
X296000Y182400D01*
Y181400D02*
X298500Y186400D01*
X293500D02*
X298500D01*
X293500D02*
X296000Y181400D01*
Y152900D02*
X297500Y155900D01*
X294500D02*
X297500D01*
X294500D02*
X296000Y152900D01*
Y151900D02*
X298500Y156900D01*
X293500D02*
X298500D01*
X293500D02*
X296000Y151900D01*
X255500Y152900D02*
X257000Y155900D01*
X254000D02*
X257000D01*
X254000D02*
X255500Y152900D01*
Y151900D02*
X258000Y156900D01*
X253000D02*
X258000D01*
X253000D02*
X255500Y151900D01*
X215000Y152900D02*
X216500Y155900D01*
X213500D02*
X216500D01*
X213500D02*
X215000Y152900D01*
Y151900D02*
X217500Y156900D01*
X212500D02*
X217500D01*
X212500D02*
X215000Y151900D01*
X27104Y8500D02*
X28604Y11500D01*
X25604D02*
X28604D01*
X25604D02*
X27104Y8500D01*
Y7500D02*
X29604Y12500D01*
X24604D02*
X29604D01*
X24604D02*
X27104Y7500D01*
Y13600D02*
X28604Y16600D01*
X25604D02*
X28604D01*
X25604D02*
X27104Y13600D01*
Y12600D02*
X29604Y17600D01*
X24604D02*
X29604D01*
X24604D02*
X27104Y12600D01*
X251900Y38965D02*
X253400Y41965D01*
X250400D02*
X253400D01*
X250400D02*
X251900Y38965D01*
Y37965D02*
X254400Y42965D01*
X249400D02*
X254400D01*
X249400D02*
X251900Y37965D01*
X182800Y27641D02*
X184300Y30641D01*
X181300D02*
X184300D01*
X181300D02*
X182800Y27641D01*
Y26641D02*
X185300Y31641D01*
X180300D02*
X185300D01*
X180300D02*
X182800Y26641D01*
X222300Y130672D02*
X223800Y133672D01*
X220800D02*
X223800D01*
X220800D02*
X222300Y130672D01*
Y129672D02*
X224800Y134672D01*
X219800D02*
X224800D01*
X219800D02*
X222300Y129672D01*
X244840Y250883D02*
X246340Y253883D01*
X243340D02*
X246340D01*
X243340D02*
X244840Y250883D01*
Y249883D02*
X247340Y254883D01*
X242340D02*
X247340D01*
X242340D02*
X244840Y249883D01*
X244401Y240571D02*
X245901Y243571D01*
X242901D02*
X245901D01*
X242901D02*
X244401Y240571D01*
Y239571D02*
X246901Y244571D01*
X241901D02*
X246901D01*
X241901D02*
X244401Y239571D01*
X235882Y235200D02*
X237382Y238200D01*
X234382D02*
X237382D01*
X234382D02*
X235882Y235200D01*
Y234200D02*
X238382Y239200D01*
X233382D02*
X238382D01*
X233382D02*
X235882Y234200D01*
X226963Y250671D02*
X228463Y253671D01*
X225463D02*
X228463D01*
X225463D02*
X226963Y250671D01*
Y249671D02*
X229463Y254671D01*
X224463D02*
X229463D01*
X224463D02*
X226963Y249671D01*
Y240571D02*
X228463Y243571D01*
X225463D02*
X228463D01*
X225463D02*
X226963Y240571D01*
Y239571D02*
X229463Y244571D01*
X224463D02*
X229463D01*
X224463D02*
X226963Y239571D01*
X253100Y247027D02*
X254600Y250027D01*
X251600D02*
X254600D01*
X251600D02*
X253100Y247027D01*
Y246027D02*
X255600Y251027D01*
X250600D02*
X255600D01*
X250600D02*
X253100Y246027D01*
Y238366D02*
X254600Y241366D01*
X251600D02*
X254600D01*
X251600D02*
X253100Y238366D01*
Y237366D02*
X255600Y242366D01*
X250600D02*
X255600D01*
X250600D02*
X253100Y237366D01*
X250500Y103256D02*
X252000Y106256D01*
X249000D02*
X252000D01*
X249000D02*
X250500Y103256D01*
Y102256D02*
X253000Y107256D01*
X248000D02*
X253000D01*
X248000D02*
X250500Y102256D01*
X217675Y105225D02*
X219175Y108225D01*
X216175D02*
X219175D01*
X216175D02*
X217675Y105225D01*
Y104225D02*
X220175Y109225D01*
X215175D02*
X220175D01*
X215175D02*
X217675Y104225D01*
X241300Y93800D02*
X242800Y96800D01*
X239800D02*
X242800D01*
X239800D02*
X241300Y93800D01*
Y92800D02*
X243800Y97800D01*
X238800D02*
X243800D01*
X238800D02*
X241300Y92800D01*
X95800Y32238D02*
X97300Y35238D01*
X94300D02*
X97300D01*
X94300D02*
X95800Y32238D01*
Y31238D02*
X98300Y36238D01*
X93300D02*
X98300D01*
X93300D02*
X95800Y31238D01*
Y35600D02*
X97300Y38600D01*
X94300D02*
X97300D01*
X94300D02*
X95800Y35600D01*
Y34600D02*
X98300Y39600D01*
X93300D02*
X98300D01*
X93300D02*
X95800Y34600D01*
X208245Y75730D02*
X209745Y78730D01*
X206745D02*
X209745D01*
X206745D02*
X208245Y75730D01*
Y74730D02*
X210745Y79730D01*
X205745D02*
X210745D01*
X205745D02*
X208245Y74730D01*
X204883Y75730D02*
X206382Y78730D01*
X203382D02*
X206382D01*
X203382D02*
X204883Y75730D01*
Y74730D02*
X207382Y79730D01*
X202382D02*
X207382D01*
X202382D02*
X204883Y74730D01*
X252700Y80700D02*
X254200Y83700D01*
X251200D02*
X254200D01*
X251200D02*
X252700Y80700D01*
Y79700D02*
X255200Y84700D01*
X250200D02*
X255200D01*
X250200D02*
X252700Y79700D01*
X240371Y28464D02*
X241871Y31464D01*
X238871D02*
X241871D01*
X238871D02*
X240371Y28464D01*
Y27464D02*
X242871Y32464D01*
X237871D02*
X242871D01*
X237871D02*
X240371Y27464D01*
X242600Y52631D02*
X244100Y55631D01*
X241100D02*
X244100D01*
X241100D02*
X242600Y52631D01*
Y51631D02*
X245100Y56631D01*
X240100D02*
X245100D01*
X240100D02*
X242600Y51631D01*
X192084Y33821D02*
X193584Y36821D01*
X190584D02*
X193584D01*
X190584D02*
X192084Y33821D01*
Y32820D02*
X194583Y37821D01*
X189584D02*
X194583D01*
X189584D02*
X192084Y32820D01*
X193189Y59820D02*
X194689Y62821D01*
X191689D02*
X194689D01*
X191689D02*
X193189Y59820D01*
Y58820D02*
X195689Y63820D01*
X190689D02*
X195689D01*
X190689D02*
X193189Y58820D01*
X192084Y28820D02*
X193584Y31820D01*
X190584D02*
X193584D01*
X190584D02*
X192084Y28820D01*
Y27821D02*
X194583Y32820D01*
X189584D02*
X194583D01*
X189584D02*
X192084Y27821D01*
X9093Y9093D02*
X9843Y8343D01*
X8343Y9093D02*
X9093D01*
X8343D02*
X9093Y9843D01*
X8343Y10593D02*
X9093Y9843D01*
X8343Y10593D02*
X9093D01*
X9843Y11343D01*
X10593Y10593D01*
X11343D01*
X10593Y9843D02*
X11343Y10593D01*
X10593Y9843D02*
X11343Y9093D01*
X10593D02*
X11343D01*
X9843Y8343D02*
X10593Y9093D01*
X8592Y8592D02*
X9843Y7343D01*
X7343Y8592D02*
X8592D01*
X7343D02*
X8592Y9843D01*
X7343Y11092D02*
X8592Y9843D01*
X7343Y11092D02*
X8592D01*
X9843Y12342D01*
X11092Y11092D01*
X12342D01*
X11092Y9843D02*
X12342Y11092D01*
X11092Y9843D02*
X12342Y8592D01*
X11092D02*
X12342D01*
X9843Y7343D02*
X11092Y8592D01*
X9093Y245313D02*
X9843Y244563D01*
X8343Y245313D02*
X9093D01*
X8343D02*
X9093Y246063D01*
X8343Y246813D02*
X9093Y246063D01*
X8343Y246813D02*
X9093D01*
X9843Y247563D01*
X10593Y246813D01*
X11343D01*
X10593Y246063D02*
X11343Y246813D01*
X10593Y246063D02*
X11343Y245313D01*
X10593D02*
X11343D01*
X9843Y244563D02*
X10593Y245313D01*
X8592Y244813D02*
X9843Y243563D01*
X7343Y244813D02*
X8592D01*
X7343D02*
X8592Y246063D01*
X7343Y247313D02*
X8592Y246063D01*
X7343Y247313D02*
X8592D01*
X9843Y248563D01*
X11092Y247313D01*
X12342D01*
X11092Y246063D02*
X12342Y247313D01*
X11092Y246063D02*
X12342Y244813D01*
X11092D02*
X12342D01*
X9843Y243563D02*
X11092Y244813D01*
X324053Y245313D02*
X324803Y244563D01*
X323303Y245313D02*
X324053D01*
X323303D02*
X324053Y246063D01*
X323303Y246813D02*
X324053Y246063D01*
X323303Y246813D02*
X324053D01*
X324803Y247563D01*
X325553Y246813D01*
X326303D01*
X325553Y246063D02*
X326303Y246813D01*
X325553Y246063D02*
X326303Y245313D01*
X325553D02*
X326303D01*
X324803Y244563D02*
X325553Y245313D01*
X323553Y244813D02*
X324803Y243563D01*
X322303Y244813D02*
X323553D01*
X322303D02*
X323553Y246063D01*
X322303Y247313D02*
X323553Y246063D01*
X322303Y247313D02*
X323553D01*
X324803Y248563D01*
X326053Y247313D01*
X327303D01*
X326053Y246063D02*
X327303Y247313D01*
X326053Y246063D02*
X327303Y244813D01*
X326053D02*
X327303D01*
X324803Y243563D02*
X326053Y244813D01*
X324053Y9093D02*
X324803Y8343D01*
X323303Y9093D02*
X324053D01*
X323303D02*
X324053Y9843D01*
X323303Y10593D02*
X324053Y9843D01*
X323303Y10593D02*
X324053D01*
X324803Y11343D01*
X325553Y10593D01*
X326303D01*
X325553Y9843D02*
X326303Y10593D01*
X325553Y9843D02*
X326303Y9093D01*
X325553D02*
X326303D01*
X324803Y8343D02*
X325553Y9093D01*
X323553Y8592D02*
X324803Y7343D01*
X322303Y8592D02*
X323553D01*
X322303D02*
X323553Y9843D01*
X322303Y11092D02*
X323553Y9843D01*
X322303Y11092D02*
X323553D01*
X324803Y12342D01*
X326053Y11092D01*
X327303D01*
X326053Y9843D02*
X327303Y11092D01*
X326053Y9843D02*
X327303Y8592D01*
X326053D02*
X327303D01*
X324803Y7343D02*
X326053Y8592D01*
X4390Y182502D02*
X9390D01*
Y187502D01*
X4390D02*
X9390D01*
X4390Y182502D02*
Y187502D01*
Y130139D02*
X9390D01*
Y135139D01*
X4390D02*
X9390D01*
X4390Y130139D02*
Y135139D01*
X40610Y137423D02*
X45610D01*
Y142423D01*
X40610D02*
X45610D01*
X40610Y137423D02*
Y142423D01*
Y156321D02*
X45610D01*
Y161320D01*
X40610D02*
X45610D01*
X40610Y156321D02*
Y161320D01*
Y175218D02*
X45610D01*
Y180218D01*
X40610D02*
X45610D01*
X40610Y175218D02*
Y180218D01*
X15900Y105621D02*
X18400Y110620D01*
X13400D02*
X18400D01*
X13400D02*
X15900Y105621D01*
X198491Y235229D02*
X201491D01*
Y238229D01*
X198491D02*
X201491D01*
X198491Y235229D02*
Y238229D01*
X197491Y234229D02*
X202491D01*
Y239229D01*
X197491D02*
X202491D01*
X197491Y234229D02*
Y239229D01*
X170932Y235229D02*
X173932D01*
Y238229D01*
X170932D02*
X173932D01*
X170932Y235229D02*
Y238229D01*
X169932Y234229D02*
X174932D01*
Y239229D01*
X169932D02*
X174932D01*
X169932Y234229D02*
Y239229D01*
X160383Y235249D02*
X163383D01*
Y238249D01*
X160383D02*
X163383D01*
X160383Y235249D02*
Y238249D01*
X159383Y234249D02*
X164383D01*
Y239249D01*
X159383D02*
X164383D01*
X159383Y234249D02*
Y239249D01*
X132824Y235249D02*
X135824D01*
Y238249D01*
X132824D02*
X135824D01*
X132824Y235249D02*
Y238249D01*
X131824Y234249D02*
X136824D01*
Y239249D01*
X131824D02*
X136824D01*
X131824Y234249D02*
Y239249D01*
X315800Y36724D02*
X318300Y34224D01*
X320800Y36724D01*
X318300Y39224D02*
X320800Y36724D01*
X315800D02*
X318300Y39224D01*
X315800Y68221D02*
X318300Y65720D01*
X320800Y68221D01*
X318300Y70720D02*
X320800Y68221D01*
X315800D02*
X318300Y70720D01*
X118200Y3320D02*
Y4571D01*
X119450Y5821D01*
X118200Y7070D02*
X119450Y5821D01*
X118200Y7070D02*
Y8320D01*
X119450D01*
X120700Y7070D01*
X121950Y8320D01*
X123200D01*
Y7070D02*
Y8320D01*
X121950Y5821D02*
X123200Y7070D01*
X121950Y5821D02*
X123200Y4571D01*
Y3320D02*
Y4571D01*
X121950Y3320D02*
X123200D01*
X120700Y4571D02*
X121950Y3320D01*
X119450D02*
X120700Y4571D01*
X118200Y3320D02*
X119450D01*
X118200Y13320D02*
Y14570D01*
X119450Y15821D01*
X118200Y17071D02*
X119450Y15821D01*
X118200Y17071D02*
Y18320D01*
X119450D01*
X120700Y17071D01*
X121950Y18320D01*
X123200D01*
Y17071D02*
Y18320D01*
X121950Y15821D02*
X123200Y17071D01*
X121950Y15821D02*
X123200Y14570D01*
Y13320D02*
Y14570D01*
X121950Y13320D02*
X123200D01*
X120700Y14570D02*
X121950Y13320D01*
X119450D02*
X120700Y14570D01*
X118200Y13320D02*
X119450D01*
X118200Y23321D02*
Y24570D01*
X119450Y25820D01*
X118200Y27071D02*
X119450Y25820D01*
X118200Y27071D02*
Y28321D01*
X119450D01*
X120700Y27071D01*
X121950Y28321D01*
X123200D01*
Y27071D02*
Y28321D01*
X121950Y25820D02*
X123200Y27071D01*
X121950Y25820D02*
X123200Y24570D01*
Y23321D02*
Y24570D01*
X121950Y23321D02*
X123200D01*
X120700Y24570D02*
X121950Y23321D01*
X119450D02*
X120700Y24570D01*
X118200Y23321D02*
X119450D01*
X118200Y33321D02*
Y34571D01*
X119450Y35820D01*
X118200Y37071D02*
X119450Y35820D01*
X118200Y37071D02*
Y38320D01*
X119450D01*
X120700Y37071D01*
X121950Y38320D01*
X123200D01*
Y37071D02*
Y38320D01*
X121950Y35820D02*
X123200Y37071D01*
X121950Y35820D02*
X123200Y34571D01*
Y33321D02*
Y34571D01*
X121950Y33321D02*
X123200D01*
X120700Y34571D02*
X121950Y33321D01*
X119450D02*
X120700Y34571D01*
X118200Y33321D02*
X119450D01*
X118200Y43321D02*
Y44570D01*
X119450Y45821D01*
X118200Y47071D02*
X119450Y45821D01*
X118200Y47071D02*
Y48320D01*
X119450D01*
X120700Y47071D01*
X121950Y48320D01*
X123200D01*
Y47071D02*
Y48320D01*
X121950Y45821D02*
X123200Y47071D01*
X121950Y45821D02*
X123200Y44570D01*
Y43321D02*
Y44570D01*
X121950Y43321D02*
X123200D01*
X120700Y44570D02*
X121950Y43321D01*
X119450D02*
X120700Y44570D01*
X118200Y43321D02*
X119450D01*
X118200Y53320D02*
Y54571D01*
X119450Y55821D01*
X118200Y57070D02*
X119450Y55821D01*
X118200Y57070D02*
Y58320D01*
X119450D01*
X120700Y57070D01*
X121950Y58320D01*
X123200D01*
Y57070D02*
Y58320D01*
X121950Y55821D02*
X123200Y57070D01*
X121950Y55821D02*
X123200Y54571D01*
Y53320D02*
Y54571D01*
X121950Y53320D02*
X123200D01*
X120700Y54571D02*
X121950Y53320D01*
X119450D02*
X120700Y54571D01*
X118200Y53320D02*
X119450D01*
X33502Y17888D02*
X34752D01*
X33502D02*
Y20388D01*
X34752D01*
Y21638D01*
X37252D01*
Y20388D02*
Y21638D01*
Y20388D02*
X38502D01*
Y17888D02*
Y20388D01*
X37252Y17888D02*
X38502D01*
X37252Y16638D02*
Y17888D01*
X34752Y16638D02*
X37252D01*
X34752D02*
Y17888D01*
X56257D02*
X57507D01*
X56257D02*
Y20388D01*
X57507D01*
Y21638D01*
X60008D01*
Y20388D02*
Y21638D01*
Y20388D02*
X61257D01*
Y17888D02*
Y20388D01*
X60008Y17888D02*
X61257D01*
X60008Y16638D02*
Y17888D01*
X57507Y16638D02*
X60008D01*
X57507D02*
Y17888D01*
X61907Y18606D02*
X64407Y19856D01*
X66907Y18606D01*
X65657Y21106D02*
X66907Y18606D01*
X65657Y21106D02*
X66907Y23606D01*
X64407Y22356D02*
X66907Y23606D01*
X61907D02*
X64407Y22356D01*
X61907Y23606D02*
X63157Y21106D01*
X61907Y18606D02*
X63157Y21106D01*
X27852Y18606D02*
X30352Y19856D01*
X32852Y18606D01*
X31602Y21106D02*
X32852Y18606D01*
X31602Y21106D02*
X32852Y23606D01*
X30352Y22356D02*
X32852Y23606D01*
X27852D02*
X30352Y22356D01*
X27852Y23606D02*
X29102Y21106D01*
X27852Y18606D02*
X29102Y21106D01*
X63157Y3400D02*
X64407Y2150D01*
X61907Y3400D02*
X63157D01*
X61907D02*
X63157Y4650D01*
X61907Y5900D02*
X63157Y4650D01*
X61907Y5900D02*
X63157D01*
X64407Y7150D01*
X65657Y5900D01*
X66907D01*
X65657Y4650D02*
X66907Y5900D01*
X65657Y4650D02*
X66907Y3400D01*
X65657D02*
X66907D01*
X64407Y2150D02*
X65657Y3400D01*
X29102D02*
X30352Y2150D01*
X27852Y3400D02*
X29102D01*
X27852D02*
X29102Y4650D01*
X27852Y5900D02*
X29102Y4650D01*
X27852Y5900D02*
X29102D01*
X30352Y7150D01*
X31602Y5900D01*
X32852D01*
X31602Y4650D02*
X32852Y5900D01*
X31602Y4650D02*
X32852Y3400D01*
X31602D02*
X32852D01*
X30352Y2150D02*
X31602Y3400D01*
X213400Y22800D02*
Y24050D01*
X214650Y25300D01*
X213400Y26550D02*
X214650Y25300D01*
X213400Y26550D02*
Y27800D01*
X214650D01*
X215900Y26550D01*
X217150Y27800D01*
X218400D01*
Y26550D02*
Y27800D01*
X217150Y25300D02*
X218400Y26550D01*
X217150Y25300D02*
X218400Y24050D01*
Y22800D02*
Y24050D01*
X217150Y22800D02*
X218400D01*
X215900Y24050D02*
X217150Y22800D01*
X214650D02*
X215900Y24050D01*
X213400Y22800D02*
X214650D01*
X213400Y32800D02*
Y34050D01*
X214650Y35300D01*
X213400Y36550D02*
X214650Y35300D01*
X213400Y36550D02*
Y37800D01*
X214650D01*
X215900Y36550D01*
X217150Y37800D01*
X218400D01*
Y36550D02*
Y37800D01*
X217150Y35300D02*
X218400Y36550D01*
X217150Y35300D02*
X218400Y34050D01*
Y32800D02*
Y34050D01*
X217150Y32800D02*
X218400D01*
X215900Y34050D02*
X217150Y32800D01*
X214650D02*
X215900Y34050D01*
X213400Y32800D02*
X214650D01*
X213400Y42800D02*
Y44050D01*
X214650Y45300D01*
X213400Y46550D02*
X214650Y45300D01*
X213400Y46550D02*
Y47800D01*
X214650D01*
X215900Y46550D01*
X217150Y47800D01*
X218400D01*
Y46550D02*
Y47800D01*
X217150Y45300D02*
X218400Y46550D01*
X217150Y45300D02*
X218400Y44050D01*
Y42800D02*
Y44050D01*
X217150Y42800D02*
X218400D01*
X215900Y44050D02*
X217150Y42800D01*
X214650D02*
X215900Y44050D01*
X213400Y42800D02*
X214650D01*
X213400Y52800D02*
Y54050D01*
X214650Y55300D01*
X213400Y56550D02*
X214650Y55300D01*
X213400Y56550D02*
Y57800D01*
X214650D01*
X215900Y56550D01*
X217150Y57800D01*
X218400D01*
Y56550D02*
Y57800D01*
X217150Y55300D02*
X218400Y56550D01*
X217150Y55300D02*
X218400Y54050D01*
Y52800D02*
Y54050D01*
X217150Y52800D02*
X218400D01*
X215900Y54050D02*
X217150Y52800D01*
X214650D02*
X215900Y54050D01*
X213400Y52800D02*
X214650D01*
X213400Y62800D02*
Y64050D01*
X214650Y65300D01*
X213400Y66550D02*
X214650Y65300D01*
X213400Y66550D02*
Y67800D01*
X214650D01*
X215900Y66550D01*
X217150Y67800D01*
X218400D01*
Y66550D02*
Y67800D01*
X217150Y65300D02*
X218400Y66550D01*
X217150Y65300D02*
X218400Y64050D01*
Y62800D02*
Y64050D01*
X217150Y62800D02*
X218400D01*
X215900Y64050D02*
X217150Y62800D01*
X214650D02*
X215900Y64050D01*
X213400Y62800D02*
X214650D01*
X213400Y72800D02*
Y74050D01*
X214650Y75300D01*
X213400Y76550D02*
X214650Y75300D01*
X213400Y76550D02*
Y77800D01*
X214650D01*
X215900Y76550D01*
X217150Y77800D01*
X218400D01*
Y76550D02*
Y77800D01*
X217150Y75300D02*
X218400Y76550D01*
X217150Y75300D02*
X218400Y74050D01*
Y72800D02*
Y74050D01*
X217150Y72800D02*
X218400D01*
X215900Y74050D02*
X217150Y72800D01*
X214650D02*
X215900Y74050D01*
X213400Y72800D02*
X214650D01*
X226100Y22800D02*
Y24050D01*
X227350Y25300D01*
X226100Y26550D02*
X227350Y25300D01*
X226100Y26550D02*
Y27800D01*
X227350D01*
X228600Y26550D01*
X229850Y27800D01*
X231100D01*
Y26550D02*
Y27800D01*
X229850Y25300D02*
X231100Y26550D01*
X229850Y25300D02*
X231100Y24050D01*
Y22800D02*
Y24050D01*
X229850Y22800D02*
X231100D01*
X228600Y24050D02*
X229850Y22800D01*
X227350D02*
X228600Y24050D01*
X226100Y22800D02*
X227350D01*
X226100Y32800D02*
Y34050D01*
X227350Y35300D01*
X226100Y36550D02*
X227350Y35300D01*
X226100Y36550D02*
Y37800D01*
X227350D01*
X228600Y36550D01*
X229850Y37800D01*
X231100D01*
Y36550D02*
Y37800D01*
X229850Y35300D02*
X231100Y36550D01*
X229850Y35300D02*
X231100Y34050D01*
Y32800D02*
Y34050D01*
X229850Y32800D02*
X231100D01*
X228600Y34050D02*
X229850Y32800D01*
X227350D02*
X228600Y34050D01*
X226100Y32800D02*
X227350D01*
X226100Y42800D02*
Y44050D01*
X227350Y45300D01*
X226100Y46550D02*
X227350Y45300D01*
X226100Y46550D02*
Y47800D01*
X227350D01*
X228600Y46550D01*
X229850Y47800D01*
X231100D01*
Y46550D02*
Y47800D01*
X229850Y45300D02*
X231100Y46550D01*
X229850Y45300D02*
X231100Y44050D01*
Y42800D02*
Y44050D01*
X229850Y42800D02*
X231100D01*
X228600Y44050D02*
X229850Y42800D01*
X227350D02*
X228600Y44050D01*
X226100Y42800D02*
X227350D01*
X226100Y52800D02*
Y54050D01*
X227350Y55300D01*
X226100Y56550D02*
X227350Y55300D01*
X226100Y56550D02*
Y57800D01*
X227350D01*
X228600Y56550D01*
X229850Y57800D01*
X231100D01*
Y56550D02*
Y57800D01*
X229850Y55300D02*
X231100Y56550D01*
X229850Y55300D02*
X231100Y54050D01*
Y52800D02*
Y54050D01*
X229850Y52800D02*
X231100D01*
X228600Y54050D02*
X229850Y52800D01*
X227350D02*
X228600Y54050D01*
X226100Y52800D02*
X227350D01*
X226100Y62800D02*
Y64050D01*
X227350Y65300D01*
X226100Y66550D02*
X227350Y65300D01*
X226100Y66550D02*
Y67800D01*
X227350D01*
X228600Y66550D01*
X229850Y67800D01*
X231100D01*
Y66550D02*
Y67800D01*
X229850Y65300D02*
X231100Y66550D01*
X229850Y65300D02*
X231100Y64050D01*
Y62800D02*
Y64050D01*
X229850Y62800D02*
X231100D01*
X228600Y64050D02*
X229850Y62800D01*
X227350D02*
X228600Y64050D01*
X226100Y62800D02*
X227350D01*
X226100Y72800D02*
Y74050D01*
X227350Y75300D01*
X226100Y76550D02*
X227350Y75300D01*
X226100Y76550D02*
Y77800D01*
X227350D01*
X228600Y76550D01*
X229850Y77800D01*
X231100D01*
Y76550D02*
Y77800D01*
X229850Y75300D02*
X231100Y76550D01*
X229850Y75300D02*
X231100Y74050D01*
Y72800D02*
Y74050D01*
X229850Y72800D02*
X231100D01*
X228600Y74050D02*
X229850Y72800D01*
X227350D02*
X228600Y74050D01*
X226100Y72800D02*
X227350D01*
D11*
X12596Y477528D02*
G03*
X12596Y477528I-3333J0D01*
G01*
X11263Y417527D02*
G03*
X11263Y417527I-2000J0D01*
G01*
X12596D02*
G03*
X12596Y417527I-3333J0D01*
G01*
X9262Y549194D02*
X12596Y555861D01*
X5929D02*
X12596D01*
X5929D02*
X9262Y549194D01*
X7596Y535861D02*
X9262Y534194D01*
X5929Y535861D02*
X7596D01*
X5929D02*
X7596Y537528D01*
X5929Y539194D02*
X7596Y537528D01*
X5929Y539194D02*
X7596D01*
X9262Y540861D01*
X10929Y539194D01*
X12596D01*
X10929Y537528D02*
X12596Y539194D01*
X10929Y537528D02*
X12596Y535861D01*
X10929D02*
X12596D01*
X9262Y534194D02*
X10929Y535861D01*
X5929Y519194D02*
X9262Y520861D01*
X12596Y519194D01*
X10929Y522528D02*
X12596Y519194D01*
X10929Y522528D02*
X12596Y525861D01*
X9262Y524194D02*
X12596Y525861D01*
X5929D02*
X9262Y524194D01*
X5929Y525861D02*
X7596Y522528D01*
X5929Y519194D02*
X7596Y522528D01*
X5929Y505861D02*
X7596D01*
X5929D02*
Y509194D01*
X7596D01*
Y510861D01*
X10929D01*
Y509194D02*
Y510861D01*
Y509194D02*
X12596D01*
Y505861D02*
Y509194D01*
X10929Y505861D02*
X12596D01*
X10929Y504194D02*
Y505861D01*
X7596Y504194D02*
X10929D01*
X7596D02*
Y505861D01*
X5929Y492527D02*
X9262Y489194D01*
X12596Y492527D01*
X9262Y495861D02*
X12596Y492527D01*
X5929D02*
X9262Y495861D01*
X7262Y460528D02*
X11263D01*
Y464528D01*
X7262D02*
X11263D01*
X7262Y460528D02*
Y464528D01*
X5929Y459194D02*
X12596D01*
Y465861D01*
X5929D02*
X12596D01*
X5929Y459194D02*
Y465861D01*
X8263Y446527D02*
X9262Y445528D01*
X7262Y446527D02*
X8263D01*
X7262D02*
X8263Y447528D01*
X7262Y448527D02*
X8263Y447528D01*
X7262Y448527D02*
X8263D01*
X9262Y449528D01*
X10262Y448527D01*
X11263D01*
X10262Y447528D02*
X11263Y448527D01*
X10262Y447528D02*
X11263Y446527D01*
X10262D02*
X11263D01*
X9262Y445528D02*
X10262Y446527D01*
X7596Y445861D02*
X9262Y444194D01*
X5929Y445861D02*
X7596D01*
X5929D02*
X7596Y447528D01*
X5929Y449194D02*
X7596Y447528D01*
X5929Y449194D02*
X7596D01*
X9262Y450861D01*
X10929Y449194D01*
X12596D01*
X10929Y447528D02*
X12596Y449194D01*
X10929Y447528D02*
X12596Y445861D01*
X10929D02*
X12596D01*
X9262Y444194D02*
X10929Y445861D01*
X5929Y429194D02*
X12596D01*
Y435861D01*
X5929D02*
X12596D01*
X5929Y429194D02*
Y435861D01*
Y399194D02*
Y400861D01*
X7596Y402528D01*
X5929Y404194D02*
X7596Y402528D01*
X5929Y404194D02*
Y405861D01*
X7596D01*
X9262Y404194D01*
X10929Y405861D01*
X12596D01*
Y404194D02*
Y405861D01*
X10929Y402528D02*
X12596Y404194D01*
X10929Y402528D02*
X12596Y400861D01*
Y399194D02*
Y400861D01*
X10929Y399194D02*
X12596D01*
X9262Y400861D02*
X10929Y399194D01*
X7596D02*
X9262Y400861D01*
X5929Y399194D02*
X7596D01*
X9262Y385527D02*
X11263Y389528D01*
X7262D02*
X11263D01*
X7262D02*
X9262Y385527D01*
Y384194D02*
X12596Y390861D01*
X5929D02*
X12596D01*
X5929D02*
X9262Y384194D01*
X1217008Y552193D02*
X1221007D01*
X1217008Y539193D02*
X1218008Y540192D01*
X1220008D01*
X1221007Y539193D01*
Y535194D01*
X1220008Y534194D01*
X1218008D01*
X1217008Y535194D01*
Y539193D01*
X1223007Y534194D02*
Y535194D01*
X1224006D01*
Y534194D01*
X1223007D01*
X1228005Y539193D02*
X1229005Y540192D01*
X1231004D01*
X1232004Y539193D01*
Y538193D01*
X1231004Y537193D01*
X1232004Y536194D01*
Y535194D01*
X1231004Y534194D01*
X1229005D01*
X1228005Y535194D01*
Y536194D01*
X1229005Y537193D01*
X1228005Y538193D01*
Y539193D01*
X1229005Y537193D02*
X1231004D01*
X1234003Y539193D02*
X1235003Y540192D01*
X1237002D01*
X1238002Y539193D01*
Y535194D01*
X1237002Y534194D01*
X1235003D01*
X1234003Y535194D01*
Y539193D01*
X1240001D02*
X1241001Y540192D01*
X1243000D01*
X1244000Y539193D01*
Y535194D01*
X1243000Y534194D01*
X1241001D01*
X1240001Y535194D01*
Y539193D01*
X1245999Y534194D02*
Y538193D01*
X1246999D01*
X1247998Y537193D01*
Y534194D01*
Y537193D01*
X1248998Y538193D01*
X1249998Y537193D01*
Y534194D01*
X1251997D02*
Y538193D01*
X1252997D01*
X1253996Y537193D01*
Y534194D01*
Y537193D01*
X1254996Y538193D01*
X1255996Y537193D01*
Y534194D01*
X1265993D02*
X1263993Y536194D01*
Y538193D01*
X1265993Y540192D01*
X1268992Y539193D02*
X1269991Y540192D01*
X1271991D01*
X1272990Y539193D01*
Y538193D01*
X1271991Y537193D01*
X1270991D01*
X1271991D01*
X1272990Y536194D01*
Y535194D01*
X1271991Y534194D01*
X1269991D01*
X1268992Y535194D01*
X1274990Y534194D02*
X1276989D01*
X1275989D01*
Y540192D01*
X1274990Y539193D01*
X1279988Y534194D02*
Y535194D01*
X1280988D01*
Y534194D01*
X1279988D01*
X1288985Y540192D02*
X1284986D01*
Y537193D01*
X1286986Y538193D01*
X1287986D01*
X1288985Y537193D01*
Y535194D01*
X1287986Y534194D01*
X1285986D01*
X1284986Y535194D01*
X1290985Y539193D02*
X1291984Y540192D01*
X1293983D01*
X1294983Y539193D01*
Y535194D01*
X1293983Y534194D01*
X1291984D01*
X1290985Y535194D01*
Y539193D01*
X1296983Y534194D02*
Y538193D01*
X1297982D01*
X1298982Y537193D01*
Y534194D01*
Y537193D01*
X1299982Y538193D01*
X1300981Y537193D01*
Y534194D01*
X1302981D02*
X1304980D01*
X1303980D01*
Y538193D01*
X1302981D01*
X1307979Y534194D02*
X1309978D01*
X1308979D01*
Y540192D01*
X1307979D01*
X1312977Y534194D02*
X1314977Y536194D01*
Y538193D01*
X1312977Y540192D01*
X1217008Y519194D02*
X1219008D01*
X1218008D01*
Y525192D01*
X1217008Y524193D01*
X1222007Y519194D02*
Y520194D01*
X1223007D01*
Y519194D01*
X1222007D01*
X1227005D02*
X1229004D01*
X1228005D01*
Y525192D01*
X1227005Y524193D01*
X1232004D02*
X1233003Y525192D01*
X1235003D01*
X1236002Y524193D01*
Y520194D01*
X1235003Y519194D01*
X1233003D01*
X1232004Y520194D01*
Y524193D01*
X1238002D02*
X1239001Y525192D01*
X1241001D01*
X1242000Y524193D01*
Y520194D01*
X1241001Y519194D01*
X1239001D01*
X1238002Y520194D01*
Y524193D01*
X1244000Y519194D02*
Y523193D01*
X1244999D01*
X1245999Y522193D01*
Y519194D01*
Y522193D01*
X1246999Y523193D01*
X1247998Y522193D01*
Y519194D01*
X1249998D02*
Y523193D01*
X1250997D01*
X1251997Y522193D01*
Y519194D01*
Y522193D01*
X1252997Y523193D01*
X1253996Y522193D01*
Y519194D01*
X1263993D02*
X1261994Y521194D01*
Y523193D01*
X1263993Y525192D01*
X1269991Y519194D02*
Y525192D01*
X1266992Y522193D01*
X1270991D01*
X1272990Y524193D02*
X1273990Y525192D01*
X1275989D01*
X1276989Y524193D01*
Y523193D01*
X1275989Y522193D01*
X1274990D01*
X1275989D01*
X1276989Y521194D01*
Y520194D01*
X1275989Y519194D01*
X1273990D01*
X1272990Y520194D01*
X1278988Y519194D02*
Y520194D01*
X1279988D01*
Y519194D01*
X1278988D01*
X1283987Y524193D02*
X1284986Y525192D01*
X1286986D01*
X1287986Y524193D01*
Y523193D01*
X1286986Y522193D01*
X1285986D01*
X1286986D01*
X1287986Y521194D01*
Y520194D01*
X1286986Y519194D01*
X1284986D01*
X1283987Y520194D01*
X1289985Y519194D02*
X1291984D01*
X1290985D01*
Y525192D01*
X1289985Y524193D01*
X1294983Y519194D02*
Y523193D01*
X1295983D01*
X1296982Y522193D01*
Y519194D01*
Y522193D01*
X1297982Y523193D01*
X1298982Y522193D01*
Y519194D01*
X1300981D02*
X1302981D01*
X1301981D01*
Y523193D01*
X1300981D01*
X1305980Y519194D02*
X1307979D01*
X1306979D01*
Y525192D01*
X1305980D01*
X1310978Y519194D02*
X1312977Y521194D01*
Y523193D01*
X1310978Y525192D01*
X1217008Y507193D02*
X1221007D01*
X1217008Y492193D02*
X1221007D01*
X1217008Y474194D02*
X1219008D01*
X1218008D01*
Y480192D01*
X1217008Y479193D01*
X1222007Y474194D02*
Y475194D01*
X1223007D01*
Y474194D01*
X1222007D01*
X1231004D02*
X1227005D01*
X1231004Y478193D01*
Y479193D01*
X1230004Y480192D01*
X1228005D01*
X1227005Y479193D01*
X1233003D02*
X1234003Y480192D01*
X1236002D01*
X1237002Y479193D01*
Y475194D01*
X1236002Y474194D01*
X1234003D01*
X1233003Y475194D01*
Y479193D01*
X1239001D02*
X1240001Y480192D01*
X1242000D01*
X1243000Y479193D01*
Y475194D01*
X1242000Y474194D01*
X1240001D01*
X1239001Y475194D01*
Y479193D01*
X1244999Y474194D02*
Y478193D01*
X1245999D01*
X1246999Y477193D01*
Y474194D01*
Y477193D01*
X1247998Y478193D01*
X1248998Y477193D01*
Y474194D01*
X1250997D02*
Y478193D01*
X1251997D01*
X1252997Y477193D01*
Y474194D01*
Y477193D01*
X1253996Y478193D01*
X1254996Y477193D01*
Y474194D01*
X1264993D02*
X1262994Y476194D01*
Y478193D01*
X1264993Y480192D01*
X1270991Y474194D02*
Y480192D01*
X1267992Y477193D01*
X1271991D01*
X1273990Y480192D02*
X1277989D01*
Y479193D01*
X1273990Y475194D01*
Y474194D01*
X1279988D02*
Y475194D01*
X1280988D01*
Y474194D01*
X1279988D01*
X1288985D02*
X1284986D01*
X1288985Y478193D01*
Y479193D01*
X1287986Y480192D01*
X1285986D01*
X1284986Y479193D01*
X1293983Y474194D02*
Y480192D01*
X1290985Y477193D01*
X1294983D01*
X1296983Y474194D02*
Y478193D01*
X1297982D01*
X1298982Y477193D01*
Y474194D01*
Y477193D01*
X1299982Y478193D01*
X1300981Y477193D01*
Y474194D01*
X1302981D02*
X1304980D01*
X1303980D01*
Y478193D01*
X1302981D01*
X1307979Y474194D02*
X1309978D01*
X1308979D01*
Y480192D01*
X1307979D01*
X1312977Y474194D02*
X1314977Y476194D01*
Y478193D01*
X1312977Y480192D01*
X1217008Y462193D02*
X1221007D01*
X1217008Y447193D02*
X1221007D01*
X1217008Y432193D02*
X1221007D01*
X1217008Y417193D02*
X1221007D01*
X1217008Y402193D02*
X1221007D01*
X1217008Y387193D02*
X1221007D01*
X1108040Y552193D02*
X1112039D01*
X1108040Y534194D02*
X1110040D01*
X1109040D01*
Y540192D01*
X1108040Y539193D01*
X1113039Y534194D02*
Y535194D01*
X1114038D01*
Y534194D01*
X1113039D01*
X1121036D02*
Y540192D01*
X1118037Y537193D01*
X1122036D01*
X1124035Y539193D02*
X1125035Y540192D01*
X1127034D01*
X1128034Y539193D01*
Y535194D01*
X1127034Y534194D01*
X1125035D01*
X1124035Y535194D01*
Y539193D01*
X1130033D02*
X1131033Y540192D01*
X1133032D01*
X1134032Y539193D01*
Y535194D01*
X1133032Y534194D01*
X1131033D01*
X1130033Y535194D01*
Y539193D01*
X1136031Y534194D02*
Y538193D01*
X1137031D01*
X1138030Y537193D01*
Y534194D01*
Y537193D01*
X1139030Y538193D01*
X1140030Y537193D01*
Y534194D01*
X1142029D02*
Y538193D01*
X1143029D01*
X1144028Y537193D01*
Y534194D01*
Y537193D01*
X1145028Y538193D01*
X1146028Y537193D01*
Y534194D01*
X1156025D02*
X1154025Y536194D01*
Y538193D01*
X1156025Y540192D01*
X1163022D02*
X1159024D01*
Y537193D01*
X1161023Y538193D01*
X1162023D01*
X1163022Y537193D01*
Y535194D01*
X1162023Y534194D01*
X1160023D01*
X1159024Y535194D01*
X1169020Y540192D02*
X1165022D01*
Y537193D01*
X1167021Y538193D01*
X1168021D01*
X1169020Y537193D01*
Y535194D01*
X1168021Y534194D01*
X1166021D01*
X1165022Y535194D01*
X1171020Y534194D02*
Y535194D01*
X1172019D01*
Y534194D01*
X1171020D01*
X1176018D02*
X1178018D01*
X1177018D01*
Y540192D01*
X1176018Y539193D01*
X1185015Y534194D02*
X1181017D01*
X1185015Y538193D01*
Y539193D01*
X1184016Y540192D01*
X1182016D01*
X1181017Y539193D01*
X1187015Y534194D02*
Y538193D01*
X1188014D01*
X1189014Y537193D01*
Y534194D01*
Y537193D01*
X1190014Y538193D01*
X1191013Y537193D01*
Y534194D01*
X1193013D02*
X1195012D01*
X1194012D01*
Y538193D01*
X1193013D01*
X1198011Y534194D02*
X1200010D01*
X1199011D01*
Y540192D01*
X1198011D01*
X1203009Y534194D02*
X1205009Y536194D01*
Y538193D01*
X1203009Y540192D01*
X1108040Y519194D02*
X1110040D01*
X1109040D01*
Y525192D01*
X1108040Y524193D01*
X1113039Y519194D02*
Y520194D01*
X1114038D01*
Y519194D01*
X1113039D01*
X1118037Y525192D02*
X1122036D01*
Y524193D01*
X1118037Y520194D01*
Y519194D01*
X1124035Y524193D02*
X1125035Y525192D01*
X1127034D01*
X1128034Y524193D01*
Y520194D01*
X1127034Y519194D01*
X1125035D01*
X1124035Y520194D01*
Y524193D01*
X1130033D02*
X1131033Y525192D01*
X1133032D01*
X1134032Y524193D01*
Y520194D01*
X1133032Y519194D01*
X1131033D01*
X1130033Y520194D01*
Y524193D01*
X1136031Y519194D02*
Y523193D01*
X1137031D01*
X1138030Y522193D01*
Y519194D01*
Y522193D01*
X1139030Y523193D01*
X1140030Y522193D01*
Y519194D01*
X1142029D02*
Y523193D01*
X1143029D01*
X1144028Y522193D01*
Y519194D01*
Y522193D01*
X1145028Y523193D01*
X1146028Y522193D01*
Y519194D01*
X1156025D02*
X1154025Y521194D01*
Y523193D01*
X1156025Y525192D01*
X1163022D02*
X1161023Y524193D01*
X1159024Y522193D01*
Y520194D01*
X1160023Y519194D01*
X1162023D01*
X1163022Y520194D01*
Y521194D01*
X1162023Y522193D01*
X1159024D01*
X1169020Y525192D02*
X1167021Y524193D01*
X1165022Y522193D01*
Y520194D01*
X1166021Y519194D01*
X1168021D01*
X1169020Y520194D01*
Y521194D01*
X1168021Y522193D01*
X1165022D01*
X1171020Y519194D02*
Y520194D01*
X1172019D01*
Y519194D01*
X1171020D01*
X1176018Y520194D02*
X1177018Y519194D01*
X1179017D01*
X1180017Y520194D01*
Y524193D01*
X1179017Y525192D01*
X1177018D01*
X1176018Y524193D01*
Y523193D01*
X1177018Y522193D01*
X1180017D01*
X1182016Y524193D02*
X1183016Y525192D01*
X1185015D01*
X1186015Y524193D01*
Y523193D01*
X1185015Y522193D01*
X1184016D01*
X1185015D01*
X1186015Y521194D01*
Y520194D01*
X1185015Y519194D01*
X1183016D01*
X1182016Y520194D01*
X1188014Y519194D02*
Y523193D01*
X1189014D01*
X1190014Y522193D01*
Y519194D01*
Y522193D01*
X1191013Y523193D01*
X1192013Y522193D01*
Y519194D01*
X1194012D02*
X1196012D01*
X1195012D01*
Y523193D01*
X1194012D01*
X1199011Y519194D02*
X1201010D01*
X1200010D01*
Y525192D01*
X1199011D01*
X1204009Y519194D02*
X1206008Y521194D01*
Y523193D01*
X1204009Y525192D01*
X1108040Y507193D02*
X1112039D01*
X1108040Y492193D02*
X1112039D01*
Y474194D02*
X1108040D01*
X1112039Y478193D01*
Y479193D01*
X1111039Y480192D01*
X1109040D01*
X1108040Y479193D01*
X1114038Y474194D02*
Y475194D01*
X1115038D01*
Y474194D01*
X1114038D01*
X1123035D02*
X1119037D01*
X1123035Y478193D01*
Y479193D01*
X1122036Y480192D01*
X1120036D01*
X1119037Y479193D01*
X1125035D02*
X1126034Y480192D01*
X1128034D01*
X1129033Y479193D01*
Y475194D01*
X1128034Y474194D01*
X1126034D01*
X1125035Y475194D01*
Y479193D01*
X1131033D02*
X1132032Y480192D01*
X1134032D01*
X1135031Y479193D01*
Y475194D01*
X1134032Y474194D01*
X1132032D01*
X1131033Y475194D01*
Y479193D01*
X1137031Y474194D02*
Y478193D01*
X1138030D01*
X1139030Y477193D01*
Y474194D01*
Y477193D01*
X1140030Y478193D01*
X1141029Y477193D01*
Y474194D01*
X1143029D02*
Y478193D01*
X1144028D01*
X1145028Y477193D01*
Y474194D01*
Y477193D01*
X1146028Y478193D01*
X1147027Y477193D01*
Y474194D01*
X1157024D02*
X1155025Y476194D01*
Y478193D01*
X1157024Y480192D01*
X1160023Y479193D02*
X1161023Y480192D01*
X1163022D01*
X1164022Y479193D01*
Y478193D01*
X1163022Y477193D01*
X1164022Y476194D01*
Y475194D01*
X1163022Y474194D01*
X1161023D01*
X1160023Y475194D01*
Y476194D01*
X1161023Y477193D01*
X1160023Y478193D01*
Y479193D01*
X1161023Y477193D02*
X1163022D01*
X1170020Y480192D02*
X1168021Y479193D01*
X1166021Y477193D01*
Y475194D01*
X1167021Y474194D01*
X1169020D01*
X1170020Y475194D01*
Y476194D01*
X1169020Y477193D01*
X1166021D01*
X1172019Y474194D02*
Y475194D01*
X1173019D01*
Y474194D01*
X1172019D01*
X1181017Y480192D02*
X1179017Y479193D01*
X1177018Y477193D01*
Y475194D01*
X1178018Y474194D01*
X1180017D01*
X1181017Y475194D01*
Y476194D01*
X1180017Y477193D01*
X1177018D01*
X1183016Y474194D02*
X1185015D01*
X1184016D01*
Y480192D01*
X1183016Y479193D01*
X1188014Y474194D02*
Y478193D01*
X1189014D01*
X1190014Y477193D01*
Y474194D01*
Y477193D01*
X1191013Y478193D01*
X1192013Y477193D01*
Y474194D01*
X1194012D02*
X1196012D01*
X1195012D01*
Y478193D01*
X1194012D01*
X1199011Y474194D02*
X1201010D01*
X1200010D01*
Y480192D01*
X1199011D01*
X1204009Y474194D02*
X1206008Y476194D01*
Y478193D01*
X1204009Y480192D01*
X1108040Y462193D02*
X1112039D01*
X1108040Y447193D02*
X1112039D01*
X1108040Y432193D02*
X1112039D01*
X1108040Y417193D02*
X1112039D01*
X1108040Y402193D02*
X1112039D01*
X1108040Y387193D02*
X1112039D01*
X645974Y553193D02*
X642975D01*
X641976Y552193D01*
Y550194D01*
X642975Y549194D01*
X645974D01*
X647974Y554193D02*
X648973Y555192D01*
X650973D01*
X651972Y554193D01*
Y550194D01*
X650973Y549194D01*
X648973D01*
X647974Y550194D01*
Y554193D01*
X653972Y555192D02*
Y549194D01*
Y552193D01*
X654971Y553193D01*
X656971D01*
X657970Y552193D01*
Y549194D01*
X659970D02*
Y553193D01*
X662969D01*
X663969Y552193D01*
Y549194D01*
X669967D02*
X665968D01*
X669967Y553193D01*
Y554193D01*
X668967Y555192D01*
X666967D01*
X665968Y554193D01*
X671966Y549194D02*
X673965D01*
X672965D01*
Y555192D01*
X671966Y554193D01*
X676964D02*
X677964Y555192D01*
X679963D01*
X680963Y554193D01*
Y550194D01*
X679963Y549194D01*
X677964D01*
X676964Y550194D01*
Y554193D01*
X682962Y549194D02*
Y553193D01*
X683962D01*
X684962Y552193D01*
Y549194D01*
Y552193D01*
X685961Y553193D01*
X686961Y552193D01*
Y549194D01*
X692959Y555192D02*
X688960D01*
Y552193D01*
X690960Y553193D01*
X691959D01*
X692959Y552193D01*
Y550194D01*
X691959Y549194D01*
X689960D01*
X688960Y550194D01*
X641976Y538193D02*
Y534194D01*
Y536194D01*
X642975Y537193D01*
X643975Y538193D01*
X644975D01*
X647974Y535194D02*
X648973Y534194D01*
X650973D01*
X651972Y535194D01*
Y539193D01*
X650973Y540192D01*
X648973D01*
X647974Y539193D01*
Y538193D01*
X648973Y537193D01*
X651972D01*
X653972Y539193D02*
X654971Y540192D01*
X656971D01*
X657970Y539193D01*
Y535194D01*
X656971Y534194D01*
X654971D01*
X653972Y535194D01*
Y539193D01*
X659970Y533194D02*
X663969D01*
X665968Y534194D02*
X667967D01*
X666967D01*
Y540192D01*
X665968Y539193D01*
X670966Y540192D02*
X674965D01*
Y539193D01*
X670966Y535194D01*
Y534194D01*
X676964Y539193D02*
X677964Y540192D01*
X679963D01*
X680963Y539193D01*
Y535194D01*
X679963Y534194D01*
X677964D01*
X676964Y535194D01*
Y539193D01*
X682962Y540192D02*
Y534194D01*
Y537193D01*
X683962Y538193D01*
X685961D01*
X686961Y537193D01*
Y534194D01*
X692959Y540192D02*
X690960Y539193D01*
X688960Y537193D01*
Y535194D01*
X689960Y534194D01*
X691959D01*
X692959Y535194D01*
Y536194D01*
X691959Y537193D01*
X688960D01*
X694958Y539193D02*
X695958Y540192D01*
X697958D01*
X698957Y539193D01*
Y535194D01*
X697958Y534194D01*
X695958D01*
X694958Y535194D01*
Y539193D01*
X700956Y533194D02*
X704955D01*
X706955Y534194D02*
X708954D01*
X707954D01*
Y540192D01*
X706955Y539193D01*
X714952Y534194D02*
Y540192D01*
X711953Y537193D01*
X715952D01*
X717951Y539193D02*
X718951Y540192D01*
X720950D01*
X721950Y539193D01*
Y535194D01*
X720950Y534194D01*
X718951D01*
X717951Y535194D01*
Y539193D01*
X723949Y538193D02*
Y534194D01*
Y536194D01*
X724949Y537193D01*
X725948Y538193D01*
X726948D01*
X729947Y534194D02*
X731947D01*
X730947D01*
Y540192D01*
X729947Y539193D01*
X734945D02*
X735945Y540192D01*
X737945D01*
X738944Y539193D01*
Y535194D01*
X737945Y534194D01*
X735945D01*
X734945Y535194D01*
Y539193D01*
X740943D02*
X741943Y540192D01*
X743943D01*
X744942Y539193D01*
Y535194D01*
X743943Y534194D01*
X741943D01*
X740943Y535194D01*
Y539193D01*
X643975Y519194D02*
X641976Y521194D01*
Y523193D01*
X643975Y525192D01*
X646974Y519194D02*
Y525192D01*
X648973Y523193D01*
X650973Y525192D01*
Y519194D01*
X652972D02*
X654971D01*
X653972D01*
Y523193D01*
X652972D01*
X657970D02*
X661969Y519194D01*
X659970Y521194D01*
X661969Y523193D01*
X657970Y519194D01*
X666967D02*
X664968D01*
X663969Y520194D01*
Y522193D01*
X664968Y523193D01*
X666967D01*
X667967Y522193D01*
Y521194D01*
X663969D01*
X673965Y525192D02*
Y519194D01*
X670966D01*
X669967Y520194D01*
Y522193D01*
X670966Y523193D01*
X673965D01*
X675965Y519194D02*
X677964Y521194D01*
Y523193D01*
X675965Y525192D01*
X645974Y508193D02*
X642975D01*
X641976Y507193D01*
Y505194D01*
X642975Y504194D01*
X645974D01*
X647974Y509193D02*
X648973Y510192D01*
X650973D01*
X651972Y509193D01*
Y505194D01*
X650973Y504194D01*
X648973D01*
X647974Y505194D01*
Y509193D01*
X653972Y510192D02*
Y504194D01*
Y507193D01*
X654971Y508193D01*
X656971D01*
X657970Y507193D01*
Y504194D01*
X659970D02*
Y508193D01*
X662969D01*
X663969Y507193D01*
Y504194D01*
X669967Y510192D02*
X667967Y509193D01*
X665968Y507193D01*
Y505194D01*
X666967Y504194D01*
X668967D01*
X669967Y505194D01*
Y506193D01*
X668967Y507193D01*
X665968D01*
X675965Y504194D02*
X671966D01*
X675965Y508193D01*
Y509193D01*
X674965Y510192D01*
X672965D01*
X671966Y509193D01*
X645974Y493193D02*
X642975D01*
X641976Y492193D01*
Y490194D01*
X642975Y489194D01*
X645974D01*
X647974Y494193D02*
X648973Y495192D01*
X650973D01*
X651972Y494193D01*
Y490194D01*
X650973Y489194D01*
X648973D01*
X647974Y490194D01*
Y494193D01*
X653972Y495192D02*
Y489194D01*
Y492193D01*
X654971Y493193D01*
X656971D01*
X657970Y492193D01*
Y489194D01*
X659970D02*
Y493193D01*
X662969D01*
X663969Y492193D01*
Y489194D01*
X665968D02*
X667967D01*
X666967D01*
Y495192D01*
X665968Y494193D01*
X670966D02*
X671966Y495192D01*
X673965D01*
X674965Y494193D01*
Y490194D01*
X673965Y489194D01*
X671966D01*
X670966Y490194D01*
Y494193D01*
X680963Y489194D02*
X676964D01*
X680963Y493193D01*
Y494193D01*
X679963Y495192D01*
X677964D01*
X676964Y494193D01*
X643975Y474194D02*
X641976Y476194D01*
Y478193D01*
X643975Y480192D01*
X646974Y474194D02*
Y480192D01*
X648973Y478193D01*
X650973Y480192D01*
Y474194D01*
X652972D02*
X654971D01*
X653972D01*
Y478193D01*
X652972D01*
X657970D02*
X661969Y474194D01*
X659970Y476194D01*
X661969Y478193D01*
X657970Y474194D01*
X666967D02*
X664968D01*
X663969Y475194D01*
Y477193D01*
X664968Y478193D01*
X666967D01*
X667967Y477193D01*
Y476194D01*
X663969D01*
X673965Y480192D02*
Y474194D01*
X670966D01*
X669967Y475194D01*
Y477193D01*
X670966Y478193D01*
X673965D01*
X675965Y474194D02*
X677964Y476194D01*
Y478193D01*
X675965Y480192D01*
X645974Y463193D02*
X642975D01*
X641976Y462193D01*
Y460194D01*
X642975Y459194D01*
X645974D01*
X651972D02*
X647974D01*
X651972Y463193D01*
Y464193D01*
X650973Y465192D01*
X648973D01*
X647974Y464193D01*
X653972D02*
X654971Y465192D01*
X656971D01*
X657970Y464193D01*
Y460194D01*
X656971Y459194D01*
X654971D01*
X653972Y460194D01*
Y464193D01*
X659970D02*
X660969Y465192D01*
X662969D01*
X663969Y464193D01*
Y460194D01*
X662969Y459194D01*
X660969D01*
X659970Y460194D01*
Y464193D01*
X665968Y465192D02*
Y459194D01*
Y462193D01*
X666967Y463193D01*
X668967D01*
X669967Y462193D01*
Y459194D01*
X671966D02*
X673965D01*
X672965D01*
Y465192D01*
X671966Y464193D01*
X676964D02*
X677964Y465192D01*
X679963D01*
X680963Y464193D01*
Y463193D01*
X679963Y462193D01*
X678964D01*
X679963D01*
X680963Y461194D01*
Y460194D01*
X679963Y459194D01*
X677964D01*
X676964Y460194D01*
X682962Y464193D02*
X683962Y465192D01*
X685961D01*
X686961Y464193D01*
Y460194D01*
X685961Y459194D01*
X683962D01*
X682962Y460194D01*
Y464193D01*
X641976Y444194D02*
X644975D01*
X645974Y445194D01*
X644975Y446194D01*
X642975D01*
X641976Y447193D01*
X642975Y448193D01*
X645974D01*
X647974Y449193D02*
X648973Y450192D01*
X650973D01*
X651972Y449193D01*
Y445194D01*
X650973Y444194D01*
X648973D01*
X647974Y445194D01*
Y449193D01*
X653972Y450192D02*
Y444194D01*
Y447193D01*
X654971Y448193D01*
X656971D01*
X657970Y447193D01*
Y444194D01*
X659970D02*
Y448193D01*
X662969D01*
X663969Y447193D01*
Y444194D01*
X665968Y449193D02*
X666967Y450192D01*
X668967D01*
X669967Y449193D01*
Y448193D01*
X668967Y447193D01*
X667967D01*
X668967D01*
X669967Y446194D01*
Y445194D01*
X668967Y444194D01*
X666967D01*
X665968Y445194D01*
X675965Y444194D02*
X671966D01*
X675965Y448193D01*
Y449193D01*
X674965Y450192D01*
X672965D01*
X671966Y449193D01*
X677964D02*
X678964Y450192D01*
X680963D01*
X681963Y449193D01*
Y445194D01*
X680963Y444194D01*
X678964D01*
X677964Y445194D01*
Y449193D01*
X645974Y433193D02*
X642975D01*
X641976Y432193D01*
Y430194D01*
X642975Y429194D01*
X645974D01*
X651972D02*
X647974D01*
X651972Y433193D01*
Y434193D01*
X650973Y435192D01*
X648973D01*
X647974Y434193D01*
X653972D02*
X654971Y435192D01*
X656971D01*
X657970Y434193D01*
Y433193D01*
X656971Y432193D01*
X657970Y431193D01*
Y430194D01*
X656971Y429194D01*
X654971D01*
X653972Y430194D01*
Y431193D01*
X654971Y432193D01*
X653972Y433193D01*
Y434193D01*
X654971Y432193D02*
X656971D01*
X659970Y434193D02*
X660969Y435192D01*
X662969D01*
X663969Y434193D01*
Y430194D01*
X662969Y429194D01*
X660969D01*
X659970Y430194D01*
Y434193D01*
X665968Y435192D02*
Y429194D01*
Y432193D01*
X666967Y433193D01*
X668967D01*
X669967Y432193D01*
Y429194D01*
X671966D02*
X673965D01*
X672965D01*
Y435192D01*
X671966Y434193D01*
X680963Y435192D02*
X678964Y434193D01*
X676964Y432193D01*
Y430194D01*
X677964Y429194D01*
X679963D01*
X680963Y430194D01*
Y431193D01*
X679963Y432193D01*
X676964D01*
X682962Y434193D02*
X683962Y435192D01*
X685961D01*
X686961Y434193D01*
Y430194D01*
X685961Y429194D01*
X683962D01*
X682962Y430194D01*
Y434193D01*
X643975Y414194D02*
X641976Y416193D01*
Y418193D01*
X643975Y420192D01*
X646974Y414194D02*
Y420192D01*
X648973Y418193D01*
X650973Y420192D01*
Y414194D01*
X652972D02*
X654971D01*
X653972D01*
Y418193D01*
X652972D01*
X657970D02*
X661969Y414194D01*
X659970Y416193D01*
X661969Y418193D01*
X657970Y414194D01*
X666967D02*
X664968D01*
X663969Y415194D01*
Y417193D01*
X664968Y418193D01*
X666967D01*
X667967Y417193D01*
Y416193D01*
X663969D01*
X673965Y420192D02*
Y414194D01*
X670966D01*
X669967Y415194D01*
Y417193D01*
X670966Y418193D01*
X673965D01*
X675965Y414194D02*
X677964Y416193D01*
Y418193D01*
X675965Y420192D01*
X643975Y399194D02*
X641976Y401194D01*
Y403193D01*
X643975Y405192D01*
X646974Y399194D02*
Y405192D01*
X648973Y403193D01*
X650973Y405192D01*
Y399194D01*
X652972D02*
X654971D01*
X653972D01*
Y403193D01*
X652972D01*
X657970D02*
X661969Y399194D01*
X659970Y401194D01*
X661969Y403193D01*
X657970Y399194D01*
X666967D02*
X664968D01*
X663969Y400194D01*
Y402193D01*
X664968Y403193D01*
X666967D01*
X667967Y402193D01*
Y401194D01*
X663969D01*
X673965Y405192D02*
Y399194D01*
X670966D01*
X669967Y400194D01*
Y402193D01*
X670966Y403193D01*
X673965D01*
X675965Y399194D02*
X677964Y401194D01*
Y403193D01*
X675965Y405192D01*
X641976Y388193D02*
X643975Y384194D01*
X645974Y388193D01*
X651972Y390192D02*
X649973Y389193D01*
X647974Y387193D01*
Y385194D01*
X648973Y384194D01*
X650973D01*
X651972Y385194D01*
Y386193D01*
X650973Y387193D01*
X647974D01*
X653972Y389193D02*
X654971Y390192D01*
X656971D01*
X657970Y389193D01*
Y385194D01*
X656971Y384194D01*
X654971D01*
X653972Y385194D01*
Y389193D01*
X659970Y390192D02*
Y384194D01*
Y387193D01*
X660969Y388193D01*
X662969D01*
X663969Y387193D01*
Y384194D01*
X665968Y389193D02*
X666967Y390192D01*
X668967D01*
X669967Y389193D01*
Y388193D01*
X668967Y387193D01*
X667967D01*
X668967D01*
X669967Y386193D01*
Y385194D01*
X668967Y384194D01*
X666967D01*
X665968Y385194D01*
X671966Y389193D02*
X672965Y390192D01*
X674965D01*
X675965Y389193D01*
Y385194D01*
X674965Y384194D01*
X672965D01*
X671966Y385194D01*
Y389193D01*
X567396Y549194D02*
Y555192D01*
X570395D01*
X571394Y554193D01*
Y552193D01*
X570395Y551194D01*
X567396D01*
X569395D02*
X571394Y549194D01*
X574394D02*
X576393D01*
X577392Y550194D01*
Y552193D01*
X576393Y553193D01*
X574394D01*
X573394Y552193D01*
Y550194D01*
X574394Y549194D01*
X579392Y553193D02*
Y550194D01*
X580392Y549194D01*
X583391D01*
Y553193D01*
X585390Y549194D02*
Y553193D01*
X588389D01*
X589389Y552193D01*
Y549194D01*
X595387Y555192D02*
Y549194D01*
X592388D01*
X591388Y550194D01*
Y552193D01*
X592388Y553193D01*
X595387D01*
X600385Y549194D02*
X598386D01*
X597386Y550194D01*
Y552193D01*
X598386Y553193D01*
X600385D01*
X601385Y552193D01*
Y551194D01*
X597386D01*
X607383Y555192D02*
Y549194D01*
X604384D01*
X603384Y550194D01*
Y552193D01*
X604384Y553193D01*
X607383D01*
X567396Y534194D02*
Y540192D01*
X570395D01*
X571394Y539193D01*
Y537193D01*
X570395Y536194D01*
X567396D01*
X569395D02*
X571394Y534194D01*
X574394D02*
X576393D01*
X577392Y535194D01*
Y537193D01*
X576393Y538193D01*
X574394D01*
X573394Y537193D01*
Y535194D01*
X574394Y534194D01*
X579392Y538193D02*
Y535194D01*
X580392Y534194D01*
X583391D01*
Y538193D01*
X585390Y534194D02*
Y538193D01*
X588389D01*
X589389Y537193D01*
Y534194D01*
X595387Y540192D02*
Y534194D01*
X592388D01*
X591388Y535194D01*
Y537193D01*
X592388Y538193D01*
X595387D01*
X600385Y534194D02*
X598386D01*
X597386Y535194D01*
Y537193D01*
X598386Y538193D01*
X600385D01*
X601385Y537193D01*
Y536194D01*
X597386D01*
X607383Y540192D02*
Y534194D01*
X604384D01*
X603384Y535194D01*
Y537193D01*
X604384Y538193D01*
X607383D01*
X567396Y519194D02*
Y525192D01*
X570395D01*
X571394Y524193D01*
Y522193D01*
X570395Y521194D01*
X567396D01*
X569395D02*
X571394Y519194D01*
X574394D02*
X576393D01*
X577392Y520194D01*
Y522193D01*
X576393Y523193D01*
X574394D01*
X573394Y522193D01*
Y520194D01*
X574394Y519194D01*
X579392Y523193D02*
Y520194D01*
X580392Y519194D01*
X583391D01*
Y523193D01*
X585390Y519194D02*
Y523193D01*
X588389D01*
X589389Y522193D01*
Y519194D01*
X595387Y525192D02*
Y519194D01*
X592388D01*
X591388Y520194D01*
Y522193D01*
X592388Y523193D01*
X595387D01*
X600385Y519194D02*
X598386D01*
X597386Y520194D01*
Y522193D01*
X598386Y523193D01*
X600385D01*
X601385Y522193D01*
Y521194D01*
X597386D01*
X607383Y525192D02*
Y519194D01*
X604384D01*
X603384Y520194D01*
Y522193D01*
X604384Y523193D01*
X607383D01*
X567396Y504194D02*
Y510192D01*
X570395D01*
X571394Y509193D01*
Y507193D01*
X570395Y506193D01*
X567396D01*
X569395D02*
X571394Y504194D01*
X574394D02*
X576393D01*
X577392Y505194D01*
Y507193D01*
X576393Y508193D01*
X574394D01*
X573394Y507193D01*
Y505194D01*
X574394Y504194D01*
X579392Y508193D02*
Y505194D01*
X580392Y504194D01*
X583391D01*
Y508193D01*
X585390Y504194D02*
Y508193D01*
X588389D01*
X589389Y507193D01*
Y504194D01*
X595387Y510192D02*
Y504194D01*
X592388D01*
X591388Y505194D01*
Y507193D01*
X592388Y508193D01*
X595387D01*
X600385Y504194D02*
X598386D01*
X597386Y505194D01*
Y507193D01*
X598386Y508193D01*
X600385D01*
X601385Y507193D01*
Y506193D01*
X597386D01*
X607383Y510192D02*
Y504194D01*
X604384D01*
X603384Y505194D01*
Y507193D01*
X604384Y508193D01*
X607383D01*
X567396Y489194D02*
Y495192D01*
X570395D01*
X571394Y494193D01*
Y492193D01*
X570395Y491193D01*
X567396D01*
X569395D02*
X571394Y489194D01*
X574394D02*
X576393D01*
X577392Y490194D01*
Y492193D01*
X576393Y493193D01*
X574394D01*
X573394Y492193D01*
Y490194D01*
X574394Y489194D01*
X579392Y493193D02*
Y490194D01*
X580392Y489194D01*
X583391D01*
Y493193D01*
X585390Y489194D02*
Y493193D01*
X588389D01*
X589389Y492193D01*
Y489194D01*
X595387Y495192D02*
Y489194D01*
X592388D01*
X591388Y490194D01*
Y492193D01*
X592388Y493193D01*
X595387D01*
X600385Y489194D02*
X598386D01*
X597386Y490194D01*
Y492193D01*
X598386Y493193D01*
X600385D01*
X601385Y492193D01*
Y491193D01*
X597386D01*
X607383Y495192D02*
Y489194D01*
X604384D01*
X603384Y490194D01*
Y492193D01*
X604384Y493193D01*
X607383D01*
X567396Y474194D02*
Y480192D01*
X570395D01*
X571394Y479193D01*
Y477193D01*
X570395Y476194D01*
X567396D01*
X569395D02*
X571394Y474194D01*
X576393D02*
X574394D01*
X573394Y475194D01*
Y477193D01*
X574394Y478193D01*
X576393D01*
X577392Y477193D01*
Y476194D01*
X573394D01*
X583391Y478193D02*
X580392D01*
X579392Y477193D01*
Y475194D01*
X580392Y474194D01*
X583391D01*
X586390Y479193D02*
Y478193D01*
X585390D01*
X587389D01*
X586390D01*
Y475194D01*
X587389Y474194D01*
X591388Y478193D02*
X593387D01*
X594387Y477193D01*
Y474194D01*
X591388D01*
X590388Y475194D01*
X591388Y476194D01*
X594387D01*
X596386Y474194D02*
Y478193D01*
X599385D01*
X600385Y477193D01*
Y474194D01*
X604384Y472195D02*
X605383D01*
X606383Y473195D01*
Y478193D01*
X603384D01*
X602384Y477193D01*
Y475194D01*
X603384Y474194D01*
X606383D01*
X608383D02*
X610382D01*
X609382D01*
Y480192D01*
X608383D01*
X616380Y474194D02*
X614381D01*
X613381Y475194D01*
Y477193D01*
X614381Y478193D01*
X616380D01*
X617380Y477193D01*
Y476194D01*
X613381D01*
X567396Y459194D02*
Y465192D01*
X570395D01*
X571394Y464193D01*
Y462193D01*
X570395Y461194D01*
X567396D01*
X569395D02*
X571394Y459194D01*
X574394D02*
X576393D01*
X577392Y460194D01*
Y462193D01*
X576393Y463193D01*
X574394D01*
X573394Y462193D01*
Y460194D01*
X574394Y459194D01*
X579392Y463193D02*
Y460194D01*
X580392Y459194D01*
X583391D01*
Y463193D01*
X585390Y459194D02*
Y463193D01*
X588389D01*
X589389Y462193D01*
Y459194D01*
X595387Y465192D02*
Y459194D01*
X592388D01*
X591388Y460194D01*
Y462193D01*
X592388Y463193D01*
X595387D01*
X600385Y459194D02*
X598386D01*
X597386Y460194D01*
Y462193D01*
X598386Y463193D01*
X600385D01*
X601385Y462193D01*
Y461194D01*
X597386D01*
X607383Y465192D02*
Y459194D01*
X604384D01*
X603384Y460194D01*
Y462193D01*
X604384Y463193D01*
X607383D01*
X567396Y444194D02*
Y450192D01*
X570395D01*
X571394Y449193D01*
Y447193D01*
X570395Y446194D01*
X567396D01*
X569395D02*
X571394Y444194D01*
X576393D02*
X574394D01*
X573394Y445194D01*
Y447193D01*
X574394Y448193D01*
X576393D01*
X577392Y447193D01*
Y446194D01*
X573394D01*
X583391Y448193D02*
X580392D01*
X579392Y447193D01*
Y445194D01*
X580392Y444194D01*
X583391D01*
X586390Y449193D02*
Y448193D01*
X585390D01*
X587389D01*
X586390D01*
Y445194D01*
X587389Y444194D01*
X591388Y448193D02*
X593387D01*
X594387Y447193D01*
Y444194D01*
X591388D01*
X590388Y445194D01*
X591388Y446194D01*
X594387D01*
X596386Y444194D02*
Y448193D01*
X599385D01*
X600385Y447193D01*
Y444194D01*
X604384Y442195D02*
X605383D01*
X606383Y443194D01*
Y448193D01*
X603384D01*
X602384Y447193D01*
Y445194D01*
X603384Y444194D01*
X606383D01*
X608383D02*
X610382D01*
X609382D01*
Y450192D01*
X608383D01*
X616380Y444194D02*
X614381D01*
X613381Y445194D01*
Y447193D01*
X614381Y448193D01*
X616380D01*
X617380Y447193D01*
Y446194D01*
X613381D01*
X567396Y429194D02*
Y435192D01*
X570395D01*
X571394Y434193D01*
Y432193D01*
X570395Y431193D01*
X567396D01*
X569395D02*
X571394Y429194D01*
X574394D02*
X576393D01*
X577392Y430194D01*
Y432193D01*
X576393Y433193D01*
X574394D01*
X573394Y432193D01*
Y430194D01*
X574394Y429194D01*
X579392Y433193D02*
Y430194D01*
X580392Y429194D01*
X583391D01*
Y433193D01*
X585390Y429194D02*
Y433193D01*
X588389D01*
X589389Y432193D01*
Y429194D01*
X595387Y435192D02*
Y429194D01*
X592388D01*
X591388Y430194D01*
Y432193D01*
X592388Y433193D01*
X595387D01*
X600385Y429194D02*
X598386D01*
X597386Y430194D01*
Y432193D01*
X598386Y433193D01*
X600385D01*
X601385Y432193D01*
Y431193D01*
X597386D01*
X607383Y435192D02*
Y429194D01*
X604384D01*
X603384Y430194D01*
Y432193D01*
X604384Y433193D01*
X607383D01*
X569395Y414194D02*
X567396Y416193D01*
Y418193D01*
X569395Y420192D01*
X572394Y414194D02*
Y420192D01*
X574394Y418193D01*
X576393Y420192D01*
Y414194D01*
X578392D02*
X580392D01*
X579392D01*
Y418193D01*
X578392D01*
X583391D02*
X587389Y414194D01*
X585390Y416193D01*
X587389Y418193D01*
X583391Y414194D01*
X592388D02*
X590388D01*
X589389Y415194D01*
Y417193D01*
X590388Y418193D01*
X592388D01*
X593387Y417193D01*
Y416193D01*
X589389D01*
X599385Y420192D02*
Y414194D01*
X596386D01*
X595387Y415194D01*
Y417193D01*
X596386Y418193D01*
X599385D01*
X601385Y414194D02*
X603384Y416193D01*
Y418193D01*
X601385Y420192D01*
X569395Y399194D02*
X567396Y401194D01*
Y403193D01*
X569395Y405192D01*
X572394Y399194D02*
Y405192D01*
X574394Y403193D01*
X576393Y405192D01*
Y399194D01*
X578392D02*
X580392D01*
X579392D01*
Y403193D01*
X578392D01*
X583391D02*
X587389Y399194D01*
X585390Y401194D01*
X587389Y403193D01*
X583391Y399194D01*
X592388D02*
X590388D01*
X589389Y400194D01*
Y402193D01*
X590388Y403193D01*
X592388D01*
X593387Y402193D01*
Y401194D01*
X589389D01*
X599385Y405192D02*
Y399194D01*
X596386D01*
X595387Y400194D01*
Y402193D01*
X596386Y403193D01*
X599385D01*
X601385Y399194D02*
X603384Y401194D01*
Y403193D01*
X601385Y405192D01*
X567396Y384194D02*
Y390192D01*
X570395D01*
X571394Y389193D01*
Y387193D01*
X570395Y386193D01*
X567396D01*
X569395D02*
X571394Y384194D01*
X574394D02*
X576393D01*
X577392Y385194D01*
Y387193D01*
X576393Y388193D01*
X574394D01*
X573394Y387193D01*
Y385194D01*
X574394Y384194D01*
X579392Y388193D02*
Y385194D01*
X580392Y384194D01*
X583391D01*
Y388193D01*
X585390Y384194D02*
Y388193D01*
X588389D01*
X589389Y387193D01*
Y384194D01*
X595387Y390192D02*
Y384194D01*
X592388D01*
X591388Y385194D01*
Y387193D01*
X592388Y388193D01*
X595387D01*
X600385Y384194D02*
X598386D01*
X597386Y385194D01*
Y387193D01*
X598386Y388193D01*
X600385D01*
X601385Y387193D01*
Y386193D01*
X597386D01*
X607383Y390192D02*
Y384194D01*
X604384D01*
X603384Y385194D01*
Y387193D01*
X604384Y388193D01*
X607383D01*
X508411Y549194D02*
Y555192D01*
X511410D01*
X512410Y554193D01*
Y552193D01*
X511410Y551194D01*
X508411D01*
X515409Y553193D02*
X517408D01*
X518408Y552193D01*
Y549194D01*
X515409D01*
X514409Y550194D01*
X515409Y551194D01*
X518408D01*
X524406Y555192D02*
Y549194D01*
X521407D01*
X520407Y550194D01*
Y552193D01*
X521407Y553193D01*
X524406D01*
X508411Y534194D02*
Y540192D01*
X511410D01*
X512410Y539193D01*
Y537193D01*
X511410Y536194D01*
X508411D01*
X515409Y538193D02*
X517408D01*
X518408Y537193D01*
Y534194D01*
X515409D01*
X514409Y535194D01*
X515409Y536194D01*
X518408D01*
X524406Y540192D02*
Y534194D01*
X521407D01*
X520407Y535194D01*
Y537193D01*
X521407Y538193D01*
X524406D01*
X508411Y519194D02*
Y525192D01*
X511410D01*
X512410Y524193D01*
Y522193D01*
X511410Y521194D01*
X508411D01*
X515409Y523193D02*
X517408D01*
X518408Y522193D01*
Y519194D01*
X515409D01*
X514409Y520194D01*
X515409Y521194D01*
X518408D01*
X524406Y525192D02*
Y519194D01*
X521407D01*
X520407Y520194D01*
Y522193D01*
X521407Y523193D01*
X524406D01*
X508411Y504194D02*
Y510192D01*
X511410D01*
X512410Y509193D01*
Y507193D01*
X511410Y506193D01*
X508411D01*
X515409Y508193D02*
X517408D01*
X518408Y507193D01*
Y504194D01*
X515409D01*
X514409Y505194D01*
X515409Y506193D01*
X518408D01*
X524406Y510192D02*
Y504194D01*
X521407D01*
X520407Y505194D01*
Y507193D01*
X521407Y508193D01*
X524406D01*
X508411Y489194D02*
Y495192D01*
X511410D01*
X512410Y494193D01*
Y492193D01*
X511410Y491193D01*
X508411D01*
X515409Y493193D02*
X517408D01*
X518408Y492193D01*
Y489194D01*
X515409D01*
X514409Y490194D01*
X515409Y491193D01*
X518408D01*
X524406Y495192D02*
Y489194D01*
X521407D01*
X520407Y490194D01*
Y492193D01*
X521407Y493193D01*
X524406D01*
X508411Y474194D02*
Y480192D01*
X511410D01*
X512410Y479193D01*
Y477193D01*
X511410Y476194D01*
X508411D01*
X515409Y478193D02*
X517408D01*
X518408Y477193D01*
Y474194D01*
X515409D01*
X514409Y475194D01*
X515409Y476194D01*
X518408D01*
X524406Y480192D02*
Y474194D01*
X521407D01*
X520407Y475194D01*
Y477193D01*
X521407Y478193D01*
X524406D01*
X508411Y459194D02*
Y465192D01*
X511410D01*
X512410Y464193D01*
Y462193D01*
X511410Y461194D01*
X508411D01*
X515409Y463193D02*
X517408D01*
X518408Y462193D01*
Y459194D01*
X515409D01*
X514409Y460194D01*
X515409Y461194D01*
X518408D01*
X524406Y465192D02*
Y459194D01*
X521407D01*
X520407Y460194D01*
Y462193D01*
X521407Y463193D01*
X524406D01*
X508411Y444194D02*
Y450192D01*
X511410D01*
X512410Y449193D01*
Y447193D01*
X511410Y446194D01*
X508411D01*
X515409Y448193D02*
X517408D01*
X518408Y447193D01*
Y444194D01*
X515409D01*
X514409Y445194D01*
X515409Y446194D01*
X518408D01*
X524406Y450192D02*
Y444194D01*
X521407D01*
X520407Y445194D01*
Y447193D01*
X521407Y448193D01*
X524406D01*
X508411Y429194D02*
Y435192D01*
X511410D01*
X512410Y434193D01*
Y432193D01*
X511410Y431193D01*
X508411D01*
X515409Y433193D02*
X517408D01*
X518408Y432193D01*
Y429194D01*
X515409D01*
X514409Y430194D01*
X515409Y431193D01*
X518408D01*
X524406Y435192D02*
Y429194D01*
X521407D01*
X520407Y430194D01*
Y432193D01*
X521407Y433193D01*
X524406D01*
X508411Y414194D02*
Y420192D01*
X511410D01*
X512410Y419193D01*
Y417193D01*
X511410Y416193D01*
X508411D01*
X515409Y418193D02*
X517408D01*
X518408Y417193D01*
Y414194D01*
X515409D01*
X514409Y415194D01*
X515409Y416193D01*
X518408D01*
X524406Y420192D02*
Y414194D01*
X521407D01*
X520407Y415194D01*
Y417193D01*
X521407Y418193D01*
X524406D01*
X508411Y399194D02*
Y405192D01*
X511410D01*
X512410Y404192D01*
Y402193D01*
X511410Y401194D01*
X508411D01*
X515409Y403193D02*
X517408D01*
X518408Y402193D01*
Y399194D01*
X515409D01*
X514409Y400194D01*
X515409Y401194D01*
X518408D01*
X524406Y405192D02*
Y399194D01*
X521407D01*
X520407Y400194D01*
Y402193D01*
X521407Y403193D01*
X524406D01*
X508411Y390192D02*
Y386193D01*
X510410Y384194D01*
X512410Y386193D01*
Y390192D01*
X514409Y384194D02*
X516408D01*
X515409D01*
Y388193D01*
X514409D01*
X520407D02*
X522406D01*
X523406Y387193D01*
Y384194D01*
X520407D01*
X519407Y385194D01*
X520407Y386193D01*
X523406D01*
X358456Y555192D02*
X362455D01*
X360455D01*
Y549194D01*
X365454D02*
X367453D01*
X368453Y550194D01*
Y552193D01*
X367453Y553193D01*
X365454D01*
X364454Y552193D01*
Y550194D01*
X365454Y549194D01*
X370452Y547195D02*
Y553193D01*
X373451D01*
X374451Y552193D01*
Y550194D01*
X373451Y549194D01*
X370452D01*
X382448Y555192D02*
Y549194D01*
X386447D01*
X389446Y553193D02*
X391445D01*
X392445Y552193D01*
Y549194D01*
X389446D01*
X388446Y550194D01*
X389446Y551194D01*
X392445D01*
X394444Y553193D02*
Y550194D01*
X395444Y549194D01*
X398443D01*
Y548195D01*
X397443Y547195D01*
X396444D01*
X398443Y549194D02*
Y553193D01*
X403441Y549194D02*
X401442D01*
X400442Y550194D01*
Y552193D01*
X401442Y553193D01*
X403441D01*
X404441Y552193D01*
Y551194D01*
X400442D01*
X406440Y553193D02*
Y549194D01*
Y551194D01*
X407440Y552193D01*
X408440Y553193D01*
X409439D01*
X418436Y552193D02*
X422435D01*
X430433Y555192D02*
Y549194D01*
X433432D01*
X434431Y550194D01*
Y551194D01*
X433432Y552193D01*
X430433D01*
X433432D01*
X434431Y553193D01*
Y554193D01*
X433432Y555192D01*
X430433D01*
X437430Y549194D02*
X439430D01*
X440429Y550194D01*
Y552193D01*
X439430Y553193D01*
X437430D01*
X436431Y552193D01*
Y550194D01*
X437430Y549194D01*
X443428Y554193D02*
Y553193D01*
X442429D01*
X444428D01*
X443428D01*
Y550194D01*
X444428Y549194D01*
X448427Y554193D02*
Y553193D01*
X447427D01*
X449426D01*
X448427D01*
Y550194D01*
X449426Y549194D01*
X453425D02*
X455424D01*
X456424Y550194D01*
Y552193D01*
X455424Y553193D01*
X453425D01*
X452425Y552193D01*
Y550194D01*
X453425Y549194D01*
X458424D02*
Y553193D01*
X459423D01*
X460423Y552193D01*
Y549194D01*
Y552193D01*
X461422Y553193D01*
X462422Y552193D01*
Y549194D01*
X470420Y555192D02*
Y549194D01*
X474418D01*
X477417Y553193D02*
X479417D01*
X480416Y552193D01*
Y549194D01*
X477417D01*
X476418Y550194D01*
X477417Y551194D01*
X480416D01*
X482416Y553193D02*
Y550194D01*
X483415Y549194D01*
X486414D01*
Y548195D01*
X485415Y547195D01*
X484415D01*
X486414Y549194D02*
Y553193D01*
X491413Y549194D02*
X489413D01*
X488414Y550194D01*
Y552193D01*
X489413Y553193D01*
X491413D01*
X492413Y552193D01*
Y551194D01*
X488414D01*
X494412Y553193D02*
Y549194D01*
Y551194D01*
X495411Y552193D01*
X496411Y553193D01*
X497411D01*
X358456Y540192D02*
X362455D01*
X360455D01*
Y534194D01*
X365454D02*
X367453D01*
X368453Y535194D01*
Y537193D01*
X367453Y538193D01*
X365454D01*
X364454Y537193D01*
Y535194D01*
X365454Y534194D01*
X370452Y532195D02*
Y538193D01*
X373451D01*
X374451Y537193D01*
Y535194D01*
X373451Y534194D01*
X370452D01*
X382448Y540192D02*
Y534194D01*
X386447D01*
X389446Y538193D02*
X391445D01*
X392445Y537193D01*
Y534194D01*
X389446D01*
X388446Y535194D01*
X389446Y536194D01*
X392445D01*
X394444Y538193D02*
Y535194D01*
X395444Y534194D01*
X398443D01*
Y533194D01*
X397443Y532195D01*
X396444D01*
X398443Y534194D02*
Y538193D01*
X403441Y534194D02*
X401442D01*
X400442Y535194D01*
Y537193D01*
X401442Y538193D01*
X403441D01*
X404441Y537193D01*
Y536194D01*
X400442D01*
X406440Y538193D02*
Y534194D01*
Y536194D01*
X407440Y537193D01*
X408440Y538193D01*
X409439D01*
X418436Y537193D02*
X422435D01*
X430433Y540192D02*
Y534194D01*
X433432D01*
X434431Y535194D01*
Y536194D01*
X433432Y537193D01*
X430433D01*
X433432D01*
X434431Y538193D01*
Y539193D01*
X433432Y540192D01*
X430433D01*
X437430Y534194D02*
X439430D01*
X440429Y535194D01*
Y537193D01*
X439430Y538193D01*
X437430D01*
X436431Y537193D01*
Y535194D01*
X437430Y534194D01*
X443428Y539193D02*
Y538193D01*
X442429D01*
X444428D01*
X443428D01*
Y535194D01*
X444428Y534194D01*
X448427Y539193D02*
Y538193D01*
X447427D01*
X449426D01*
X448427D01*
Y535194D01*
X449426Y534194D01*
X453425D02*
X455424D01*
X456424Y535194D01*
Y537193D01*
X455424Y538193D01*
X453425D01*
X452425Y537193D01*
Y535194D01*
X453425Y534194D01*
X458424D02*
Y538193D01*
X459423D01*
X460423Y537193D01*
Y534194D01*
Y537193D01*
X461422Y538193D01*
X462422Y537193D01*
Y534194D01*
X470420Y540192D02*
Y534194D01*
X474418D01*
X477417Y538193D02*
X479417D01*
X480416Y537193D01*
Y534194D01*
X477417D01*
X476418Y535194D01*
X477417Y536194D01*
X480416D01*
X482416Y538193D02*
Y535194D01*
X483415Y534194D01*
X486414D01*
Y533194D01*
X485415Y532195D01*
X484415D01*
X486414Y534194D02*
Y538193D01*
X491413Y534194D02*
X489413D01*
X488414Y535194D01*
Y537193D01*
X489413Y538193D01*
X491413D01*
X492413Y537193D01*
Y536194D01*
X488414D01*
X494412Y538193D02*
Y534194D01*
Y536194D01*
X495411Y537193D01*
X496411Y538193D01*
X497411D01*
X358456Y525192D02*
X362455D01*
X360455D01*
Y519194D01*
X365454D02*
X367453D01*
X368453Y520194D01*
Y522193D01*
X367453Y523193D01*
X365454D01*
X364454Y522193D01*
Y520194D01*
X365454Y519194D01*
X370452Y517195D02*
Y523193D01*
X373451D01*
X374451Y522193D01*
Y520194D01*
X373451Y519194D01*
X370452D01*
X382448Y525192D02*
Y519194D01*
X386447D01*
X389446Y523193D02*
X391445D01*
X392445Y522193D01*
Y519194D01*
X389446D01*
X388446Y520194D01*
X389446Y521194D01*
X392445D01*
X394444Y523193D02*
Y520194D01*
X395444Y519194D01*
X398443D01*
Y518194D01*
X397443Y517195D01*
X396444D01*
X398443Y519194D02*
Y523193D01*
X403441Y519194D02*
X401442D01*
X400442Y520194D01*
Y522193D01*
X401442Y523193D01*
X403441D01*
X404441Y522193D01*
Y521194D01*
X400442D01*
X406440Y523193D02*
Y519194D01*
Y521194D01*
X407440Y522193D01*
X408440Y523193D01*
X409439D01*
X418436Y522193D02*
X422435D01*
X430433Y525192D02*
Y519194D01*
X433432D01*
X434431Y520194D01*
Y521194D01*
X433432Y522193D01*
X430433D01*
X433432D01*
X434431Y523193D01*
Y524193D01*
X433432Y525192D01*
X430433D01*
X437430Y519194D02*
X439430D01*
X440429Y520194D01*
Y522193D01*
X439430Y523193D01*
X437430D01*
X436431Y522193D01*
Y520194D01*
X437430Y519194D01*
X443428Y524193D02*
Y523193D01*
X442429D01*
X444428D01*
X443428D01*
Y520194D01*
X444428Y519194D01*
X448427Y524193D02*
Y523193D01*
X447427D01*
X449426D01*
X448427D01*
Y520194D01*
X449426Y519194D01*
X453425D02*
X455424D01*
X456424Y520194D01*
Y522193D01*
X455424Y523193D01*
X453425D01*
X452425Y522193D01*
Y520194D01*
X453425Y519194D01*
X458424D02*
Y523193D01*
X459423D01*
X460423Y522193D01*
Y519194D01*
Y522193D01*
X461422Y523193D01*
X462422Y522193D01*
Y519194D01*
X470420Y525192D02*
Y519194D01*
X474418D01*
X477417Y523193D02*
X479417D01*
X480416Y522193D01*
Y519194D01*
X477417D01*
X476418Y520194D01*
X477417Y521194D01*
X480416D01*
X482416Y523193D02*
Y520194D01*
X483415Y519194D01*
X486414D01*
Y518194D01*
X485415Y517195D01*
X484415D01*
X486414Y519194D02*
Y523193D01*
X491413Y519194D02*
X489413D01*
X488414Y520194D01*
Y522193D01*
X489413Y523193D01*
X491413D01*
X492413Y522193D01*
Y521194D01*
X488414D01*
X494412Y523193D02*
Y519194D01*
Y521194D01*
X495411Y522193D01*
X496411Y523193D01*
X497411D01*
X358456Y510192D02*
X362455D01*
X360455D01*
Y504194D01*
X365454D02*
X367453D01*
X368453Y505194D01*
Y507193D01*
X367453Y508193D01*
X365454D01*
X364454Y507193D01*
Y505194D01*
X365454Y504194D01*
X370452Y502195D02*
Y508193D01*
X373451D01*
X374451Y507193D01*
Y505194D01*
X373451Y504194D01*
X370452D01*
X382448Y510192D02*
Y504194D01*
X386447D01*
X389446Y508193D02*
X391445D01*
X392445Y507193D01*
Y504194D01*
X389446D01*
X388446Y505194D01*
X389446Y506193D01*
X392445D01*
X394444Y508193D02*
Y505194D01*
X395444Y504194D01*
X398443D01*
Y503195D01*
X397443Y502195D01*
X396444D01*
X398443Y504194D02*
Y508193D01*
X403441Y504194D02*
X401442D01*
X400442Y505194D01*
Y507193D01*
X401442Y508193D01*
X403441D01*
X404441Y507193D01*
Y506193D01*
X400442D01*
X406440Y508193D02*
Y504194D01*
Y506193D01*
X407440Y507193D01*
X408440Y508193D01*
X409439D01*
X418436Y507193D02*
X422435D01*
X430433Y510192D02*
Y504194D01*
X433432D01*
X434431Y505194D01*
Y506193D01*
X433432Y507193D01*
X430433D01*
X433432D01*
X434431Y508193D01*
Y509193D01*
X433432Y510192D01*
X430433D01*
X437430Y504194D02*
X439430D01*
X440429Y505194D01*
Y507193D01*
X439430Y508193D01*
X437430D01*
X436431Y507193D01*
Y505194D01*
X437430Y504194D01*
X443428Y509193D02*
Y508193D01*
X442429D01*
X444428D01*
X443428D01*
Y505194D01*
X444428Y504194D01*
X448427Y509193D02*
Y508193D01*
X447427D01*
X449426D01*
X448427D01*
Y505194D01*
X449426Y504194D01*
X453425D02*
X455424D01*
X456424Y505194D01*
Y507193D01*
X455424Y508193D01*
X453425D01*
X452425Y507193D01*
Y505194D01*
X453425Y504194D01*
X458424D02*
Y508193D01*
X459423D01*
X460423Y507193D01*
Y504194D01*
Y507193D01*
X461422Y508193D01*
X462422Y507193D01*
Y504194D01*
X470420Y510192D02*
Y504194D01*
X474418D01*
X477417Y508193D02*
X479417D01*
X480416Y507193D01*
Y504194D01*
X477417D01*
X476418Y505194D01*
X477417Y506193D01*
X480416D01*
X482416Y508193D02*
Y505194D01*
X483415Y504194D01*
X486414D01*
Y503195D01*
X485415Y502195D01*
X484415D01*
X486414Y504194D02*
Y508193D01*
X491413Y504194D02*
X489413D01*
X488414Y505194D01*
Y507193D01*
X489413Y508193D01*
X491413D01*
X492413Y507193D01*
Y506193D01*
X488414D01*
X494412Y508193D02*
Y504194D01*
Y506193D01*
X495411Y507193D01*
X496411Y508193D01*
X497411D01*
X358456Y495192D02*
X362455D01*
X360455D01*
Y489194D01*
X365454D02*
X367453D01*
X368453Y490194D01*
Y492193D01*
X367453Y493193D01*
X365454D01*
X364454Y492193D01*
Y490194D01*
X365454Y489194D01*
X370452Y487195D02*
Y493193D01*
X373451D01*
X374451Y492193D01*
Y490194D01*
X373451Y489194D01*
X370452D01*
X382448Y495192D02*
Y489194D01*
X386447D01*
X389446Y493193D02*
X391445D01*
X392445Y492193D01*
Y489194D01*
X389446D01*
X388446Y490194D01*
X389446Y491193D01*
X392445D01*
X394444Y493193D02*
Y490194D01*
X395444Y489194D01*
X398443D01*
Y488195D01*
X397443Y487195D01*
X396444D01*
X398443Y489194D02*
Y493193D01*
X403441Y489194D02*
X401442D01*
X400442Y490194D01*
Y492193D01*
X401442Y493193D01*
X403441D01*
X404441Y492193D01*
Y491193D01*
X400442D01*
X406440Y493193D02*
Y489194D01*
Y491193D01*
X407440Y492193D01*
X408440Y493193D01*
X409439D01*
X418436Y492193D02*
X422435D01*
X430433Y495192D02*
Y489194D01*
X433432D01*
X434431Y490194D01*
Y491193D01*
X433432Y492193D01*
X430433D01*
X433432D01*
X434431Y493193D01*
Y494193D01*
X433432Y495192D01*
X430433D01*
X437430Y489194D02*
X439430D01*
X440429Y490194D01*
Y492193D01*
X439430Y493193D01*
X437430D01*
X436431Y492193D01*
Y490194D01*
X437430Y489194D01*
X443428Y494193D02*
Y493193D01*
X442429D01*
X444428D01*
X443428D01*
Y490194D01*
X444428Y489194D01*
X448427Y494193D02*
Y493193D01*
X447427D01*
X449426D01*
X448427D01*
Y490194D01*
X449426Y489194D01*
X453425D02*
X455424D01*
X456424Y490194D01*
Y492193D01*
X455424Y493193D01*
X453425D01*
X452425Y492193D01*
Y490194D01*
X453425Y489194D01*
X458424D02*
Y493193D01*
X459423D01*
X460423Y492193D01*
Y489194D01*
Y492193D01*
X461422Y493193D01*
X462422Y492193D01*
Y489194D01*
X470420Y495192D02*
Y489194D01*
X474418D01*
X477417Y493193D02*
X479417D01*
X480416Y492193D01*
Y489194D01*
X477417D01*
X476418Y490194D01*
X477417Y491193D01*
X480416D01*
X482416Y493193D02*
Y490194D01*
X483415Y489194D01*
X486414D01*
Y488195D01*
X485415Y487195D01*
X484415D01*
X486414Y489194D02*
Y493193D01*
X491413Y489194D02*
X489413D01*
X488414Y490194D01*
Y492193D01*
X489413Y493193D01*
X491413D01*
X492413Y492193D01*
Y491193D01*
X488414D01*
X494412Y493193D02*
Y489194D01*
Y491193D01*
X495411Y492193D01*
X496411Y493193D01*
X497411D01*
X358456Y480192D02*
X362455D01*
X360455D01*
Y474194D01*
X365454D02*
X367453D01*
X368453Y475194D01*
Y477193D01*
X367453Y478193D01*
X365454D01*
X364454Y477193D01*
Y475194D01*
X365454Y474194D01*
X370452Y472195D02*
Y478193D01*
X373451D01*
X374451Y477193D01*
Y475194D01*
X373451Y474194D01*
X370452D01*
X382448Y480192D02*
Y474194D01*
X386447D01*
X389446Y478193D02*
X391445D01*
X392445Y477193D01*
Y474194D01*
X389446D01*
X388446Y475194D01*
X389446Y476194D01*
X392445D01*
X394444Y478193D02*
Y475194D01*
X395444Y474194D01*
X398443D01*
Y473195D01*
X397443Y472195D01*
X396444D01*
X398443Y474194D02*
Y478193D01*
X403441Y474194D02*
X401442D01*
X400442Y475194D01*
Y477193D01*
X401442Y478193D01*
X403441D01*
X404441Y477193D01*
Y476194D01*
X400442D01*
X406440Y478193D02*
Y474194D01*
Y476194D01*
X407440Y477193D01*
X408440Y478193D01*
X409439D01*
X418436Y477193D02*
X422435D01*
X430433Y480192D02*
Y474194D01*
X433432D01*
X434431Y475194D01*
Y476194D01*
X433432Y477193D01*
X430433D01*
X433432D01*
X434431Y478193D01*
Y479193D01*
X433432Y480192D01*
X430433D01*
X437430Y474194D02*
X439430D01*
X440429Y475194D01*
Y477193D01*
X439430Y478193D01*
X437430D01*
X436431Y477193D01*
Y475194D01*
X437430Y474194D01*
X443428Y479193D02*
Y478193D01*
X442429D01*
X444428D01*
X443428D01*
Y475194D01*
X444428Y474194D01*
X448427Y479193D02*
Y478193D01*
X447427D01*
X449426D01*
X448427D01*
Y475194D01*
X449426Y474194D01*
X453425D02*
X455424D01*
X456424Y475194D01*
Y477193D01*
X455424Y478193D01*
X453425D01*
X452425Y477193D01*
Y475194D01*
X453425Y474194D01*
X458424D02*
Y478193D01*
X459423D01*
X460423Y477193D01*
Y474194D01*
Y477193D01*
X461422Y478193D01*
X462422Y477193D01*
Y474194D01*
X470420Y480192D02*
Y474194D01*
X474418D01*
X477417Y478193D02*
X479417D01*
X480416Y477193D01*
Y474194D01*
X477417D01*
X476418Y475194D01*
X477417Y476194D01*
X480416D01*
X482416Y478193D02*
Y475194D01*
X483415Y474194D01*
X486414D01*
Y473195D01*
X485415Y472195D01*
X484415D01*
X486414Y474194D02*
Y478193D01*
X491413Y474194D02*
X489413D01*
X488414Y475194D01*
Y477193D01*
X489413Y478193D01*
X491413D01*
X492413Y477193D01*
Y476194D01*
X488414D01*
X494412Y478193D02*
Y474194D01*
Y476194D01*
X495411Y477193D01*
X496411Y478193D01*
X497411D01*
X358456Y465192D02*
X362455D01*
X360455D01*
Y459194D01*
X365454D02*
X367453D01*
X368453Y460194D01*
Y462193D01*
X367453Y463193D01*
X365454D01*
X364454Y462193D01*
Y460194D01*
X365454Y459194D01*
X370452Y457195D02*
Y463193D01*
X373451D01*
X374451Y462193D01*
Y460194D01*
X373451Y459194D01*
X370452D01*
X382448Y465192D02*
Y459194D01*
X386447D01*
X389446Y463193D02*
X391445D01*
X392445Y462193D01*
Y459194D01*
X389446D01*
X388446Y460194D01*
X389446Y461194D01*
X392445D01*
X394444Y463193D02*
Y460194D01*
X395444Y459194D01*
X398443D01*
Y458194D01*
X397443Y457195D01*
X396444D01*
X398443Y459194D02*
Y463193D01*
X403441Y459194D02*
X401442D01*
X400442Y460194D01*
Y462193D01*
X401442Y463193D01*
X403441D01*
X404441Y462193D01*
Y461194D01*
X400442D01*
X406440Y463193D02*
Y459194D01*
Y461194D01*
X407440Y462193D01*
X408440Y463193D01*
X409439D01*
X418436Y462193D02*
X422435D01*
X430433Y465192D02*
Y459194D01*
X433432D01*
X434431Y460194D01*
Y461194D01*
X433432Y462193D01*
X430433D01*
X433432D01*
X434431Y463193D01*
Y464193D01*
X433432Y465192D01*
X430433D01*
X437430Y459194D02*
X439430D01*
X440429Y460194D01*
Y462193D01*
X439430Y463193D01*
X437430D01*
X436431Y462193D01*
Y460194D01*
X437430Y459194D01*
X443428Y464193D02*
Y463193D01*
X442429D01*
X444428D01*
X443428D01*
Y460194D01*
X444428Y459194D01*
X448427Y464193D02*
Y463193D01*
X447427D01*
X449426D01*
X448427D01*
Y460194D01*
X449426Y459194D01*
X453425D02*
X455424D01*
X456424Y460194D01*
Y462193D01*
X455424Y463193D01*
X453425D01*
X452425Y462193D01*
Y460194D01*
X453425Y459194D01*
X458424D02*
Y463193D01*
X459423D01*
X460423Y462193D01*
Y459194D01*
Y462193D01*
X461422Y463193D01*
X462422Y462193D01*
Y459194D01*
X470420Y465192D02*
Y459194D01*
X474418D01*
X477417Y463193D02*
X479417D01*
X480416Y462193D01*
Y459194D01*
X477417D01*
X476418Y460194D01*
X477417Y461194D01*
X480416D01*
X482416Y463193D02*
Y460194D01*
X483415Y459194D01*
X486414D01*
Y458194D01*
X485415Y457195D01*
X484415D01*
X486414Y459194D02*
Y463193D01*
X491413Y459194D02*
X489413D01*
X488414Y460194D01*
Y462193D01*
X489413Y463193D01*
X491413D01*
X492413Y462193D01*
Y461194D01*
X488414D01*
X494412Y463193D02*
Y459194D01*
Y461194D01*
X495411Y462193D01*
X496411Y463193D01*
X497411D01*
X358456Y450192D02*
X362455D01*
X360455D01*
Y444194D01*
X365454D02*
X367453D01*
X368453Y445194D01*
Y447193D01*
X367453Y448193D01*
X365454D01*
X364454Y447193D01*
Y445194D01*
X365454Y444194D01*
X370452Y442195D02*
Y448193D01*
X373451D01*
X374451Y447193D01*
Y445194D01*
X373451Y444194D01*
X370452D01*
X382448Y450192D02*
Y444194D01*
X386447D01*
X389446Y448193D02*
X391445D01*
X392445Y447193D01*
Y444194D01*
X389446D01*
X388446Y445194D01*
X389446Y446194D01*
X392445D01*
X394444Y448193D02*
Y445194D01*
X395444Y444194D01*
X398443D01*
Y443194D01*
X397443Y442195D01*
X396444D01*
X398443Y444194D02*
Y448193D01*
X403441Y444194D02*
X401442D01*
X400442Y445194D01*
Y447193D01*
X401442Y448193D01*
X403441D01*
X404441Y447193D01*
Y446194D01*
X400442D01*
X406440Y448193D02*
Y444194D01*
Y446194D01*
X407440Y447193D01*
X408440Y448193D01*
X409439D01*
X418436Y447193D02*
X422435D01*
X430433Y450192D02*
Y444194D01*
X433432D01*
X434431Y445194D01*
Y446194D01*
X433432Y447193D01*
X430433D01*
X433432D01*
X434431Y448193D01*
Y449193D01*
X433432Y450192D01*
X430433D01*
X437430Y444194D02*
X439430D01*
X440429Y445194D01*
Y447193D01*
X439430Y448193D01*
X437430D01*
X436431Y447193D01*
Y445194D01*
X437430Y444194D01*
X443428Y449193D02*
Y448193D01*
X442429D01*
X444428D01*
X443428D01*
Y445194D01*
X444428Y444194D01*
X448427Y449193D02*
Y448193D01*
X447427D01*
X449426D01*
X448427D01*
Y445194D01*
X449426Y444194D01*
X453425D02*
X455424D01*
X456424Y445194D01*
Y447193D01*
X455424Y448193D01*
X453425D01*
X452425Y447193D01*
Y445194D01*
X453425Y444194D01*
X458424D02*
Y448193D01*
X459423D01*
X460423Y447193D01*
Y444194D01*
Y447193D01*
X461422Y448193D01*
X462422Y447193D01*
Y444194D01*
X470420Y450192D02*
Y444194D01*
X474418D01*
X477417Y448193D02*
X479417D01*
X480416Y447193D01*
Y444194D01*
X477417D01*
X476418Y445194D01*
X477417Y446194D01*
X480416D01*
X482416Y448193D02*
Y445194D01*
X483415Y444194D01*
X486414D01*
Y443194D01*
X485415Y442195D01*
X484415D01*
X486414Y444194D02*
Y448193D01*
X491413Y444194D02*
X489413D01*
X488414Y445194D01*
Y447193D01*
X489413Y448193D01*
X491413D01*
X492413Y447193D01*
Y446194D01*
X488414D01*
X494412Y448193D02*
Y444194D01*
Y446194D01*
X495411Y447193D01*
X496411Y448193D01*
X497411D01*
X358456Y435192D02*
X362455D01*
X360455D01*
Y429194D01*
X365454D02*
X367453D01*
X368453Y430194D01*
Y432193D01*
X367453Y433193D01*
X365454D01*
X364454Y432193D01*
Y430194D01*
X365454Y429194D01*
X370452Y427195D02*
Y433193D01*
X373451D01*
X374451Y432193D01*
Y430194D01*
X373451Y429194D01*
X370452D01*
X382448Y435192D02*
Y429194D01*
X386447D01*
X389446Y433193D02*
X391445D01*
X392445Y432193D01*
Y429194D01*
X389446D01*
X388446Y430194D01*
X389446Y431193D01*
X392445D01*
X394444Y433193D02*
Y430194D01*
X395444Y429194D01*
X398443D01*
Y428195D01*
X397443Y427195D01*
X396444D01*
X398443Y429194D02*
Y433193D01*
X403441Y429194D02*
X401442D01*
X400442Y430194D01*
Y432193D01*
X401442Y433193D01*
X403441D01*
X404441Y432193D01*
Y431193D01*
X400442D01*
X406440Y433193D02*
Y429194D01*
Y431193D01*
X407440Y432193D01*
X408440Y433193D01*
X409439D01*
X418436Y432193D02*
X422435D01*
X430433Y435192D02*
Y429194D01*
X433432D01*
X434431Y430194D01*
Y431193D01*
X433432Y432193D01*
X430433D01*
X433432D01*
X434431Y433193D01*
Y434193D01*
X433432Y435192D01*
X430433D01*
X437430Y429194D02*
X439430D01*
X440429Y430194D01*
Y432193D01*
X439430Y433193D01*
X437430D01*
X436431Y432193D01*
Y430194D01*
X437430Y429194D01*
X443428Y434193D02*
Y433193D01*
X442429D01*
X444428D01*
X443428D01*
Y430194D01*
X444428Y429194D01*
X448427Y434193D02*
Y433193D01*
X447427D01*
X449426D01*
X448427D01*
Y430194D01*
X449426Y429194D01*
X453425D02*
X455424D01*
X456424Y430194D01*
Y432193D01*
X455424Y433193D01*
X453425D01*
X452425Y432193D01*
Y430194D01*
X453425Y429194D01*
X458424D02*
Y433193D01*
X459423D01*
X460423Y432193D01*
Y429194D01*
Y432193D01*
X461422Y433193D01*
X462422Y432193D01*
Y429194D01*
X470420Y435192D02*
Y429194D01*
X474418D01*
X477417Y433193D02*
X479417D01*
X480416Y432193D01*
Y429194D01*
X477417D01*
X476418Y430194D01*
X477417Y431193D01*
X480416D01*
X482416Y433193D02*
Y430194D01*
X483415Y429194D01*
X486414D01*
Y428195D01*
X485415Y427195D01*
X484415D01*
X486414Y429194D02*
Y433193D01*
X491413Y429194D02*
X489413D01*
X488414Y430194D01*
Y432193D01*
X489413Y433193D01*
X491413D01*
X492413Y432193D01*
Y431193D01*
X488414D01*
X494412Y433193D02*
Y429194D01*
Y431193D01*
X495411Y432193D01*
X496411Y433193D01*
X497411D01*
X358456Y420192D02*
X362455D01*
X360455D01*
Y414194D01*
X365454D02*
X367453D01*
X368453Y415194D01*
Y417193D01*
X367453Y418193D01*
X365454D01*
X364454Y417193D01*
Y415194D01*
X365454Y414194D01*
X370452Y412195D02*
Y418193D01*
X373451D01*
X374451Y417193D01*
Y415194D01*
X373451Y414194D01*
X370452D01*
X382448Y420192D02*
Y414194D01*
X386447D01*
X389446Y418193D02*
X391445D01*
X392445Y417193D01*
Y414194D01*
X389446D01*
X388446Y415194D01*
X389446Y416193D01*
X392445D01*
X394444Y418193D02*
Y415194D01*
X395444Y414194D01*
X398443D01*
Y413195D01*
X397443Y412195D01*
X396444D01*
X398443Y414194D02*
Y418193D01*
X403441Y414194D02*
X401442D01*
X400442Y415194D01*
Y417193D01*
X401442Y418193D01*
X403441D01*
X404441Y417193D01*
Y416193D01*
X400442D01*
X406440Y418193D02*
Y414194D01*
Y416193D01*
X407440Y417193D01*
X408440Y418193D01*
X409439D01*
X418436Y417193D02*
X422435D01*
X430433Y420192D02*
Y414194D01*
X433432D01*
X434431Y415194D01*
Y416193D01*
X433432Y417193D01*
X430433D01*
X433432D01*
X434431Y418193D01*
Y419193D01*
X433432Y420192D01*
X430433D01*
X437430Y414194D02*
X439430D01*
X440429Y415194D01*
Y417193D01*
X439430Y418193D01*
X437430D01*
X436431Y417193D01*
Y415194D01*
X437430Y414194D01*
X443428Y419193D02*
Y418193D01*
X442429D01*
X444428D01*
X443428D01*
Y415194D01*
X444428Y414194D01*
X448427Y419193D02*
Y418193D01*
X447427D01*
X449426D01*
X448427D01*
Y415194D01*
X449426Y414194D01*
X453425D02*
X455424D01*
X456424Y415194D01*
Y417193D01*
X455424Y418193D01*
X453425D01*
X452425Y417193D01*
Y415194D01*
X453425Y414194D01*
X458424D02*
Y418193D01*
X459423D01*
X460423Y417193D01*
Y414194D01*
Y417193D01*
X461422Y418193D01*
X462422Y417193D01*
Y414194D01*
X470420Y420192D02*
Y414194D01*
X474418D01*
X477417Y418193D02*
X479417D01*
X480416Y417193D01*
Y414194D01*
X477417D01*
X476418Y415194D01*
X477417Y416193D01*
X480416D01*
X482416Y418193D02*
Y415194D01*
X483415Y414194D01*
X486414D01*
Y413195D01*
X485415Y412195D01*
X484415D01*
X486414Y414194D02*
Y418193D01*
X491413Y414194D02*
X489413D01*
X488414Y415194D01*
Y417193D01*
X489413Y418193D01*
X491413D01*
X492413Y417193D01*
Y416193D01*
X488414D01*
X494412Y418193D02*
Y414194D01*
Y416193D01*
X495411Y417193D01*
X496411Y418193D01*
X497411D01*
X358456Y405192D02*
X362455D01*
X360455D01*
Y399194D01*
X365454D02*
X367453D01*
X368453Y400194D01*
Y402193D01*
X367453Y403193D01*
X365454D01*
X364454Y402193D01*
Y400194D01*
X365454Y399194D01*
X370452Y397195D02*
Y403193D01*
X373451D01*
X374451Y402193D01*
Y400194D01*
X373451Y399194D01*
X370452D01*
X382448Y405192D02*
Y399194D01*
X386447D01*
X389446Y403193D02*
X391445D01*
X392445Y402193D01*
Y399194D01*
X389446D01*
X388446Y400194D01*
X389446Y401194D01*
X392445D01*
X394444Y403193D02*
Y400194D01*
X395444Y399194D01*
X398443D01*
Y398195D01*
X397443Y397195D01*
X396444D01*
X398443Y399194D02*
Y403193D01*
X403441Y399194D02*
X401442D01*
X400442Y400194D01*
Y402193D01*
X401442Y403193D01*
X403441D01*
X404441Y402193D01*
Y401194D01*
X400442D01*
X406440Y403193D02*
Y399194D01*
Y401194D01*
X407440Y402193D01*
X408440Y403193D01*
X409439D01*
X418436Y402193D02*
X422435D01*
X430433Y405192D02*
Y399194D01*
X433432D01*
X434431Y400194D01*
Y401194D01*
X433432Y402193D01*
X430433D01*
X433432D01*
X434431Y403193D01*
Y404192D01*
X433432Y405192D01*
X430433D01*
X437430Y399194D02*
X439430D01*
X440429Y400194D01*
Y402193D01*
X439430Y403193D01*
X437430D01*
X436431Y402193D01*
Y400194D01*
X437430Y399194D01*
X443428Y404192D02*
Y403193D01*
X442429D01*
X444428D01*
X443428D01*
Y400194D01*
X444428Y399194D01*
X448427Y404192D02*
Y403193D01*
X447427D01*
X449426D01*
X448427D01*
Y400194D01*
X449426Y399194D01*
X453425D02*
X455424D01*
X456424Y400194D01*
Y402193D01*
X455424Y403193D01*
X453425D01*
X452425Y402193D01*
Y400194D01*
X453425Y399194D01*
X458424D02*
Y403193D01*
X459423D01*
X460423Y402193D01*
Y399194D01*
Y402193D01*
X461422Y403193D01*
X462422Y402193D01*
Y399194D01*
X470420Y405192D02*
Y399194D01*
X474418D01*
X477417Y403193D02*
X479417D01*
X480416Y402193D01*
Y399194D01*
X477417D01*
X476418Y400194D01*
X477417Y401194D01*
X480416D01*
X482416Y403193D02*
Y400194D01*
X483415Y399194D01*
X486414D01*
Y398195D01*
X485415Y397195D01*
X484415D01*
X486414Y399194D02*
Y403193D01*
X491413Y399194D02*
X489413D01*
X488414Y400194D01*
Y402193D01*
X489413Y403193D01*
X491413D01*
X492413Y402193D01*
Y401194D01*
X488414D01*
X494412Y403193D02*
Y399194D01*
Y401194D01*
X495411Y402193D01*
X496411Y403193D01*
X497411D01*
X358456Y390192D02*
X362455D01*
X360455D01*
Y384194D01*
X365454D02*
X367453D01*
X368453Y385194D01*
Y387193D01*
X367453Y388193D01*
X365454D01*
X364454Y387193D01*
Y385194D01*
X365454Y384194D01*
X370452Y382195D02*
Y388193D01*
X373451D01*
X374451Y387193D01*
Y385194D01*
X373451Y384194D01*
X370452D01*
X382448Y390192D02*
Y384194D01*
X386447D01*
X389446Y388193D02*
X391445D01*
X392445Y387193D01*
Y384194D01*
X389446D01*
X388446Y385194D01*
X389446Y386193D01*
X392445D01*
X394444Y388193D02*
Y385194D01*
X395444Y384194D01*
X398443D01*
Y383194D01*
X397443Y382195D01*
X396444D01*
X398443Y384194D02*
Y388193D01*
X403441Y384194D02*
X401442D01*
X400442Y385194D01*
Y387193D01*
X401442Y388193D01*
X403441D01*
X404441Y387193D01*
Y386193D01*
X400442D01*
X406440Y388193D02*
Y384194D01*
Y386193D01*
X407440Y387193D01*
X408440Y388193D01*
X409439D01*
X418436Y387193D02*
X422435D01*
X430433Y390192D02*
Y384194D01*
X433432D01*
X434431Y385194D01*
Y386193D01*
X433432Y387193D01*
X430433D01*
X433432D01*
X434431Y388193D01*
Y389193D01*
X433432Y390192D01*
X430433D01*
X437430Y384194D02*
X439430D01*
X440429Y385194D01*
Y387193D01*
X439430Y388193D01*
X437430D01*
X436431Y387193D01*
Y385194D01*
X437430Y384194D01*
X443428Y389193D02*
Y388193D01*
X442429D01*
X444428D01*
X443428D01*
Y385194D01*
X444428Y384194D01*
X448427Y389193D02*
Y388193D01*
X447427D01*
X449426D01*
X448427D01*
Y385194D01*
X449426Y384194D01*
X453425D02*
X455424D01*
X456424Y385194D01*
Y387193D01*
X455424Y388193D01*
X453425D01*
X452425Y387193D01*
Y385194D01*
X453425Y384194D01*
X458424D02*
Y388193D01*
X459423D01*
X460423Y387193D01*
Y384194D01*
Y387193D01*
X461422Y388193D01*
X462422Y387193D01*
Y384194D01*
X470420Y390192D02*
Y384194D01*
X474418D01*
X477417Y388193D02*
X479417D01*
X480416Y387193D01*
Y384194D01*
X477417D01*
X476418Y385194D01*
X477417Y386193D01*
X480416D01*
X482416Y388193D02*
Y385194D01*
X483415Y384194D01*
X486414D01*
Y383194D01*
X485415Y382195D01*
X484415D01*
X486414Y384194D02*
Y388193D01*
X491413Y384194D02*
X489413D01*
X488414Y385194D01*
Y387193D01*
X489413Y388193D01*
X491413D01*
X492413Y387193D01*
Y386193D01*
X488414D01*
X494412Y388193D02*
Y384194D01*
Y386193D01*
X495411Y387193D01*
X496411Y388193D01*
X497411D01*
X285076Y549194D02*
Y555192D01*
X288075D01*
X289074Y554193D01*
Y552193D01*
X288075Y551194D01*
X285076D01*
X287075D02*
X289074Y549194D01*
X292073D02*
X294073D01*
X295072Y550194D01*
Y552193D01*
X294073Y553193D01*
X292073D01*
X291074Y552193D01*
Y550194D01*
X292073Y549194D01*
X297072Y553193D02*
Y550194D01*
X298072Y549194D01*
X301070D01*
Y553193D01*
X303070Y549194D02*
Y553193D01*
X306069D01*
X307068Y552193D01*
Y549194D01*
X313067Y555192D02*
Y549194D01*
X310068D01*
X309068Y550194D01*
Y552193D01*
X310068Y553193D01*
X313067D01*
X289074Y539193D02*
X288075Y540192D01*
X286075D01*
X285076Y539193D01*
Y538193D01*
X286075Y537193D01*
X288075D01*
X289074Y536194D01*
Y535194D01*
X288075Y534194D01*
X286075D01*
X285076Y535194D01*
X291074Y534194D02*
X293073D01*
X292073D01*
Y540192D01*
X291074D01*
X297072Y534194D02*
X299071D01*
X300071Y535194D01*
Y537193D01*
X299071Y538193D01*
X297072D01*
X296072Y537193D01*
Y535194D01*
X297072Y534194D01*
X303070Y539193D02*
Y538193D01*
X302070D01*
X304069D01*
X303070D01*
Y535194D01*
X304069Y534194D01*
X289074Y524193D02*
X288075Y525192D01*
X286075D01*
X285076Y524193D01*
Y523193D01*
X286075Y522193D01*
X288075D01*
X289074Y521194D01*
Y520194D01*
X288075Y519194D01*
X286075D01*
X285076Y520194D01*
X291074Y519194D02*
X293073D01*
X292073D01*
Y525192D01*
X291074D01*
X297072Y519194D02*
X299071D01*
X300071Y520194D01*
Y522193D01*
X299071Y523193D01*
X297072D01*
X296072Y522193D01*
Y520194D01*
X297072Y519194D01*
X303070Y524193D02*
Y523193D01*
X302070D01*
X304069D01*
X303070D01*
Y520194D01*
X304069Y519194D01*
X285076Y504194D02*
Y510192D01*
X288075D01*
X289074Y509193D01*
Y507193D01*
X288075Y506193D01*
X285076D01*
X287075D02*
X289074Y504194D01*
X292073D02*
X294073D01*
X295072Y505194D01*
Y507193D01*
X294073Y508193D01*
X292073D01*
X291074Y507193D01*
Y505194D01*
X292073Y504194D01*
X297072Y508193D02*
Y505194D01*
X298072Y504194D01*
X301070D01*
Y508193D01*
X303070Y504194D02*
Y508193D01*
X306069D01*
X307068Y507193D01*
Y504194D01*
X313067Y510192D02*
Y504194D01*
X310068D01*
X309068Y505194D01*
Y507193D01*
X310068Y508193D01*
X313067D01*
X285076Y489194D02*
Y495192D01*
X288075D01*
X289074Y494193D01*
Y492193D01*
X288075Y491193D01*
X285076D01*
X287075D02*
X289074Y489194D01*
X292073D02*
X294073D01*
X295072Y490194D01*
Y492193D01*
X294073Y493193D01*
X292073D01*
X291074Y492193D01*
Y490194D01*
X292073Y489194D01*
X297072Y493193D02*
Y490194D01*
X298072Y489194D01*
X301070D01*
Y493193D01*
X303070Y489194D02*
Y493193D01*
X306069D01*
X307068Y492193D01*
Y489194D01*
X313067Y495192D02*
Y489194D01*
X310068D01*
X309068Y490194D01*
Y492193D01*
X310068Y493193D01*
X313067D01*
X289074Y479193D02*
X288075Y480192D01*
X286075D01*
X285076Y479193D01*
Y478193D01*
X286075Y477193D01*
X288075D01*
X289074Y476194D01*
Y475194D01*
X288075Y474194D01*
X286075D01*
X285076Y475194D01*
X291074Y474194D02*
X293073D01*
X292073D01*
Y480192D01*
X291074D01*
X297072Y474194D02*
X299071D01*
X300071Y475194D01*
Y477193D01*
X299071Y478193D01*
X297072D01*
X296072Y477193D01*
Y475194D01*
X297072Y474194D01*
X303070Y479193D02*
Y478193D01*
X302070D01*
X304069D01*
X303070D01*
Y475194D01*
X304069Y474194D01*
X285076Y459194D02*
Y465192D01*
X288075D01*
X289074Y464193D01*
Y462193D01*
X288075Y461194D01*
X285076D01*
X287075D02*
X289074Y459194D01*
X292073D02*
X294073D01*
X295072Y460194D01*
Y462193D01*
X294073Y463193D01*
X292073D01*
X291074Y462193D01*
Y460194D01*
X292073Y459194D01*
X297072Y463193D02*
Y460194D01*
X298072Y459194D01*
X301070D01*
Y463193D01*
X303070Y459194D02*
Y463193D01*
X306069D01*
X307068Y462193D01*
Y459194D01*
X313067Y465192D02*
Y459194D01*
X310068D01*
X309068Y460194D01*
Y462193D01*
X310068Y463193D01*
X313067D01*
X285076Y444194D02*
Y450192D01*
X288075D01*
X289074Y449193D01*
Y447193D01*
X288075Y446194D01*
X285076D01*
X287075D02*
X289074Y444194D01*
X292073D02*
X294073D01*
X295072Y445194D01*
Y447193D01*
X294073Y448193D01*
X292073D01*
X291074Y447193D01*
Y445194D01*
X292073Y444194D01*
X297072Y448193D02*
Y445194D01*
X298072Y444194D01*
X301070D01*
Y448193D01*
X303070Y444194D02*
Y448193D01*
X306069D01*
X307068Y447193D01*
Y444194D01*
X313067Y450192D02*
Y444194D01*
X310068D01*
X309068Y445194D01*
Y447193D01*
X310068Y448193D01*
X313067D01*
X285076Y429194D02*
Y435192D01*
X288075D01*
X289074Y434193D01*
Y432193D01*
X288075Y431193D01*
X285076D01*
X287075D02*
X289074Y429194D01*
X292073D02*
X294073D01*
X295072Y430194D01*
Y432193D01*
X294073Y433193D01*
X292073D01*
X291074Y432193D01*
Y430194D01*
X292073Y429194D01*
X297072Y433193D02*
Y430194D01*
X298072Y429194D01*
X301070D01*
Y433193D01*
X303070Y429194D02*
Y433193D01*
X306069D01*
X307068Y432193D01*
Y429194D01*
X313067Y435192D02*
Y429194D01*
X310068D01*
X309068Y430194D01*
Y432193D01*
X310068Y433193D01*
X313067D01*
X285076Y414194D02*
Y420192D01*
X288075D01*
X289074Y419193D01*
Y417193D01*
X288075Y416193D01*
X285076D01*
X287075D02*
X289074Y414194D01*
X292073D02*
X294073D01*
X295072Y415194D01*
Y417193D01*
X294073Y418193D01*
X292073D01*
X291074Y417193D01*
Y415194D01*
X292073Y414194D01*
X297072Y418193D02*
Y415194D01*
X298072Y414194D01*
X301070D01*
Y418193D01*
X303070Y414194D02*
Y418193D01*
X306069D01*
X307068Y417193D01*
Y414194D01*
X313067Y420192D02*
Y414194D01*
X310068D01*
X309068Y415194D01*
Y417193D01*
X310068Y418193D01*
X313067D01*
X285076Y399194D02*
Y405192D01*
X288075D01*
X289074Y404192D01*
Y402193D01*
X288075Y401194D01*
X285076D01*
X287075D02*
X289074Y399194D01*
X292073D02*
X294073D01*
X295072Y400194D01*
Y402193D01*
X294073Y403193D01*
X292073D01*
X291074Y402193D01*
Y400194D01*
X292073Y399194D01*
X297072Y403193D02*
Y400194D01*
X298072Y399194D01*
X301070D01*
Y403193D01*
X303070Y399194D02*
Y403193D01*
X306069D01*
X307068Y402193D01*
Y399194D01*
X313067Y405192D02*
Y399194D01*
X310068D01*
X309068Y400194D01*
Y402193D01*
X310068Y403193D01*
X313067D01*
X285076Y384194D02*
Y390192D01*
X288075D01*
X289074Y389193D01*
Y387193D01*
X288075Y386193D01*
X285076D01*
X287075D02*
X289074Y384194D01*
X292073D02*
X294073D01*
X295072Y385194D01*
Y387193D01*
X294073Y388193D01*
X292073D01*
X291074Y387193D01*
Y385194D01*
X292073Y384194D01*
X297072Y388193D02*
Y385194D01*
X298072Y384194D01*
X301070D01*
Y388193D01*
X303070Y384194D02*
Y388193D01*
X306069D01*
X307068Y387193D01*
Y384194D01*
X313067Y390192D02*
Y384194D01*
X310068D01*
X309068Y385194D01*
Y387193D01*
X310068Y388193D01*
X313067D01*
X234488Y549194D02*
Y555192D01*
X238487Y549194D01*
Y555192D01*
X240486Y549194D02*
Y555192D01*
X243485D01*
X244485Y554193D01*
Y552193D01*
X243485Y551194D01*
X240486D01*
X246484Y555192D02*
X250483D01*
X248483D01*
Y549194D01*
X252482Y555192D02*
Y549194D01*
Y552193D01*
X256481D01*
Y555192D01*
Y549194D01*
X234488Y534194D02*
Y540192D01*
X237487D01*
X238487Y539193D01*
Y537193D01*
X237487Y536194D01*
X234488D01*
X240486Y540192D02*
X244485D01*
X242485D01*
Y534194D01*
X246484Y540192D02*
Y534194D01*
Y537193D01*
X250483D01*
Y540192D01*
Y534194D01*
X234488Y519194D02*
Y525192D01*
X237487D01*
X238487Y524193D01*
Y522193D01*
X237487Y521194D01*
X234488D01*
X240486Y525192D02*
X244485D01*
X242485D01*
Y519194D01*
X246484Y525192D02*
Y519194D01*
Y522193D01*
X250483D01*
Y525192D01*
Y519194D01*
X234488Y504194D02*
Y510192D01*
X238487Y504194D01*
Y510192D01*
X240486Y504194D02*
Y510192D01*
X243485D01*
X244485Y509193D01*
Y507193D01*
X243485Y506193D01*
X240486D01*
X246484Y510192D02*
X250483D01*
X248483D01*
Y504194D01*
X252482Y510192D02*
Y504194D01*
Y507193D01*
X256481D01*
Y510192D01*
Y504194D01*
X234488Y489194D02*
Y495192D01*
X238487Y489194D01*
Y495192D01*
X240486Y489194D02*
Y495192D01*
X243485D01*
X244485Y494193D01*
Y492193D01*
X243485Y491193D01*
X240486D01*
X246484Y495192D02*
X250483D01*
X248483D01*
Y489194D01*
X252482Y495192D02*
Y489194D01*
Y492193D01*
X256481D01*
Y495192D01*
Y489194D01*
X234488Y474194D02*
Y480192D01*
X237487D01*
X238487Y479193D01*
Y477193D01*
X237487Y476194D01*
X234488D01*
X240486Y480192D02*
X244485D01*
X242485D01*
Y474194D01*
X246484Y480192D02*
Y474194D01*
Y477193D01*
X250483D01*
Y480192D01*
Y474194D01*
X234488Y459194D02*
Y465192D01*
X237487D01*
X238487Y464193D01*
Y462193D01*
X237487Y461194D01*
X234488D01*
X240486Y465192D02*
X244485D01*
X242485D01*
Y459194D01*
X246484Y465192D02*
Y459194D01*
Y462193D01*
X250483D01*
Y465192D01*
Y459194D01*
X234488Y444194D02*
Y450192D01*
X238487Y444194D01*
Y450192D01*
X240486Y444194D02*
Y450192D01*
X243485D01*
X244485Y449193D01*
Y447193D01*
X243485Y446194D01*
X240486D01*
X246484Y450192D02*
X250483D01*
X248483D01*
Y444194D01*
X252482Y450192D02*
Y444194D01*
Y447193D01*
X256481D01*
Y450192D01*
Y444194D01*
X234488Y429194D02*
Y435192D01*
X237487D01*
X238487Y434193D01*
Y432193D01*
X237487Y431193D01*
X234488D01*
X240486Y435192D02*
X244485D01*
X242485D01*
Y429194D01*
X246484Y435192D02*
Y429194D01*
Y432193D01*
X250483D01*
Y435192D01*
Y429194D01*
X234488Y414194D02*
Y420192D01*
X237487D01*
X238487Y419193D01*
Y417193D01*
X237487Y416193D01*
X234488D01*
X240486Y420192D02*
X244485D01*
X242485D01*
Y414194D01*
X246484Y420192D02*
Y414194D01*
Y417193D01*
X250483D01*
Y420192D01*
Y414194D01*
X234488Y399194D02*
Y405192D01*
X237487D01*
X238487Y404192D01*
Y402193D01*
X237487Y401194D01*
X234488D01*
X240486Y405192D02*
X244485D01*
X242485D01*
Y399194D01*
X246484Y405192D02*
Y399194D01*
Y402193D01*
X250483D01*
Y405192D01*
Y399194D01*
X234488Y384194D02*
Y390192D01*
X237487D01*
X238487Y389193D01*
Y387193D01*
X237487Y386193D01*
X234488D01*
X240486Y390192D02*
X244485D01*
X242485D01*
Y384194D01*
X246484Y390192D02*
Y384194D01*
Y387193D01*
X250483D01*
Y390192D01*
Y384194D01*
X123520Y549194D02*
X119522D01*
X123520Y553193D01*
Y554193D01*
X122521Y555192D01*
X120521D01*
X119522Y554193D01*
X125520Y549194D02*
Y550194D01*
X126520D01*
Y549194D01*
X125520D01*
X130518D02*
X132518D01*
X131518D01*
Y555192D01*
X130518Y554193D01*
X135517D02*
X136516Y555192D01*
X138516D01*
X139515Y554193D01*
Y550194D01*
X138516Y549194D01*
X136516D01*
X135517Y550194D01*
Y554193D01*
X141515D02*
X142514Y555192D01*
X144514D01*
X145513Y554193D01*
Y550194D01*
X144514Y549194D01*
X142514D01*
X141515Y550194D01*
Y554193D01*
X147513Y549194D02*
Y553193D01*
X148512D01*
X149512Y552193D01*
Y549194D01*
Y552193D01*
X150512Y553193D01*
X151511Y552193D01*
Y549194D01*
X153511D02*
Y553193D01*
X154510D01*
X155510Y552193D01*
Y549194D01*
Y552193D01*
X156510Y553193D01*
X157509Y552193D01*
Y549194D01*
X167506D02*
X165507Y551194D01*
Y553193D01*
X167506Y555192D01*
X170505Y554193D02*
X171505Y555192D01*
X173504D01*
X174504Y554193D01*
Y553193D01*
X173504Y552193D01*
X174504Y551194D01*
Y550194D01*
X173504Y549194D01*
X171505D01*
X170505Y550194D01*
Y551194D01*
X171505Y552193D01*
X170505Y553193D01*
Y554193D01*
X171505Y552193D02*
X173504D01*
X180502Y549194D02*
X176503D01*
X180502Y553193D01*
Y554193D01*
X179502Y555192D01*
X177503D01*
X176503Y554193D01*
X182501Y549194D02*
Y550194D01*
X183501D01*
Y549194D01*
X182501D01*
X191498Y555192D02*
X189499Y554193D01*
X187500Y552193D01*
Y550194D01*
X188499Y549194D01*
X190499D01*
X191498Y550194D01*
Y551194D01*
X190499Y552193D01*
X187500D01*
X193498Y554193D02*
X194498Y555192D01*
X196497D01*
X197496Y554193D01*
Y553193D01*
X196497Y552193D01*
X197496Y551194D01*
Y550194D01*
X196497Y549194D01*
X194498D01*
X193498Y550194D01*
Y551194D01*
X194498Y552193D01*
X193498Y553193D01*
Y554193D01*
X194498Y552193D02*
X196497D01*
X199496Y549194D02*
Y553193D01*
X200496D01*
X201495Y552193D01*
Y549194D01*
Y552193D01*
X202495Y553193D01*
X203495Y552193D01*
Y549194D01*
X205494D02*
X207493D01*
X206494D01*
Y553193D01*
X205494D01*
X210492Y549194D02*
X212492D01*
X211492D01*
Y555192D01*
X210492D01*
X215491Y549194D02*
X217490Y551194D01*
Y553193D01*
X215491Y555192D01*
X119522Y539193D02*
X120521Y540192D01*
X122521D01*
X123520Y539193D01*
Y535194D01*
X122521Y534194D01*
X120521D01*
X119522Y535194D01*
Y539193D01*
X125520Y534194D02*
Y535194D01*
X126520D01*
Y534194D01*
X125520D01*
X134517Y540192D02*
X132518Y539193D01*
X130518Y537193D01*
Y535194D01*
X131518Y534194D01*
X133517D01*
X134517Y535194D01*
Y536194D01*
X133517Y537193D01*
X130518D01*
X136516Y539193D02*
X137516Y540192D01*
X139515D01*
X140515Y539193D01*
Y535194D01*
X139515Y534194D01*
X137516D01*
X136516Y535194D01*
Y539193D01*
X142514D02*
X143514Y540192D01*
X145513D01*
X146513Y539193D01*
Y535194D01*
X145513Y534194D01*
X143514D01*
X142514Y535194D01*
Y539193D01*
X148512Y534194D02*
Y538193D01*
X149512D01*
X150512Y537193D01*
Y534194D01*
Y537193D01*
X151511Y538193D01*
X152511Y537193D01*
Y534194D01*
X154510D02*
Y538193D01*
X155510D01*
X156510Y537193D01*
Y534194D01*
Y537193D01*
X157509Y538193D01*
X158509Y537193D01*
Y534194D01*
X168506D02*
X166507Y536194D01*
Y538193D01*
X168506Y540192D01*
X175504Y534194D02*
X171505D01*
X175504Y538193D01*
Y539193D01*
X174504Y540192D01*
X172505D01*
X171505Y539193D01*
X177503D02*
X178503Y540192D01*
X180502D01*
X181502Y539193D01*
Y538193D01*
X180502Y537193D01*
X179502D01*
X180502D01*
X181502Y536194D01*
Y535194D01*
X180502Y534194D01*
X178503D01*
X177503Y535194D01*
X183501Y534194D02*
Y535194D01*
X184501D01*
Y534194D01*
X183501D01*
X192498Y540192D02*
X190499Y539193D01*
X188499Y537193D01*
Y535194D01*
X189499Y534194D01*
X191498D01*
X192498Y535194D01*
Y536194D01*
X191498Y537193D01*
X188499D01*
X198496Y534194D02*
X194498D01*
X198496Y538193D01*
Y539193D01*
X197496Y540192D01*
X195497D01*
X194498Y539193D01*
X200496Y534194D02*
Y538193D01*
X201495D01*
X202495Y537193D01*
Y534194D01*
Y537193D01*
X203495Y538193D01*
X204494Y537193D01*
Y534194D01*
X206494D02*
X208493D01*
X207493D01*
Y538193D01*
X206494D01*
X211492Y534194D02*
X213491D01*
X212492D01*
Y540192D01*
X211492D01*
X216490Y534194D02*
X218490Y536194D01*
Y538193D01*
X216490Y540192D01*
X119522Y524193D02*
X120521Y525192D01*
X122521D01*
X123520Y524193D01*
Y520194D01*
X122521Y519194D01*
X120521D01*
X119522Y520194D01*
Y524193D01*
X125520Y519194D02*
Y520194D01*
X126520D01*
Y519194D01*
X125520D01*
X134517Y525192D02*
X132518Y524193D01*
X130518Y522193D01*
Y520194D01*
X131518Y519194D01*
X133517D01*
X134517Y520194D01*
Y521194D01*
X133517Y522193D01*
X130518D01*
X136516Y524193D02*
X137516Y525192D01*
X139515D01*
X140515Y524193D01*
Y520194D01*
X139515Y519194D01*
X137516D01*
X136516Y520194D01*
Y524193D01*
X142514D02*
X143514Y525192D01*
X145513D01*
X146513Y524193D01*
Y520194D01*
X145513Y519194D01*
X143514D01*
X142514Y520194D01*
Y524193D01*
X148512Y519194D02*
Y523193D01*
X149512D01*
X150512Y522193D01*
Y519194D01*
Y522193D01*
X151511Y523193D01*
X152511Y522193D01*
Y519194D01*
X154510D02*
Y523193D01*
X155510D01*
X156510Y522193D01*
Y519194D01*
Y522193D01*
X157509Y523193D01*
X158509Y522193D01*
Y519194D01*
X168506D02*
X166507Y521194D01*
Y523193D01*
X168506Y525192D01*
X175504Y519194D02*
X171505D01*
X175504Y523193D01*
Y524193D01*
X174504Y525192D01*
X172505D01*
X171505Y524193D01*
X177503D02*
X178503Y525192D01*
X180502D01*
X181502Y524193D01*
Y523193D01*
X180502Y522193D01*
X179502D01*
X180502D01*
X181502Y521194D01*
Y520194D01*
X180502Y519194D01*
X178503D01*
X177503Y520194D01*
X183501Y519194D02*
Y520194D01*
X184501D01*
Y519194D01*
X183501D01*
X192498Y525192D02*
X190499Y524193D01*
X188499Y522193D01*
Y520194D01*
X189499Y519194D01*
X191498D01*
X192498Y520194D01*
Y521194D01*
X191498Y522193D01*
X188499D01*
X198496Y519194D02*
X194498D01*
X198496Y523193D01*
Y524193D01*
X197496Y525192D01*
X195497D01*
X194498Y524193D01*
X200496Y519194D02*
Y523193D01*
X201495D01*
X202495Y522193D01*
Y519194D01*
Y522193D01*
X203495Y523193D01*
X204494Y522193D01*
Y519194D01*
X206494D02*
X208493D01*
X207493D01*
Y523193D01*
X206494D01*
X211492Y519194D02*
X213491D01*
X212492D01*
Y525192D01*
X211492D01*
X216490Y519194D02*
X218490Y521194D01*
Y523193D01*
X216490Y525192D01*
X119522Y509193D02*
X120521Y510192D01*
X122521D01*
X123520Y509193D01*
Y505194D01*
X122521Y504194D01*
X120521D01*
X119522Y505194D01*
Y509193D01*
X125520Y504194D02*
Y505194D01*
X126520D01*
Y504194D01*
X125520D01*
X134517Y510192D02*
X132518Y509193D01*
X130518Y507193D01*
Y505194D01*
X131518Y504194D01*
X133517D01*
X134517Y505194D01*
Y506193D01*
X133517Y507193D01*
X130518D01*
X140515Y504194D02*
X136516D01*
X140515Y508193D01*
Y509193D01*
X139515Y510192D01*
X137516D01*
X136516Y509193D01*
X142514D02*
X143514Y510192D01*
X145513D01*
X146513Y509193D01*
Y505194D01*
X145513Y504194D01*
X143514D01*
X142514Y505194D01*
Y509193D01*
X148512Y504194D02*
Y508193D01*
X149512D01*
X150512Y507193D01*
Y504194D01*
Y507193D01*
X151511Y508193D01*
X152511Y507193D01*
Y504194D01*
X154510D02*
Y508193D01*
X155510D01*
X156510Y507193D01*
Y504194D01*
Y507193D01*
X157509Y508193D01*
X158509Y507193D01*
Y504194D01*
X168506D02*
X166507Y506193D01*
Y508193D01*
X168506Y510192D01*
X175504Y504194D02*
X171505D01*
X175504Y508193D01*
Y509193D01*
X174504Y510192D01*
X172505D01*
X171505Y509193D01*
X180502Y504194D02*
Y510192D01*
X177503Y507193D01*
X181502D01*
X183501Y504194D02*
Y505194D01*
X184501D01*
Y504194D01*
X183501D01*
X191498D02*
Y510192D01*
X188499Y507193D01*
X192498D01*
X194498Y504194D02*
X196497D01*
X195497D01*
Y510192D01*
X194498Y509193D01*
X199496Y504194D02*
Y508193D01*
X200496D01*
X201495Y507193D01*
Y504194D01*
Y507193D01*
X202495Y508193D01*
X203495Y507193D01*
Y504194D01*
X205494D02*
X207493D01*
X206494D01*
Y508193D01*
X205494D01*
X210492Y504194D02*
X212492D01*
X211492D01*
Y510192D01*
X210492D01*
X215491Y504194D02*
X217490Y506193D01*
Y508193D01*
X215491Y510192D01*
X119522Y489194D02*
X121521D01*
X120521D01*
Y495192D01*
X119522Y494193D01*
X124520Y489194D02*
Y490194D01*
X125520D01*
Y489194D01*
X124520D01*
X129518Y494193D02*
X130518Y495192D01*
X132518D01*
X133517Y494193D01*
Y490194D01*
X132518Y489194D01*
X130518D01*
X129518Y490194D01*
Y494193D01*
X139515Y489194D02*
X135517D01*
X139515Y493193D01*
Y494193D01*
X138516Y495192D01*
X136516D01*
X135517Y494193D01*
X141515D02*
X142514Y495192D01*
X144514D01*
X145513Y494193D01*
Y490194D01*
X144514Y489194D01*
X142514D01*
X141515Y490194D01*
Y494193D01*
X147513Y489194D02*
Y493193D01*
X148512D01*
X149512Y492193D01*
Y489194D01*
Y492193D01*
X150512Y493193D01*
X151511Y492193D01*
Y489194D01*
X153511D02*
Y493193D01*
X154510D01*
X155510Y492193D01*
Y489194D01*
Y492193D01*
X156510Y493193D01*
X157509Y492193D01*
Y489194D01*
X167506D02*
X165507Y491193D01*
Y493193D01*
X167506Y495192D01*
X173504Y489194D02*
Y495192D01*
X170505Y492193D01*
X174504D01*
X176503Y494193D02*
X177503Y495192D01*
X179502D01*
X180502Y494193D01*
Y490194D01*
X179502Y489194D01*
X177503D01*
X176503Y490194D01*
Y494193D01*
X182501Y489194D02*
Y490194D01*
X183501D01*
Y489194D01*
X182501D01*
X187500D02*
X189499D01*
X188499D01*
Y495192D01*
X187500Y494193D01*
X196497Y495192D02*
X194498Y494193D01*
X192498Y492193D01*
Y490194D01*
X193498Y489194D01*
X195497D01*
X196497Y490194D01*
Y491193D01*
X195497Y492193D01*
X192498D01*
X198496Y489194D02*
Y493193D01*
X199496D01*
X200496Y492193D01*
Y489194D01*
Y492193D01*
X201495Y493193D01*
X202495Y492193D01*
Y489194D01*
X204494D02*
X206494D01*
X205494D01*
Y493193D01*
X204494D01*
X209493Y489194D02*
X211492D01*
X210492D01*
Y495192D01*
X209493D01*
X214491Y489194D02*
X216490Y491193D01*
Y493193D01*
X214491Y495192D01*
X119522Y474194D02*
X121521D01*
X120521D01*
Y480192D01*
X119522Y479193D01*
X124520Y474194D02*
Y475194D01*
X125520D01*
Y474194D01*
X124520D01*
X129518Y479193D02*
X130518Y480192D01*
X132518D01*
X133517Y479193D01*
Y475194D01*
X132518Y474194D01*
X130518D01*
X129518Y475194D01*
Y479193D01*
X135517D02*
X136516Y480192D01*
X138516D01*
X139515Y479193D01*
Y475194D01*
X138516Y474194D01*
X136516D01*
X135517Y475194D01*
Y479193D01*
X141515D02*
X142514Y480192D01*
X144514D01*
X145513Y479193D01*
Y475194D01*
X144514Y474194D01*
X142514D01*
X141515Y475194D01*
Y479193D01*
X147513Y474194D02*
Y478193D01*
X148512D01*
X149512Y477193D01*
Y474194D01*
Y477193D01*
X150512Y478193D01*
X151511Y477193D01*
Y474194D01*
X153511D02*
Y478193D01*
X154510D01*
X155510Y477193D01*
Y474194D01*
Y477193D01*
X156510Y478193D01*
X157509Y477193D01*
Y474194D01*
X167506D02*
X165507Y476194D01*
Y478193D01*
X167506Y480192D01*
X170505Y479193D02*
X171505Y480192D01*
X173504D01*
X174504Y479193D01*
Y478193D01*
X173504Y477193D01*
X172505D01*
X173504D01*
X174504Y476194D01*
Y475194D01*
X173504Y474194D01*
X171505D01*
X170505Y475194D01*
X176503D02*
X177503Y474194D01*
X179502D01*
X180502Y475194D01*
Y479193D01*
X179502Y480192D01*
X177503D01*
X176503Y479193D01*
Y478193D01*
X177503Y477193D01*
X180502D01*
X182501Y474194D02*
Y475194D01*
X183501D01*
Y474194D01*
X182501D01*
X187500Y479193D02*
X188499Y480192D01*
X190499D01*
X191498Y479193D01*
Y478193D01*
X190499Y477193D01*
X189499D01*
X190499D01*
X191498Y476194D01*
Y475194D01*
X190499Y474194D01*
X188499D01*
X187500Y475194D01*
X193498Y480192D02*
X197496D01*
Y479193D01*
X193498Y475194D01*
Y474194D01*
X199496D02*
Y478193D01*
X200496D01*
X201495Y477193D01*
Y474194D01*
Y477193D01*
X202495Y478193D01*
X203495Y477193D01*
Y474194D01*
X205494D02*
X207493D01*
X206494D01*
Y478193D01*
X205494D01*
X210492Y474194D02*
X212492D01*
X211492D01*
Y480192D01*
X210492D01*
X215491Y474194D02*
X217490Y476194D01*
Y478193D01*
X215491Y480192D01*
X119522Y459194D02*
X121521D01*
X120521D01*
Y465192D01*
X119522Y464193D01*
X124520Y459194D02*
Y460194D01*
X125520D01*
Y459194D01*
X124520D01*
X129518Y464193D02*
X130518Y465192D01*
X132518D01*
X133517Y464193D01*
Y463193D01*
X132518Y462193D01*
X131518D01*
X132518D01*
X133517Y461194D01*
Y460194D01*
X132518Y459194D01*
X130518D01*
X129518Y460194D01*
X135517Y464193D02*
X136516Y465192D01*
X138516D01*
X139515Y464193D01*
Y460194D01*
X138516Y459194D01*
X136516D01*
X135517Y460194D01*
Y464193D01*
X141515D02*
X142514Y465192D01*
X144514D01*
X145513Y464193D01*
Y460194D01*
X144514Y459194D01*
X142514D01*
X141515Y460194D01*
Y464193D01*
X147513Y459194D02*
Y463193D01*
X148512D01*
X149512Y462193D01*
Y459194D01*
Y462193D01*
X150512Y463193D01*
X151511Y462193D01*
Y459194D01*
X153511D02*
Y463193D01*
X154510D01*
X155510Y462193D01*
Y459194D01*
Y462193D01*
X156510Y463193D01*
X157509Y462193D01*
Y459194D01*
X167506D02*
X165507Y461194D01*
Y463193D01*
X167506Y465192D01*
X174504D02*
X170505D01*
Y462193D01*
X172505Y463193D01*
X173504D01*
X174504Y462193D01*
Y460194D01*
X173504Y459194D01*
X171505D01*
X170505Y460194D01*
X176503Y459194D02*
X178503D01*
X177503D01*
Y465192D01*
X176503Y464193D01*
X181502Y459194D02*
Y460194D01*
X182501D01*
Y459194D01*
X181502D01*
X186500D02*
X188499D01*
X187500D01*
Y465192D01*
X186500Y464193D01*
X191498D02*
X192498Y465192D01*
X194498D01*
X195497Y464193D01*
Y463193D01*
X194498Y462193D01*
X195497Y461194D01*
Y460194D01*
X194498Y459194D01*
X192498D01*
X191498Y460194D01*
Y461194D01*
X192498Y462193D01*
X191498Y463193D01*
Y464193D01*
X192498Y462193D02*
X194498D01*
X197496Y459194D02*
Y463193D01*
X198496D01*
X199496Y462193D01*
Y459194D01*
Y462193D01*
X200496Y463193D01*
X201495Y462193D01*
Y459194D01*
X203495D02*
X205494D01*
X204494D01*
Y463193D01*
X203495D01*
X208493Y459194D02*
X210492D01*
X209493D01*
Y465192D01*
X208493D01*
X213491Y459194D02*
X215491Y461194D01*
Y463193D01*
X213491Y465192D01*
X119522Y449193D02*
X120521Y450192D01*
X122521D01*
X123520Y449193D01*
Y448193D01*
X122521Y447193D01*
X121521D01*
X122521D01*
X123520Y446194D01*
Y445194D01*
X122521Y444194D01*
X120521D01*
X119522Y445194D01*
X125520Y444194D02*
Y445194D01*
X126520D01*
Y444194D01*
X125520D01*
X134517D02*
X130518D01*
X134517Y448193D01*
Y449193D01*
X133517Y450192D01*
X131518D01*
X130518Y449193D01*
X136516D02*
X137516Y450192D01*
X139515D01*
X140515Y449193D01*
Y445194D01*
X139515Y444194D01*
X137516D01*
X136516Y445194D01*
Y449193D01*
X142514D02*
X143514Y450192D01*
X145513D01*
X146513Y449193D01*
Y445194D01*
X145513Y444194D01*
X143514D01*
X142514Y445194D01*
Y449193D01*
X148512Y444194D02*
Y448193D01*
X149512D01*
X150512Y447193D01*
Y444194D01*
Y447193D01*
X151511Y448193D01*
X152511Y447193D01*
Y444194D01*
X154510D02*
Y448193D01*
X155510D01*
X156510Y447193D01*
Y444194D01*
Y447193D01*
X157509Y448193D01*
X158509Y447193D01*
Y444194D01*
X168506D02*
X166507Y446194D01*
Y448193D01*
X168506Y450192D01*
X171505Y444194D02*
X173504D01*
X172505D01*
Y450192D01*
X171505Y449193D01*
X180502Y444194D02*
X176503D01*
X180502Y448193D01*
Y449193D01*
X179502Y450192D01*
X177503D01*
X176503Y449193D01*
X186500Y450192D02*
X182501D01*
Y447193D01*
X184501Y448193D01*
X185500D01*
X186500Y447193D01*
Y445194D01*
X185500Y444194D01*
X183501D01*
X182501Y445194D01*
X188499Y444194D02*
Y445194D01*
X189499D01*
Y444194D01*
X188499D01*
X193498Y445194D02*
X194498Y444194D01*
X196497D01*
X197496Y445194D01*
Y449193D01*
X196497Y450192D01*
X194498D01*
X193498Y449193D01*
Y448193D01*
X194498Y447193D01*
X197496D01*
X199496Y449193D02*
X200496Y450192D01*
X202495D01*
X203495Y449193D01*
Y448193D01*
X202495Y447193D01*
X203495Y446194D01*
Y445194D01*
X202495Y444194D01*
X200496D01*
X199496Y445194D01*
Y446194D01*
X200496Y447193D01*
X199496Y448193D01*
Y449193D01*
X200496Y447193D02*
X202495D01*
X205494Y444194D02*
Y448193D01*
X206494D01*
X207493Y447193D01*
Y444194D01*
Y447193D01*
X208493Y448193D01*
X209493Y447193D01*
Y444194D01*
X211492D02*
X213491D01*
X212492D01*
Y448193D01*
X211492D01*
X216490Y444194D02*
X218490D01*
X217490D01*
Y450192D01*
X216490D01*
X221489Y444194D02*
X223488Y446194D01*
Y448193D01*
X221489Y450192D01*
X119522Y429194D02*
X121521D01*
X120521D01*
Y435192D01*
X119522Y434193D01*
X124520Y429194D02*
Y430194D01*
X125520D01*
Y429194D01*
X124520D01*
X133517Y435192D02*
X131518Y434193D01*
X129518Y432193D01*
Y430194D01*
X130518Y429194D01*
X132518D01*
X133517Y430194D01*
Y431193D01*
X132518Y432193D01*
X129518D01*
X135517Y434193D02*
X136516Y435192D01*
X138516D01*
X139515Y434193D01*
Y430194D01*
X138516Y429194D01*
X136516D01*
X135517Y430194D01*
Y434193D01*
X141515D02*
X142514Y435192D01*
X144514D01*
X145513Y434193D01*
Y430194D01*
X144514Y429194D01*
X142514D01*
X141515Y430194D01*
Y434193D01*
X147513Y429194D02*
Y433193D01*
X148512D01*
X149512Y432193D01*
Y429194D01*
Y432193D01*
X150512Y433193D01*
X151511Y432193D01*
Y429194D01*
X153511D02*
Y433193D01*
X154510D01*
X155510Y432193D01*
Y429194D01*
Y432193D01*
X156510Y433193D01*
X157509Y432193D01*
Y429194D01*
X167506D02*
X165507Y431193D01*
Y433193D01*
X167506Y435192D01*
X174504D02*
X172505Y434193D01*
X170505Y432193D01*
Y430194D01*
X171505Y429194D01*
X173504D01*
X174504Y430194D01*
Y431193D01*
X173504Y432193D01*
X170505D01*
X180502Y429194D02*
X176503D01*
X180502Y433193D01*
Y434193D01*
X179502Y435192D01*
X177503D01*
X176503Y434193D01*
X182501Y429194D02*
Y430194D01*
X183501D01*
Y429194D01*
X182501D01*
X187500Y430194D02*
X188499Y429194D01*
X190499D01*
X191498Y430194D01*
Y434193D01*
X190499Y435192D01*
X188499D01*
X187500Y434193D01*
Y433193D01*
X188499Y432193D01*
X191498D01*
X193498Y430194D02*
X194498Y429194D01*
X196497D01*
X197496Y430194D01*
Y434193D01*
X196497Y435192D01*
X194498D01*
X193498Y434193D01*
Y433193D01*
X194498Y432193D01*
X197496D01*
X199496Y429194D02*
Y433193D01*
X200496D01*
X201495Y432193D01*
Y429194D01*
Y432193D01*
X202495Y433193D01*
X203495Y432193D01*
Y429194D01*
X205494D02*
X207493D01*
X206494D01*
Y433193D01*
X205494D01*
X210492Y429194D02*
X212492D01*
X211492D01*
Y435192D01*
X210492D01*
X215491Y429194D02*
X217490Y431193D01*
Y433193D01*
X215491Y435192D01*
X119522Y414194D02*
X121521D01*
X120521D01*
Y420192D01*
X119522Y419193D01*
X124520Y414194D02*
Y415194D01*
X125520D01*
Y414194D01*
X124520D01*
X129518Y419193D02*
X130518Y420192D01*
X132518D01*
X133517Y419193D01*
Y415194D01*
X132518Y414194D01*
X130518D01*
X129518Y415194D01*
Y419193D01*
X135517D02*
X136516Y420192D01*
X138516D01*
X139515Y419193D01*
Y415194D01*
X138516Y414194D01*
X136516D01*
X135517Y415194D01*
Y419193D01*
X141515D02*
X142514Y420192D01*
X144514D01*
X145513Y419193D01*
Y415194D01*
X144514Y414194D01*
X142514D01*
X141515Y415194D01*
Y419193D01*
X147513Y414194D02*
Y418193D01*
X148512D01*
X149512Y417193D01*
Y414194D01*
Y417193D01*
X150512Y418193D01*
X151511Y417193D01*
Y414194D01*
X153511D02*
Y418193D01*
X154510D01*
X155510Y417193D01*
Y414194D01*
Y417193D01*
X156510Y418193D01*
X157509Y417193D01*
Y414194D01*
X167506D02*
X165507Y416193D01*
Y418193D01*
X167506Y420192D01*
X170505Y419193D02*
X171505Y420192D01*
X173504D01*
X174504Y419193D01*
Y418193D01*
X173504Y417193D01*
X172505D01*
X173504D01*
X174504Y416193D01*
Y415194D01*
X173504Y414194D01*
X171505D01*
X170505Y415194D01*
X176503D02*
X177503Y414194D01*
X179502D01*
X180502Y415194D01*
Y419193D01*
X179502Y420192D01*
X177503D01*
X176503Y419193D01*
Y418193D01*
X177503Y417193D01*
X180502D01*
X182501Y414194D02*
Y415194D01*
X183501D01*
Y414194D01*
X182501D01*
X187500Y419193D02*
X188499Y420192D01*
X190499D01*
X191498Y419193D01*
Y418193D01*
X190499Y417193D01*
X189499D01*
X190499D01*
X191498Y416193D01*
Y415194D01*
X190499Y414194D01*
X188499D01*
X187500Y415194D01*
X193498Y420192D02*
X197496D01*
Y419193D01*
X193498Y415194D01*
Y414194D01*
X199496D02*
Y418193D01*
X200496D01*
X201495Y417193D01*
Y414194D01*
Y417193D01*
X202495Y418193D01*
X203495Y417193D01*
Y414194D01*
X205494D02*
X207493D01*
X206494D01*
Y418193D01*
X205494D01*
X210492Y414194D02*
X212492D01*
X211492D01*
Y420192D01*
X210492D01*
X215491Y414194D02*
X217490Y416193D01*
Y418193D01*
X215491Y420192D01*
X119522Y404192D02*
X120521Y405192D01*
X122521D01*
X123520Y404192D01*
Y400194D01*
X122521Y399194D01*
X120521D01*
X119522Y400194D01*
Y404192D01*
X125520Y399194D02*
Y400194D01*
X126520D01*
Y399194D01*
X125520D01*
X130518Y400194D02*
X131518Y399194D01*
X133517D01*
X134517Y400194D01*
Y404192D01*
X133517Y405192D01*
X131518D01*
X130518Y404192D01*
Y403193D01*
X131518Y402193D01*
X134517D01*
X136516Y404192D02*
X137516Y405192D01*
X139515D01*
X140515Y404192D01*
Y400194D01*
X139515Y399194D01*
X137516D01*
X136516Y400194D01*
Y404192D01*
X142514D02*
X143514Y405192D01*
X145513D01*
X146513Y404192D01*
Y400194D01*
X145513Y399194D01*
X143514D01*
X142514Y400194D01*
Y404192D01*
X148512Y399194D02*
Y403193D01*
X149512D01*
X150512Y402193D01*
Y399194D01*
Y402193D01*
X151511Y403193D01*
X152511Y402193D01*
Y399194D01*
X154510D02*
Y403193D01*
X155510D01*
X156510Y402193D01*
Y399194D01*
Y402193D01*
X157509Y403193D01*
X158509Y402193D01*
Y399194D01*
X168506D02*
X166507Y401194D01*
Y403193D01*
X168506Y405192D01*
X171505Y404192D02*
X172505Y405192D01*
X174504D01*
X175504Y404192D01*
Y403193D01*
X174504Y402193D01*
X173504D01*
X174504D01*
X175504Y401194D01*
Y400194D01*
X174504Y399194D01*
X172505D01*
X171505Y400194D01*
X181502Y405192D02*
X177503D01*
Y402193D01*
X179502Y403193D01*
X180502D01*
X181502Y402193D01*
Y400194D01*
X180502Y399194D01*
X178503D01*
X177503Y400194D01*
X183501Y399194D02*
Y400194D01*
X184501D01*
Y399194D01*
X183501D01*
X191498D02*
Y405192D01*
X188499Y402193D01*
X192498D01*
X194498Y404192D02*
X195497Y405192D01*
X197496D01*
X198496Y404192D01*
Y403193D01*
X197496Y402193D01*
X196497D01*
X197496D01*
X198496Y401194D01*
Y400194D01*
X197496Y399194D01*
X195497D01*
X194498Y400194D01*
X200496Y399194D02*
Y403193D01*
X201495D01*
X202495Y402193D01*
Y399194D01*
Y402193D01*
X203495Y403193D01*
X204494Y402193D01*
Y399194D01*
X206494D02*
X208493D01*
X207493D01*
Y403193D01*
X206494D01*
X211492Y399194D02*
X213491D01*
X212492D01*
Y405192D01*
X211492D01*
X216490Y399194D02*
X218490Y401194D01*
Y403193D01*
X216490Y405192D01*
X119522Y389193D02*
X120521Y390192D01*
X122521D01*
X123520Y389193D01*
Y385194D01*
X122521Y384194D01*
X120521D01*
X119522Y385194D01*
Y389193D01*
X125520Y384194D02*
Y385194D01*
X126520D01*
Y384194D01*
X125520D01*
X130518Y389193D02*
X131518Y390192D01*
X133517D01*
X134517Y389193D01*
Y388193D01*
X133517Y387193D01*
X132518D01*
X133517D01*
X134517Y386193D01*
Y385194D01*
X133517Y384194D01*
X131518D01*
X130518Y385194D01*
X136516Y389193D02*
X137516Y390192D01*
X139515D01*
X140515Y389193D01*
Y385194D01*
X139515Y384194D01*
X137516D01*
X136516Y385194D01*
Y389193D01*
X142514D02*
X143514Y390192D01*
X145513D01*
X146513Y389193D01*
Y385194D01*
X145513Y384194D01*
X143514D01*
X142514Y385194D01*
Y389193D01*
X148512Y384194D02*
Y388193D01*
X149512D01*
X150512Y387193D01*
Y384194D01*
Y387193D01*
X151511Y388193D01*
X152511Y387193D01*
Y384194D01*
X154510D02*
Y388193D01*
X155510D01*
X156510Y387193D01*
Y384194D01*
Y387193D01*
X157509Y388193D01*
X158509Y387193D01*
Y384194D01*
X168506D02*
X166507Y386193D01*
Y388193D01*
X168506Y390192D01*
X171505Y384194D02*
X173504D01*
X172505D01*
Y390192D01*
X171505Y389193D01*
X176503Y384194D02*
X178503D01*
X177503D01*
Y390192D01*
X176503Y389193D01*
X181502Y384194D02*
Y385194D01*
X182501D01*
Y384194D01*
X181502D01*
X186500Y389193D02*
X187500Y390192D01*
X189499D01*
X190499Y389193D01*
Y388193D01*
X189499Y387193D01*
X190499Y386193D01*
Y385194D01*
X189499Y384194D01*
X187500D01*
X186500Y385194D01*
Y386193D01*
X187500Y387193D01*
X186500Y388193D01*
Y389193D01*
X187500Y387193D02*
X189499D01*
X192498Y384194D02*
X194498D01*
X193498D01*
Y390192D01*
X192498Y389193D01*
X197496Y384194D02*
Y388193D01*
X198496D01*
X199496Y387193D01*
Y384194D01*
Y387193D01*
X200496Y388193D01*
X201495Y387193D01*
Y384194D01*
X203495D02*
X205494D01*
X204494D01*
Y388193D01*
X203495D01*
X208493Y384194D02*
X210492D01*
X209493D01*
Y390192D01*
X208493D01*
X213491Y384194D02*
X215491Y386193D01*
Y388193D01*
X213491Y390192D01*
X63536Y369194D02*
X59538D01*
X63536Y373193D01*
Y374193D01*
X62537Y375192D01*
X60537D01*
X59538Y374193D01*
X69534Y369194D02*
X65536D01*
X69534Y373193D01*
Y374193D01*
X68535Y375192D01*
X66535D01*
X65536Y374193D01*
X75532Y375192D02*
X73533Y374193D01*
X71534Y372193D01*
Y370194D01*
X72533Y369194D01*
X74533D01*
X75532Y370194D01*
Y371194D01*
X74533Y372193D01*
X71534D01*
X83530Y375192D02*
X87529D01*
X85529D01*
Y369194D01*
X90527D02*
X92527D01*
X93527Y370194D01*
Y372193D01*
X92527Y373193D01*
X90527D01*
X89528Y372193D01*
Y370194D01*
X90527Y369194D01*
X96526Y374193D02*
Y373193D01*
X95526D01*
X97525D01*
X96526D01*
Y370194D01*
X97525Y369194D01*
X101524Y373193D02*
X103523D01*
X104523Y372193D01*
Y369194D01*
X101524D01*
X100524Y370194D01*
X101524Y371194D01*
X104523D01*
X106522Y369194D02*
X108522D01*
X107522D01*
Y375192D01*
X106522D01*
X59538Y549194D02*
X61537D01*
X60537D01*
Y555192D01*
X59538Y554193D01*
X63536Y534194D02*
X59538D01*
X63536Y538193D01*
Y539193D01*
X62537Y540192D01*
X60537D01*
X59538Y539193D01*
X63536Y519194D02*
X59538D01*
X63536Y523193D01*
Y524193D01*
X62537Y525192D01*
X60537D01*
X59538Y524193D01*
X63536Y504194D02*
X59538D01*
X63536Y508193D01*
Y509193D01*
X62537Y510192D01*
X60537D01*
X59538Y509193D01*
X63536Y489194D02*
X59538D01*
X63536Y493193D01*
Y494193D01*
X62537Y495192D01*
X60537D01*
X59538Y494193D01*
Y479193D02*
X60537Y480192D01*
X62537D01*
X63536Y479193D01*
Y478193D01*
X62537Y477193D01*
X61537D01*
X62537D01*
X63536Y476194D01*
Y475194D01*
X62537Y474194D01*
X60537D01*
X59538Y475194D01*
X62537Y459194D02*
Y465192D01*
X59538Y462193D01*
X63536D01*
X62537Y444194D02*
Y450192D01*
X59538Y447193D01*
X63536D01*
Y435192D02*
X59538D01*
Y432193D01*
X61537Y433193D01*
X62537D01*
X63536Y432193D01*
Y430194D01*
X62537Y429194D01*
X60537D01*
X59538Y430194D01*
X63536Y420192D02*
X61537Y419193D01*
X59538Y417193D01*
Y415194D01*
X60537Y414194D01*
X62537D01*
X63536Y415194D01*
Y416193D01*
X62537Y417193D01*
X59538D01*
Y399194D02*
X61537D01*
X60537D01*
Y405192D01*
X59538Y404192D01*
X64536D02*
X65536Y405192D01*
X67535D01*
X68535Y404192D01*
Y403193D01*
X67535Y402193D01*
X68535Y401194D01*
Y400194D01*
X67535Y399194D01*
X65536D01*
X64536Y400194D01*
Y401194D01*
X65536Y402193D01*
X64536Y403193D01*
Y404192D01*
X65536Y402193D02*
X67535D01*
X59538Y384194D02*
X61537D01*
X60537D01*
Y390192D01*
X59538Y389193D01*
X64536Y390192D02*
X68535D01*
Y389193D01*
X64536Y385194D01*
Y384194D01*
X70534Y390192D02*
X74533D01*
Y389193D01*
X70534Y385194D01*
Y384194D01*
X187497Y346699D02*
X191496D01*
X187497Y348698D02*
X191496D01*
X199493Y344699D02*
Y350697D01*
X202492D01*
X203492Y349698D01*
Y347698D01*
X202492Y346699D01*
X199493D01*
X201492D02*
X203492Y344699D01*
X206491D02*
X208490D01*
X209490Y345699D01*
Y347698D01*
X208490Y348698D01*
X206491D01*
X205491Y347698D01*
Y345699D01*
X206491Y344699D01*
X211489Y348698D02*
Y345699D01*
X212489Y344699D01*
X215488D01*
Y348698D01*
X218487Y349698D02*
Y348698D01*
X217487D01*
X219487D01*
X218487D01*
Y345699D01*
X219487Y344699D01*
X225485D02*
X223485D01*
X222486Y345699D01*
Y347698D01*
X223485Y348698D01*
X225485D01*
X226484Y347698D01*
Y346699D01*
X222486D01*
X232482Y350697D02*
Y344699D01*
X229483D01*
X228484Y345699D01*
Y347698D01*
X229483Y348698D01*
X232482D01*
X240480Y344699D02*
Y350697D01*
X243479D01*
X244479Y349698D01*
Y347698D01*
X243479Y346699D01*
X240480D01*
X247478Y348698D02*
X249477D01*
X250477Y347698D01*
Y344699D01*
X247478D01*
X246478Y345699D01*
X247478Y346699D01*
X250477D01*
X253476Y349698D02*
Y348698D01*
X252476D01*
X254475D01*
X253476D01*
Y345699D01*
X254475Y344699D01*
X257474Y350697D02*
Y344699D01*
Y347698D01*
X258474Y348698D01*
X260473D01*
X261473Y347698D01*
Y344699D01*
X269470Y350697D02*
Y344699D01*
X273469D01*
X278467D02*
X276468D01*
X275468Y345699D01*
Y347698D01*
X276468Y348698D01*
X278467D01*
X279467Y347698D01*
Y346699D01*
X275468D01*
X281467Y344699D02*
Y348698D01*
X284466D01*
X285465Y347698D01*
Y344699D01*
X289464Y342700D02*
X290464D01*
X291463Y343700D01*
Y348698D01*
X288464D01*
X287465Y347698D01*
Y345699D01*
X288464Y344699D01*
X291463D01*
X294462Y349698D02*
Y348698D01*
X293463D01*
X295462D01*
X294462D01*
Y345699D01*
X295462Y344699D01*
X298461Y350697D02*
Y344699D01*
Y347698D01*
X299461Y348698D01*
X301460D01*
X302460Y347698D01*
Y344699D01*
X310457Y347698D02*
X314456D01*
X312456Y349698D02*
Y345699D01*
X322453Y350697D02*
X326452D01*
X324453D01*
Y344699D01*
X329451D02*
X331450D01*
X332450Y345699D01*
Y347698D01*
X331450Y348698D01*
X329451D01*
X328451Y347698D01*
Y345699D01*
X329451Y344699D01*
X335449D02*
X337448D01*
X338448Y345699D01*
Y347698D01*
X337448Y348698D01*
X335449D01*
X334449Y347698D01*
Y345699D01*
X335449Y344699D01*
X340447D02*
X342447D01*
X341447D01*
Y350697D01*
X340447D01*
X355443Y349698D02*
X354443Y350697D01*
X352444D01*
X351444Y349698D01*
Y348698D01*
X352444Y347698D01*
X354443D01*
X355443Y346699D01*
Y345699D01*
X354443Y344699D01*
X352444D01*
X351444Y345699D01*
X357442Y344699D02*
X359441D01*
X358442D01*
Y348698D01*
X357442D01*
X362440D02*
X366439D01*
X362440Y344699D01*
X366439D01*
X371437D02*
X369438D01*
X368438Y345699D01*
Y347698D01*
X369438Y348698D01*
X371437D01*
X372437Y347698D01*
Y346699D01*
X368438D01*
X380434D02*
X384433D01*
X380434Y348698D02*
X384433D01*
X396429Y349698D02*
X395430Y350697D01*
X393430D01*
X392431Y349698D01*
Y348698D01*
X393430Y347698D01*
X395430D01*
X396429Y346699D01*
Y345699D01*
X395430Y344699D01*
X393430D01*
X392431Y345699D01*
X398429Y344699D02*
X400428D01*
X399428D01*
Y350697D01*
X398429D01*
X404427Y344699D02*
X406426D01*
X407426Y345699D01*
Y347698D01*
X406426Y348698D01*
X404427D01*
X403427Y347698D01*
Y345699D01*
X404427Y344699D01*
X410425Y349698D02*
Y348698D01*
X409425D01*
X411424D01*
X410425D01*
Y345699D01*
X411424Y344699D01*
X420422D02*
X422421D01*
X421421D01*
Y350697D01*
X420422D01*
X428419Y344699D02*
X426420D01*
X425420Y345699D01*
Y347698D01*
X426420Y348698D01*
X428419D01*
X429419Y347698D01*
Y346699D01*
X425420D01*
X431418Y344699D02*
Y348698D01*
X434417D01*
X435417Y347698D01*
Y344699D01*
X439415Y342700D02*
X440415D01*
X441415Y343700D01*
Y348698D01*
X438416D01*
X437416Y347698D01*
Y345699D01*
X438416Y344699D01*
X441415D01*
X444414Y349698D02*
Y348698D01*
X443414D01*
X445413D01*
X444414D01*
Y345699D01*
X445413Y344699D01*
X448413Y350697D02*
Y344699D01*
Y347698D01*
X449412Y348698D01*
X451412D01*
X452411Y347698D01*
Y344699D01*
X461408Y348698D02*
X463408D01*
X464407Y347698D01*
Y344699D01*
X461408D01*
X460409Y345699D01*
X461408Y346699D01*
X464407D01*
X466407Y344699D02*
X469406D01*
X470405Y345699D01*
X469406Y346699D01*
X467406D01*
X466407Y347698D01*
X467406Y348698D01*
X470405D01*
X482402Y350697D02*
Y344699D01*
X479402D01*
X478403Y345699D01*
Y347698D01*
X479402Y348698D01*
X482402D01*
X487400Y344699D02*
X485401D01*
X484401Y345699D01*
Y347698D01*
X485401Y348698D01*
X487400D01*
X488400Y347698D01*
Y346699D01*
X484401D01*
X491399Y344699D02*
Y349698D01*
Y347698D01*
X490399D01*
X492398D01*
X491399D01*
Y349698D01*
X492398Y350697D01*
X495397Y344699D02*
X497397D01*
X496397D01*
Y348698D01*
X495397D01*
X500396Y344699D02*
Y348698D01*
X503395D01*
X504394Y347698D01*
Y344699D01*
X509393D02*
X507394D01*
X506394Y345699D01*
Y347698D01*
X507394Y348698D01*
X509393D01*
X510393Y347698D01*
Y346699D01*
X506394D01*
X516391Y350697D02*
Y344699D01*
X513391D01*
X512392Y345699D01*
Y347698D01*
X513391Y348698D01*
X516391D01*
X524388Y344699D02*
X526387D01*
X525388D01*
Y348698D01*
X524388D01*
X529386Y344699D02*
Y348698D01*
X532385D01*
X533385Y347698D01*
Y344699D01*
X542382Y349698D02*
Y348698D01*
X541382D01*
X543382D01*
X542382D01*
Y345699D01*
X543382Y344699D01*
X546381Y350697D02*
Y344699D01*
Y347698D01*
X547380Y348698D01*
X549380D01*
X550380Y347698D01*
Y344699D01*
X555378D02*
X553379D01*
X552379Y345699D01*
Y347698D01*
X553379Y348698D01*
X555378D01*
X556378Y347698D01*
Y346699D01*
X552379D01*
X564375Y344699D02*
Y350697D01*
X567374D01*
X568374Y349698D01*
Y347698D01*
X567374Y346699D01*
X564375D01*
X574372Y349698D02*
X573372Y350697D01*
X571373D01*
X570373Y349698D01*
Y345699D01*
X571373Y344699D01*
X573372D01*
X574372Y345699D01*
X576371Y350697D02*
Y344699D01*
X579370D01*
X580370Y345699D01*
Y346699D01*
X579370Y347698D01*
X576371D01*
X579370D01*
X580370Y348698D01*
Y349698D01*
X579370Y350697D01*
X576371D01*
X588367Y344699D02*
X590367D01*
X589367D01*
Y350697D01*
X588367D01*
X594365Y348698D02*
X596365D01*
X597364Y347698D01*
Y344699D01*
X594365D01*
X593366Y345699D01*
X594365Y346699D01*
X597364D01*
X599364Y348698D02*
Y345699D01*
X600363Y344699D01*
X603362D01*
Y343700D01*
X602363Y342700D01*
X601363D01*
X603362Y344699D02*
Y348698D01*
X606361Y344699D02*
X608361D01*
X609361Y345699D01*
Y347698D01*
X608361Y348698D01*
X606361D01*
X605362Y347698D01*
Y345699D01*
X606361Y344699D01*
X611360Y348698D02*
Y345699D01*
X612360Y344699D01*
X615358D01*
Y348698D01*
X618358Y349698D02*
Y348698D01*
X617358D01*
X619357D01*
X618358D01*
Y345699D01*
X619357Y344699D01*
X222486Y356696D02*
X226484D01*
X222486Y358696D02*
X226484D01*
X238480Y359695D02*
X237481Y360695D01*
X235481D01*
X234482Y359695D01*
Y355696D01*
X235481Y354697D01*
X237481D01*
X238480Y355696D01*
X241479Y358696D02*
X243479D01*
X244479Y357696D01*
Y354697D01*
X241479D01*
X240480Y355696D01*
X241479Y356696D01*
X244479D01*
X246478Y354697D02*
X248477D01*
X247478D01*
Y360695D01*
X246478D01*
X255475Y358696D02*
X252476D01*
X251476Y357696D01*
Y355696D01*
X252476Y354697D01*
X255475D01*
X257474Y358696D02*
Y355696D01*
X258474Y354697D01*
X261473D01*
Y358696D01*
X263472Y354697D02*
X265472D01*
X264472D01*
Y360695D01*
X263472D01*
X269470Y358696D02*
X271470D01*
X272469Y357696D01*
Y354697D01*
X269470D01*
X268471Y355696D01*
X269470Y356696D01*
X272469D01*
X275468Y359695D02*
Y358696D01*
X274469D01*
X276468D01*
X275468D01*
Y355696D01*
X276468Y354697D01*
X282466D02*
X280467D01*
X279467Y355696D01*
Y357696D01*
X280467Y358696D01*
X282466D01*
X283466Y357696D01*
Y356696D01*
X279467D01*
X289464Y360695D02*
Y354697D01*
X286465D01*
X285465Y355696D01*
Y357696D01*
X286465Y358696D01*
X289464D01*
X298461Y354697D02*
Y359695D01*
Y357696D01*
X297461D01*
X299461D01*
X298461D01*
Y359695D01*
X299461Y360695D01*
X302460Y358696D02*
Y354697D01*
Y356696D01*
X303459Y357696D01*
X304459Y358696D01*
X305459D01*
X309457Y354697D02*
X311457D01*
X312456Y355696D01*
Y357696D01*
X311457Y358696D01*
X309457D01*
X308458Y357696D01*
Y355696D01*
X309457Y354697D01*
X314456D02*
Y358696D01*
X315456D01*
X316455Y357696D01*
Y354697D01*
Y357696D01*
X317455Y358696D01*
X318455Y357696D01*
Y354697D01*
X327452Y359695D02*
Y358696D01*
X326452D01*
X328451D01*
X327452D01*
Y355696D01*
X328451Y354697D01*
X332450D02*
X334449D01*
X335449Y355696D01*
Y357696D01*
X334449Y358696D01*
X332450D01*
X331450Y357696D01*
Y355696D01*
X332450Y354697D01*
X338448D02*
X340447D01*
X341447Y355696D01*
Y357696D01*
X340447Y358696D01*
X338448D01*
X337448Y357696D01*
Y355696D01*
X338448Y354697D01*
X343446D02*
X345446D01*
X344446D01*
Y360695D01*
X343446D01*
X354443Y354697D02*
X357442D01*
X358442Y355696D01*
X357442Y356696D01*
X355443D01*
X354443Y357696D01*
X355443Y358696D01*
X358442D01*
X361441Y359695D02*
Y358696D01*
X360441D01*
X362440D01*
X361441D01*
Y355696D01*
X362440Y354697D01*
X366439Y358696D02*
X368438D01*
X369438Y357696D01*
Y354697D01*
X366439D01*
X365439Y355696D01*
X366439Y356696D01*
X369438D01*
X371437Y358696D02*
Y354697D01*
Y356696D01*
X372437Y357696D01*
X373437Y358696D01*
X374436D01*
X378435Y359695D02*
Y358696D01*
X377435D01*
X379435D01*
X378435D01*
Y355696D01*
X379435Y354697D01*
X392431Y358696D02*
X389432D01*
X388432Y357696D01*
Y355696D01*
X389432Y354697D01*
X392431D01*
X397429D02*
X395430D01*
X394430Y355696D01*
Y357696D01*
X395430Y358696D01*
X397429D01*
X398429Y357696D01*
Y356696D01*
X394430D01*
X400428Y354697D02*
Y358696D01*
X403427D01*
X404427Y357696D01*
Y354697D01*
X407426Y359695D02*
Y358696D01*
X406426D01*
X408426D01*
X407426D01*
Y355696D01*
X408426Y354697D01*
X411424Y358696D02*
Y354697D01*
Y356696D01*
X412424Y357696D01*
X413424Y358696D01*
X414424D01*
X420422Y354697D02*
X418422D01*
X417422Y355696D01*
Y357696D01*
X418422Y358696D01*
X420422D01*
X421421Y357696D01*
Y356696D01*
X417422D01*
X429419Y352697D02*
Y358696D01*
X432418D01*
X433417Y357696D01*
Y355696D01*
X432418Y354697D01*
X429419D01*
X436416D02*
X438416D01*
X439415Y355696D01*
Y357696D01*
X438416Y358696D01*
X436416D01*
X435417Y357696D01*
Y355696D01*
X436416Y354697D01*
X441415D02*
X444414D01*
X445413Y355696D01*
X444414Y356696D01*
X442415D01*
X441415Y357696D01*
X442415Y358696D01*
X445413D01*
X447413Y354697D02*
X449412D01*
X448413D01*
Y358696D01*
X447413D01*
X453411Y359695D02*
Y358696D01*
X452411D01*
X454411D01*
X453411D01*
Y355696D01*
X454411Y354697D01*
X457410D02*
X459409D01*
X458409D01*
Y358696D01*
X457410D01*
X463408Y354697D02*
X465407D01*
X466407Y355696D01*
Y357696D01*
X465407Y358696D01*
X463408D01*
X462408Y357696D01*
Y355696D01*
X463408Y354697D01*
X468406D02*
Y358696D01*
X471405D01*
X472405Y357696D01*
Y354697D01*
X481402Y359695D02*
Y358696D01*
X480402D01*
X482402D01*
X481402D01*
Y355696D01*
X482402Y354697D01*
X486400D02*
X488400D01*
X489399Y355696D01*
Y357696D01*
X488400Y358696D01*
X486400D01*
X485401Y357696D01*
Y355696D01*
X486400Y354697D01*
X498396Y359695D02*
Y358696D01*
X497397D01*
X499396D01*
X498396D01*
Y355696D01*
X499396Y354697D01*
X503395D02*
X505394D01*
X506394Y355696D01*
Y357696D01*
X505394Y358696D01*
X503395D01*
X502395Y357696D01*
Y355696D01*
X503395Y354697D01*
X509393D02*
X511392D01*
X512392Y355696D01*
Y357696D01*
X511392Y358696D01*
X509393D01*
X508393Y357696D01*
Y355696D01*
X509393Y354697D01*
X514391D02*
X516391D01*
X515391D01*
Y360695D01*
X514391D01*
X528387Y354697D02*
X526387D01*
X525388Y355696D01*
Y357696D01*
X526387Y358696D01*
X528387D01*
X529386Y357696D01*
Y356696D01*
X525388D01*
X531386Y354697D02*
Y358696D01*
X534385D01*
X535384Y357696D01*
Y354697D01*
X541382Y360695D02*
Y354697D01*
X538383D01*
X537384Y355696D01*
Y357696D01*
X538383Y358696D01*
X541382D01*
X553379D02*
X550380D01*
X549380Y357696D01*
Y355696D01*
X550380Y354697D01*
X553379D01*
X558377D02*
X556378D01*
X555378Y355696D01*
Y357696D01*
X556378Y358696D01*
X558377D01*
X559377Y357696D01*
Y356696D01*
X555378D01*
X561376Y354697D02*
Y358696D01*
X564375D01*
X565375Y357696D01*
Y354697D01*
X568374Y359695D02*
Y358696D01*
X567374D01*
X569373D01*
X568374D01*
Y355696D01*
X569373Y354697D01*
X572372Y358696D02*
Y354697D01*
Y356696D01*
X573372Y357696D01*
X574372Y358696D01*
X575371D01*
X581369Y354697D02*
X579370D01*
X578371Y355696D01*
Y357696D01*
X579370Y358696D01*
X581369D01*
X582369Y357696D01*
Y356696D01*
X578371D01*
X590367Y352697D02*
Y358696D01*
X593366D01*
X594365Y357696D01*
Y355696D01*
X593366Y354697D01*
X590367D01*
X597364D02*
X599364D01*
X600363Y355696D01*
Y357696D01*
X599364Y358696D01*
X597364D01*
X596365Y357696D01*
Y355696D01*
X597364Y354697D01*
X602363D02*
X605362D01*
X606361Y355696D01*
X605362Y356696D01*
X603362D01*
X602363Y357696D01*
X603362Y358696D01*
X606361D01*
X608361Y354697D02*
X610360D01*
X609361D01*
Y358696D01*
X608361D01*
X614359Y359695D02*
Y358696D01*
X613359D01*
X615358D01*
X614359D01*
Y355696D01*
X615358Y354697D01*
X618358D02*
X620357D01*
X619357D01*
Y358696D01*
X618358D01*
X624356Y354697D02*
X626355D01*
X627355Y355696D01*
Y357696D01*
X626355Y358696D01*
X624356D01*
X623356Y357696D01*
Y355696D01*
X624356Y354697D01*
X629354D02*
Y358696D01*
X632353D01*
X633353Y357696D01*
Y354697D01*
X635352D02*
Y355696D01*
X636352D01*
Y354697D01*
X635352D01*
D136*
X-50Y559694D02*
X1352768D01*
X-50Y379694D02*
X1352768D01*
X-50Y364694D02*
X1352768D01*
Y574694D01*
X-50D02*
X1352768D01*
X-50Y364694D02*
Y574694D01*
X1212508Y364694D02*
Y574694D01*
X1103540Y364694D02*
Y574694D01*
X970179Y364694D02*
Y574694D01*
X836819Y364694D02*
Y574694D01*
X751442Y364694D02*
Y574694D01*
X637476Y364694D02*
Y574694D01*
X562896Y364694D02*
Y574694D01*
X503911Y364694D02*
Y574694D01*
X353956Y364694D02*
Y574694D01*
X280576Y364694D02*
Y574694D01*
X229988Y364694D02*
Y574694D01*
X115022Y364694D02*
Y574694D01*
X55038Y364694D02*
Y574694D01*
D177*
X1217008Y564194D02*
Y571392D01*
X1220607D01*
X1221807Y570192D01*
Y567793D01*
X1220607Y566593D01*
X1217008D01*
X1219408D02*
X1221807Y564194D01*
X1225406D02*
X1227805D01*
X1229005Y565394D01*
Y567793D01*
X1227805Y568993D01*
X1225406D01*
X1224206Y567793D01*
Y565394D01*
X1225406Y564194D01*
X1231404Y568993D02*
Y565394D01*
X1232603Y564194D01*
X1236202D01*
Y568993D01*
X1239801Y570192D02*
Y568993D01*
X1238601D01*
X1241001D01*
X1239801D01*
Y565394D01*
X1241001Y564194D01*
X1248198D02*
X1245799D01*
X1244600Y565394D01*
Y567793D01*
X1245799Y568993D01*
X1248198D01*
X1249398Y567793D01*
Y566593D01*
X1244600D01*
X1256596Y571392D02*
Y564194D01*
X1252997D01*
X1251797Y565394D01*
Y567793D01*
X1252997Y568993D01*
X1256596D01*
X1266193Y564194D02*
Y571392D01*
X1269791D01*
X1270991Y570192D01*
Y567793D01*
X1269791Y566593D01*
X1266193D01*
X1274590Y568993D02*
X1276989D01*
X1278189Y567793D01*
Y564194D01*
X1274590D01*
X1273390Y565394D01*
X1274590Y566593D01*
X1278189D01*
X1281787Y570192D02*
Y568993D01*
X1280588D01*
X1282987D01*
X1281787D01*
Y565394D01*
X1282987Y564194D01*
X1286586Y571392D02*
Y564194D01*
Y567793D01*
X1287786Y568993D01*
X1290185D01*
X1291384Y567793D01*
Y564194D01*
X1300981Y571392D02*
Y564194D01*
X1305780D01*
X1311778D02*
X1309379D01*
X1308179Y565394D01*
Y567793D01*
X1309379Y568993D01*
X1311778D01*
X1312977Y567793D01*
Y566593D01*
X1308179D01*
X1315377Y564194D02*
Y568993D01*
X1318975D01*
X1320175Y567793D01*
Y564194D01*
X1324973Y561795D02*
X1326173D01*
X1327373Y562995D01*
Y568993D01*
X1323774D01*
X1322574Y567793D01*
Y565394D01*
X1323774Y564194D01*
X1327373D01*
X1330972Y570192D02*
Y568993D01*
X1329772D01*
X1332171D01*
X1330972D01*
Y565394D01*
X1332171Y564194D01*
X1335770Y571392D02*
Y564194D01*
Y567793D01*
X1336970Y568993D01*
X1339369D01*
X1340568Y567793D01*
Y564194D01*
X1108040Y571392D02*
Y564194D01*
Y567793D01*
X1112839D01*
Y571392D01*
Y564194D01*
X1116437D02*
X1118837D01*
X1120036Y565394D01*
Y567793D01*
X1118837Y568993D01*
X1116437D01*
X1115238Y567793D01*
Y565394D01*
X1116437Y564194D01*
X1122435D02*
X1124835D01*
X1123635D01*
Y571392D01*
X1122435D01*
X1132032Y564194D02*
X1129633D01*
X1128434Y565394D01*
Y567793D01*
X1129633Y568993D01*
X1132032D01*
X1133232Y567793D01*
Y566593D01*
X1128434D01*
X1142829Y571392D02*
Y564194D01*
X1147627D01*
X1153625D02*
X1151226D01*
X1150027Y565394D01*
Y567793D01*
X1151226Y568993D01*
X1153625D01*
X1154825Y567793D01*
Y566593D01*
X1150027D01*
X1157224Y564194D02*
Y568993D01*
X1160823D01*
X1162023Y567793D01*
Y564194D01*
X1166821Y561795D02*
X1168021D01*
X1169220Y562995D01*
Y568993D01*
X1165621D01*
X1164422Y567793D01*
Y565394D01*
X1165621Y564194D01*
X1169220D01*
X1172819Y570192D02*
Y568993D01*
X1171620D01*
X1174019D01*
X1172819D01*
Y565394D01*
X1174019Y564194D01*
X1177618Y571392D02*
Y564194D01*
Y567793D01*
X1178817Y568993D01*
X1181217D01*
X1182416Y567793D01*
Y564194D01*
X974679Y571392D02*
Y564194D01*
Y567793D01*
X979478D01*
Y571392D01*
Y564194D01*
X983077D02*
X985476D01*
X986675Y565394D01*
Y567793D01*
X985476Y568993D01*
X983077D01*
X981877Y567793D01*
Y565394D01*
X983077Y564194D01*
X989075D02*
X991474D01*
X990274D01*
Y571392D01*
X989075D01*
X998672Y564194D02*
X996272D01*
X995073Y565394D01*
Y567793D01*
X996272Y568993D01*
X998672D01*
X999871Y567793D01*
Y566593D01*
X995073D01*
X1009468Y571392D02*
X1014266D01*
X1011867D01*
Y564194D01*
X1017865D02*
X1020265D01*
X1021464Y565394D01*
Y567793D01*
X1020265Y568993D01*
X1017865D01*
X1016666Y567793D01*
Y565394D01*
X1017865Y564194D01*
X1023863D02*
X1026263D01*
X1025063D01*
Y571392D01*
X1023863D01*
X1033460Y564194D02*
X1031061D01*
X1029862Y565394D01*
Y567793D01*
X1031061Y568993D01*
X1033460D01*
X1034660Y567793D01*
Y566593D01*
X1029862D01*
X1037059Y568993D02*
Y564194D01*
Y566593D01*
X1038259Y567793D01*
X1039458Y568993D01*
X1040658D01*
X1045457D02*
X1047856D01*
X1049055Y567793D01*
Y564194D01*
X1045457D01*
X1044257Y565394D01*
X1045457Y566593D01*
X1049055D01*
X1051455Y564194D02*
Y568993D01*
X1055053D01*
X1056253Y567793D01*
Y564194D01*
X1063451Y568993D02*
X1059852D01*
X1058652Y567793D01*
Y565394D01*
X1059852Y564194D01*
X1063451D01*
X1069449D02*
X1067050D01*
X1065850Y565394D01*
Y567793D01*
X1067050Y568993D01*
X1069449D01*
X1070648Y567793D01*
Y566593D01*
X1065850D01*
X1082644Y564194D02*
X1080245Y566593D01*
Y568993D01*
X1082644Y571392D01*
X1086243Y567793D02*
X1091042D01*
X1093441Y564194D02*
X1095840Y566593D01*
Y568993D01*
X1093441Y571392D01*
X841319D02*
Y564194D01*
Y567793D01*
X846117D01*
Y571392D01*
Y564194D01*
X849716D02*
X852115D01*
X853315Y565394D01*
Y567793D01*
X852115Y568993D01*
X849716D01*
X848516Y567793D01*
Y565394D01*
X849716Y564194D01*
X855714D02*
X858113D01*
X856913D01*
Y571392D01*
X855714D01*
X865311Y564194D02*
X862912D01*
X861712Y565394D01*
Y567793D01*
X862912Y568993D01*
X865311D01*
X866510Y567793D01*
Y566593D01*
X861712D01*
X876107Y571392D02*
X880906D01*
X878506D01*
Y564194D01*
X884505D02*
X886904D01*
X888103Y565394D01*
Y567793D01*
X886904Y568993D01*
X884505D01*
X883305Y567793D01*
Y565394D01*
X884505Y564194D01*
X890503D02*
X892902D01*
X891702D01*
Y571392D01*
X890503D01*
X900100Y564194D02*
X897700D01*
X896501Y565394D01*
Y567793D01*
X897700Y568993D01*
X900100D01*
X901299Y567793D01*
Y566593D01*
X896501D01*
X903698Y568993D02*
Y564194D01*
Y566593D01*
X904898Y567793D01*
X906098Y568993D01*
X907297D01*
X912096D02*
X914495D01*
X915695Y567793D01*
Y564194D01*
X912096D01*
X910896Y565394D01*
X912096Y566593D01*
X915695D01*
X918094Y564194D02*
Y568993D01*
X921693D01*
X922892Y567793D01*
Y564194D01*
X930090Y568993D02*
X926491D01*
X925291Y567793D01*
Y565394D01*
X926491Y564194D01*
X930090D01*
X936088D02*
X933689D01*
X932489Y565394D01*
Y567793D01*
X933689Y568993D01*
X936088D01*
X937288Y567793D01*
Y566593D01*
X932489D01*
X949284Y564194D02*
X946884Y566593D01*
Y568993D01*
X949284Y571392D01*
X952882Y567793D02*
X957681D01*
X955282Y570192D02*
Y565394D01*
X960080Y564194D02*
X962479Y566593D01*
Y568993D01*
X960080Y571392D01*
X755942D02*
Y564194D01*
X759541D01*
X760741Y565394D01*
Y570192D01*
X759541Y571392D01*
X755942D01*
X766739Y564194D02*
X764339D01*
X763140Y565394D01*
Y567793D01*
X764339Y568993D01*
X766739D01*
X767938Y567793D01*
Y566593D01*
X763140D01*
X770338Y564194D02*
X773936D01*
X775136Y565394D01*
X773936Y566593D01*
X771537D01*
X770338Y567793D01*
X771537Y568993D01*
X775136D01*
X782334D02*
X778735D01*
X777535Y567793D01*
Y565394D01*
X778735Y564194D01*
X782334D01*
X784733Y568993D02*
Y564194D01*
Y566593D01*
X785932Y567793D01*
X787132Y568993D01*
X788332D01*
X791931Y564194D02*
X794330D01*
X793130D01*
Y568993D01*
X791931D01*
X797929Y561795D02*
Y568993D01*
X801528D01*
X802727Y567793D01*
Y565394D01*
X801528Y564194D01*
X797929D01*
X806326Y570192D02*
Y568993D01*
X805126D01*
X807526D01*
X806326D01*
Y565394D01*
X807526Y564194D01*
X811124D02*
X813524D01*
X812324D01*
Y568993D01*
X811124D01*
X818322Y564194D02*
X820721D01*
X821921Y565394D01*
Y567793D01*
X820721Y568993D01*
X818322D01*
X817122Y567793D01*
Y565394D01*
X818322Y564194D01*
X824320D02*
Y568993D01*
X827919D01*
X829119Y567793D01*
Y564194D01*
X641976Y571392D02*
X646774D01*
X644375D01*
Y564194D01*
X652772D02*
X650373D01*
X649173Y565394D01*
Y567793D01*
X650373Y568993D01*
X652772D01*
X653972Y567793D01*
Y566593D01*
X649173D01*
X656371Y564194D02*
Y568993D01*
X657571D01*
X658770Y567793D01*
Y564194D01*
Y567793D01*
X659970Y568993D01*
X661169Y567793D01*
Y564194D01*
X663569Y561795D02*
Y568993D01*
X667167D01*
X668367Y567793D01*
Y565394D01*
X667167Y564194D01*
X663569D01*
X670766D02*
X673166D01*
X671966D01*
Y571392D01*
X670766D01*
X677964Y568993D02*
X680363D01*
X681563Y567793D01*
Y564194D01*
X677964D01*
X676764Y565394D01*
X677964Y566593D01*
X681563D01*
X685162Y570192D02*
Y568993D01*
X683962D01*
X686361D01*
X685162D01*
Y565394D01*
X686361Y564194D01*
X693559D02*
X691160D01*
X689960Y565394D01*
Y567793D01*
X691160Y568993D01*
X693559D01*
X694759Y567793D01*
Y566593D01*
X689960D01*
X567396Y564194D02*
Y571392D01*
X570995D01*
X572194Y570192D01*
Y567793D01*
X570995Y566593D01*
X567396D01*
X575793Y568993D02*
X578192D01*
X579392Y567793D01*
Y564194D01*
X575793D01*
X574593Y565394D01*
X575793Y566593D01*
X579392D01*
X586589Y571392D02*
Y564194D01*
X582991D01*
X581791Y565394D01*
Y567793D01*
X582991Y568993D01*
X586589D01*
X600985Y570192D02*
X599785Y571392D01*
X597386D01*
X596186Y570192D01*
Y568993D01*
X597386Y567793D01*
X599785D01*
X600985Y566593D01*
Y565394D01*
X599785Y564194D01*
X597386D01*
X596186Y565394D01*
X603384Y571392D02*
Y564194D01*
Y567793D01*
X604584Y568993D01*
X606983D01*
X608183Y567793D01*
Y564194D01*
X611781Y568993D02*
X614181D01*
X615380Y567793D01*
Y564194D01*
X611781D01*
X610582Y565394D01*
X611781Y566593D01*
X615380D01*
X617779Y561795D02*
Y568993D01*
X621378D01*
X622578Y567793D01*
Y565394D01*
X621378Y564194D01*
X617779D01*
X628576D02*
X626177D01*
X624977Y565394D01*
Y567793D01*
X626177Y568993D01*
X628576D01*
X629776Y567793D01*
Y566593D01*
X624977D01*
X508411Y571392D02*
Y566593D01*
X510810Y564194D01*
X513209Y566593D01*
Y571392D01*
X515609Y564194D02*
X518008D01*
X516808D01*
Y568993D01*
X515609D01*
X522806D02*
X525206D01*
X526405Y567793D01*
Y564194D01*
X522806D01*
X521607Y565394D01*
X522806Y566593D01*
X526405D01*
X528804Y564194D02*
X533603Y568993D01*
X536002Y564194D02*
Y571392D01*
X539601D01*
X540800Y570192D01*
Y567793D01*
X539601Y566593D01*
X536002D01*
X544399Y568993D02*
X546799D01*
X547998Y567793D01*
Y564194D01*
X544399D01*
X543200Y565394D01*
X544399Y566593D01*
X547998D01*
X555196Y571392D02*
Y564194D01*
X551597D01*
X550397Y565394D01*
Y567793D01*
X551597Y568993D01*
X555196D01*
X358456Y571392D02*
Y564194D01*
X362055D01*
X363254Y565394D01*
Y570192D01*
X362055Y571392D01*
X358456D01*
X365653Y568993D02*
Y564194D01*
Y566593D01*
X366853Y567793D01*
X368053Y568993D01*
X369252D01*
X372851Y564194D02*
X375250D01*
X374051D01*
Y568993D01*
X372851D01*
X378849Y564194D02*
X381248D01*
X380049D01*
Y571392D01*
X378849D01*
X384847Y564194D02*
X387246D01*
X386047D01*
Y571392D01*
X384847D01*
X398043D02*
Y564194D01*
X402842D01*
X406440Y568993D02*
X408840D01*
X410039Y567793D01*
Y564194D01*
X406440D01*
X405241Y565394D01*
X406440Y566593D01*
X410039D01*
X412438Y568993D02*
Y565394D01*
X413638Y564194D01*
X417237D01*
Y562995D01*
X416037Y561795D01*
X414838D01*
X417237Y564194D02*
Y568993D01*
X423235Y564194D02*
X420836D01*
X419636Y565394D01*
Y567793D01*
X420836Y568993D01*
X423235D01*
X424435Y567793D01*
Y566593D01*
X419636D01*
X426834Y568993D02*
Y564194D01*
Y566593D01*
X428033Y567793D01*
X429233Y568993D01*
X430433D01*
X441229Y564194D02*
Y571392D01*
X444828D01*
X446028Y570192D01*
Y567793D01*
X444828Y566593D01*
X441229D01*
X449626Y568993D02*
X452026D01*
X453225Y567793D01*
Y564194D01*
X449626D01*
X448427Y565394D01*
X449626Y566593D01*
X453225D01*
X455624Y564194D02*
X458024D01*
X456824D01*
Y568993D01*
X455624D01*
X461622D02*
Y564194D01*
Y566593D01*
X462822Y567793D01*
X464022Y568993D01*
X465221D01*
X285076Y571392D02*
Y564194D01*
Y567793D01*
X289874D01*
Y571392D01*
Y564194D01*
X293473D02*
X295872D01*
X297072Y565394D01*
Y567793D01*
X295872Y568993D01*
X293473D01*
X292273Y567793D01*
Y565394D01*
X293473Y564194D01*
X299471D02*
X301870D01*
X300671D01*
Y571392D01*
X299471D01*
X309068Y564194D02*
X306669D01*
X305469Y565394D01*
Y567793D01*
X306669Y568993D01*
X309068D01*
X310267Y567793D01*
Y566593D01*
X305469D01*
X319864Y571392D02*
X324663D01*
X322264D01*
Y564194D01*
X327062Y568993D02*
Y565394D01*
X328262Y564194D01*
X331860D01*
Y562995D01*
X330661Y561795D01*
X329461D01*
X331860Y564194D02*
Y568993D01*
X334260Y561795D02*
Y568993D01*
X337859D01*
X339058Y567793D01*
Y565394D01*
X337859Y564194D01*
X334260D01*
X345056D02*
X342657D01*
X341457Y565394D01*
Y567793D01*
X342657Y568993D01*
X345056D01*
X346256Y567793D01*
Y566593D01*
X341457D01*
X234488Y564194D02*
Y571392D01*
X238087D01*
X239286Y570192D01*
Y567793D01*
X238087Y566593D01*
X234488D01*
X241686Y564194D02*
X244085D01*
X242885D01*
Y571392D01*
X241686D01*
X248883Y568993D02*
X251283D01*
X252482Y567793D01*
Y564194D01*
X248883D01*
X247684Y565394D01*
X248883Y566593D01*
X252482D01*
X256081Y570192D02*
Y568993D01*
X254882D01*
X257281D01*
X256081D01*
Y565394D01*
X257281Y564194D01*
X264478D02*
X262079D01*
X260879Y565394D01*
Y567793D01*
X262079Y568993D01*
X264478D01*
X265678Y567793D01*
Y566593D01*
X260879D01*
X272876Y571392D02*
Y564194D01*
X269277D01*
X268077Y565394D01*
Y567793D01*
X269277Y568993D01*
X272876D01*
X119522Y571392D02*
Y564194D01*
Y567793D01*
X124320D01*
Y571392D01*
Y564194D01*
X127919D02*
X130318D01*
X131518Y565394D01*
Y567793D01*
X130318Y568993D01*
X127919D01*
X126719Y567793D01*
Y565394D01*
X127919Y564194D01*
X133917D02*
X136316D01*
X135117D01*
Y571392D01*
X133917D01*
X143514Y564194D02*
X141115D01*
X139915Y565394D01*
Y567793D01*
X141115Y568993D01*
X143514D01*
X144714Y567793D01*
Y566593D01*
X139915D01*
X159109Y570192D02*
X157909Y571392D01*
X155510D01*
X154311Y570192D01*
Y568993D01*
X155510Y567793D01*
X157909D01*
X159109Y566593D01*
Y565394D01*
X157909Y564194D01*
X155510D01*
X154311Y565394D01*
X161508Y564194D02*
X163907D01*
X162708D01*
Y568993D01*
X161508D01*
X167506D02*
X172305D01*
X167506Y564194D01*
X172305D01*
X178303D02*
X175903D01*
X174704Y565394D01*
Y567793D01*
X175903Y568993D01*
X178303D01*
X179502Y567793D01*
Y566593D01*
X174704D01*
X64336Y570192D02*
X63136Y571392D01*
X60737D01*
X59538Y570192D01*
Y565394D01*
X60737Y564194D01*
X63136D01*
X64336Y565394D01*
X67935Y564194D02*
X70334D01*
X71534Y565394D01*
Y567793D01*
X70334Y568993D01*
X67935D01*
X66735Y567793D01*
Y565394D01*
X67935Y564194D01*
X73933Y568993D02*
Y565394D01*
X75133Y564194D01*
X78731D01*
Y568993D01*
X81131Y564194D02*
Y568993D01*
X84729D01*
X85929Y567793D01*
Y564194D01*
X89528Y570192D02*
Y568993D01*
X88328D01*
X90728D01*
X89528D01*
Y565394D01*
X90728Y564194D01*
X13748Y570192D02*
X12549Y571392D01*
X10150D01*
X8950Y570192D01*
Y568993D01*
X10150Y567793D01*
X12549D01*
X13748Y566593D01*
Y565394D01*
X12549Y564194D01*
X10150D01*
X8950Y565394D01*
X16148Y568993D02*
Y565394D01*
X17347Y564194D01*
X20946D01*
Y562995D01*
X19747Y561795D01*
X18547D01*
X20946Y564194D02*
Y568993D01*
X23345Y564194D02*
Y568993D01*
X24545D01*
X25745Y567793D01*
Y564194D01*
Y567793D01*
X26944Y568993D01*
X28144Y567793D01*
Y564194D01*
X30543Y571392D02*
Y564194D01*
X34142D01*
X35342Y565394D01*
Y566593D01*
Y567793D01*
X34142Y568993D01*
X30543D01*
X38940Y564194D02*
X41339D01*
X42539Y565394D01*
Y567793D01*
X41339Y568993D01*
X38940D01*
X37741Y567793D01*
Y565394D01*
X38940Y564194D01*
X44938D02*
X47338D01*
X46138D01*
Y571392D01*
X44938D01*
D178*
X112219Y350697D02*
Y344699D01*
Y347698D01*
X116218D01*
Y350697D01*
Y344699D01*
X119217D02*
X121216D01*
X122216Y345699D01*
Y347698D01*
X121216Y348698D01*
X119217D01*
X118217Y347698D01*
Y345699D01*
X119217Y344699D01*
X124215D02*
X126214D01*
X125215D01*
Y350697D01*
X124215D01*
X132212Y344699D02*
X130213D01*
X129213Y345699D01*
Y347698D01*
X130213Y348698D01*
X132212D01*
X133212Y347698D01*
Y346699D01*
X129213D01*
X141210Y350697D02*
Y344699D01*
X145208D01*
X150207D02*
X148207D01*
X147208Y345699D01*
Y347698D01*
X148207Y348698D01*
X150207D01*
X151206Y347698D01*
Y346699D01*
X147208D01*
X153206Y344699D02*
Y348698D01*
X156205D01*
X157204Y347698D01*
Y344699D01*
X161203Y342700D02*
X162203D01*
X163202Y343700D01*
Y348698D01*
X160203D01*
X159204Y347698D01*
Y345699D01*
X160203Y344699D01*
X163202D01*
X166201Y349698D02*
Y348698D01*
X165202D01*
X167201D01*
X166201D01*
Y345699D01*
X167201Y344699D01*
X170200Y350697D02*
Y344699D01*
Y347698D01*
X171200Y348698D01*
X173199D01*
X174199Y347698D01*
Y344699D01*
X112219Y354697D02*
Y360695D01*
X115218D01*
X116218Y359695D01*
Y357696D01*
X115218Y356696D01*
X112219D01*
X114218D02*
X116218Y354697D01*
X119217D02*
X121216D01*
X122216Y355696D01*
Y357696D01*
X121216Y358696D01*
X119217D01*
X118217Y357696D01*
Y355696D01*
X119217Y354697D01*
X124215Y358696D02*
Y355696D01*
X125215Y354697D01*
X128214D01*
Y358696D01*
X131213Y359695D02*
Y358696D01*
X130213D01*
X132212D01*
X131213D01*
Y355696D01*
X132212Y354697D01*
X138210D02*
X136211D01*
X135212Y355696D01*
Y357696D01*
X136211Y358696D01*
X138210D01*
X139210Y357696D01*
Y356696D01*
X135212D01*
X145208Y360695D02*
Y354697D01*
X142209D01*
X141210Y355696D01*
Y357696D01*
X142209Y358696D01*
X145208D01*
X153206Y354697D02*
Y360695D01*
X156205D01*
X157204Y359695D01*
Y357696D01*
X156205Y356696D01*
X153206D01*
X160203Y358696D02*
X162203D01*
X163202Y357696D01*
Y354697D01*
X160203D01*
X159204Y355696D01*
X160203Y356696D01*
X163202D01*
X166201Y359695D02*
Y358696D01*
X165202D01*
X167201D01*
X166201D01*
Y355696D01*
X167201Y354697D01*
X170200Y360695D02*
Y354697D01*
Y357696D01*
X171200Y358696D01*
X173199D01*
X174199Y357696D01*
Y354697D01*
X182196Y360695D02*
Y354697D01*
X186195D01*
X191193D02*
X189194D01*
X188194Y355696D01*
Y357696D01*
X189194Y358696D01*
X191193D01*
X192193Y357696D01*
Y356696D01*
X188194D01*
X194192Y354697D02*
Y358696D01*
X197192D01*
X198191Y357696D01*
Y354697D01*
X202190Y352697D02*
X203189D01*
X204189Y353697D01*
Y358696D01*
X201190D01*
X200190Y357696D01*
Y355696D01*
X201190Y354697D01*
X204189D01*
X207188Y359695D02*
Y358696D01*
X206189D01*
X208188D01*
X207188D01*
Y355696D01*
X208188Y354697D01*
X211187Y360695D02*
Y354697D01*
Y357696D01*
X212187Y358696D01*
X214186D01*
X215186Y357696D01*
Y354697D01*
X12949Y359695D02*
X11949Y360695D01*
X9950D01*
X8950Y359695D01*
Y358696D01*
X9950Y357696D01*
X11949D01*
X12949Y356696D01*
Y355696D01*
X11949Y354697D01*
X9950D01*
X8950Y355696D01*
X14948Y354697D02*
X16947D01*
X15948D01*
Y360695D01*
X14948D01*
X20946Y354697D02*
X22945D01*
X23945Y355696D01*
Y357696D01*
X22945Y358696D01*
X20946D01*
X19946Y357696D01*
Y355696D01*
X20946Y354697D01*
X26944Y359695D02*
Y358696D01*
X25945D01*
X27944D01*
X26944D01*
Y355696D01*
X27944Y354697D01*
X40940Y360695D02*
Y354697D01*
X37941D01*
X36941Y355696D01*
Y357696D01*
X37941Y358696D01*
X40940D01*
X45938Y354697D02*
X43939D01*
X42939Y355696D01*
Y357696D01*
X43939Y358696D01*
X45938D01*
X46938Y357696D01*
Y356696D01*
X42939D01*
X49937Y354697D02*
Y359695D01*
Y357696D01*
X48937D01*
X50936D01*
X49937D01*
Y359695D01*
X50936Y360695D01*
X53935Y354697D02*
X55935D01*
X54935D01*
Y358696D01*
X53935D01*
X58934Y354697D02*
Y358696D01*
X61933D01*
X62932Y357696D01*
Y354697D01*
X64932D02*
X66931D01*
X65932D01*
Y358696D01*
X64932D01*
X70930Y359695D02*
Y358696D01*
X69930D01*
X71930D01*
X70930D01*
Y355696D01*
X71930Y354697D01*
X74929D02*
X76928D01*
X75928D01*
Y358696D01*
X74929D01*
X80927Y354697D02*
X82926D01*
X83926Y355696D01*
Y357696D01*
X82926Y358696D01*
X80927D01*
X79927Y357696D01*
Y355696D01*
X80927Y354697D01*
X85925D02*
Y358696D01*
X88924D01*
X89924Y357696D01*
Y354697D01*
X91923D02*
X94922D01*
X95922Y355696D01*
X94922Y356696D01*
X92923D01*
X91923Y357696D01*
X92923Y358696D01*
X95922D01*
X103919D02*
X104919D01*
Y357696D01*
X103919D01*
Y358696D01*
Y355696D02*
X104919D01*
Y354697D01*
X103919D01*
Y355696D01*
M02*
