G04*
G04 #@! TF.GenerationSoftware,Altium Limited,Altium Designer,23.6.0 (18)*
G04*
G04 Layer_Color=8421504*
%FSLAX25Y25*%
%MOIN*%
G70*
G04*
G04 #@! TF.SameCoordinates,B1711246-A666-457E-9349-3D56B44E1F9A*
G04*
G04*
G04 #@! TF.FilePolarity,Positive*
G04*
G01*
G75*
%ADD34R,0.00906X0.01221*%
%ADD35R,0.04173X0.07165*%
%ADD36R,0.04921X0.01181*%
%ADD37R,0.09843X0.07874*%
%ADD38O,0.07087X0.03150*%
%ADD39R,0.02362X0.02126*%
%ADD40R,0.00787X0.03150*%
%ADD41R,0.03150X0.00787*%
%ADD42R,0.10630X0.10630*%
G04:AMPARAMS|DCode=43|XSize=17.72mil|YSize=13.78mil|CornerRadius=2.07mil|HoleSize=0mil|Usage=FLASHONLY|Rotation=0.000|XOffset=0mil|YOffset=0mil|HoleType=Round|Shape=RoundedRectangle|*
%AMROUNDEDRECTD43*
21,1,0.01772,0.00965,0,0,0.0*
21,1,0.01358,0.01378,0,0,0.0*
1,1,0.00413,0.00679,-0.00482*
1,1,0.00413,-0.00679,-0.00482*
1,1,0.00413,-0.00679,0.00482*
1,1,0.00413,0.00679,0.00482*
%
%ADD43ROUNDEDRECTD43*%
G04:AMPARAMS|DCode=44|XSize=17.72mil|YSize=13.78mil|CornerRadius=2.07mil|HoleSize=0mil|Usage=FLASHONLY|Rotation=90.000|XOffset=0mil|YOffset=0mil|HoleType=Round|Shape=RoundedRectangle|*
%AMROUNDEDRECTD44*
21,1,0.01772,0.00965,0,0,90.0*
21,1,0.01358,0.01378,0,0,90.0*
1,1,0.00413,0.00482,0.00679*
1,1,0.00413,0.00482,-0.00679*
1,1,0.00413,-0.00482,-0.00679*
1,1,0.00413,-0.00482,0.00679*
%
%ADD44ROUNDEDRECTD44*%
%ADD45R,0.01800X0.02500*%
%ADD46R,0.06299X0.13780*%
%ADD47R,0.03500X0.03000*%
%ADD48R,0.13780X0.09252*%
%ADD49R,0.03000X0.03500*%
%ADD50R,0.03228X0.03622*%
%ADD51R,0.05512X0.07165*%
%ADD52R,0.07874X0.03150*%
%ADD53R,0.03150X0.03150*%
%ADD54R,0.03150X0.03150*%
%ADD55R,0.06693X0.09843*%
%ADD56R,0.05906X0.02559*%
%ADD57R,0.01457X0.01063*%
%ADD58R,0.02500X0.01800*%
%ADD59R,0.01181X0.04724*%
%ADD60R,0.02362X0.04724*%
%ADD61R,0.14567X0.14567*%
%ADD62R,0.05906X0.03543*%
%ADD63R,0.03543X0.05906*%
%ADD64R,0.03228X0.06772*%
%ADD65R,0.02598X0.02165*%
%ADD66R,0.05906X0.06299*%
%ADD67R,0.06299X0.02756*%
%ADD68R,0.05906X0.04724*%
%ADD69R,0.08661X0.04724*%
G04:AMPARAMS|DCode=70|XSize=47.24mil|YSize=23.62mil|CornerRadius=2.95mil|HoleSize=0mil|Usage=FLASHONLY|Rotation=270.000|XOffset=0mil|YOffset=0mil|HoleType=Round|Shape=RoundedRectangle|*
%AMROUNDEDRECTD70*
21,1,0.04724,0.01772,0,0,270.0*
21,1,0.04134,0.02362,0,0,270.0*
1,1,0.00591,-0.00886,-0.02067*
1,1,0.00591,-0.00886,0.02067*
1,1,0.00591,0.00886,0.02067*
1,1,0.00591,0.00886,-0.02067*
%
%ADD70ROUNDEDRECTD70*%
%ADD71R,0.07480X0.10236*%
%ADD72R,0.09449X0.11024*%
%ADD73R,0.01968X0.03937*%
%ADD74R,0.08661X0.07087*%
%ADD75R,0.05118X0.01181*%
D34*
X28777Y30687D02*
D03*
X30352D02*
D03*
D35*
X18416Y26200D02*
D03*
X6384D02*
D03*
D36*
X243228Y102787D02*
D03*
Y104755D02*
D03*
Y106725D02*
D03*
Y108693D02*
D03*
Y110661D02*
D03*
Y112629D02*
D03*
D37*
X253366Y96134D02*
D03*
Y119283D02*
D03*
D38*
X259800Y213882D02*
D03*
Y218212D02*
D03*
Y222543D02*
D03*
Y226874D02*
D03*
Y231204D02*
D03*
Y235535D02*
D03*
Y239866D02*
D03*
Y244197D02*
D03*
Y248527D02*
D03*
X297685D02*
D03*
Y244197D02*
D03*
Y239866D02*
D03*
Y235535D02*
D03*
Y231204D02*
D03*
Y226874D02*
D03*
Y222543D02*
D03*
Y218212D02*
D03*
Y213882D02*
D03*
D39*
X249200Y240295D02*
D03*
Y243696D02*
D03*
D40*
X73774Y226654D02*
D03*
X72199D02*
D03*
X70624D02*
D03*
X69050D02*
D03*
X62750D02*
D03*
X67475D02*
D03*
X65900D02*
D03*
X64325D02*
D03*
X62750Y210906D02*
D03*
X64325D02*
D03*
X65900D02*
D03*
X67475D02*
D03*
X69050D02*
D03*
X70624D02*
D03*
X72199D02*
D03*
X73774D02*
D03*
D41*
X60388Y213268D02*
D03*
Y214843D02*
D03*
Y216418D02*
D03*
Y217993D02*
D03*
Y224292D02*
D03*
Y222717D02*
D03*
Y221143D02*
D03*
Y219568D02*
D03*
X76136Y213268D02*
D03*
Y214843D02*
D03*
Y216418D02*
D03*
Y217993D02*
D03*
Y224292D02*
D03*
Y222717D02*
D03*
Y221143D02*
D03*
Y219568D02*
D03*
D42*
X68262Y218780D02*
D03*
D43*
X159162Y130786D02*
D03*
Y128818D02*
D03*
Y132755D02*
D03*
Y126849D02*
D03*
X165186Y132755D02*
D03*
Y130786D02*
D03*
Y128818D02*
D03*
Y126849D02*
D03*
D44*
X161190Y132814D02*
D03*
X163158D02*
D03*
Y126790D02*
D03*
X161131D02*
D03*
D45*
X81700Y197732D02*
D03*
X85400D02*
D03*
X52250Y52200D02*
D03*
X48550D02*
D03*
X73500Y16385D02*
D03*
X69800D02*
D03*
X278930Y20100D02*
D03*
X282630D02*
D03*
X85400Y205632D02*
D03*
X81700D02*
D03*
X60625Y233036D02*
D03*
X64325D02*
D03*
X75899D02*
D03*
X72199D02*
D03*
X88236Y155883D02*
D03*
X84536D02*
D03*
X88236Y151158D02*
D03*
X84536D02*
D03*
X327353Y195000D02*
D03*
X331053D02*
D03*
X3594D02*
D03*
X7294D02*
D03*
D46*
X35100Y243190D02*
D03*
Y221143D02*
D03*
X14700Y50976D02*
D03*
Y73024D02*
D03*
X111800Y113924D02*
D03*
Y91876D02*
D03*
X102600Y243190D02*
D03*
Y221143D02*
D03*
X63100Y117144D02*
D03*
Y95097D02*
D03*
D47*
X164300Y180900D02*
D03*
Y186900D02*
D03*
X158900Y180900D02*
D03*
Y186900D02*
D03*
X152600Y160469D02*
D03*
Y154469D02*
D03*
X169750Y186900D02*
D03*
Y180900D02*
D03*
X312900Y235535D02*
D03*
Y229535D02*
D03*
X307100Y235535D02*
D03*
Y229535D02*
D03*
X217100Y10321D02*
D03*
Y4321D02*
D03*
X211700Y10321D02*
D03*
Y4321D02*
D03*
X85400Y227143D02*
D03*
Y221143D02*
D03*
X62750Y195032D02*
D03*
Y201032D02*
D03*
X85400Y216418D02*
D03*
Y210418D02*
D03*
X46300Y218000D02*
D03*
Y212000D02*
D03*
X51200Y218000D02*
D03*
Y224000D02*
D03*
X70240Y136521D02*
D03*
Y130520D02*
D03*
X61300Y162718D02*
D03*
Y168718D02*
D03*
X55250Y162718D02*
D03*
Y168718D02*
D03*
D48*
X90900Y78900D02*
D03*
Y55081D02*
D03*
D49*
X257900Y37507D02*
D03*
X251900D02*
D03*
X257900Y27079D02*
D03*
X251900D02*
D03*
X257900Y43417D02*
D03*
X251900D02*
D03*
X257900Y65465D02*
D03*
X251900D02*
D03*
X257900Y59556D02*
D03*
X251900D02*
D03*
X159800Y154886D02*
D03*
X165800D02*
D03*
X69800Y21106D02*
D03*
X75800D02*
D03*
X234600Y14220D02*
D03*
X228600D02*
D03*
X100361D02*
D03*
X106361D02*
D03*
X155961Y82320D02*
D03*
X149961D02*
D03*
X138961D02*
D03*
X144961D02*
D03*
X283780Y15100D02*
D03*
X277780D02*
D03*
X251900Y49031D02*
D03*
X245900D02*
D03*
X251900Y54131D02*
D03*
X245900D02*
D03*
X145104Y226688D02*
D03*
X151104D02*
D03*
X145104Y221388D02*
D03*
X151104D02*
D03*
X183212Y221369D02*
D03*
X189212D02*
D03*
X183212Y226669D02*
D03*
X189212D02*
D03*
X51900Y201732D02*
D03*
X57900D02*
D03*
X51900Y206732D02*
D03*
X57900D02*
D03*
X64900Y130520D02*
D03*
X58900D02*
D03*
X81600Y136000D02*
D03*
X75600D02*
D03*
X58900Y136021D02*
D03*
X64900D02*
D03*
X165186Y143600D02*
D03*
X171186D02*
D03*
X165186Y138586D02*
D03*
X171186D02*
D03*
X147070Y130786D02*
D03*
X153070D02*
D03*
D50*
X166540Y160469D02*
D03*
X159060D02*
D03*
X162800Y168343D02*
D03*
D51*
X7046Y36800D02*
D03*
X17754D02*
D03*
D52*
X235882Y253644D02*
D03*
Y243408D02*
D03*
D53*
X230764Y248526D02*
D03*
D54*
X241000Y248527D02*
D03*
D55*
X68600Y75274D02*
D03*
Y59526D02*
D03*
X90900Y107948D02*
D03*
Y92200D02*
D03*
D56*
X54330Y57766D02*
D03*
Y62766D02*
D03*
Y67766D02*
D03*
Y72766D02*
D03*
X33070D02*
D03*
Y67766D02*
D03*
Y62766D02*
D03*
Y57766D02*
D03*
D57*
X41080Y31800D02*
D03*
Y33965D02*
D03*
X54269Y31800D02*
D03*
Y33965D02*
D03*
D58*
X45472Y31850D02*
D03*
Y35550D02*
D03*
X50000Y31850D02*
D03*
Y35550D02*
D03*
X61300Y150850D02*
D03*
Y147150D02*
D03*
D59*
X40490Y23350D02*
D03*
X42458D02*
D03*
X44427D02*
D03*
X46395D02*
D03*
X54269D02*
D03*
X52301D02*
D03*
X50332D02*
D03*
X48364D02*
D03*
D60*
X34781D02*
D03*
X59978D02*
D03*
X37931D02*
D03*
X56828D02*
D03*
D61*
X173386Y35320D02*
D03*
D62*
X133032Y70320D02*
D03*
X201929Y5320D02*
D03*
Y10321D02*
D03*
Y15321D02*
D03*
Y20321D02*
D03*
Y25321D02*
D03*
Y30321D02*
D03*
Y35320D02*
D03*
Y40321D02*
D03*
Y45320D02*
D03*
Y50321D02*
D03*
Y55321D02*
D03*
Y60321D02*
D03*
Y65320D02*
D03*
Y70320D02*
D03*
X133032Y65320D02*
D03*
Y60321D02*
D03*
Y55321D02*
D03*
Y50321D02*
D03*
Y45320D02*
D03*
Y40321D02*
D03*
Y35320D02*
D03*
Y30321D02*
D03*
Y25321D02*
D03*
Y20321D02*
D03*
Y15321D02*
D03*
Y10321D02*
D03*
Y5320D02*
D03*
D63*
X194961Y75242D02*
D03*
X189961D02*
D03*
X184961D02*
D03*
X179961D02*
D03*
X174961D02*
D03*
X169961D02*
D03*
X164961D02*
D03*
X159961D02*
D03*
X154961D02*
D03*
X149961D02*
D03*
X144961D02*
D03*
X139961D02*
D03*
D64*
X224907Y5821D02*
D03*
X238293D02*
D03*
X110054D02*
D03*
X96668D02*
D03*
D65*
X265528Y34161D02*
D03*
Y37507D02*
D03*
Y46764D02*
D03*
Y43417D02*
D03*
Y30425D02*
D03*
Y27079D02*
D03*
Y56209D02*
D03*
Y59556D02*
D03*
Y68811D02*
D03*
Y65465D02*
D03*
D66*
X278930Y83181D02*
D03*
D67*
X274993Y34756D02*
D03*
Y39087D02*
D03*
Y43417D02*
D03*
Y47748D02*
D03*
Y52079D02*
D03*
Y56410D02*
D03*
Y60740D02*
D03*
Y65071D02*
D03*
Y30425D02*
D03*
D68*
X278930Y25701D02*
D03*
D69*
X316725Y86724D02*
D03*
Y25701D02*
D03*
D70*
X73980Y142891D02*
D03*
X70240D02*
D03*
X66500D02*
D03*
Y153521D02*
D03*
X70240D02*
D03*
X73980D02*
D03*
D71*
X72095Y169921D02*
D03*
X88236D02*
D03*
D72*
X102500Y173993D02*
D03*
Y155883D02*
D03*
D73*
X325147Y201200D02*
D03*
X331053D02*
D03*
X9500D02*
D03*
X3594D02*
D03*
D74*
X191598Y185666D02*
D03*
Y93934D02*
D03*
D75*
X178802Y178186D02*
D03*
Y176217D02*
D03*
Y174249D02*
D03*
Y172280D02*
D03*
Y170312D02*
D03*
Y168343D02*
D03*
Y166375D02*
D03*
Y164406D02*
D03*
Y162438D02*
D03*
Y160469D02*
D03*
Y158501D02*
D03*
Y156532D02*
D03*
Y154564D02*
D03*
Y152595D02*
D03*
Y150627D02*
D03*
Y148658D02*
D03*
Y146690D02*
D03*
Y144721D02*
D03*
Y142753D02*
D03*
Y140784D02*
D03*
Y138816D02*
D03*
Y136847D02*
D03*
Y134879D02*
D03*
Y132910D02*
D03*
Y130942D02*
D03*
Y128973D02*
D03*
Y127005D02*
D03*
Y125036D02*
D03*
Y123068D02*
D03*
Y121099D02*
D03*
Y119131D02*
D03*
Y117162D02*
D03*
Y115194D02*
D03*
Y113225D02*
D03*
Y111257D02*
D03*
Y109288D02*
D03*
Y107320D02*
D03*
Y105351D02*
D03*
Y103383D02*
D03*
Y101414D02*
D03*
M02*
