M48
;Layer_Color=9474304
;FILE_FORMAT=2:5
INCH,LZ
;TYPE=PLATED
T1F00S00C0.01181
T3F00S00C0.03543
T4F00S00C0.03937
T6F00S00C0.05118
T7F00S00C0.06299
;TYPE=NON_PLATED
T8F00S00C0.02441
T9F00S00C0.04016
T10F00S00C0.08268
T11F00S00C0.12598
%
T01
X01948Y0004321
X02077Y0015321
X02211Y0014245
X0224907Y001422
X02211Y0004321
X0237092Y0025321
X02371Y0030321
X02519Y00234
Y0040465
X02553Y0049
X0261738Y0046903
X0261714Y0043417
Y00323
X02883Y001535
X01828Y0029141
Y00415
X0163972
Y0029141
X0106361Y002582
X00958Y0033738
Y00371
X0069407Y0027477
X0060459
X00586Y0031769
Y0036502
X0036159Y003776
Y0031769
X00343Y0027477
X0042364Y0018494
Y00128
X0052659
X00336Y00151
Y001
X0027104
Y00151
X0030352Y0027477
X00205Y00693
Y00774
X00089
Y00693
X00389Y0072766
X0048501
X00628Y007155
Y007965
X00744
Y007155
X00566Y00967
Y01002
X00525
Y00967
X00573Y011342
Y012152
X00589Y01267
X007024
X00689Y012152
Y011342
X005525Y0136021
Y014382
X00613
X0074Y01476
X00806
Y0151741
Y0155883
X00771Y01618
X0091977Y0151158
X0085436Y0136
X01158Y01603
Y0165
Y01697
Y01744
Y0197732
Y0205632
X0148631Y01869
X01526Y01506
X0159162Y01436
X0171186Y014728
Y0160469
X0186419Y0164406
Y014728
X01882Y0125036
Y0108693
X01841Y0106693
Y01122
X0173354Y0117162
X0159987
X0149961Y0117845
X0144961
X015307Y0126367
X0165186Y0123658
X0155919Y008702
X0138961
X0138038Y0098178
X0140821Y0101402
X0134809
X0131809Y0098178
X01176Y0096253
Y0088153
X0106
Y0096253
X01426Y00553
X01463
X015
X0153639Y0055319
X0157239Y00553
X0160939
X0188189Y0060321
X0045472Y00522
X00389Y0057766
X005525Y0173821
Y0178718
X00613
Y0173821
X0215Y01839
Y01544
X0202938Y01506
X0212326Y0132172
X02162
X02223
X0217675Y0106725
X0234156Y0097826
X02505Y0104756
X0265528Y00722
X0261714Y0065465
Y0059556
Y0056094
X02417Y0054131
X0226979Y0060321
X0210545Y0066446
X0210496Y0069851
X0193189Y006532
Y0060321
X02555Y01544
Y01839
X0296
Y01544
X0290285Y0213882
X03171Y0229535
Y0235535
X02672Y0239866
Y0248527
X02531
Y0239866
X0244401Y0242071
X024484Y0252383
X0226963Y0252171
Y0242071
X0235882Y02367
X0189212Y02171
X0183212
X0151104Y021712
X0145104
X00954Y0225157
Y02287
X00968Y0239466
Y0247566
X01084
Y0239466
X00854Y02314
X0068262Y0233036
Y0237218
Y02414
Y021878
X00645Y0215061
Y02225
X0072024
Y0215061
X0080857Y0210418
X00423Y0214843
Y0218387
Y0225157
Y02287
X00409Y0239466
Y0247566
X00293
Y0239466
T03
X01207Y0005821
Y0015821
Y002582
Y003582
Y0045821
Y0055821
T04
X019507Y0246769
X0177353
X0156962Y0246788
X0139245
X0073262Y0249932
X0063262
T06
X0199991Y0236729
X0172432
X0161883Y0236749
X0134324
T07
X000689Y0132639
Y0185002
X004311Y0177718
Y015882
Y0139923
T08
X0036002Y0019138
X0058758
T09
X03183Y0036724
Y0068221
T10
X00159Y0108121
T11
X0324803Y0009843
X0009843
X0324803Y0246063
X0009843Y0246063
M30
