G04*
G04 #@! TF.GenerationSoftware,Altium Limited,Altium Designer,23.1.1 (15)*
G04*
G04 Layer_Physical_Order=2*
G04 Layer_Color=16711680*
%FSLAX25Y25*%
%MOIN*%
G70*
G04*
G04 #@! TF.SameCoordinates,D44E4BA0-DF0F-404E-B2C4-BA9F40E5660F*
G04*
G04*
G04 #@! TF.FilePolarity,Positive*
G04*
G01*
G75*
%ADD15C,0.01000*%
%ADD16C,0.00600*%
%ADD18C,0.00800*%
%ADD135C,0.01500*%
%ADD161O,0.03543X0.06693*%
%ADD162O,0.03543X0.07874*%
%ADD163R,0.05906X0.05906*%
%ADD164C,0.05906*%
%ADD165C,0.07874*%
%ADD166C,0.06299*%
%ADD167R,0.07874X0.07874*%
%ADD168R,0.05906X0.11811*%
%ADD169R,0.11811X0.05906*%
%ADD170C,0.11024*%
%ADD171C,0.02362*%
%ADD172R,0.09275X0.08900*%
%ADD173R,0.10700X0.49600*%
G36*
X332400Y236607D02*
X331938Y236416D01*
X330277Y238077D01*
X330277Y238077D01*
X330012Y238254D01*
X329700Y238316D01*
X329700Y238316D01*
X312500D01*
X312188Y238254D01*
X311923Y238077D01*
X311923Y238077D01*
X311023Y237177D01*
X310846Y236912D01*
X310784Y236600D01*
X310784Y236600D01*
Y232500D01*
X310784Y232500D01*
X310846Y232188D01*
X311023Y231923D01*
X311823Y231123D01*
X312088Y230946D01*
X312400Y230884D01*
X312400Y230884D01*
X316627Y230884D01*
X316627Y230884D01*
X316627Y230884D01*
X316708Y230901D01*
X317492D01*
X317573Y230884D01*
X317573Y230884D01*
X317573Y230884D01*
X319562D01*
X320584Y229862D01*
Y175416D01*
X154016D01*
Y198362D01*
X156338Y200684D01*
X196900D01*
X196900Y200684D01*
X197212Y200746D01*
X197477Y200923D01*
X197477Y200923D01*
X199477Y202923D01*
X199654Y203188D01*
X199716Y203500D01*
X199716Y203500D01*
Y223081D01*
X199716Y223081D01*
X199654Y223393D01*
X199477Y223657D01*
X199477Y223657D01*
X197458Y225677D01*
X197193Y225854D01*
X196881Y225916D01*
X196881Y225916D01*
X113900D01*
X113588Y225854D01*
X113323Y225677D01*
X113323Y225677D01*
X109723Y222077D01*
X109723Y222077D01*
X109546Y221812D01*
X109484Y221500D01*
X109484Y221500D01*
Y158100D01*
X109484Y158100D01*
X109546Y157788D01*
X109723Y157523D01*
X109723Y157523D01*
X111623Y155623D01*
X111888Y155446D01*
X112200Y155384D01*
X112200Y155384D01*
X119900D01*
X119900Y155384D01*
X120212Y155446D01*
X120477Y155623D01*
X120477Y155623D01*
X121777Y156923D01*
X121954Y157188D01*
X122016Y157500D01*
X122016Y157500D01*
Y210162D01*
X126838Y214984D01*
X144559D01*
X144670Y214939D01*
X145537D01*
X145648Y214984D01*
X146098D01*
X146260Y214740D01*
X146319Y214498D01*
X137430Y205609D01*
X137099Y205113D01*
X136982Y204528D01*
Y116153D01*
X134759Y113929D01*
X127959D01*
X127374Y113813D01*
X126877Y113481D01*
X122737Y109341D01*
X122406Y108845D01*
X122289Y108260D01*
Y76670D01*
X122406Y76085D01*
X122737Y75588D01*
X141071Y57255D01*
Y56855D01*
X140751Y56536D01*
X140419Y55734D01*
Y54866D01*
X140751Y54065D01*
X141365Y53451D01*
X142166Y53119D01*
X143034D01*
X143835Y53451D01*
X144123Y53739D01*
X144450Y54063D01*
X144777Y53739D01*
X145064Y53451D01*
X145866Y53119D01*
X146734D01*
X147536Y53451D01*
X147823Y53739D01*
X148150Y54063D01*
X148477Y53739D01*
X148765Y53451D01*
X149566Y53119D01*
X150434D01*
X151235Y53451D01*
X151829Y54045D01*
X152404Y53470D01*
X153205Y53138D01*
X154073D01*
X154875Y53470D01*
X155430Y54025D01*
X156004Y53451D01*
X156805Y53119D01*
X157673D01*
X158475Y53451D01*
X158763Y53739D01*
X159089Y54063D01*
X159416Y53739D01*
X159704Y53451D01*
X160505Y53119D01*
X161373D01*
X162175Y53451D01*
X162788Y54065D01*
X163120Y54866D01*
Y55734D01*
X162788Y56536D01*
X162367Y56957D01*
Y58180D01*
X162367Y58180D01*
X162258Y58727D01*
X161949Y59190D01*
X161949Y59190D01*
X139416Y81722D01*
X139607Y82184D01*
X175900D01*
X175900Y82184D01*
X176212Y82246D01*
X176477Y82423D01*
X176477Y82423D01*
X179077Y85023D01*
X179254Y85288D01*
X179316Y85600D01*
X179316Y85600D01*
Y104362D01*
X185283Y110329D01*
X185336Y110351D01*
X185949Y110965D01*
X185971Y111017D01*
X196238Y121284D01*
X225900D01*
X226212Y121346D01*
X226477Y121523D01*
X226477Y121523D01*
X228177Y123223D01*
X228354Y123488D01*
X228416Y123800D01*
X228416Y123800D01*
Y143200D01*
X228416Y143200D01*
X228354Y143512D01*
X228177Y143777D01*
X228177Y143777D01*
X225977Y145977D01*
X225977Y145977D01*
X225712Y146154D01*
X225400Y146216D01*
X225400Y146216D01*
X187579D01*
X187267Y146154D01*
X186690Y145915D01*
X186147D01*
X185571Y146154D01*
X185259Y146216D01*
X172346D01*
X172034Y146154D01*
X171457Y145915D01*
X170914D01*
X170338Y146154D01*
X170026Y146216D01*
X152238D01*
X151216Y147238D01*
Y148271D01*
X151716Y148606D01*
X152166Y148419D01*
X153034D01*
X153835Y148751D01*
X153900Y148816D01*
X201638D01*
X201703Y148751D01*
X202504Y148419D01*
X203372D01*
X204174Y148751D01*
X204787Y149364D01*
X205119Y150166D01*
Y151034D01*
X204787Y151836D01*
X204174Y152449D01*
X203372Y152781D01*
X202504D01*
X201703Y152449D01*
X201638Y152384D01*
X153900D01*
X153835Y152449D01*
X153034Y152781D01*
X152166D01*
X151716Y152594D01*
X151216Y152929D01*
Y157931D01*
X153669Y160384D01*
X167200D01*
X167200Y160384D01*
X167512Y160446D01*
X167777Y160623D01*
X168938Y161784D01*
X170630D01*
X170884Y161835D01*
X171488D01*
X171741Y161784D01*
X172862D01*
X176923Y157723D01*
X177188Y157546D01*
X177500Y157484D01*
X177500Y157484D01*
X320584D01*
Y70473D01*
X320084Y70266D01*
X319963Y70387D01*
X319345Y70744D01*
X318657Y70928D01*
X317944D01*
X317255Y70744D01*
X316637Y70387D01*
X316133Y69883D01*
X315777Y69266D01*
X315592Y68577D01*
Y67864D01*
X315777Y67175D01*
X316133Y66558D01*
X316637Y66054D01*
X317255Y65697D01*
X317944Y65513D01*
X318657D01*
X319345Y65697D01*
X319963Y66054D01*
X320084Y66175D01*
X320584Y65968D01*
Y38977D01*
X320084Y38770D01*
X319963Y38891D01*
X319345Y39248D01*
X318657Y39432D01*
X317944D01*
X317255Y39248D01*
X316637Y38891D01*
X316133Y38387D01*
X315777Y37770D01*
X315592Y37081D01*
Y36368D01*
X315777Y35679D01*
X316133Y35062D01*
X316637Y34558D01*
X317255Y34201D01*
X317944Y34016D01*
X318657D01*
X319345Y34201D01*
X319963Y34558D01*
X320084Y34679D01*
X320584Y34472D01*
Y32938D01*
X318262Y30616D01*
X303400Y30616D01*
X303400Y30616D01*
X303088Y30554D01*
X302823Y30377D01*
X302823Y30377D01*
X300023Y27577D01*
X299846Y27312D01*
X299784Y27000D01*
X299784Y27000D01*
Y14938D01*
X297762Y12916D01*
X261938D01*
X260316Y14538D01*
Y41094D01*
X260816Y41429D01*
X261280Y41236D01*
X262148D01*
X262949Y41568D01*
X263269Y41888D01*
X264794D01*
X265379Y42004D01*
X265875Y42336D01*
X267716Y44177D01*
X268048Y44673D01*
X268164Y45258D01*
Y66465D01*
X268048Y67051D01*
X267716Y67547D01*
X265281Y69981D01*
X264785Y70313D01*
X264200Y70429D01*
X235558D01*
X234973Y70313D01*
X234477Y69981D01*
X226997Y62502D01*
X226545D01*
X225743Y62169D01*
X225130Y61556D01*
X224798Y60754D01*
Y59887D01*
X225130Y59085D01*
X225743Y58471D01*
X226545Y58139D01*
X227413D01*
X228214Y58471D01*
X228828Y59085D01*
X229160Y59887D01*
Y60339D01*
X236192Y67371D01*
X237203D01*
X237287Y66878D01*
X236791Y66546D01*
X232119Y61874D01*
X231787Y61378D01*
X231671Y60792D01*
Y29212D01*
X231787Y28627D01*
X232119Y28131D01*
X234911Y25339D01*
Y24887D01*
X235243Y24085D01*
X235856Y23471D01*
X236658Y23139D01*
X237526D01*
X238327Y23471D01*
X238941Y24085D01*
X239273Y24887D01*
Y25754D01*
X238941Y26556D01*
X238327Y27169D01*
X237526Y27502D01*
X237420D01*
X237328Y27639D01*
X237514Y28092D01*
X237582Y28159D01*
X238335Y28471D01*
X238949Y29085D01*
X239281Y29887D01*
Y30754D01*
X238949Y31556D01*
X238629Y31876D01*
Y58642D01*
X240850Y60863D01*
X258244D01*
X259533Y59574D01*
Y59122D01*
X259865Y58320D01*
X260478Y57707D01*
X261280Y57375D01*
X262148D01*
X262949Y57707D01*
X263563Y58320D01*
X263895Y59122D01*
Y59990D01*
X263563Y60791D01*
X262949Y61405D01*
X262148Y61737D01*
X261696D01*
X260203Y63230D01*
X260478Y63616D01*
X261280Y63283D01*
X262148D01*
X262949Y63616D01*
X263563Y64229D01*
X263895Y65031D01*
Y65898D01*
X263563Y66700D01*
X263940Y66997D01*
X265105Y65832D01*
Y45892D01*
X264160Y44947D01*
X263269D01*
X262949Y45266D01*
X262148Y45598D01*
X261280D01*
X260816Y45406D01*
X260316Y45740D01*
Y51700D01*
X260254Y52012D01*
X260077Y52277D01*
X260077Y52277D01*
X258977Y53377D01*
X258712Y53554D01*
X258400Y53616D01*
X258400Y53616D01*
X249900D01*
X249588Y53554D01*
X249323Y53377D01*
X249323Y53377D01*
X248323Y52377D01*
X248146Y52112D01*
X248084Y51800D01*
X248084Y51800D01*
Y21738D01*
X246562Y20216D01*
X218700D01*
X218700Y20216D01*
X218388Y20154D01*
X218123Y19977D01*
X218123Y19977D01*
X216623Y18477D01*
X216623Y18477D01*
X216446Y18212D01*
X216384Y17900D01*
X216384Y17900D01*
Y12100D01*
X216384Y12100D01*
X216446Y11788D01*
X216623Y11523D01*
X218123Y10023D01*
X218388Y9846D01*
X218700Y9784D01*
X218700Y9784D01*
X224962D01*
X225484Y9262D01*
Y3000D01*
X225524Y2800D01*
X225325Y2437D01*
X225204Y2300D01*
X67167D01*
X66850Y2686D01*
X66927Y3075D01*
Y6225D01*
X66735Y7189D01*
X66189Y8006D01*
X65372Y8553D01*
X64407Y8745D01*
X63443Y8553D01*
X62625Y8006D01*
X62079Y7189D01*
X61929Y6434D01*
X32830D01*
X32680Y7189D01*
X32136Y8003D01*
Y17163D01*
X32680Y17977D01*
X32872Y18941D01*
Y21321D01*
X34946D01*
X35046Y20821D01*
X34914Y20766D01*
X34374Y20226D01*
X34081Y19520D01*
Y18756D01*
X34374Y18050D01*
X34914Y17510D01*
X35620Y17217D01*
X36384D01*
X37089Y17510D01*
X37630Y18050D01*
X37922Y18756D01*
Y19520D01*
X37630Y20226D01*
X37276Y20579D01*
X37416Y21131D01*
X37535Y21161D01*
X40183Y18513D01*
Y18061D01*
X40515Y17259D01*
X40707Y17067D01*
X40701Y16898D01*
X40583Y16484D01*
X40423Y16377D01*
X40423Y16377D01*
X39723Y15677D01*
X39546Y15412D01*
X39484Y15100D01*
X39484Y15100D01*
Y10600D01*
X39484Y10600D01*
X39546Y10288D01*
X39723Y10023D01*
X39723Y10023D01*
X40423Y9323D01*
X40688Y9146D01*
X41000Y9084D01*
X41000Y9084D01*
X53750D01*
X54062Y9146D01*
X54327Y9323D01*
X54327Y9323D01*
X54877Y9873D01*
X55054Y10138D01*
X55116Y10450D01*
X55116Y10450D01*
Y15250D01*
X55054Y15562D01*
X54877Y15827D01*
X54877Y15827D01*
X54327Y16377D01*
X54062Y16554D01*
X53750Y16616D01*
X53750Y16616D01*
X51438D01*
X51016Y17038D01*
Y28662D01*
X51438Y29084D01*
X60500D01*
X60500Y29084D01*
X60812Y29146D01*
X61077Y29323D01*
X61077Y29323D01*
X61677Y29923D01*
X61854Y30188D01*
X61916Y30500D01*
X61916Y30500D01*
Y33500D01*
X61916Y33500D01*
X61854Y33812D01*
X61677Y34077D01*
X61677Y34077D01*
X61077Y34677D01*
X60812Y34854D01*
X60500Y34916D01*
X60500Y34916D01*
X34800D01*
X34800Y34916D01*
X34488Y34854D01*
X34223Y34677D01*
X34223Y34677D01*
X33723Y34177D01*
X33546Y33912D01*
X33484Y33600D01*
X33484Y33600D01*
Y30900D01*
X33484Y30900D01*
X33546Y30588D01*
X33723Y30323D01*
X34423Y29623D01*
X34688Y29446D01*
X35000Y29384D01*
X35000Y29384D01*
X40262Y29384D01*
X40784Y28862D01*
X40784Y22944D01*
X40284Y22737D01*
X39090Y23931D01*
X38594Y24263D01*
X38009Y24379D01*
X32585D01*
X32134Y25054D01*
X31316Y25600D01*
X30352Y25792D01*
X29388Y25600D01*
X28570Y25054D01*
X28024Y24236D01*
X27832Y23272D01*
Y18941D01*
X28024Y17977D01*
X28568Y17163D01*
Y8003D01*
X28024Y7189D01*
X27832Y6225D01*
Y3075D01*
X27909Y2686D01*
X27592Y2300D01*
X2600D01*
Y7813D01*
X3100Y7863D01*
X3112Y7801D01*
X3640Y6527D01*
X4406Y5381D01*
X5381Y4406D01*
X6527Y3640D01*
X7801Y3112D01*
X9153Y2843D01*
X10532D01*
X11884Y3112D01*
X13158Y3640D01*
X14304Y4406D01*
X15279Y5381D01*
X16045Y6527D01*
X16573Y7801D01*
X16842Y9153D01*
Y10532D01*
X16573Y11884D01*
X16045Y13158D01*
X15279Y14304D01*
X14304Y15279D01*
X13158Y16045D01*
X11884Y16573D01*
X10532Y16842D01*
X9153D01*
X7801Y16573D01*
X6527Y16045D01*
X5381Y15279D01*
X4406Y14304D01*
X3640Y13158D01*
X3112Y11884D01*
X3100Y11822D01*
X2600Y11872D01*
Y89193D01*
X3062Y89385D01*
X3323Y89123D01*
X3323Y89123D01*
X3588Y88946D01*
X3900Y88884D01*
X3900Y88884D01*
X57500D01*
X57500Y88884D01*
X57812Y88946D01*
X58077Y89123D01*
X58077Y89123D01*
X59377Y90423D01*
X59377Y90423D01*
X59554Y90688D01*
X59616Y91000D01*
X59616Y91000D01*
Y102500D01*
X59554Y102812D01*
X59377Y103077D01*
X59377Y103077D01*
X58077Y104377D01*
X57812Y104554D01*
X57500Y104616D01*
X57500Y104616D01*
X38400D01*
X38400Y104616D01*
X38088Y104554D01*
X37823Y104377D01*
X37823Y104377D01*
X34662Y101216D01*
X27638D01*
X26116Y102738D01*
Y125762D01*
X27938Y127584D01*
X48900D01*
X48900Y127584D01*
X49212Y127646D01*
X49477Y127823D01*
X50877Y129223D01*
X51054Y129488D01*
X51116Y129800D01*
X51116Y129800D01*
Y145000D01*
X51116Y145000D01*
X51054Y145312D01*
X50877Y145577D01*
X50877Y145577D01*
X48977Y147477D01*
X48712Y147654D01*
X48400Y147716D01*
X48400Y147716D01*
X3900D01*
X3900Y147716D01*
X3588Y147654D01*
X3323Y147477D01*
X3323Y147477D01*
X3062Y147215D01*
X2600Y147407D01*
Y179839D01*
X3100Y180063D01*
X3948Y179497D01*
X5078Y179028D01*
X6278Y178790D01*
X7502D01*
X8702Y179028D01*
X9832Y179497D01*
X10850Y180176D01*
X11715Y181042D01*
X12395Y182059D01*
X12863Y183190D01*
X13102Y184390D01*
Y185613D01*
X12863Y186813D01*
X12395Y187944D01*
X11715Y188961D01*
X10850Y189827D01*
X9832Y190506D01*
X8702Y190975D01*
X7502Y191213D01*
X6278D01*
X5078Y190975D01*
X3948Y190506D01*
X3100Y189940D01*
X2600Y190164D01*
Y244034D01*
X3100Y244083D01*
X3112Y244021D01*
X3640Y242748D01*
X4406Y241601D01*
X5381Y240626D01*
X6527Y239860D01*
X7801Y239333D01*
X9153Y239064D01*
X10532D01*
X11884Y239333D01*
X13158Y239860D01*
X14304Y240626D01*
X15279Y241601D01*
X16045Y242748D01*
X16573Y244021D01*
X16842Y245374D01*
Y246752D01*
X16573Y248105D01*
X16045Y249378D01*
X15279Y250525D01*
X14304Y251500D01*
X13158Y252266D01*
X11884Y252793D01*
X10532Y253062D01*
X9153D01*
X7801Y252793D01*
X6527Y252266D01*
X5381Y251500D01*
X4406Y250525D01*
X3640Y249378D01*
X3112Y248105D01*
X3100Y248043D01*
X2600Y248092D01*
Y253600D01*
X57109D01*
Y245600D01*
X57171Y245288D01*
X57348Y245023D01*
X57612Y244846D01*
X57924Y244784D01*
X67199D01*
X67511Y244846D01*
X67776Y245023D01*
X67953Y245288D01*
X68015Y245600D01*
X68510D01*
X68572Y245288D01*
X68748Y245023D01*
X69013Y244846D01*
X69325Y244784D01*
X78600D01*
X78912Y244846D01*
X79177Y245023D01*
X79354Y245288D01*
X79416Y245600D01*
Y253600D01*
X332400D01*
Y236607D01*
D02*
G37*
G36*
X332100Y235100D02*
Y174600D01*
Y158300D01*
Y22400D01*
X329400Y19700D01*
X318100Y19700D01*
X316100Y17700D01*
Y4200D01*
X313400Y1500D01*
X227800Y1500D01*
X226300Y3000D01*
Y9600D01*
X225300Y10600D01*
X218700D01*
X217200Y12100D01*
Y17900D01*
X218700Y19400D01*
X246900D01*
X248900Y21400D01*
Y51800D01*
X249900Y52800D01*
X258400D01*
X259500Y51700D01*
Y14200D01*
X261600Y12100D01*
X298100D01*
X300600Y14600D01*
Y27000D01*
X303400Y29800D01*
X318600Y29800D01*
X321400Y32600D01*
Y158300D01*
X177500D01*
X173200Y162600D01*
X171741D01*
X171620Y162650D01*
X170752D01*
X170630Y162600D01*
X168600D01*
X167200Y161200D01*
X153331D01*
X150400Y158269D01*
Y146900D01*
X151900Y145400D01*
X170026D01*
X170752Y145099D01*
X171620D01*
X172346Y145400D01*
X185259D01*
X185985Y145099D01*
X186853D01*
X187579Y145400D01*
X225400D01*
X227600Y143200D01*
Y123800D01*
X225900Y122100D01*
X195900D01*
X178500Y104700D01*
Y85600D01*
X175900Y83000D01*
X138600D01*
X137699Y83901D01*
X137699Y88699D01*
Y90538D01*
X138961Y91800D01*
X168100D01*
X170500Y94200D01*
Y110800D01*
X187600Y127900D01*
X217400D01*
X219000Y129500D01*
Y135700D01*
X217014Y137686D01*
X149114Y137687D01*
X144600Y142200D01*
Y202191D01*
X152909Y210500D01*
X189700D01*
X192500Y213300D01*
Y219100D01*
X191600Y220000D01*
X188000Y220000D01*
X183800Y215800D01*
X157600Y215800D01*
X153691Y219709D01*
X150109D01*
X146200Y215800D01*
X126500D01*
X121200Y210500D01*
Y157500D01*
X119900Y156200D01*
X112200D01*
X110300Y158100D01*
Y221500D01*
X113900Y225100D01*
X196881D01*
X198900Y223081D01*
Y203500D01*
X196900Y201500D01*
X156000D01*
X153200Y198700D01*
Y174600D01*
X321400D01*
Y230200D01*
X319900Y231700D01*
X317573D01*
X317534Y231716D01*
X316666D01*
X316627Y231700D01*
X312400Y231700D01*
X311600Y232500D01*
Y236600D01*
X312500Y237500D01*
X329700D01*
X332100Y235100D01*
D02*
G37*
G36*
X214590Y130698D02*
X214965Y130323D01*
X215766Y129991D01*
X216634D01*
X217436Y130323D01*
X217684Y130572D01*
X218184Y130365D01*
Y129838D01*
X217062Y128716D01*
X187600D01*
X187288Y128654D01*
X187023Y128477D01*
X187023Y128477D01*
X175997Y117451D01*
X175506Y117667D01*
X175203Y118398D01*
X174590Y119011D01*
X173788Y119343D01*
X172920D01*
X172119Y119011D01*
X171799Y118692D01*
X161543D01*
X161223Y119011D01*
X160421Y119343D01*
X159554D01*
X158752Y119011D01*
X158138Y118398D01*
X157806Y117596D01*
Y116728D01*
X158138Y115927D01*
X158752Y115313D01*
X159554Y114981D01*
X160421D01*
X161223Y115313D01*
X161543Y115633D01*
X171799D01*
X172119Y115313D01*
X172850Y115010D01*
X173066Y114519D01*
X169923Y111377D01*
X169746Y111112D01*
X169684Y110800D01*
X169684Y110800D01*
Y94538D01*
X167762Y92616D01*
X139618D01*
X139411Y93116D01*
X141831Y95535D01*
X141831Y95535D01*
X142140Y95998D01*
X142249Y96544D01*
X142249Y96545D01*
Y99745D01*
X142670Y100166D01*
X143002Y100968D01*
Y101836D01*
X142670Y102637D01*
X142057Y103251D01*
X141255Y103583D01*
X140387D01*
X139586Y103251D01*
X138972Y102637D01*
X138640Y101836D01*
Y100968D01*
X138709Y100803D01*
X138623Y100642D01*
X138351Y100359D01*
X137604D01*
X137212Y100197D01*
X136830Y100580D01*
X136990Y100968D01*
Y101836D01*
X136658Y102637D01*
X136045Y103251D01*
X135243Y103583D01*
X134375D01*
X133574Y103251D01*
X133152Y102829D01*
X130802D01*
X130256Y102721D01*
X129792Y102411D01*
X129792Y102411D01*
X128229Y100848D01*
X127729Y101055D01*
Y106285D01*
X129884Y108440D01*
X136866D01*
X137452Y108557D01*
X137948Y108888D01*
X142381Y113322D01*
X142713Y113818D01*
X142829Y114403D01*
Y116184D01*
X143329Y116391D01*
X143725Y115996D01*
X144527Y115664D01*
X145395D01*
X146196Y115996D01*
X146810Y116609D01*
X147119Y117356D01*
X147213Y117439D01*
X147642Y117608D01*
X147780Y117517D01*
Y117411D01*
X148112Y116609D01*
X148725Y115996D01*
X149527Y115664D01*
X150395D01*
X151196Y115996D01*
X151810Y116609D01*
X152142Y117411D01*
Y118278D01*
X151810Y119080D01*
X151196Y119694D01*
X150395Y120026D01*
X149943D01*
X149129Y120839D01*
Y127018D01*
X152755Y130643D01*
X210771D01*
X211091Y130323D01*
X211893Y129991D01*
X212760D01*
X213562Y130323D01*
X213936Y130698D01*
X214263Y130886D01*
X214590Y130698D01*
D02*
G37*
G36*
X50300Y145000D02*
Y129800D01*
X48900Y128400D01*
X27600D01*
X25300Y126100D01*
Y102400D01*
X27300Y100400D01*
X35000D01*
X38400Y103800D01*
X57500D01*
X58800Y102500D01*
Y91000D01*
X57500Y89700D01*
X3900D01*
X1900Y91700D01*
Y127767D01*
X2362Y127958D01*
X2739Y127581D01*
X3805Y126869D01*
X4990Y126378D01*
X6248Y126128D01*
X7531D01*
X8789Y126378D01*
X9974Y126869D01*
X11041Y127581D01*
X11948Y128488D01*
X12661Y129555D01*
X13151Y130740D01*
X13402Y131998D01*
Y133281D01*
X13151Y134539D01*
X12661Y135724D01*
X11948Y136790D01*
X11041Y137697D01*
X9974Y138410D01*
X8789Y138901D01*
X7531Y139151D01*
X6248D01*
X4990Y138901D01*
X3805Y138410D01*
X2739Y137697D01*
X2362Y137320D01*
X1900Y137512D01*
Y144900D01*
X3900Y146900D01*
X48400D01*
X50300Y145000D01*
D02*
G37*
G36*
X61100Y33500D02*
Y30500D01*
X60500Y29900D01*
X51100D01*
X50200Y29000D01*
Y16700D01*
X51100Y15800D01*
X53750D01*
X54300Y15250D01*
Y10450D01*
X53750Y9900D01*
X41000D01*
X40300Y10600D01*
Y15100D01*
X41000Y15800D01*
X43700D01*
X44546Y16646D01*
Y21106D01*
X43164Y21106D01*
X41600Y22670D01*
X41600Y29200D01*
X40600Y30200D01*
X35000Y30200D01*
X34300Y30900D01*
Y33600D01*
X34800Y34100D01*
X60500D01*
X61100Y33500D01*
D02*
G37*
%LPC*%
G36*
X157469Y250638D02*
X156455D01*
X155476Y250376D01*
X154598Y249869D01*
X153881Y249152D01*
X153375Y248274D01*
X153112Y247295D01*
Y246282D01*
X153375Y245302D01*
X153881Y244425D01*
X154598Y243708D01*
X155476Y243201D01*
X156455Y242939D01*
X157469D01*
X158448Y243201D01*
X159326Y243708D01*
X160042Y244425D01*
X160549Y245302D01*
X160811Y246282D01*
Y247295D01*
X160549Y248274D01*
X160042Y249152D01*
X159326Y249869D01*
X158448Y250376D01*
X157469Y250638D01*
D02*
G37*
G36*
X195577Y250618D02*
X194563D01*
X193584Y250356D01*
X192706Y249849D01*
X191989Y249132D01*
X191483Y248254D01*
X191220Y247275D01*
Y246262D01*
X191483Y245283D01*
X191989Y244405D01*
X192706Y243688D01*
X193584Y243181D01*
X194563Y242919D01*
X195577D01*
X196556Y243181D01*
X197433Y243688D01*
X198150Y244405D01*
X198657Y245283D01*
X198919Y246262D01*
Y247275D01*
X198657Y248254D01*
X198150Y249132D01*
X197433Y249849D01*
X196556Y250356D01*
X195577Y250618D01*
D02*
G37*
G36*
X325493Y253062D02*
X324114D01*
X322762Y252793D01*
X321488Y252266D01*
X320341Y251500D01*
X319367Y250525D01*
X318601Y249378D01*
X318073Y248105D01*
X317804Y246752D01*
Y245374D01*
X318073Y244021D01*
X318601Y242748D01*
X319367Y241601D01*
X320341Y240626D01*
X321488Y239860D01*
X322762Y239333D01*
X324114Y239064D01*
X325493D01*
X326845Y239333D01*
X328119Y239860D01*
X329265Y240626D01*
X330240Y241601D01*
X331006Y242748D01*
X331533Y244021D01*
X331802Y245374D01*
Y246752D01*
X331533Y248105D01*
X331006Y249378D01*
X330240Y250525D01*
X329265Y251500D01*
X328119Y252266D01*
X326845Y252793D01*
X325493Y253062D01*
D02*
G37*
G36*
X162494Y241386D02*
X161273D01*
X160093Y241070D01*
X159036Y240459D01*
X158173Y239596D01*
X157562Y238539D01*
X157246Y237359D01*
Y236139D01*
X157562Y234959D01*
X158173Y233902D01*
X159036Y233038D01*
X160093Y232428D01*
X161273Y232112D01*
X162494D01*
X163673Y232428D01*
X164730Y233038D01*
X165594Y233902D01*
X166204Y234959D01*
X166520Y236139D01*
Y237359D01*
X166204Y238539D01*
X165594Y239596D01*
X164730Y240459D01*
X163673Y241070D01*
X162494Y241386D01*
D02*
G37*
G36*
X134934D02*
X133714D01*
X132534Y241070D01*
X131477Y240459D01*
X130614Y239596D01*
X130003Y238539D01*
X129687Y237359D01*
Y236139D01*
X130003Y234959D01*
X130614Y233902D01*
X131477Y233038D01*
X132534Y232428D01*
X133714Y232112D01*
X134934D01*
X136114Y232428D01*
X137171Y233038D01*
X138035Y233902D01*
X138645Y234959D01*
X138961Y236139D01*
Y237359D01*
X138645Y238539D01*
X138035Y239596D01*
X137171Y240459D01*
X136114Y241070D01*
X134934Y241386D01*
D02*
G37*
G36*
X200602Y241366D02*
X199381D01*
X198201Y241050D01*
X197144Y240440D01*
X196281Y239576D01*
X195670Y238519D01*
X195354Y237340D01*
Y236119D01*
X195670Y234939D01*
X196281Y233882D01*
X197144Y233019D01*
X198201Y232408D01*
X199381Y232092D01*
X200602D01*
X201781Y232408D01*
X202838Y233019D01*
X203702Y233882D01*
X204312Y234939D01*
X204628Y236119D01*
Y237340D01*
X204312Y238519D01*
X203702Y239576D01*
X202838Y240440D01*
X201781Y241050D01*
X200602Y241366D01*
D02*
G37*
G36*
X173043D02*
X171822D01*
X170642Y241050D01*
X169585Y240440D01*
X168721Y239576D01*
X168111Y238519D01*
X167795Y237340D01*
Y236119D01*
X168111Y234939D01*
X168721Y233882D01*
X169585Y233019D01*
X170642Y232408D01*
X171822Y232092D01*
X173043D01*
X174222Y232408D01*
X175279Y233019D01*
X176143Y233882D01*
X176753Y234939D01*
X177069Y236119D01*
Y237340D01*
X176753Y238519D01*
X176143Y239576D01*
X175279Y240440D01*
X174222Y241050D01*
X173043Y241366D01*
D02*
G37*
G36*
X96800Y232216D02*
X96800Y232216D01*
X90100D01*
X89788Y232154D01*
X89523Y231977D01*
X89523Y231977D01*
X88123Y230577D01*
X87946Y230312D01*
X87884Y230000D01*
X87884Y230000D01*
Y212438D01*
X84462Y209016D01*
X32338D01*
X30916Y210438D01*
Y218262D01*
X32938Y220284D01*
X44900D01*
X45212Y220346D01*
X45477Y220523D01*
X45477Y220523D01*
X46577Y221623D01*
X46577Y221623D01*
X46754Y221888D01*
X46816Y222200D01*
X46816Y222200D01*
Y230100D01*
X46754Y230412D01*
X46577Y230677D01*
X46577Y230677D01*
X45477Y231777D01*
X45212Y231954D01*
X44900Y232016D01*
X44900Y232016D01*
X19200D01*
X18888Y231954D01*
X18623Y231777D01*
X18623Y231777D01*
X16223Y229377D01*
X16046Y229112D01*
X15984Y228800D01*
X15984Y228800D01*
Y152600D01*
X15984Y152600D01*
X16046Y152288D01*
X16223Y152023D01*
X19123Y149123D01*
X19388Y148946D01*
X19700Y148884D01*
X19700Y148884D01*
X48622D01*
X48622Y148884D01*
X48934Y148946D01*
X49199Y149123D01*
X51631Y151556D01*
X51808Y151821D01*
X51870Y152133D01*
X51870Y152133D01*
Y163558D01*
X75120D01*
X75311Y163096D01*
X75251Y163036D01*
X74919Y162234D01*
Y161366D01*
X75251Y160564D01*
X75864Y159951D01*
X76666Y159619D01*
X77534D01*
X78335Y159951D01*
X78655Y160271D01*
X82637D01*
X83971Y158937D01*
Y137619D01*
X83587Y137235D01*
X83255Y136434D01*
Y135566D01*
X83587Y134765D01*
X84201Y134151D01*
X85003Y133819D01*
X85870D01*
X86672Y134151D01*
X87286Y134765D01*
X87617Y135566D01*
Y136434D01*
X87286Y137235D01*
X87029Y137492D01*
Y159571D01*
X86913Y160156D01*
X86581Y160652D01*
X84352Y162881D01*
X84089Y163058D01*
X84240Y163558D01*
X94212D01*
X97071Y160699D01*
Y132834D01*
X92466Y128229D01*
X71795D01*
X71476Y128549D01*
X70674Y128881D01*
X69806D01*
X69005Y128549D01*
X68391Y127936D01*
X68059Y127134D01*
Y126266D01*
X68391Y125464D01*
X69005Y124851D01*
X69806Y124519D01*
X70674D01*
X71476Y124851D01*
X71795Y125171D01*
X93100D01*
X93685Y125287D01*
X94181Y125619D01*
X99681Y131119D01*
X100013Y131615D01*
X100129Y132200D01*
Y161332D01*
X100013Y161917D01*
X99681Y162414D01*
X95926Y166168D01*
X95430Y166500D01*
X94845Y166616D01*
X51055D01*
X50741Y166554D01*
X49419Y167877D01*
X49154Y168054D01*
X48842Y168116D01*
X48842Y168116D01*
X32538D01*
X30916Y169738D01*
Y198162D01*
X31738Y198984D01*
X94800D01*
X94800Y198984D01*
X95112Y199046D01*
X95377Y199223D01*
X95377Y199223D01*
X98777Y202623D01*
X98777Y202623D01*
X98954Y202888D01*
X99016Y203200D01*
X99016Y203200D01*
Y230000D01*
X99016Y230000D01*
X98954Y230312D01*
X98777Y230577D01*
X98777Y230577D01*
X97377Y231977D01*
X97377Y231977D01*
X97112Y232154D01*
X96800Y232216D01*
D02*
G37*
G36*
X43722Y183930D02*
X42498D01*
X41298Y183691D01*
X40168Y183223D01*
X39151Y182543D01*
X38285Y181678D01*
X37606Y180660D01*
X37137Y179530D01*
X36898Y178330D01*
Y177106D01*
X37137Y175906D01*
X37606Y174776D01*
X38285Y173758D01*
X39151Y172893D01*
X40168Y172213D01*
X41298Y171745D01*
X42498Y171506D01*
X43722D01*
X44922Y171745D01*
X46053Y172213D01*
X47070Y172893D01*
X47935Y173758D01*
X48615Y174776D01*
X49083Y175906D01*
X49322Y177106D01*
Y178330D01*
X49083Y179530D01*
X48615Y180660D01*
X47935Y181678D01*
X47070Y182543D01*
X46053Y183223D01*
X44922Y183691D01*
X43722Y183930D01*
D02*
G37*
G36*
X92410Y153339D02*
X91543D01*
X90741Y153007D01*
X90127Y152394D01*
X89796Y151592D01*
Y150724D01*
X90127Y149923D01*
X90447Y149603D01*
Y135872D01*
X87766Y133191D01*
X63861D01*
X63276Y133074D01*
X62780Y132743D01*
X58918Y128881D01*
X58466D01*
X57665Y128549D01*
X57051Y127936D01*
X56719Y127134D01*
Y126266D01*
X57051Y125464D01*
X57665Y124851D01*
X58466Y124519D01*
X59334D01*
X60136Y124851D01*
X60749Y125464D01*
X61081Y126266D01*
Y126718D01*
X64495Y130132D01*
X88400D01*
X88985Y130248D01*
X89481Y130580D01*
X93058Y134157D01*
X93390Y134653D01*
X93506Y135238D01*
Y149603D01*
X93826Y149923D01*
X94158Y150724D01*
Y151592D01*
X93826Y152394D01*
X93212Y153007D01*
X92410Y153339D01*
D02*
G37*
G36*
X218109Y108906D02*
X217241D01*
X216440Y108574D01*
X216120Y108254D01*
X197107D01*
X196521Y108138D01*
X196025Y107806D01*
X192108Y103889D01*
X191776Y103392D01*
X191660Y102807D01*
Y66876D01*
X191340Y66556D01*
X191008Y65754D01*
Y64887D01*
X191340Y64085D01*
X191954Y63471D01*
X192701Y63162D01*
X192783Y63068D01*
X192953Y62639D01*
X192861Y62502D01*
X192755D01*
X191954Y62169D01*
X191340Y61556D01*
X191008Y60754D01*
Y59887D01*
X191340Y59085D01*
X191954Y58471D01*
X192755Y58139D01*
X193623D01*
X194424Y58471D01*
X195038Y59085D01*
X195370Y59887D01*
Y60339D01*
X197381Y62350D01*
X197713Y62846D01*
X197829Y63431D01*
Y100402D01*
X198962Y101534D01*
X248808D01*
X249393Y101651D01*
X249889Y101982D01*
X250482Y102575D01*
X250934D01*
X251735Y102907D01*
X252349Y103521D01*
X252681Y104323D01*
Y105190D01*
X252349Y105992D01*
X251735Y106605D01*
X250934Y106937D01*
X250066D01*
X249265Y106605D01*
X248651Y105992D01*
X248319Y105190D01*
Y104738D01*
X248174Y104593D01*
X219335D01*
X219128Y105093D01*
X219524Y105489D01*
X219856Y106291D01*
Y107159D01*
X219524Y107960D01*
X218911Y108574D01*
X218109Y108906D01*
D02*
G37*
G36*
X188634Y110874D02*
X187766D01*
X186964Y110542D01*
X186351Y109929D01*
X186019Y109127D01*
Y108259D01*
X186351Y107458D01*
X186660Y107149D01*
Y61876D01*
X186340Y61556D01*
X186008Y60754D01*
Y59887D01*
X186340Y59085D01*
X186954Y58471D01*
X187755Y58139D01*
X188623D01*
X189425Y58471D01*
X190038Y59085D01*
X190370Y59887D01*
Y60754D01*
X190038Y61556D01*
X189718Y61876D01*
Y107127D01*
X190049Y107458D01*
X190381Y108259D01*
Y109127D01*
X190049Y109929D01*
X189436Y110542D01*
X188634Y110874D01*
D02*
G37*
G36*
X210930Y72032D02*
X210063D01*
X209261Y71700D01*
X208647Y71086D01*
X208315Y70284D01*
Y69417D01*
X208647Y68615D01*
X209138Y68124D01*
X208696Y67681D01*
X208364Y66880D01*
Y66012D01*
X208696Y65210D01*
X209309Y64597D01*
X210111Y64265D01*
X210979D01*
X211780Y64597D01*
X212394Y65210D01*
X212726Y66012D01*
Y66237D01*
X213501D01*
X213865Y65872D01*
Y53101D01*
X212690Y51925D01*
X131765D01*
X130023Y53668D01*
Y63300D01*
X129922Y63807D01*
X129634Y64237D01*
X126366Y67506D01*
X125936Y67793D01*
X125429Y67894D01*
X114669D01*
X114161Y67793D01*
X113731Y67506D01*
X110463Y64237D01*
X110175Y63807D01*
X110074Y63300D01*
Y39549D01*
X108070Y37544D01*
X97977D01*
X97649Y38335D01*
X97035Y38949D01*
X96234Y39281D01*
X95366D01*
X94564Y38949D01*
X93951Y38335D01*
X93619Y37534D01*
Y36666D01*
X93951Y35864D01*
X94397Y35419D01*
X93951Y34973D01*
X93619Y34172D01*
Y33304D01*
X93951Y32502D01*
X94564Y31889D01*
X95366Y31557D01*
X96234D01*
X97035Y31889D01*
X97649Y32502D01*
X97977Y33293D01*
X109282D01*
X109789Y33394D01*
X110219Y33682D01*
X113937Y37400D01*
X114071Y37600D01*
X114571Y37448D01*
Y30006D01*
X111915Y27350D01*
X107916D01*
X107596Y27670D01*
X106795Y28002D01*
X105927D01*
X105125Y27670D01*
X104512Y27056D01*
X104180Y26254D01*
Y25387D01*
X104512Y24585D01*
X105125Y23971D01*
X105927Y23639D01*
X106795D01*
X107596Y23971D01*
X107916Y24291D01*
X112548D01*
X113133Y24408D01*
X113630Y24739D01*
X117181Y28291D01*
X117513Y28787D01*
X117629Y29372D01*
Y33018D01*
X118129Y33225D01*
X118457Y32897D01*
X119290Y32417D01*
X120219Y32168D01*
X121181D01*
X122110Y32417D01*
X122943Y32897D01*
X123623Y33578D01*
X124104Y34411D01*
X124353Y35340D01*
Y36301D01*
X124104Y37230D01*
X123623Y38063D01*
X122943Y38743D01*
X122110Y39224D01*
X121181Y39473D01*
X120219D01*
X119290Y39224D01*
X118457Y38743D01*
X118129Y38416D01*
X117629Y38623D01*
Y43018D01*
X118129Y43225D01*
X118457Y42897D01*
X119290Y42417D01*
X120219Y42168D01*
X121181D01*
X122110Y42417D01*
X122943Y42897D01*
X123623Y43578D01*
X124035Y44291D01*
X204146D01*
X206171Y42266D01*
Y16876D01*
X205851Y16556D01*
X205519Y15754D01*
Y14887D01*
X205851Y14085D01*
X206465Y13471D01*
X207266Y13139D01*
X208134D01*
X208935Y13471D01*
X209549Y14085D01*
X209881Y14887D01*
Y15754D01*
X209549Y16556D01*
X209229Y16876D01*
Y42900D01*
X209113Y43485D01*
X208781Y43982D01*
X205861Y46902D01*
X205453Y47175D01*
X205505Y47595D01*
X205536Y47675D01*
X213902D01*
X214409Y47775D01*
X214839Y48063D01*
X217728Y50952D01*
X218016Y51382D01*
X218116Y51889D01*
Y67084D01*
X218016Y67591D01*
X217728Y68021D01*
X215650Y70100D01*
X215220Y70387D01*
X214713Y70488D01*
X212593D01*
X212346Y71086D01*
X211732Y71700D01*
X210930Y72032D01*
D02*
G37*
G36*
X121181Y29473D02*
X120219D01*
X119290Y29224D01*
X118457Y28743D01*
X117777Y28063D01*
X117296Y27230D01*
X117047Y26301D01*
Y25340D01*
X117296Y24411D01*
X117777Y23578D01*
X118457Y22897D01*
X119290Y22417D01*
X120219Y22168D01*
X121181D01*
X122110Y22417D01*
X122943Y22897D01*
X123623Y23578D01*
X124104Y24411D01*
X124353Y25340D01*
Y26301D01*
X124104Y27230D01*
X123623Y28063D01*
X122943Y28743D01*
X122110Y29224D01*
X121181Y29473D01*
D02*
G37*
G36*
X59140Y21058D02*
X58376D01*
X57670Y20766D01*
X57129Y20226D01*
X56837Y19520D01*
Y18756D01*
X57129Y18050D01*
X57670Y17510D01*
X58376Y17217D01*
X59140D01*
X59845Y17510D01*
X60386Y18050D01*
X60678Y18756D01*
Y19520D01*
X60386Y20226D01*
X59845Y20766D01*
X59140Y21058D01*
D02*
G37*
G36*
X64407Y25792D02*
X63443Y25600D01*
X62625Y25054D01*
X62079Y24236D01*
X61887Y23272D01*
Y18941D01*
X62079Y17977D01*
X62625Y17159D01*
X63443Y16613D01*
X64407Y16421D01*
X65372Y16613D01*
X66189Y17159D01*
X66735Y17977D01*
X66927Y18941D01*
Y23272D01*
X66735Y24236D01*
X66189Y25054D01*
X65372Y25600D01*
X64407Y25792D01*
D02*
G37*
G36*
X121181Y19473D02*
X120219D01*
X119290Y19224D01*
X118457Y18743D01*
X117777Y18063D01*
X117296Y17230D01*
X117047Y16301D01*
Y15340D01*
X117296Y14411D01*
X117777Y13578D01*
X118457Y12898D01*
X119290Y12417D01*
X120219Y12168D01*
X121181D01*
X122110Y12417D01*
X122943Y12898D01*
X123623Y13578D01*
X124104Y14411D01*
X124353Y15340D01*
Y16301D01*
X124104Y17230D01*
X123623Y18063D01*
X122943Y18743D01*
X122110Y19224D01*
X121181Y19473D01*
D02*
G37*
%LPD*%
G36*
X98200Y230000D02*
Y203200D01*
X94800Y199800D01*
X31400D01*
X30100Y198500D01*
Y169400D01*
X32300Y167200D01*
X32400Y167300D01*
X48842D01*
X51055Y165087D01*
Y152133D01*
X48622Y149700D01*
X19700D01*
X16800Y152600D01*
Y228800D01*
X19200Y231200D01*
X44900D01*
X46000Y230100D01*
Y222200D01*
X44900Y221100D01*
X32600D01*
X30100Y218600D01*
Y210100D01*
X32000Y208200D01*
X84800D01*
X88700Y212100D01*
Y230000D01*
X90100Y231400D01*
X96800D01*
X98200Y230000D01*
D02*
G37*
%LPC*%
G36*
X16576Y113254D02*
X15224D01*
X13918Y112905D01*
X12748Y112229D01*
X11792Y111273D01*
X11116Y110102D01*
X10766Y108796D01*
Y107445D01*
X11116Y106139D01*
X11792Y104968D01*
X12748Y104012D01*
X13918Y103337D01*
X15224Y102987D01*
X16576D01*
X17882Y103337D01*
X19052Y104012D01*
X20008Y104968D01*
X20684Y106139D01*
X21034Y107445D01*
Y108796D01*
X20684Y110102D01*
X20008Y111273D01*
X19052Y112229D01*
X17882Y112905D01*
X16576Y113254D01*
D02*
G37*
%LPD*%
D15*
X248808Y103064D02*
X250500Y104756D01*
X198328Y103064D02*
X248808D01*
X193189Y102807D02*
X197107Y106725D01*
X217675D01*
X196300Y101036D02*
X198328Y103064D01*
X193189Y65320D02*
Y102807D01*
X196300Y63431D02*
Y101036D01*
X237100Y59276D02*
X240216Y62392D01*
X237100Y30321D02*
Y59276D01*
X240216Y62392D02*
X258878D01*
X261714Y59556D01*
X106361Y25820D02*
X112548D01*
X116100Y29372D01*
Y51220D01*
X120700Y55821D01*
X146300Y55300D02*
Y57604D01*
X126200Y77705D02*
X146300Y57604D01*
X126200Y77705D02*
Y106919D01*
X123819Y76670D02*
Y108260D01*
X142600Y55300D02*
Y57889D01*
X123819Y76670D02*
X142600Y57889D01*
X159987Y117162D02*
X173354D01*
X129251Y109970D02*
X136866D01*
X141300Y114403D01*
X126200Y106919D02*
X129251Y109970D01*
X127959Y112400D02*
X135393D01*
X123819Y108260D02*
X127959Y112400D01*
X138512Y115519D02*
Y204528D01*
X135393Y112400D02*
X138512Y115519D01*
X141300Y114403D02*
Y203700D01*
X138512Y204528D02*
X151104Y217120D01*
X141300Y203700D02*
X151100Y213500D01*
X31296Y22850D02*
X38009D01*
X42364Y18494D01*
X30352Y21906D02*
X31296Y22850D01*
X30352Y21106D02*
Y21906D01*
X188189Y60321D02*
Y108693D01*
X144961Y128373D02*
X151610Y135022D01*
X213350D02*
X216200Y132172D01*
X151610Y135022D02*
X213350D01*
X152121Y132172D02*
X212326D01*
X147600Y120205D02*
Y127651D01*
X152121Y132172D01*
X144961Y117845D02*
Y128373D01*
X147600Y120205D02*
X149961Y117845D01*
X185612Y213500D02*
X189212Y217100D01*
X151100Y213500D02*
X185612D01*
X193189Y60321D02*
X196300Y63431D01*
X233200Y29212D02*
X237092Y25321D01*
X233200Y60792D02*
X237872Y65465D01*
X233200Y29212D02*
Y60792D01*
X261714Y43417D02*
X264794D01*
X266635Y45258D01*
Y66465D01*
X264200Y68900D02*
X266635Y66465D01*
X226979Y60321D02*
X235558Y68900D01*
X264200D01*
X207700Y15321D02*
Y42900D01*
X204780Y45821D02*
X207700Y42900D01*
X120700Y45821D02*
X204780D01*
X237872Y65465D02*
X261714D01*
X77100Y161800D02*
X83271D01*
X85500Y136064D02*
Y159571D01*
X83271Y161800D02*
X85500Y159571D01*
X85436Y136000D02*
X85500Y136064D01*
X51055Y165087D02*
X94845D01*
X98600Y132200D02*
Y161332D01*
X94845Y165087D02*
X98600Y161332D01*
X44788Y158820D02*
X51055Y165087D01*
X43110Y158820D02*
X44788D01*
X58900Y126700D02*
X63861Y131661D01*
X88400D02*
X91977Y135238D01*
X63861Y131661D02*
X88400D01*
X91977Y135238D02*
Y151158D01*
X70240Y126700D02*
X93100D01*
X98600Y132200D01*
D16*
X216791Y51889D02*
Y67084D01*
X211883Y67562D02*
X214050D01*
X210496Y69851D02*
X210973D01*
X210875Y66446D02*
Y66554D01*
X214050Y67562D02*
X215191Y66421D01*
X210545Y66446D02*
X210875D01*
Y66554D02*
X211883Y67562D01*
X210973Y69851D02*
X211662Y69162D01*
X214713D01*
X215191Y52552D02*
Y66421D01*
X214713Y69162D02*
X216791Y67084D01*
X128697Y53119D02*
Y63300D01*
X130553Y49000D02*
X213902D01*
X127097Y52456D02*
Y62637D01*
Y52456D02*
X130553Y49000D01*
X131216Y50600D02*
X213239D01*
X128697Y53119D02*
X131216Y50600D01*
X115331Y64969D02*
X124766D01*
X125429Y66569D02*
X128697Y63300D01*
X114669Y66569D02*
X125429D01*
X124766Y64969D02*
X127097Y62637D01*
X95800Y33738D02*
X96152D01*
X97033Y34619D01*
X109282D01*
X113000Y38337D01*
Y62637D01*
X115331Y64969D01*
X213902Y49000D02*
X216791Y51889D01*
X96152Y37100D02*
X97033Y36219D01*
X108619D01*
X111400Y39000D01*
X95800Y37100D02*
X96152D01*
X111400Y39000D02*
Y63300D01*
X114669Y66569D01*
X213239Y50600D02*
X215191Y52552D01*
D18*
X136004Y83116D02*
Y91727D01*
X160939Y55300D02*
Y58180D01*
X136004Y83116D02*
X160939Y58180D01*
X129000Y80164D02*
Y99600D01*
Y80164D02*
X150000Y59164D01*
Y55300D02*
Y59164D01*
X131809Y80391D02*
X153639Y58561D01*
Y55319D02*
Y58561D01*
X131809Y80391D02*
Y98178D01*
X133873Y81574D02*
X157239Y58208D01*
X133873Y81574D02*
Y94013D01*
X157239Y55300D02*
Y58208D01*
X140821Y96544D02*
Y101402D01*
X136004Y91727D02*
X140821Y96544D01*
X133873Y94013D02*
X138038Y98178D01*
X129000Y99600D02*
X130802Y101402D01*
X134809D01*
D135*
X152600Y150600D02*
X202938D01*
X30352Y4650D02*
X64407D01*
X30352D02*
Y21106D01*
D161*
Y4650D02*
D03*
X64407D02*
D03*
D162*
X30352Y21106D02*
D03*
X64407D02*
D03*
D163*
X120700Y55821D02*
D03*
D164*
Y45821D02*
D03*
Y35820D02*
D03*
Y25820D02*
D03*
Y15821D02*
D03*
Y5821D02*
D03*
D165*
X134324Y236749D02*
D03*
X161883D02*
D03*
X172432Y236729D02*
D03*
X199991D02*
D03*
X73262Y249932D02*
D03*
D166*
X156962Y246788D02*
D03*
X139245D02*
D03*
X195070Y246769D02*
D03*
X177353D02*
D03*
D167*
X63262Y249932D02*
D03*
D168*
X31648Y108121D02*
D03*
D169*
X40703Y121113D02*
D03*
Y95128D02*
D03*
D170*
X43110Y177718D02*
D03*
Y158820D02*
D03*
Y139923D02*
D03*
X6890Y132639D02*
D03*
Y185002D02*
D03*
D171*
X234156Y97826D02*
D03*
X217675Y106725D02*
D03*
X250500Y104756D02*
D03*
X253100Y239866D02*
D03*
Y248527D02*
D03*
X226963Y242071D02*
D03*
Y252171D02*
D03*
X235882Y236700D02*
D03*
X244401Y242071D02*
D03*
X244840Y252383D02*
D03*
X222300Y132172D02*
D03*
X210496Y69851D02*
D03*
X210545Y66446D02*
D03*
X182800Y29141D02*
D03*
X251900Y40465D02*
D03*
X27104Y15100D02*
D03*
Y10000D02*
D03*
X215000Y154400D02*
D03*
X255500D02*
D03*
X296000D02*
D03*
Y183900D02*
D03*
X255500D02*
D03*
X215000D02*
D03*
X106361Y25820D02*
D03*
X165186Y123658D02*
D03*
X153639Y55319D02*
D03*
X142600Y55300D02*
D03*
X95800Y33738D02*
D03*
Y37100D02*
D03*
X184100Y112200D02*
D03*
X173354Y117162D02*
D03*
X138961Y87020D02*
D03*
X117600Y88153D02*
D03*
X171186Y147280D02*
D03*
X186419D02*
D03*
X152600Y150600D02*
D03*
X221100Y14245D02*
D03*
X224907Y14220D02*
D03*
X317100Y235535D02*
D03*
X148631Y186900D02*
D03*
X115800Y160300D02*
D03*
Y165000D02*
D03*
Y169700D02*
D03*
Y174400D02*
D03*
X186419Y164406D02*
D03*
X74000Y147600D02*
D03*
X80600D02*
D03*
X115800Y205632D02*
D03*
X290285Y213882D02*
D03*
X267200Y239866D02*
D03*
Y248527D02*
D03*
X45472Y52200D02*
D03*
X58600Y36502D02*
D03*
X36159Y37760D02*
D03*
X163972Y41500D02*
D03*
Y29141D02*
D03*
X182800Y41500D02*
D03*
X194800Y4321D02*
D03*
X221100D02*
D03*
X288300Y15350D02*
D03*
X171186Y160469D02*
D03*
X184100Y106693D02*
D03*
X188200Y125036D02*
D03*
X159162Y143600D02*
D03*
X95400Y228700D02*
D03*
Y225157D02*
D03*
X42300D02*
D03*
Y228700D02*
D03*
X48501Y72766D02*
D03*
X42364Y18494D02*
D03*
X85400Y231400D02*
D03*
X80857Y210418D02*
D03*
X42300Y214843D02*
D03*
Y218387D02*
D03*
X68262Y241400D02*
D03*
Y237218D02*
D03*
Y233036D02*
D03*
X64500Y215061D02*
D03*
X72024D02*
D03*
Y222500D02*
D03*
X64500D02*
D03*
X68262Y218780D02*
D03*
X317100Y229535D02*
D03*
X188200Y108693D02*
D03*
X188189Y60321D02*
D03*
X216200Y132172D02*
D03*
X212326D02*
D03*
X138038Y98178D02*
D03*
X155919Y87020D02*
D03*
X134809Y101402D02*
D03*
X131809Y98178D02*
D03*
X140821Y101402D02*
D03*
X146300Y55300D02*
D03*
X151104Y217120D02*
D03*
X189212Y217100D02*
D03*
X115800Y197732D02*
D03*
X144961Y117845D02*
D03*
X149961D02*
D03*
X52659Y12800D02*
D03*
X42364D02*
D03*
X36159Y31769D02*
D03*
X193189Y60321D02*
D03*
Y65320D02*
D03*
X160939Y55300D02*
D03*
X157239D02*
D03*
X150000D02*
D03*
X183212Y217100D02*
D03*
X145104Y217120D02*
D03*
X29300Y239466D02*
D03*
Y247566D02*
D03*
X40900Y239466D02*
D03*
Y247566D02*
D03*
X96800Y239466D02*
D03*
Y247566D02*
D03*
X108400Y239466D02*
D03*
Y247566D02*
D03*
X38900Y57766D02*
D03*
Y72766D02*
D03*
X57300Y121520D02*
D03*
Y113420D02*
D03*
X68900Y121520D02*
D03*
Y113420D02*
D03*
X117600Y96253D02*
D03*
X106000D02*
D03*
Y88153D02*
D03*
X62800Y79650D02*
D03*
Y71550D02*
D03*
X74400Y79650D02*
D03*
Y71550D02*
D03*
X20500Y77400D02*
D03*
Y69300D02*
D03*
X8900D02*
D03*
Y77400D02*
D03*
X261738Y46903D02*
D03*
X226979Y60321D02*
D03*
X261714Y43417D02*
D03*
X202938Y150600D02*
D03*
X159987Y117162D02*
D03*
X153070Y126367D02*
D03*
X207700Y15321D02*
D03*
X69407Y27477D02*
D03*
X60459D02*
D03*
X30352D02*
D03*
X58600Y31769D02*
D03*
X33600Y10000D02*
D03*
Y15100D02*
D03*
X34300Y27477D02*
D03*
X251900Y23400D02*
D03*
X261714Y56094D02*
D03*
X237092Y25321D02*
D03*
X237100Y30321D02*
D03*
X241700Y54131D02*
D03*
X265528Y72200D02*
D03*
X261714Y32300D02*
D03*
X255300Y49000D02*
D03*
X261714Y59556D02*
D03*
Y65465D02*
D03*
X85436Y136000D02*
D03*
X77100Y161800D02*
D03*
X58900Y126700D02*
D03*
X70240D02*
D03*
X55250Y136021D02*
D03*
X91977Y151158D02*
D03*
X55250Y143820D02*
D03*
X61300D02*
D03*
X55250Y178718D02*
D03*
X61300D02*
D03*
X80600Y151741D02*
D03*
Y155883D02*
D03*
X61300Y173821D02*
D03*
X55250D02*
D03*
X52500Y96700D02*
D03*
X56600D02*
D03*
X52500Y100200D02*
D03*
X56600D02*
D03*
D172*
X62562Y250050D02*
D03*
X73963D02*
D03*
D173*
X326750Y172400D02*
D03*
M02*
