G04*
G04 #@! TF.GenerationSoftware,Altium Limited,Altium Designer,23.1.1 (15)*
G04*
G04 Layer_Color=8388736*
%FSLAX25Y25*%
%MOIN*%
G70*
G04*
G04 #@! TF.SameCoordinates,D44E4BA0-DF0F-404E-B2C4-BA9F40E5660F*
G04*
G04*
G04 #@! TF.FilePolarity,Positive*
G04*
G01*
G75*
%ADD15C,0.01000*%
%ADD16C,0.00600*%
D15*
X334646Y-0D02*
Y255906D01*
X-0Y-0D02*
Y255906D01*
X334646D01*
X-0Y-0D02*
X334646D01*
X372500Y255906D02*
X374500Y249905D01*
X370500D02*
X372500Y255906D01*
X370500Y6000D02*
X372500Y-0D01*
X374500Y6000D01*
X372500Y154944D02*
Y255906D01*
Y-0D02*
Y97761D01*
X336146Y255906D02*
X373500D01*
X336146Y-0D02*
X373500D01*
X-0Y300000D02*
X6000Y302000D01*
X-0Y300000D02*
X6000Y298000D01*
X328646D02*
X334646Y300000D01*
X328646Y302000D02*
X334646Y300000D01*
X-0D02*
X137132D01*
X194314D02*
X334646D01*
X-0Y257405D02*
Y301000D01*
X334646Y257405D02*
Y301000D01*
D16*
X370101Y103360D02*
X371101Y101361D01*
X373100Y99361D01*
X375099D01*
X376099Y100361D01*
Y102360D01*
X375099Y103360D01*
X374100D01*
X373100Y102360D01*
Y99361D01*
X370101Y109358D02*
Y105359D01*
X373100D01*
X372100Y107359D01*
Y108359D01*
X373100Y109358D01*
X375099D01*
X376099Y108359D01*
Y106359D01*
X375099Y105359D01*
X376099Y111358D02*
X375099D01*
Y112357D01*
X376099D01*
Y111358D01*
X371101Y116356D02*
X370101Y117356D01*
Y119355D01*
X371101Y120355D01*
X375099D01*
X376099Y119355D01*
Y117356D01*
X375099Y116356D01*
X371101D01*
Y122354D02*
X370101Y123354D01*
Y125353D01*
X371101Y126353D01*
X375099D01*
X376099Y125353D01*
Y123354D01*
X375099Y122354D01*
X371101D01*
X376099Y136349D02*
X374100Y134350D01*
X372100D01*
X370101Y136349D01*
X376099Y139349D02*
X372100D01*
Y140348D01*
X373100Y141348D01*
X376099D01*
X373100D01*
X372100Y142348D01*
X373100Y143347D01*
X376099D01*
Y145347D02*
X372100D01*
Y146346D01*
X373100Y147346D01*
X376099D01*
X373100D01*
X372100Y148346D01*
X373100Y149345D01*
X376099D01*
Y151345D02*
X374100Y153344D01*
X372100D01*
X370101Y151345D01*
X138732Y301399D02*
X139731Y302399D01*
X141731D01*
X142730Y301399D01*
Y300400D01*
X141731Y299400D01*
X142730Y298400D01*
Y297401D01*
X141731Y296401D01*
X139731D01*
X138732Y297401D01*
Y298400D01*
X139731Y299400D01*
X138732Y300400D01*
Y301399D01*
X139731Y299400D02*
X141731D01*
X148728Y302399D02*
X144730D01*
Y299400D01*
X146729Y300400D01*
X147729D01*
X148728Y299400D01*
Y297401D01*
X147729Y296401D01*
X145729D01*
X144730Y297401D01*
X150728Y296401D02*
Y297401D01*
X151727D01*
Y296401D01*
X150728D01*
X155726Y301399D02*
X156726Y302399D01*
X158725D01*
X159725Y301399D01*
Y297401D01*
X158725Y296401D01*
X156726D01*
X155726Y297401D01*
Y301399D01*
X161724D02*
X162724Y302399D01*
X164723D01*
X165723Y301399D01*
Y297401D01*
X164723Y296401D01*
X162724D01*
X161724Y297401D01*
Y301399D01*
X175720Y296401D02*
X173720Y298400D01*
Y300400D01*
X175720Y302399D01*
X178719Y296401D02*
Y300400D01*
X179718D01*
X180718Y299400D01*
Y296401D01*
Y299400D01*
X181718Y300400D01*
X182717Y299400D01*
Y296401D01*
X184717D02*
Y300400D01*
X185716D01*
X186716Y299400D01*
Y296401D01*
Y299400D01*
X187716Y300400D01*
X188715Y299400D01*
Y296401D01*
X190715D02*
X192714Y298400D01*
Y300400D01*
X190715Y302399D01*
M02*
