G04*
G04 #@! TF.GenerationSoftware,Altium Limited,Altium Designer,23.1.1 (15)*
G04*
G04 Layer_Color=2752767*
%FSLAX25Y25*%
%MOIN*%
G70*
G04*
G04 #@! TF.SameCoordinates,D44E4BA0-DF0F-404E-B2C4-BA9F40E5660F*
G04*
G04*
G04 #@! TF.FilePolarity,Positive*
G04*
G01*
G75*
%ADD13C,0.00500*%
%ADD15C,0.01000*%
%ADD135C,0.01500*%
%ADD176C,0.01600*%
%ADD177C,0.01400*%
D13*
X43203Y95128D02*
G03*
X43203Y95128I-2500J0D01*
G01*
Y121113D02*
G03*
X43203Y121113I-2500J0D01*
G01*
X34148Y108121D02*
G03*
X34148Y108121I-2500J0D01*
G01*
X74762Y249932D02*
G03*
X74762Y249932I-1500J0D01*
G01*
X75762D02*
G03*
X75762Y249932I-2500J0D01*
G01*
X64762D02*
G03*
X64762Y249932I-1500J0D01*
G01*
X65762D02*
G03*
X65762Y249932I-2500J0D01*
G01*
X178853Y246769D02*
G03*
X178853Y246769I-1500J0D01*
G01*
X179853D02*
G03*
X179853Y246769I-2500J0D01*
G01*
X196570D02*
G03*
X196570Y246769I-1500J0D01*
G01*
X197570D02*
G03*
X197570Y246769I-2500J0D01*
G01*
X140745Y246788D02*
G03*
X140745Y246788I-1500J0D01*
G01*
X141745D02*
G03*
X141745Y246788I-2500J0D01*
G01*
X158462D02*
G03*
X158462Y246788I-1500J0D01*
G01*
X159462D02*
G03*
X159462Y246788I-2500J0D01*
G01*
X56600Y98700D02*
X58100Y101700D01*
X55100D02*
X58100D01*
X55100D02*
X56600Y98700D01*
Y97700D02*
X59100Y102700D01*
X54100D02*
X59100D01*
X54100D02*
X56600Y97700D01*
X52500Y98700D02*
X54000Y101700D01*
X51000D02*
X54000D01*
X51000D02*
X52500Y98700D01*
Y97700D02*
X55000Y102700D01*
X50000D02*
X55000D01*
X50000D02*
X52500Y97700D01*
X56600Y95200D02*
X58100Y98200D01*
X55100D02*
X58100D01*
X55100D02*
X56600Y95200D01*
Y94200D02*
X59100Y99200D01*
X54100D02*
X59100D01*
X54100D02*
X56600Y94200D01*
X52500Y95200D02*
X54000Y98200D01*
X51000D02*
X54000D01*
X51000D02*
X52500Y95200D01*
Y94200D02*
X55000Y99200D01*
X50000D02*
X55000D01*
X50000D02*
X52500Y94200D01*
X55250Y172321D02*
X56750Y175321D01*
X53750D02*
X56750D01*
X53750D02*
X55250Y172321D01*
Y171321D02*
X57750Y176321D01*
X52750D02*
X57750D01*
X52750D02*
X55250Y171321D01*
X61300Y172321D02*
X62800Y175321D01*
X59800D02*
X62800D01*
X59800D02*
X61300Y172321D01*
Y171321D02*
X63800Y176321D01*
X58800D02*
X63800D01*
X58800D02*
X61300Y171321D01*
X80600Y154383D02*
X82100Y157383D01*
X79100D02*
X82100D01*
X79100D02*
X80600Y154383D01*
Y153383D02*
X83100Y158383D01*
X78100D02*
X83100D01*
X78100D02*
X80600Y153383D01*
Y150241D02*
X82100Y153241D01*
X79100D02*
X82100D01*
X79100D02*
X80600Y150241D01*
Y149241D02*
X83100Y154241D01*
X78100D02*
X83100D01*
X78100D02*
X80600Y149241D01*
X61300Y177218D02*
X62800Y180218D01*
X59800D02*
X62800D01*
X59800D02*
X61300Y177218D01*
Y176218D02*
X63800Y181218D01*
X58800D02*
X63800D01*
X58800D02*
X61300Y176218D01*
X55250Y177218D02*
X56750Y180218D01*
X53750D02*
X56750D01*
X53750D02*
X55250Y177218D01*
Y176218D02*
X57750Y181218D01*
X52750D02*
X57750D01*
X52750D02*
X55250Y176218D01*
X61300Y142320D02*
X62800Y145320D01*
X59800D02*
X62800D01*
X59800D02*
X61300Y142320D01*
Y141320D02*
X63800Y146320D01*
X58800D02*
X63800D01*
X58800D02*
X61300Y141320D01*
X55250Y142320D02*
X56750Y145320D01*
X53750D02*
X56750D01*
X53750D02*
X55250Y142320D01*
Y141320D02*
X57750Y146320D01*
X52750D02*
X57750D01*
X52750D02*
X55250Y141320D01*
X91977Y149658D02*
X93477Y152658D01*
X90477D02*
X93477D01*
X90477D02*
X91977Y149658D01*
Y148658D02*
X94477Y153658D01*
X89477D02*
X94477D01*
X89477D02*
X91977Y148658D01*
X55250Y134520D02*
X56750Y137521D01*
X53750D02*
X56750D01*
X53750D02*
X55250Y134520D01*
Y133520D02*
X57750Y138521D01*
X52750D02*
X57750D01*
X52750D02*
X55250Y133520D01*
X70240Y125200D02*
X71740Y128200D01*
X68740D02*
X71740D01*
X68740D02*
X70240Y125200D01*
Y124200D02*
X72740Y129200D01*
X67740D02*
X72740D01*
X67740D02*
X70240Y124200D01*
X58900Y125200D02*
X60400Y128200D01*
X57400D02*
X60400D01*
X57400D02*
X58900Y125200D01*
Y124200D02*
X61400Y129200D01*
X56400D02*
X61400D01*
X56400D02*
X58900Y124200D01*
X77100Y160300D02*
X78600Y163300D01*
X75600D02*
X78600D01*
X75600D02*
X77100Y160300D01*
Y159300D02*
X79600Y164300D01*
X74600D02*
X79600D01*
X74600D02*
X77100Y159300D01*
X85436Y134500D02*
X86936Y137500D01*
X83936D02*
X86936D01*
X83936D02*
X85436Y134500D01*
Y133500D02*
X87936Y138500D01*
X82936D02*
X87936D01*
X82936D02*
X85436Y133500D01*
X261714Y63965D02*
X263214Y66965D01*
X260214D02*
X263214D01*
X260214D02*
X261714Y63965D01*
Y62965D02*
X264214Y67965D01*
X259214D02*
X264214D01*
X259214D02*
X261714Y62965D01*
Y58056D02*
X263214Y61056D01*
X260214D02*
X263214D01*
X260214D02*
X261714Y58056D01*
Y57056D02*
X264214Y62056D01*
X259214D02*
X264214D01*
X259214D02*
X261714Y57056D01*
X255300Y47500D02*
X256800Y50500D01*
X253800D02*
X256800D01*
X253800D02*
X255300Y47500D01*
Y46500D02*
X257800Y51500D01*
X252800D02*
X257800D01*
X252800D02*
X255300Y46500D01*
X261714Y30800D02*
X263214Y33800D01*
X260214D02*
X263214D01*
X260214D02*
X261714Y30800D01*
Y29800D02*
X264214Y34800D01*
X259214D02*
X264214D01*
X259214D02*
X261714Y29800D01*
X265528Y70700D02*
X267028Y73700D01*
X264028D02*
X267028D01*
X264028D02*
X265528Y70700D01*
Y69700D02*
X268028Y74700D01*
X263028D02*
X268028D01*
X263028D02*
X265528Y69700D01*
X241700Y52631D02*
X243200Y55631D01*
X240200D02*
X243200D01*
X240200D02*
X241700Y52631D01*
Y51631D02*
X244200Y56631D01*
X239200D02*
X244200D01*
X239200D02*
X241700Y51631D01*
X237100Y28820D02*
X238600Y31820D01*
X235600D02*
X238600D01*
X235600D02*
X237100Y28820D01*
Y27821D02*
X239600Y32820D01*
X234600D02*
X239600D01*
X234600D02*
X237100Y27821D01*
X237092Y23821D02*
X238592Y26820D01*
X235592D02*
X238592D01*
X235592D02*
X237092Y23821D01*
Y22820D02*
X239592Y27821D01*
X234592D02*
X239592D01*
X234592D02*
X237092Y22820D01*
X261714Y54594D02*
X263214Y57594D01*
X260214D02*
X263214D01*
X260214D02*
X261714Y54594D01*
Y53594D02*
X264214Y58594D01*
X259214D02*
X264214D01*
X259214D02*
X261714Y53594D01*
X251900Y21900D02*
X253400Y24900D01*
X250400D02*
X253400D01*
X250400D02*
X251900Y21900D01*
Y20900D02*
X254400Y25900D01*
X249400D02*
X254400D01*
X249400D02*
X251900Y20900D01*
X34300Y25977D02*
X35800Y28977D01*
X32800D02*
X35800D01*
X32800D02*
X34300Y25977D01*
Y24977D02*
X36800Y29977D01*
X31800D02*
X36800D01*
X31800D02*
X34300Y24977D01*
X33600Y13600D02*
X35100Y16600D01*
X32100D02*
X35100D01*
X32100D02*
X33600Y13600D01*
Y12600D02*
X36100Y17600D01*
X31100D02*
X36100D01*
X31100D02*
X33600Y12600D01*
Y8500D02*
X35100Y11500D01*
X32100D02*
X35100D01*
X32100D02*
X33600Y8500D01*
Y7500D02*
X36100Y12500D01*
X31100D02*
X36100D01*
X31100D02*
X33600Y7500D01*
X58600Y30269D02*
X60100Y33269D01*
X57100D02*
X60100D01*
X57100D02*
X58600Y30269D01*
Y29269D02*
X61100Y34269D01*
X56100D02*
X61100D01*
X56100D02*
X58600Y29269D01*
X30352Y25977D02*
X31852Y28977D01*
X28852D02*
X31852D01*
X28852D02*
X30352Y25977D01*
Y24977D02*
X32852Y29977D01*
X27852D02*
X32852D01*
X27852D02*
X30352Y24977D01*
X60459Y25977D02*
X61959Y28977D01*
X58959D02*
X61959D01*
X58959D02*
X60459Y25977D01*
Y24977D02*
X62959Y29977D01*
X57959D02*
X62959D01*
X57959D02*
X60459Y24977D01*
X69407Y25977D02*
X70907Y28977D01*
X67907D02*
X70907D01*
X67907D02*
X69407Y25977D01*
Y24977D02*
X71907Y29977D01*
X66907D02*
X71907D01*
X66907D02*
X69407Y24977D01*
X207700Y13821D02*
X209200Y16820D01*
X206200D02*
X209200D01*
X206200D02*
X207700Y13821D01*
Y12821D02*
X210200Y17820D01*
X205200D02*
X210200D01*
X205200D02*
X207700Y12821D01*
X153070Y124867D02*
X154570Y127867D01*
X151570D02*
X154570D01*
X151570D02*
X153070Y124867D01*
Y123867D02*
X155570Y128867D01*
X150570D02*
X155570D01*
X150570D02*
X153070Y123867D01*
X159987Y115662D02*
X161487Y118662D01*
X158487D02*
X161487D01*
X158487D02*
X159987Y115662D01*
Y114662D02*
X162487Y119662D01*
X157487D02*
X162487D01*
X157487D02*
X159987Y114662D01*
X202938Y149100D02*
X204438Y152100D01*
X201438D02*
X204438D01*
X201438D02*
X202938Y149100D01*
Y148100D02*
X205438Y153100D01*
X200438D02*
X205438D01*
X200438D02*
X202938Y148100D01*
X261714Y41917D02*
X263214Y44917D01*
X260214D02*
X263214D01*
X260214D02*
X261714Y41917D01*
Y40917D02*
X264214Y45917D01*
X259214D02*
X264214D01*
X259214D02*
X261714Y40917D01*
X226979Y58820D02*
X228479Y61821D01*
X225479D02*
X228479D01*
X225479D02*
X226979Y58820D01*
Y57820D02*
X229479Y62821D01*
X224479D02*
X229479D01*
X224479D02*
X226979Y57820D01*
X261738Y45403D02*
X263238Y48403D01*
X260238D02*
X263238D01*
X260238D02*
X261738Y45403D01*
Y44403D02*
X264238Y49403D01*
X259238D02*
X264238D01*
X259238D02*
X261738Y44403D01*
X8900Y75900D02*
X10400Y78900D01*
X7400D02*
X10400D01*
X7400D02*
X8900Y75900D01*
Y74900D02*
X11400Y79900D01*
X6400D02*
X11400D01*
X6400D02*
X8900Y74900D01*
Y67800D02*
X10400Y70800D01*
X7400D02*
X10400D01*
X7400D02*
X8900Y67800D01*
Y66800D02*
X11400Y71800D01*
X6400D02*
X11400D01*
X6400D02*
X8900Y66800D01*
X20500Y67800D02*
X22000Y70800D01*
X19000D02*
X22000D01*
X19000D02*
X20500Y67800D01*
Y66800D02*
X23000Y71800D01*
X18000D02*
X23000D01*
X18000D02*
X20500Y66800D01*
Y75900D02*
X22000Y78900D01*
X19000D02*
X22000D01*
X19000D02*
X20500Y75900D01*
Y74900D02*
X23000Y79900D01*
X18000D02*
X23000D01*
X18000D02*
X20500Y74900D01*
X74400Y70050D02*
X75900Y73050D01*
X72900D02*
X75900D01*
X72900D02*
X74400Y70050D01*
Y69050D02*
X76900Y74050D01*
X71900D02*
X76900D01*
X71900D02*
X74400Y69050D01*
Y78150D02*
X75900Y81150D01*
X72900D02*
X75900D01*
X72900D02*
X74400Y78150D01*
Y77150D02*
X76900Y82150D01*
X71900D02*
X76900D01*
X71900D02*
X74400Y77150D01*
X62800Y70050D02*
X64300Y73050D01*
X61300D02*
X64300D01*
X61300D02*
X62800Y70050D01*
Y69050D02*
X65300Y74050D01*
X60300D02*
X65300D01*
X60300D02*
X62800Y69050D01*
Y78150D02*
X64300Y81150D01*
X61300D02*
X64300D01*
X61300D02*
X62800Y78150D01*
Y77150D02*
X65300Y82150D01*
X60300D02*
X65300D01*
X60300D02*
X62800Y77150D01*
X106000Y86653D02*
X107500Y89653D01*
X104500D02*
X107500D01*
X104500D02*
X106000Y86653D01*
Y85653D02*
X108500Y90653D01*
X103500D02*
X108500D01*
X103500D02*
X106000Y85653D01*
Y94753D02*
X107500Y97753D01*
X104500D02*
X107500D01*
X104500D02*
X106000Y94753D01*
Y93753D02*
X108500Y98753D01*
X103500D02*
X108500D01*
X103500D02*
X106000Y93753D01*
X117600Y94753D02*
X119100Y97753D01*
X116100D02*
X119100D01*
X116100D02*
X117600Y94753D01*
Y93753D02*
X120100Y98753D01*
X115100D02*
X120100D01*
X115100D02*
X117600Y93753D01*
X68900Y111920D02*
X70400Y114920D01*
X67400D02*
X70400D01*
X67400D02*
X68900Y111920D01*
Y110921D02*
X71400Y115920D01*
X66400D02*
X71400D01*
X66400D02*
X68900Y110921D01*
Y120020D02*
X70400Y123021D01*
X67400D02*
X70400D01*
X67400D02*
X68900Y120020D01*
Y119020D02*
X71400Y124021D01*
X66400D02*
X71400D01*
X66400D02*
X68900Y119020D01*
X57300Y111920D02*
X58800Y114920D01*
X55800D02*
X58800D01*
X55800D02*
X57300Y111920D01*
Y110921D02*
X59800Y115920D01*
X54800D02*
X59800D01*
X54800D02*
X57300Y110921D01*
Y120020D02*
X58800Y123021D01*
X55800D02*
X58800D01*
X55800D02*
X57300Y120020D01*
Y119020D02*
X59800Y124021D01*
X54800D02*
X59800D01*
X54800D02*
X57300Y119020D01*
X38900Y71266D02*
X40400Y74266D01*
X37400D02*
X40400D01*
X37400D02*
X38900Y71266D01*
Y70266D02*
X41400Y75266D01*
X36400D02*
X41400D01*
X36400D02*
X38900Y70266D01*
Y56266D02*
X40400Y59266D01*
X37400D02*
X40400D01*
X37400D02*
X38900Y56266D01*
Y55266D02*
X41400Y60266D01*
X36400D02*
X41400D01*
X36400D02*
X38900Y55266D01*
X108400Y246066D02*
X109900Y249066D01*
X106900D02*
X109900D01*
X106900D02*
X108400Y246066D01*
Y245066D02*
X110900Y250066D01*
X105900D02*
X110900D01*
X105900D02*
X108400Y245066D01*
Y237966D02*
X109900Y240966D01*
X106900D02*
X109900D01*
X106900D02*
X108400Y237966D01*
Y236966D02*
X110900Y241966D01*
X105900D02*
X110900D01*
X105900D02*
X108400Y236966D01*
X96800Y246066D02*
X98300Y249066D01*
X95300D02*
X98300D01*
X95300D02*
X96800Y246066D01*
Y245066D02*
X99300Y250066D01*
X94300D02*
X99300D01*
X94300D02*
X96800Y245066D01*
Y237966D02*
X98300Y240966D01*
X95300D02*
X98300D01*
X95300D02*
X96800Y237966D01*
Y236966D02*
X99300Y241966D01*
X94300D02*
X99300D01*
X94300D02*
X96800Y236966D01*
X40900Y246066D02*
X42400Y249066D01*
X39400D02*
X42400D01*
X39400D02*
X40900Y246066D01*
Y245066D02*
X43400Y250066D01*
X38400D02*
X43400D01*
X38400D02*
X40900Y245066D01*
Y237966D02*
X42400Y240966D01*
X39400D02*
X42400D01*
X39400D02*
X40900Y237966D01*
Y236966D02*
X43400Y241966D01*
X38400D02*
X43400D01*
X38400D02*
X40900Y236966D01*
X29300Y246066D02*
X30800Y249066D01*
X27800D02*
X30800D01*
X27800D02*
X29300Y246066D01*
Y245066D02*
X31800Y250066D01*
X26800D02*
X31800D01*
X26800D02*
X29300Y245066D01*
Y237966D02*
X30800Y240966D01*
X27800D02*
X30800D01*
X27800D02*
X29300Y237966D01*
Y236966D02*
X31800Y241966D01*
X26800D02*
X31800D01*
X26800D02*
X29300Y236966D01*
X145104Y215620D02*
X146604Y218620D01*
X143604D02*
X146604D01*
X143604D02*
X145104Y215620D01*
Y214620D02*
X147604Y219620D01*
X142604D02*
X147604D01*
X142604D02*
X145104Y214620D01*
X183212Y215600D02*
X184712Y218600D01*
X181712D02*
X184712D01*
X181712D02*
X183212Y215600D01*
Y214600D02*
X185712Y219600D01*
X180712D02*
X185712D01*
X180712D02*
X183212Y214600D01*
X150000Y53800D02*
X151500Y56800D01*
X148500D02*
X151500D01*
X148500D02*
X150000Y53800D01*
Y52800D02*
X152500Y57800D01*
X147500D02*
X152500D01*
X147500D02*
X150000Y52800D01*
X157239Y53800D02*
X158739Y56800D01*
X155739D02*
X158739D01*
X155739D02*
X157239Y53800D01*
Y52800D02*
X159739Y57800D01*
X154739D02*
X159739D01*
X154739D02*
X157239Y52800D01*
X160939Y53800D02*
X162439Y56800D01*
X159439D02*
X162439D01*
X159439D02*
X160939Y53800D01*
Y52800D02*
X163439Y57800D01*
X158439D02*
X163439D01*
X158439D02*
X160939Y52800D01*
X193189Y63820D02*
X194689Y66821D01*
X191689D02*
X194689D01*
X191689D02*
X193189Y63820D01*
Y62821D02*
X195689Y67821D01*
X190689D02*
X195689D01*
X190689D02*
X193189Y62821D01*
Y58820D02*
X194689Y61821D01*
X191689D02*
X194689D01*
X191689D02*
X193189Y58820D01*
Y57820D02*
X195689Y62821D01*
X190689D02*
X195689D01*
X190689D02*
X193189Y57820D01*
X36159Y30269D02*
X37659Y33269D01*
X34659D02*
X37659D01*
X34659D02*
X36159Y30269D01*
Y29269D02*
X38659Y34269D01*
X33659D02*
X38659D01*
X33659D02*
X36159Y29269D01*
X42364Y11300D02*
X43864Y14300D01*
X40864D02*
X43864D01*
X40864D02*
X42364Y11300D01*
Y10300D02*
X44864Y15300D01*
X39864D02*
X44864D01*
X39864D02*
X42364Y10300D01*
X52659Y11300D02*
X54159Y14300D01*
X51159D02*
X54159D01*
X51159D02*
X52659Y11300D01*
Y10300D02*
X55159Y15300D01*
X50159D02*
X55159D01*
X50159D02*
X52659Y10300D01*
X149961Y116345D02*
X151461Y119345D01*
X148461D02*
X151461D01*
X148461D02*
X149961Y116345D01*
Y115345D02*
X152461Y120345D01*
X147461D02*
X152461D01*
X147461D02*
X149961Y115345D01*
X144961Y116345D02*
X146461Y119345D01*
X143461D02*
X146461D01*
X143461D02*
X144961Y116345D01*
Y115345D02*
X147461Y120345D01*
X142461D02*
X147461D01*
X142461D02*
X144961Y115345D01*
X115800Y196232D02*
X117300Y199232D01*
X114300D02*
X117300D01*
X114300D02*
X115800Y196232D01*
Y195232D02*
X118300Y200232D01*
X113300D02*
X118300D01*
X113300D02*
X115800Y195232D01*
X189212Y215600D02*
X190712Y218600D01*
X187712D02*
X190712D01*
X187712D02*
X189212Y215600D01*
Y214600D02*
X191712Y219600D01*
X186712D02*
X191712D01*
X186712D02*
X189212Y214600D01*
X151104Y215620D02*
X152604Y218620D01*
X149604D02*
X152604D01*
X149604D02*
X151104Y215620D01*
Y214620D02*
X153604Y219620D01*
X148604D02*
X153604D01*
X148604D02*
X151104Y214620D01*
X146300Y53800D02*
X147800Y56800D01*
X144800D02*
X147800D01*
X144800D02*
X146300Y53800D01*
Y52800D02*
X148800Y57800D01*
X143800D02*
X148800D01*
X143800D02*
X146300Y52800D01*
X140821Y99902D02*
X142321Y102902D01*
X139321D02*
X142321D01*
X139321D02*
X140821Y99902D01*
Y98902D02*
X143321Y103902D01*
X138321D02*
X143321D01*
X138321D02*
X140821Y98902D01*
X131809Y96678D02*
X133309Y99678D01*
X130309D02*
X133309D01*
X130309D02*
X131809Y96678D01*
Y95678D02*
X134309Y100678D01*
X129309D02*
X134309D01*
X129309D02*
X131809Y95678D01*
X134809Y99902D02*
X136309Y102902D01*
X133309D02*
X136309D01*
X133309D02*
X134809Y99902D01*
Y98902D02*
X137309Y103902D01*
X132309D02*
X137309D01*
X132309D02*
X134809Y98902D01*
X155919Y85520D02*
X157419Y88520D01*
X154419D02*
X157419D01*
X154419D02*
X155919Y85520D01*
Y84521D02*
X158419Y89521D01*
X153419D02*
X158419D01*
X153419D02*
X155919Y84521D01*
X138038Y96678D02*
X139538Y99678D01*
X136538D02*
X139538D01*
X136538D02*
X138038Y96678D01*
Y95678D02*
X140538Y100678D01*
X135538D02*
X140538D01*
X135538D02*
X138038Y95678D01*
X212326Y130672D02*
X213826Y133672D01*
X210826D02*
X213826D01*
X210826D02*
X212326Y130672D01*
Y129672D02*
X214826Y134672D01*
X209826D02*
X214826D01*
X209826D02*
X212326Y129672D01*
X216200Y130672D02*
X217700Y133672D01*
X214700D02*
X217700D01*
X214700D02*
X216200Y130672D01*
Y129672D02*
X218700Y134672D01*
X213700D02*
X218700D01*
X213700D02*
X216200Y129672D01*
X188189Y58820D02*
X189689Y61821D01*
X186689D02*
X189689D01*
X186689D02*
X188189Y58820D01*
Y57820D02*
X190689Y62821D01*
X185689D02*
X190689D01*
X185689D02*
X188189Y57820D01*
X188200Y107193D02*
X189700Y110193D01*
X186700D02*
X189700D01*
X186700D02*
X188200Y107193D01*
Y106193D02*
X190700Y111193D01*
X185700D02*
X190700D01*
X185700D02*
X188200Y106193D01*
X317100Y228035D02*
X318600Y231035D01*
X315600D02*
X318600D01*
X315600D02*
X317100Y228035D01*
Y227035D02*
X319600Y232035D01*
X314600D02*
X319600D01*
X314600D02*
X317100Y227035D01*
X68262Y217280D02*
X69762Y220280D01*
X66762D02*
X69762D01*
X66762D02*
X68262Y217280D01*
Y216280D02*
X70762Y221280D01*
X65762D02*
X70762D01*
X65762D02*
X68262Y216280D01*
X64500Y221000D02*
X66000Y224000D01*
X63000D02*
X66000D01*
X63000D02*
X64500Y221000D01*
Y220000D02*
X67000Y225000D01*
X62000D02*
X67000D01*
X62000D02*
X64500Y220000D01*
X72024Y221000D02*
X73524Y224000D01*
X70524D02*
X73524D01*
X70524D02*
X72024Y221000D01*
Y220000D02*
X74524Y225000D01*
X69524D02*
X74524D01*
X69524D02*
X72024Y220000D01*
Y213561D02*
X73524Y216561D01*
X70524D02*
X73524D01*
X70524D02*
X72024Y213561D01*
Y212561D02*
X74524Y217561D01*
X69524D02*
X74524D01*
X69524D02*
X72024Y212561D01*
X64500Y213561D02*
X66000Y216561D01*
X63000D02*
X66000D01*
X63000D02*
X64500Y213561D01*
Y212561D02*
X67000Y217561D01*
X62000D02*
X67000D01*
X62000D02*
X64500Y212561D01*
X68262Y231536D02*
X69762Y234536D01*
X66762D02*
X69762D01*
X66762D02*
X68262Y231536D01*
Y230536D02*
X70762Y235536D01*
X65762D02*
X70762D01*
X65762D02*
X68262Y230536D01*
Y235718D02*
X69762Y238718D01*
X66762D02*
X69762D01*
X66762D02*
X68262Y235718D01*
Y234718D02*
X70762Y239718D01*
X65762D02*
X70762D01*
X65762D02*
X68262Y234718D01*
Y239900D02*
X69762Y242900D01*
X66762D02*
X69762D01*
X66762D02*
X68262Y239900D01*
Y238900D02*
X70762Y243900D01*
X65762D02*
X70762D01*
X65762D02*
X68262Y238900D01*
X42300Y216887D02*
X43800Y219887D01*
X40800D02*
X43800D01*
X40800D02*
X42300Y216887D01*
Y215887D02*
X44800Y220887D01*
X39800D02*
X44800D01*
X39800D02*
X42300Y215887D01*
Y213343D02*
X43800Y216343D01*
X40800D02*
X43800D01*
X40800D02*
X42300Y213343D01*
Y212343D02*
X44800Y217343D01*
X39800D02*
X44800D01*
X39800D02*
X42300Y212343D01*
X80857Y208918D02*
X82358Y211918D01*
X79357D02*
X82358D01*
X79357D02*
X80857Y208918D01*
Y207918D02*
X83358Y212918D01*
X78357D02*
X83358D01*
X78357D02*
X80857Y207918D01*
X85400Y229900D02*
X86900Y232900D01*
X83900D02*
X86900D01*
X83900D02*
X85400Y229900D01*
Y228900D02*
X87900Y233900D01*
X82900D02*
X87900D01*
X82900D02*
X85400Y228900D01*
X42364Y16994D02*
X43864Y19994D01*
X40864D02*
X43864D01*
X40864D02*
X42364Y16994D01*
Y15994D02*
X44864Y20994D01*
X39864D02*
X44864D01*
X39864D02*
X42364Y15994D01*
X48501Y71266D02*
X50001Y74266D01*
X47001D02*
X50001D01*
X47001D02*
X48501Y71266D01*
Y70266D02*
X51001Y75266D01*
X46001D02*
X51001D01*
X46001D02*
X48501Y70266D01*
X42300Y227200D02*
X43800Y230200D01*
X40800D02*
X43800D01*
X40800D02*
X42300Y227200D01*
Y226200D02*
X44800Y231200D01*
X39800D02*
X44800D01*
X39800D02*
X42300Y226200D01*
Y223657D02*
X43800Y226657D01*
X40800D02*
X43800D01*
X40800D02*
X42300Y223657D01*
Y222657D02*
X44800Y227657D01*
X39800D02*
X44800D01*
X39800D02*
X42300Y222657D01*
X95400Y223657D02*
X96900Y226657D01*
X93900D02*
X96900D01*
X93900D02*
X95400Y223657D01*
Y222657D02*
X97900Y227657D01*
X92900D02*
X97900D01*
X92900D02*
X95400Y222657D01*
Y227200D02*
X96900Y230200D01*
X93900D02*
X96900D01*
X93900D02*
X95400Y227200D01*
Y226200D02*
X97900Y231200D01*
X92900D02*
X97900D01*
X92900D02*
X95400Y226200D01*
X159162Y142100D02*
X160662Y145100D01*
X157662D02*
X160662D01*
X157662D02*
X159162Y142100D01*
Y141100D02*
X161662Y146100D01*
X156662D02*
X161662D01*
X156662D02*
X159162Y141100D01*
X188200Y123536D02*
X189700Y126536D01*
X186700D02*
X189700D01*
X186700D02*
X188200Y123536D01*
Y122536D02*
X190700Y127536D01*
X185700D02*
X190700D01*
X185700D02*
X188200Y122536D01*
X184100Y105193D02*
X185600Y108193D01*
X182600D02*
X185600D01*
X182600D02*
X184100Y105193D01*
Y104193D02*
X186600Y109193D01*
X181600D02*
X186600D01*
X181600D02*
X184100Y104193D01*
X171186Y158969D02*
X172686Y161969D01*
X169686D02*
X172686D01*
X169686D02*
X171186Y158969D01*
Y157969D02*
X173686Y162969D01*
X168686D02*
X173686D01*
X168686D02*
X171186Y157969D01*
X288300Y13850D02*
X289800Y16850D01*
X286800D02*
X289800D01*
X286800D02*
X288300Y13850D01*
Y12850D02*
X290800Y17850D01*
X285800D02*
X290800D01*
X285800D02*
X288300Y12850D01*
X221100Y2820D02*
X222600Y5821D01*
X219600D02*
X222600D01*
X219600D02*
X221100Y2820D01*
Y1821D02*
X223600Y6820D01*
X218600D02*
X223600D01*
X218600D02*
X221100Y1821D01*
X194800Y2820D02*
X196300Y5821D01*
X193300D02*
X196300D01*
X193300D02*
X194800Y2820D01*
Y1821D02*
X197300Y6820D01*
X192300D02*
X197300D01*
X192300D02*
X194800Y1821D01*
X182800Y40000D02*
X184300Y43000D01*
X181300D02*
X184300D01*
X181300D02*
X182800Y40000D01*
Y39000D02*
X185300Y44000D01*
X180300D02*
X185300D01*
X180300D02*
X182800Y39000D01*
X163972Y27641D02*
X165472Y30641D01*
X162472D02*
X165472D01*
X162472D02*
X163972Y27641D01*
Y26641D02*
X166472Y31641D01*
X161472D02*
X166472D01*
X161472D02*
X163972Y26641D01*
Y40000D02*
X165472Y43000D01*
X162472D02*
X165472D01*
X162472D02*
X163972Y40000D01*
Y39000D02*
X166472Y44000D01*
X161472D02*
X166472D01*
X161472D02*
X163972Y39000D01*
X36159Y36260D02*
X37659Y39260D01*
X34659D02*
X37659D01*
X34659D02*
X36159Y36260D01*
Y35260D02*
X38659Y40260D01*
X33659D02*
X38659D01*
X33659D02*
X36159Y35260D01*
X58600Y35002D02*
X60100Y38001D01*
X57100D02*
X60100D01*
X57100D02*
X58600Y35002D01*
Y34001D02*
X61100Y39002D01*
X56100D02*
X61100D01*
X56100D02*
X58600Y34001D01*
X45472Y50700D02*
X46972Y53700D01*
X43972D02*
X46972D01*
X43972D02*
X45472Y50700D01*
Y49700D02*
X47972Y54700D01*
X42972D02*
X47972D01*
X42972D02*
X45472Y49700D01*
X267200Y247027D02*
X268700Y250027D01*
X265700D02*
X268700D01*
X265700D02*
X267200Y247027D01*
Y246027D02*
X269700Y251027D01*
X264700D02*
X269700D01*
X264700D02*
X267200Y246027D01*
Y238366D02*
X268700Y241366D01*
X265700D02*
X268700D01*
X265700D02*
X267200Y238366D01*
Y237366D02*
X269700Y242366D01*
X264700D02*
X269700D01*
X264700D02*
X267200Y237366D01*
X290285Y212382D02*
X291785Y215382D01*
X288785D02*
X291785D01*
X288785D02*
X290285Y212382D01*
Y211382D02*
X292785Y216382D01*
X287785D02*
X292785D01*
X287785D02*
X290285Y211382D01*
X115800Y204132D02*
X117300Y207132D01*
X114300D02*
X117300D01*
X114300D02*
X115800Y204132D01*
Y203132D02*
X118300Y208132D01*
X113300D02*
X118300D01*
X113300D02*
X115800Y203132D01*
X80600Y146100D02*
X82100Y149100D01*
X79100D02*
X82100D01*
X79100D02*
X80600Y146100D01*
Y145100D02*
X83100Y150100D01*
X78100D02*
X83100D01*
X78100D02*
X80600Y145100D01*
X74000Y146100D02*
X75500Y149100D01*
X72500D02*
X75500D01*
X72500D02*
X74000Y146100D01*
Y145100D02*
X76500Y150100D01*
X71500D02*
X76500D01*
X71500D02*
X74000Y145100D01*
X186419Y162906D02*
X187919Y165906D01*
X184919D02*
X187919D01*
X184919D02*
X186419Y162906D01*
Y161906D02*
X188919Y166906D01*
X183919D02*
X188919D01*
X183919D02*
X186419Y161906D01*
X115800Y172900D02*
X117300Y175900D01*
X114300D02*
X117300D01*
X114300D02*
X115800Y172900D01*
Y171900D02*
X118300Y176900D01*
X113300D02*
X118300D01*
X113300D02*
X115800Y171900D01*
Y168200D02*
X117300Y171200D01*
X114300D02*
X117300D01*
X114300D02*
X115800Y168200D01*
Y167200D02*
X118300Y172200D01*
X113300D02*
X118300D01*
X113300D02*
X115800Y167200D01*
Y163500D02*
X117300Y166500D01*
X114300D02*
X117300D01*
X114300D02*
X115800Y163500D01*
Y162500D02*
X118300Y167500D01*
X113300D02*
X118300D01*
X113300D02*
X115800Y162500D01*
Y158800D02*
X117300Y161800D01*
X114300D02*
X117300D01*
X114300D02*
X115800Y158800D01*
Y157800D02*
X118300Y162800D01*
X113300D02*
X118300D01*
X113300D02*
X115800Y157800D01*
X148631Y185400D02*
X150131Y188400D01*
X147131D02*
X150131D01*
X147131D02*
X148631Y185400D01*
Y184400D02*
X151131Y189400D01*
X146131D02*
X151131D01*
X146131D02*
X148631Y184400D01*
X317100Y234035D02*
X318600Y237035D01*
X315600D02*
X318600D01*
X315600D02*
X317100Y234035D01*
Y233035D02*
X319600Y238035D01*
X314600D02*
X319600D01*
X314600D02*
X317100Y233035D01*
X224907Y12720D02*
X226407Y15721D01*
X223407D02*
X226407D01*
X223407D02*
X224907Y12720D01*
Y11721D02*
X227407Y16721D01*
X222407D02*
X227407D01*
X222407D02*
X224907Y11721D01*
X221100Y12745D02*
X222600Y15745D01*
X219600D02*
X222600D01*
X219600D02*
X221100Y12745D01*
Y11745D02*
X223600Y16745D01*
X218600D02*
X223600D01*
X218600D02*
X221100Y11745D01*
X152600Y149100D02*
X154100Y152100D01*
X151100D02*
X154100D01*
X151100D02*
X152600Y149100D01*
Y148100D02*
X155100Y153100D01*
X150100D02*
X155100D01*
X150100D02*
X152600Y148100D01*
X186419Y145780D02*
X187919Y148780D01*
X184919D02*
X187919D01*
X184919D02*
X186419Y145780D01*
Y144780D02*
X188919Y149780D01*
X183919D02*
X188919D01*
X183919D02*
X186419Y144780D01*
X171186Y145780D02*
X172686Y148780D01*
X169686D02*
X172686D01*
X169686D02*
X171186Y145780D01*
Y144780D02*
X173686Y149780D01*
X168686D02*
X173686D01*
X168686D02*
X171186Y144780D01*
X117600Y86653D02*
X119100Y89653D01*
X116100D02*
X119100D01*
X116100D02*
X117600Y86653D01*
Y85653D02*
X120100Y90653D01*
X115100D02*
X120100D01*
X115100D02*
X117600Y85653D01*
X138961Y85520D02*
X140461Y88520D01*
X137461D02*
X140461D01*
X137461D02*
X138961Y85520D01*
Y84521D02*
X141461Y89521D01*
X136461D02*
X141461D01*
X136461D02*
X138961Y84521D01*
X173354Y115662D02*
X174854Y118662D01*
X171854D02*
X174854D01*
X171854D02*
X173354Y115662D01*
Y114662D02*
X175854Y119662D01*
X170854D02*
X175854D01*
X170854D02*
X173354Y114662D01*
X184100Y110700D02*
X185600Y113700D01*
X182600D02*
X185600D01*
X182600D02*
X184100Y110700D01*
Y109700D02*
X186600Y114700D01*
X181600D02*
X186600D01*
X181600D02*
X184100Y109700D01*
X95800Y35600D02*
X97300Y38600D01*
X94300D02*
X97300D01*
X94300D02*
X95800Y35600D01*
Y34600D02*
X98300Y39600D01*
X93300D02*
X98300D01*
X93300D02*
X95800Y34600D01*
Y32238D02*
X97300Y35238D01*
X94300D02*
X97300D01*
X94300D02*
X95800Y32238D01*
Y31238D02*
X98300Y36238D01*
X93300D02*
X98300D01*
X93300D02*
X95800Y31238D01*
X142600Y53800D02*
X144100Y56800D01*
X141100D02*
X144100D01*
X141100D02*
X142600Y53800D01*
Y52800D02*
X145100Y57800D01*
X140100D02*
X145100D01*
X140100D02*
X142600Y52800D01*
X153639Y53819D02*
X155139Y56819D01*
X152139D02*
X155139D01*
X152139D02*
X153639Y53819D01*
Y52819D02*
X156139Y57819D01*
X151139D02*
X156139D01*
X151139D02*
X153639Y52819D01*
X165186Y122158D02*
X166686Y125158D01*
X163686D02*
X166686D01*
X163686D02*
X165186Y122158D01*
Y121158D02*
X167686Y126158D01*
X162686D02*
X167686D01*
X162686D02*
X165186Y121158D01*
X106361Y24320D02*
X107861Y27321D01*
X104861D02*
X107861D01*
X104861D02*
X106361Y24320D01*
Y23321D02*
X108861Y28321D01*
X103861D02*
X108861D01*
X103861D02*
X106361Y23321D01*
X215000Y182400D02*
X216500Y185400D01*
X213500D02*
X216500D01*
X213500D02*
X215000Y182400D01*
Y181400D02*
X217500Y186400D01*
X212500D02*
X217500D01*
X212500D02*
X215000Y181400D01*
X255500Y182400D02*
X257000Y185400D01*
X254000D02*
X257000D01*
X254000D02*
X255500Y182400D01*
Y181400D02*
X258000Y186400D01*
X253000D02*
X258000D01*
X253000D02*
X255500Y181400D01*
X296000Y182400D02*
X297500Y185400D01*
X294500D02*
X297500D01*
X294500D02*
X296000Y182400D01*
Y181400D02*
X298500Y186400D01*
X293500D02*
X298500D01*
X293500D02*
X296000Y181400D01*
Y152900D02*
X297500Y155900D01*
X294500D02*
X297500D01*
X294500D02*
X296000Y152900D01*
Y151900D02*
X298500Y156900D01*
X293500D02*
X298500D01*
X293500D02*
X296000Y151900D01*
X255500Y152900D02*
X257000Y155900D01*
X254000D02*
X257000D01*
X254000D02*
X255500Y152900D01*
Y151900D02*
X258000Y156900D01*
X253000D02*
X258000D01*
X253000D02*
X255500Y151900D01*
X215000Y152900D02*
X216500Y155900D01*
X213500D02*
X216500D01*
X213500D02*
X215000Y152900D01*
Y151900D02*
X217500Y156900D01*
X212500D02*
X217500D01*
X212500D02*
X215000Y151900D01*
X27104Y8500D02*
X28604Y11500D01*
X25604D02*
X28604D01*
X25604D02*
X27104Y8500D01*
Y7500D02*
X29604Y12500D01*
X24604D02*
X29604D01*
X24604D02*
X27104Y7500D01*
Y13600D02*
X28604Y16600D01*
X25604D02*
X28604D01*
X25604D02*
X27104Y13600D01*
Y12600D02*
X29604Y17600D01*
X24604D02*
X29604D01*
X24604D02*
X27104Y12600D01*
X251900Y38965D02*
X253400Y41965D01*
X250400D02*
X253400D01*
X250400D02*
X251900Y38965D01*
Y37965D02*
X254400Y42965D01*
X249400D02*
X254400D01*
X249400D02*
X251900Y37965D01*
X182800Y27641D02*
X184300Y30641D01*
X181300D02*
X184300D01*
X181300D02*
X182800Y27641D01*
Y26641D02*
X185300Y31641D01*
X180300D02*
X185300D01*
X180300D02*
X182800Y26641D01*
X210545Y64946D02*
X212045Y67946D01*
X209045D02*
X212045D01*
X209045D02*
X210545Y64946D01*
Y63946D02*
X213045Y68946D01*
X208045D02*
X213045D01*
X208045D02*
X210545Y63946D01*
X210496Y68351D02*
X211997Y71351D01*
X208997D02*
X211997D01*
X208997D02*
X210496Y68351D01*
Y67351D02*
X212997Y72351D01*
X207997D02*
X212997D01*
X207997D02*
X210496Y67351D01*
X222300Y130672D02*
X223800Y133672D01*
X220800D02*
X223800D01*
X220800D02*
X222300Y130672D01*
Y129672D02*
X224800Y134672D01*
X219800D02*
X224800D01*
X219800D02*
X222300Y129672D01*
X244840Y250883D02*
X246340Y253883D01*
X243340D02*
X246340D01*
X243340D02*
X244840Y250883D01*
Y249883D02*
X247340Y254883D01*
X242340D02*
X247340D01*
X242340D02*
X244840Y249883D01*
X244401Y240571D02*
X245901Y243571D01*
X242901D02*
X245901D01*
X242901D02*
X244401Y240571D01*
Y239571D02*
X246901Y244571D01*
X241901D02*
X246901D01*
X241901D02*
X244401Y239571D01*
X235882Y235200D02*
X237382Y238200D01*
X234382D02*
X237382D01*
X234382D02*
X235882Y235200D01*
Y234200D02*
X238382Y239200D01*
X233382D02*
X238382D01*
X233382D02*
X235882Y234200D01*
X226963Y250671D02*
X228463Y253671D01*
X225463D02*
X228463D01*
X225463D02*
X226963Y250671D01*
Y249671D02*
X229463Y254671D01*
X224463D02*
X229463D01*
X224463D02*
X226963Y249671D01*
Y240571D02*
X228463Y243571D01*
X225463D02*
X228463D01*
X225463D02*
X226963Y240571D01*
Y239571D02*
X229463Y244571D01*
X224463D02*
X229463D01*
X224463D02*
X226963Y239571D01*
X253100Y247027D02*
X254600Y250027D01*
X251600D02*
X254600D01*
X251600D02*
X253100Y247027D01*
Y246027D02*
X255600Y251027D01*
X250600D02*
X255600D01*
X250600D02*
X253100Y246027D01*
Y238366D02*
X254600Y241366D01*
X251600D02*
X254600D01*
X251600D02*
X253100Y238366D01*
Y237366D02*
X255600Y242366D01*
X250600D02*
X255600D01*
X250600D02*
X253100Y237366D01*
X250500Y103256D02*
X252000Y106256D01*
X249000D02*
X252000D01*
X249000D02*
X250500Y103256D01*
Y102256D02*
X253000Y107256D01*
X248000D02*
X253000D01*
X248000D02*
X250500Y102256D01*
X217675Y105225D02*
X219175Y108225D01*
X216175D02*
X219175D01*
X216175D02*
X217675Y105225D01*
Y104225D02*
X220175Y109225D01*
X215175D02*
X220175D01*
X215175D02*
X217675Y104225D01*
X234156Y96326D02*
X235655Y99326D01*
X232656D02*
X235655D01*
X232656D02*
X234156Y96326D01*
Y95326D02*
X236655Y100326D01*
X231656D02*
X236655D01*
X231656D02*
X234156Y95326D01*
X9093Y9093D02*
X9843Y8343D01*
X8343Y9093D02*
X9093D01*
X8343D02*
X9093Y9843D01*
X8343Y10593D02*
X9093Y9843D01*
X8343Y10593D02*
X9093D01*
X9843Y11343D01*
X10593Y10593D01*
X11343D01*
X10593Y9843D02*
X11343Y10593D01*
X10593Y9843D02*
X11343Y9093D01*
X10593D02*
X11343D01*
X9843Y8343D02*
X10593Y9093D01*
X8592Y8592D02*
X9843Y7343D01*
X7343Y8592D02*
X8592D01*
X7343D02*
X8592Y9843D01*
X7343Y11092D02*
X8592Y9843D01*
X7343Y11092D02*
X8592D01*
X9843Y12342D01*
X11092Y11092D01*
X12342D01*
X11092Y9843D02*
X12342Y11092D01*
X11092Y9843D02*
X12342Y8592D01*
X11092D02*
X12342D01*
X9843Y7343D02*
X11092Y8592D01*
X9093Y245313D02*
X9843Y244563D01*
X8343Y245313D02*
X9093D01*
X8343D02*
X9093Y246063D01*
X8343Y246813D02*
X9093Y246063D01*
X8343Y246813D02*
X9093D01*
X9843Y247563D01*
X10593Y246813D01*
X11343D01*
X10593Y246063D02*
X11343Y246813D01*
X10593Y246063D02*
X11343Y245313D01*
X10593D02*
X11343D01*
X9843Y244563D02*
X10593Y245313D01*
X8592Y244813D02*
X9843Y243563D01*
X7343Y244813D02*
X8592D01*
X7343D02*
X8592Y246063D01*
X7343Y247313D02*
X8592Y246063D01*
X7343Y247313D02*
X8592D01*
X9843Y248563D01*
X11092Y247313D01*
X12342D01*
X11092Y246063D02*
X12342Y247313D01*
X11092Y246063D02*
X12342Y244813D01*
X11092D02*
X12342D01*
X9843Y243563D02*
X11092Y244813D01*
X324053Y245313D02*
X324803Y244563D01*
X323303Y245313D02*
X324053D01*
X323303D02*
X324053Y246063D01*
X323303Y246813D02*
X324053Y246063D01*
X323303Y246813D02*
X324053D01*
X324803Y247563D01*
X325553Y246813D01*
X326303D01*
X325553Y246063D02*
X326303Y246813D01*
X325553Y246063D02*
X326303Y245313D01*
X325553D02*
X326303D01*
X324803Y244563D02*
X325553Y245313D01*
X323553Y244813D02*
X324803Y243563D01*
X322303Y244813D02*
X323553D01*
X322303D02*
X323553Y246063D01*
X322303Y247313D02*
X323553Y246063D01*
X322303Y247313D02*
X323553D01*
X324803Y248563D01*
X326053Y247313D01*
X327303D01*
X326053Y246063D02*
X327303Y247313D01*
X326053Y246063D02*
X327303Y244813D01*
X326053D02*
X327303D01*
X324803Y243563D02*
X326053Y244813D01*
X324053Y9093D02*
X324803Y8343D01*
X323303Y9093D02*
X324053D01*
X323303D02*
X324053Y9843D01*
X323303Y10593D02*
X324053Y9843D01*
X323303Y10593D02*
X324053D01*
X324803Y11343D01*
X325553Y10593D01*
X326303D01*
X325553Y9843D02*
X326303Y10593D01*
X325553Y9843D02*
X326303Y9093D01*
X325553D02*
X326303D01*
X324803Y8343D02*
X325553Y9093D01*
X323553Y8592D02*
X324803Y7343D01*
X322303Y8592D02*
X323553D01*
X322303D02*
X323553Y9843D01*
X322303Y11092D02*
X323553Y9843D01*
X322303Y11092D02*
X323553D01*
X324803Y12342D01*
X326053Y11092D01*
X327303D01*
X326053Y9843D02*
X327303Y11092D01*
X326053Y9843D02*
X327303Y8592D01*
X326053D02*
X327303D01*
X324803Y7343D02*
X326053Y8592D01*
X4390Y182502D02*
X9390D01*
Y187502D01*
X4390D02*
X9390D01*
X4390Y182502D02*
Y187502D01*
Y130139D02*
X9390D01*
Y135139D01*
X4390D02*
X9390D01*
X4390Y130139D02*
Y135139D01*
X40610Y137423D02*
X45610D01*
Y142423D01*
X40610D02*
X45610D01*
X40610Y137423D02*
Y142423D01*
Y156321D02*
X45610D01*
Y161320D01*
X40610D02*
X45610D01*
X40610Y156321D02*
Y161320D01*
Y175218D02*
X45610D01*
Y180218D01*
X40610D02*
X45610D01*
X40610Y175218D02*
Y180218D01*
X15900Y105621D02*
X18400Y110620D01*
X13400D02*
X18400D01*
X13400D02*
X15900Y105621D01*
X198491Y235229D02*
X201491D01*
Y238229D01*
X198491D02*
X201491D01*
X198491Y235229D02*
Y238229D01*
X197491Y234229D02*
X202491D01*
Y239229D01*
X197491D02*
X202491D01*
X197491Y234229D02*
Y239229D01*
X170932Y235229D02*
X173932D01*
Y238229D01*
X170932D02*
X173932D01*
X170932Y235229D02*
Y238229D01*
X169932Y234229D02*
X174932D01*
Y239229D01*
X169932D02*
X174932D01*
X169932Y234229D02*
Y239229D01*
X160383Y235249D02*
X163383D01*
Y238249D01*
X160383D02*
X163383D01*
X160383Y235249D02*
Y238249D01*
X159383Y234249D02*
X164383D01*
Y239249D01*
X159383D02*
X164383D01*
X159383Y234249D02*
Y239249D01*
X132824Y235249D02*
X135824D01*
Y238249D01*
X132824D02*
X135824D01*
X132824Y235249D02*
Y238249D01*
X131824Y234249D02*
X136824D01*
Y239249D01*
X131824D02*
X136824D01*
X131824Y234249D02*
Y239249D01*
X315800Y36724D02*
X318300Y34224D01*
X320800Y36724D01*
X318300Y39224D02*
X320800Y36724D01*
X315800D02*
X318300Y39224D01*
X315800Y68221D02*
X318300Y65720D01*
X320800Y68221D01*
X318300Y70720D02*
X320800Y68221D01*
X315800D02*
X318300Y70720D01*
X118200Y3320D02*
Y4571D01*
X119450Y5821D01*
X118200Y7070D02*
X119450Y5821D01*
X118200Y7070D02*
Y8320D01*
X119450D01*
X120700Y7070D01*
X121950Y8320D01*
X123200D01*
Y7070D02*
Y8320D01*
X121950Y5821D02*
X123200Y7070D01*
X121950Y5821D02*
X123200Y4571D01*
Y3320D02*
Y4571D01*
X121950Y3320D02*
X123200D01*
X120700Y4571D02*
X121950Y3320D01*
X119450D02*
X120700Y4571D01*
X118200Y3320D02*
X119450D01*
X118200Y13320D02*
Y14570D01*
X119450Y15821D01*
X118200Y17071D02*
X119450Y15821D01*
X118200Y17071D02*
Y18320D01*
X119450D01*
X120700Y17071D01*
X121950Y18320D01*
X123200D01*
Y17071D02*
Y18320D01*
X121950Y15821D02*
X123200Y17071D01*
X121950Y15821D02*
X123200Y14570D01*
Y13320D02*
Y14570D01*
X121950Y13320D02*
X123200D01*
X120700Y14570D02*
X121950Y13320D01*
X119450D02*
X120700Y14570D01*
X118200Y13320D02*
X119450D01*
X118200Y23321D02*
Y24570D01*
X119450Y25820D01*
X118200Y27071D02*
X119450Y25820D01*
X118200Y27071D02*
Y28321D01*
X119450D01*
X120700Y27071D01*
X121950Y28321D01*
X123200D01*
Y27071D02*
Y28321D01*
X121950Y25820D02*
X123200Y27071D01*
X121950Y25820D02*
X123200Y24570D01*
Y23321D02*
Y24570D01*
X121950Y23321D02*
X123200D01*
X120700Y24570D02*
X121950Y23321D01*
X119450D02*
X120700Y24570D01*
X118200Y23321D02*
X119450D01*
X118200Y33321D02*
Y34571D01*
X119450Y35820D01*
X118200Y37071D02*
X119450Y35820D01*
X118200Y37071D02*
Y38320D01*
X119450D01*
X120700Y37071D01*
X121950Y38320D01*
X123200D01*
Y37071D02*
Y38320D01*
X121950Y35820D02*
X123200Y37071D01*
X121950Y35820D02*
X123200Y34571D01*
Y33321D02*
Y34571D01*
X121950Y33321D02*
X123200D01*
X120700Y34571D02*
X121950Y33321D01*
X119450D02*
X120700Y34571D01*
X118200Y33321D02*
X119450D01*
X118200Y43321D02*
Y44570D01*
X119450Y45821D01*
X118200Y47071D02*
X119450Y45821D01*
X118200Y47071D02*
Y48320D01*
X119450D01*
X120700Y47071D01*
X121950Y48320D01*
X123200D01*
Y47071D02*
Y48320D01*
X121950Y45821D02*
X123200Y47071D01*
X121950Y45821D02*
X123200Y44570D01*
Y43321D02*
Y44570D01*
X121950Y43321D02*
X123200D01*
X120700Y44570D02*
X121950Y43321D01*
X119450D02*
X120700Y44570D01*
X118200Y43321D02*
X119450D01*
X118200Y53320D02*
Y54571D01*
X119450Y55821D01*
X118200Y57070D02*
X119450Y55821D01*
X118200Y57070D02*
Y58320D01*
X119450D01*
X120700Y57070D01*
X121950Y58320D01*
X123200D01*
Y57070D02*
Y58320D01*
X121950Y55821D02*
X123200Y57070D01*
X121950Y55821D02*
X123200Y54571D01*
Y53320D02*
Y54571D01*
X121950Y53320D02*
X123200D01*
X120700Y54571D02*
X121950Y53320D01*
X119450D02*
X120700Y54571D01*
X118200Y53320D02*
X119450D01*
X33502Y17888D02*
X34752D01*
X33502D02*
Y20388D01*
X34752D01*
Y21638D01*
X37252D01*
Y20388D02*
Y21638D01*
Y20388D02*
X38502D01*
Y17888D02*
Y20388D01*
X37252Y17888D02*
X38502D01*
X37252Y16638D02*
Y17888D01*
X34752Y16638D02*
X37252D01*
X34752D02*
Y17888D01*
X56257D02*
X57507D01*
X56257D02*
Y20388D01*
X57507D01*
Y21638D01*
X60008D01*
Y20388D02*
Y21638D01*
Y20388D02*
X61257D01*
Y17888D02*
Y20388D01*
X60008Y17888D02*
X61257D01*
X60008Y16638D02*
Y17888D01*
X57507Y16638D02*
X60008D01*
X57507D02*
Y17888D01*
X61907Y18606D02*
X64407Y19856D01*
X66907Y18606D01*
X65657Y21106D02*
X66907Y18606D01*
X65657Y21106D02*
X66907Y23606D01*
X64407Y22356D02*
X66907Y23606D01*
X61907D02*
X64407Y22356D01*
X61907Y23606D02*
X63157Y21106D01*
X61907Y18606D02*
X63157Y21106D01*
X27852Y18606D02*
X30352Y19856D01*
X32852Y18606D01*
X31602Y21106D02*
X32852Y18606D01*
X31602Y21106D02*
X32852Y23606D01*
X30352Y22356D02*
X32852Y23606D01*
X27852D02*
X30352Y22356D01*
X27852Y23606D02*
X29102Y21106D01*
X27852Y18606D02*
X29102Y21106D01*
X63157Y3400D02*
X64407Y2150D01*
X61907Y3400D02*
X63157D01*
X61907D02*
X63157Y4650D01*
X61907Y5900D02*
X63157Y4650D01*
X61907Y5900D02*
X63157D01*
X64407Y7150D01*
X65657Y5900D01*
X66907D01*
X65657Y4650D02*
X66907Y5900D01*
X65657Y4650D02*
X66907Y3400D01*
X65657D02*
X66907D01*
X64407Y2150D02*
X65657Y3400D01*
X29102D02*
X30352Y2150D01*
X27852Y3400D02*
X29102D01*
X27852D02*
X29102Y4650D01*
X27852Y5900D02*
X29102Y4650D01*
X27852Y5900D02*
X29102D01*
X30352Y7150D01*
X31602Y5900D01*
X32852D01*
X31602Y4650D02*
X32852Y5900D01*
X31602Y4650D02*
X32852Y3400D01*
X31602D02*
X32852D01*
X30352Y2150D02*
X31602Y3400D01*
D15*
X12596Y477528D02*
G03*
X12596Y477528I-3333J0D01*
G01*
X11263Y402528D02*
G03*
X11263Y402528I-2000J0D01*
G01*
X12596D02*
G03*
X12596Y402528I-3333J0D01*
G01*
X9262Y549194D02*
X12596Y555861D01*
X5929D02*
X12596D01*
X5929D02*
X9262Y549194D01*
X7596Y535861D02*
X9262Y534194D01*
X5929Y535861D02*
X7596D01*
X5929D02*
X7596Y537528D01*
X5929Y539194D02*
X7596Y537528D01*
X5929Y539194D02*
X7596D01*
X9262Y540861D01*
X10929Y539194D01*
X12596D01*
X10929Y537528D02*
X12596Y539194D01*
X10929Y537528D02*
X12596Y535861D01*
X10929D02*
X12596D01*
X9262Y534194D02*
X10929Y535861D01*
X5929Y519194D02*
X9262Y520861D01*
X12596Y519194D01*
X10929Y522528D02*
X12596Y519194D01*
X10929Y522528D02*
X12596Y525861D01*
X9262Y524194D02*
X12596Y525861D01*
X5929D02*
X9262Y524194D01*
X5929Y525861D02*
X7596Y522528D01*
X5929Y519194D02*
X7596Y522528D01*
X5929Y505861D02*
X7596D01*
X5929D02*
Y509194D01*
X7596D01*
Y510861D01*
X10929D01*
Y509194D02*
Y510861D01*
Y509194D02*
X12596D01*
Y505861D02*
Y509194D01*
X10929Y505861D02*
X12596D01*
X10929Y504194D02*
Y505861D01*
X7596Y504194D02*
X10929D01*
X7596D02*
Y505861D01*
X5929Y492527D02*
X9262Y489194D01*
X12596Y492527D01*
X9262Y495861D02*
X12596Y492527D01*
X5929D02*
X9262Y495861D01*
X7262Y460528D02*
X11263D01*
Y464528D01*
X7262D02*
X11263D01*
X7262Y460528D02*
Y464528D01*
X5929Y459194D02*
X12596D01*
Y465861D01*
X5929D02*
X12596D01*
X5929Y459194D02*
Y465861D01*
X8263Y446527D02*
X9262Y445528D01*
X7262Y446527D02*
X8263D01*
X7262D02*
X8263Y447528D01*
X7262Y448527D02*
X8263Y447528D01*
X7262Y448527D02*
X8263D01*
X9262Y449528D01*
X10262Y448527D01*
X11263D01*
X10262Y447528D02*
X11263Y448527D01*
X10262Y447528D02*
X11263Y446527D01*
X10262D02*
X11263D01*
X9262Y445528D02*
X10262Y446527D01*
X7596Y445861D02*
X9262Y444194D01*
X5929Y445861D02*
X7596D01*
X5929D02*
X7596Y447528D01*
X5929Y449194D02*
X7596Y447528D01*
X5929Y449194D02*
X7596D01*
X9262Y450861D01*
X10929Y449194D01*
X12596D01*
X10929Y447528D02*
X12596Y449194D01*
X10929Y447528D02*
X12596Y445861D01*
X10929D02*
X12596D01*
X9262Y444194D02*
X10929Y445861D01*
X5929Y429194D02*
X12596D01*
Y435861D01*
X5929D02*
X12596D01*
X5929Y429194D02*
Y435861D01*
Y414194D02*
Y415861D01*
X7596Y417527D01*
X5929Y419194D02*
X7596Y417527D01*
X5929Y419194D02*
Y420861D01*
X7596D01*
X9262Y419194D01*
X10929Y420861D01*
X12596D01*
Y419194D02*
Y420861D01*
X10929Y417527D02*
X12596Y419194D01*
X10929Y417527D02*
X12596Y415861D01*
Y414194D02*
Y415861D01*
X10929Y414194D02*
X12596D01*
X9262Y415861D02*
X10929Y414194D01*
X7596D02*
X9262Y415861D01*
X5929Y414194D02*
X7596D01*
X9262Y385527D02*
X11263Y389528D01*
X7262D02*
X11263D01*
X7262D02*
X9262Y385527D01*
Y384194D02*
X12596Y390861D01*
X5929D02*
X12596D01*
X5929D02*
X9262Y384194D01*
X1216009Y552193D02*
X1220008D01*
X1216009Y539193D02*
X1217008Y540192D01*
X1219008D01*
X1220008Y539193D01*
Y535194D01*
X1219008Y534194D01*
X1217008D01*
X1216009Y535194D01*
Y539193D01*
X1222007Y534194D02*
Y535194D01*
X1223007D01*
Y534194D01*
X1222007D01*
X1227005Y539193D02*
X1228005Y540192D01*
X1230004D01*
X1231004Y539193D01*
Y538193D01*
X1230004Y537193D01*
X1231004Y536194D01*
Y535194D01*
X1230004Y534194D01*
X1228005D01*
X1227005Y535194D01*
Y536194D01*
X1228005Y537193D01*
X1227005Y538193D01*
Y539193D01*
X1228005Y537193D02*
X1230004D01*
X1233003Y539193D02*
X1234003Y540192D01*
X1236002D01*
X1237002Y539193D01*
Y535194D01*
X1236002Y534194D01*
X1234003D01*
X1233003Y535194D01*
Y539193D01*
X1239001D02*
X1240001Y540192D01*
X1242000D01*
X1243000Y539193D01*
Y535194D01*
X1242000Y534194D01*
X1240001D01*
X1239001Y535194D01*
Y539193D01*
X1244999Y534194D02*
Y538193D01*
X1245999D01*
X1246999Y537193D01*
Y534194D01*
Y537193D01*
X1247998Y538193D01*
X1248998Y537193D01*
Y534194D01*
X1250997D02*
Y538193D01*
X1251997D01*
X1252997Y537193D01*
Y534194D01*
Y537193D01*
X1253996Y538193D01*
X1254996Y537193D01*
Y534194D01*
X1264993D02*
X1262994Y536194D01*
Y538193D01*
X1264993Y540192D01*
X1267992Y539193D02*
X1268992Y540192D01*
X1270991D01*
X1271991Y539193D01*
Y538193D01*
X1270991Y537193D01*
X1269991D01*
X1270991D01*
X1271991Y536194D01*
Y535194D01*
X1270991Y534194D01*
X1268992D01*
X1267992Y535194D01*
X1273990Y534194D02*
X1275989D01*
X1274990D01*
Y540192D01*
X1273990Y539193D01*
X1278988Y534194D02*
Y535194D01*
X1279988D01*
Y534194D01*
X1278988D01*
X1287986Y540192D02*
X1283987D01*
Y537193D01*
X1285986Y538193D01*
X1286986D01*
X1287986Y537193D01*
Y535194D01*
X1286986Y534194D01*
X1284986D01*
X1283987Y535194D01*
X1289985Y539193D02*
X1290985Y540192D01*
X1292984D01*
X1293983Y539193D01*
Y535194D01*
X1292984Y534194D01*
X1290985D01*
X1289985Y535194D01*
Y539193D01*
X1295983Y534194D02*
Y538193D01*
X1296983D01*
X1297982Y537193D01*
Y534194D01*
Y537193D01*
X1298982Y538193D01*
X1299982Y537193D01*
Y534194D01*
X1301981D02*
X1303980D01*
X1302981D01*
Y538193D01*
X1301981D01*
X1306979Y534194D02*
X1308979D01*
X1307979D01*
Y540192D01*
X1306979D01*
X1311978Y534194D02*
X1313977Y536194D01*
Y538193D01*
X1311978Y540192D01*
X1216009Y519194D02*
X1218008D01*
X1217008D01*
Y525192D01*
X1216009Y524193D01*
X1221007Y519194D02*
Y520194D01*
X1222007D01*
Y519194D01*
X1221007D01*
X1226005D02*
X1228005D01*
X1227005D01*
Y525192D01*
X1226005Y524193D01*
X1231004D02*
X1232004Y525192D01*
X1234003D01*
X1235003Y524193D01*
Y520194D01*
X1234003Y519194D01*
X1232004D01*
X1231004Y520194D01*
Y524193D01*
X1237002D02*
X1238002Y525192D01*
X1240001D01*
X1241001Y524193D01*
Y520194D01*
X1240001Y519194D01*
X1238002D01*
X1237002Y520194D01*
Y524193D01*
X1243000Y519194D02*
Y523193D01*
X1244000D01*
X1244999Y522193D01*
Y519194D01*
Y522193D01*
X1245999Y523193D01*
X1246999Y522193D01*
Y519194D01*
X1248998D02*
Y523193D01*
X1249998D01*
X1250997Y522193D01*
Y519194D01*
Y522193D01*
X1251997Y523193D01*
X1252997Y522193D01*
Y519194D01*
X1262994D02*
X1260994Y521194D01*
Y523193D01*
X1262994Y525192D01*
X1268992Y519194D02*
Y525192D01*
X1265993Y522193D01*
X1269991D01*
X1271991Y524193D02*
X1272990Y525192D01*
X1274990D01*
X1275989Y524193D01*
Y523193D01*
X1274990Y522193D01*
X1273990D01*
X1274990D01*
X1275989Y521194D01*
Y520194D01*
X1274990Y519194D01*
X1272990D01*
X1271991Y520194D01*
X1277989Y519194D02*
Y520194D01*
X1278988D01*
Y519194D01*
X1277989D01*
X1282987Y524193D02*
X1283987Y525192D01*
X1285986D01*
X1286986Y524193D01*
Y523193D01*
X1285986Y522193D01*
X1284986D01*
X1285986D01*
X1286986Y521194D01*
Y520194D01*
X1285986Y519194D01*
X1283987D01*
X1282987Y520194D01*
X1288985Y519194D02*
X1290985D01*
X1289985D01*
Y525192D01*
X1288985Y524193D01*
X1293983Y519194D02*
Y523193D01*
X1294983D01*
X1295983Y522193D01*
Y519194D01*
Y522193D01*
X1296982Y523193D01*
X1297982Y522193D01*
Y519194D01*
X1299982D02*
X1301981D01*
X1300981D01*
Y523193D01*
X1299982D01*
X1304980Y519194D02*
X1306979D01*
X1305980D01*
Y525192D01*
X1304980D01*
X1309978Y519194D02*
X1311978Y521194D01*
Y523193D01*
X1309978Y525192D01*
X1216009Y507193D02*
X1220008D01*
X1216009Y492193D02*
X1220008D01*
X1216009Y474194D02*
X1218008D01*
X1217008D01*
Y480192D01*
X1216009Y479193D01*
X1221007Y474194D02*
Y475194D01*
X1222007D01*
Y474194D01*
X1221007D01*
X1230004D02*
X1226005D01*
X1230004Y478193D01*
Y479193D01*
X1229004Y480192D01*
X1227005D01*
X1226005Y479193D01*
X1232004D02*
X1233003Y480192D01*
X1235003D01*
X1236002Y479193D01*
Y475194D01*
X1235003Y474194D01*
X1233003D01*
X1232004Y475194D01*
Y479193D01*
X1238002D02*
X1239001Y480192D01*
X1241001D01*
X1242000Y479193D01*
Y475194D01*
X1241001Y474194D01*
X1239001D01*
X1238002Y475194D01*
Y479193D01*
X1244000Y474194D02*
Y478193D01*
X1244999D01*
X1245999Y477193D01*
Y474194D01*
Y477193D01*
X1246999Y478193D01*
X1247998Y477193D01*
Y474194D01*
X1249998D02*
Y478193D01*
X1250997D01*
X1251997Y477193D01*
Y474194D01*
Y477193D01*
X1252997Y478193D01*
X1253996Y477193D01*
Y474194D01*
X1263993D02*
X1261994Y476194D01*
Y478193D01*
X1263993Y480192D01*
X1269991Y474194D02*
Y480192D01*
X1266992Y477193D01*
X1270991D01*
X1272990Y480192D02*
X1276989D01*
Y479193D01*
X1272990Y475194D01*
Y474194D01*
X1278988D02*
Y475194D01*
X1279988D01*
Y474194D01*
X1278988D01*
X1287986D02*
X1283987D01*
X1287986Y478193D01*
Y479193D01*
X1286986Y480192D01*
X1284986D01*
X1283987Y479193D01*
X1292984Y474194D02*
Y480192D01*
X1289985Y477193D01*
X1293983D01*
X1295983Y474194D02*
Y478193D01*
X1296983D01*
X1297982Y477193D01*
Y474194D01*
Y477193D01*
X1298982Y478193D01*
X1299982Y477193D01*
Y474194D01*
X1301981D02*
X1303980D01*
X1302981D01*
Y478193D01*
X1301981D01*
X1306979Y474194D02*
X1308979D01*
X1307979D01*
Y480192D01*
X1306979D01*
X1311978Y474194D02*
X1313977Y476194D01*
Y478193D01*
X1311978Y480192D01*
X1216009Y462193D02*
X1220008D01*
X1216009Y447193D02*
X1220008D01*
X1216009Y432193D02*
X1220008D01*
X1216009Y417193D02*
X1220008D01*
X1216009Y402193D02*
X1220008D01*
X1216009Y387193D02*
X1220008D01*
X1107041Y552193D02*
X1111039D01*
X1107041Y534194D02*
X1109040D01*
X1108040D01*
Y540192D01*
X1107041Y539193D01*
X1112039Y534194D02*
Y535194D01*
X1113039D01*
Y534194D01*
X1112039D01*
X1120036D02*
Y540192D01*
X1117037Y537193D01*
X1121036D01*
X1123035Y539193D02*
X1124035Y540192D01*
X1126034D01*
X1127034Y539193D01*
Y535194D01*
X1126034Y534194D01*
X1124035D01*
X1123035Y535194D01*
Y539193D01*
X1129033D02*
X1130033Y540192D01*
X1132032D01*
X1133032Y539193D01*
Y535194D01*
X1132032Y534194D01*
X1130033D01*
X1129033Y535194D01*
Y539193D01*
X1135031Y534194D02*
Y538193D01*
X1136031D01*
X1137031Y537193D01*
Y534194D01*
Y537193D01*
X1138030Y538193D01*
X1139030Y537193D01*
Y534194D01*
X1141029D02*
Y538193D01*
X1142029D01*
X1143029Y537193D01*
Y534194D01*
Y537193D01*
X1144028Y538193D01*
X1145028Y537193D01*
Y534194D01*
X1155025D02*
X1153026Y536194D01*
Y538193D01*
X1155025Y540192D01*
X1162023D02*
X1158024D01*
Y537193D01*
X1160023Y538193D01*
X1161023D01*
X1162023Y537193D01*
Y535194D01*
X1161023Y534194D01*
X1159024D01*
X1158024Y535194D01*
X1168021Y540192D02*
X1164022D01*
Y537193D01*
X1166021Y538193D01*
X1167021D01*
X1168021Y537193D01*
Y535194D01*
X1167021Y534194D01*
X1165022D01*
X1164022Y535194D01*
X1170020Y534194D02*
Y535194D01*
X1171020D01*
Y534194D01*
X1170020D01*
X1175019D02*
X1177018D01*
X1176018D01*
Y540192D01*
X1175019Y539193D01*
X1184016Y534194D02*
X1180017D01*
X1184016Y538193D01*
Y539193D01*
X1183016Y540192D01*
X1181017D01*
X1180017Y539193D01*
X1186015Y534194D02*
Y538193D01*
X1187015D01*
X1188014Y537193D01*
Y534194D01*
Y537193D01*
X1189014Y538193D01*
X1190014Y537193D01*
Y534194D01*
X1192013D02*
X1194012D01*
X1193013D01*
Y538193D01*
X1192013D01*
X1197011Y534194D02*
X1199011D01*
X1198011D01*
Y540192D01*
X1197011D01*
X1202010Y534194D02*
X1204009Y536194D01*
Y538193D01*
X1202010Y540192D01*
X1107041Y519194D02*
X1109040D01*
X1108040D01*
Y525192D01*
X1107041Y524193D01*
X1112039Y519194D02*
Y520194D01*
X1113039D01*
Y519194D01*
X1112039D01*
X1117037Y525192D02*
X1121036D01*
Y524193D01*
X1117037Y520194D01*
Y519194D01*
X1123035Y524193D02*
X1124035Y525192D01*
X1126034D01*
X1127034Y524193D01*
Y520194D01*
X1126034Y519194D01*
X1124035D01*
X1123035Y520194D01*
Y524193D01*
X1129033D02*
X1130033Y525192D01*
X1132032D01*
X1133032Y524193D01*
Y520194D01*
X1132032Y519194D01*
X1130033D01*
X1129033Y520194D01*
Y524193D01*
X1135031Y519194D02*
Y523193D01*
X1136031D01*
X1137031Y522193D01*
Y519194D01*
Y522193D01*
X1138030Y523193D01*
X1139030Y522193D01*
Y519194D01*
X1141029D02*
Y523193D01*
X1142029D01*
X1143029Y522193D01*
Y519194D01*
Y522193D01*
X1144028Y523193D01*
X1145028Y522193D01*
Y519194D01*
X1155025D02*
X1153026Y521194D01*
Y523193D01*
X1155025Y525192D01*
X1162023D02*
X1160023Y524193D01*
X1158024Y522193D01*
Y520194D01*
X1159024Y519194D01*
X1161023D01*
X1162023Y520194D01*
Y521194D01*
X1161023Y522193D01*
X1158024D01*
X1168021Y525192D02*
X1166021Y524193D01*
X1164022Y522193D01*
Y520194D01*
X1165022Y519194D01*
X1167021D01*
X1168021Y520194D01*
Y521194D01*
X1167021Y522193D01*
X1164022D01*
X1170020Y519194D02*
Y520194D01*
X1171020D01*
Y519194D01*
X1170020D01*
X1175019Y520194D02*
X1176018Y519194D01*
X1178018D01*
X1179017Y520194D01*
Y524193D01*
X1178018Y525192D01*
X1176018D01*
X1175019Y524193D01*
Y523193D01*
X1176018Y522193D01*
X1179017D01*
X1181017Y524193D02*
X1182016Y525192D01*
X1184016D01*
X1185015Y524193D01*
Y523193D01*
X1184016Y522193D01*
X1183016D01*
X1184016D01*
X1185015Y521194D01*
Y520194D01*
X1184016Y519194D01*
X1182016D01*
X1181017Y520194D01*
X1187015Y519194D02*
Y523193D01*
X1188014D01*
X1189014Y522193D01*
Y519194D01*
Y522193D01*
X1190014Y523193D01*
X1191013Y522193D01*
Y519194D01*
X1193013D02*
X1195012D01*
X1194012D01*
Y523193D01*
X1193013D01*
X1198011Y519194D02*
X1200010D01*
X1199011D01*
Y525192D01*
X1198011D01*
X1203009Y519194D02*
X1205009Y521194D01*
Y523193D01*
X1203009Y525192D01*
X1107041Y507193D02*
X1111039D01*
X1107041Y492193D02*
X1111039D01*
Y474194D02*
X1107041D01*
X1111039Y478193D01*
Y479193D01*
X1110040Y480192D01*
X1108040D01*
X1107041Y479193D01*
X1113039Y474194D02*
Y475194D01*
X1114038D01*
Y474194D01*
X1113039D01*
X1122036D02*
X1118037D01*
X1122036Y478193D01*
Y479193D01*
X1121036Y480192D01*
X1119037D01*
X1118037Y479193D01*
X1124035D02*
X1125035Y480192D01*
X1127034D01*
X1128034Y479193D01*
Y475194D01*
X1127034Y474194D01*
X1125035D01*
X1124035Y475194D01*
Y479193D01*
X1130033D02*
X1131033Y480192D01*
X1133032D01*
X1134032Y479193D01*
Y475194D01*
X1133032Y474194D01*
X1131033D01*
X1130033Y475194D01*
Y479193D01*
X1136031Y474194D02*
Y478193D01*
X1137031D01*
X1138030Y477193D01*
Y474194D01*
Y477193D01*
X1139030Y478193D01*
X1140030Y477193D01*
Y474194D01*
X1142029D02*
Y478193D01*
X1143029D01*
X1144028Y477193D01*
Y474194D01*
Y477193D01*
X1145028Y478193D01*
X1146028Y477193D01*
Y474194D01*
X1156025D02*
X1154025Y476194D01*
Y478193D01*
X1156025Y480192D01*
X1159024Y479193D02*
X1160023Y480192D01*
X1162023D01*
X1163022Y479193D01*
Y478193D01*
X1162023Y477193D01*
X1163022Y476194D01*
Y475194D01*
X1162023Y474194D01*
X1160023D01*
X1159024Y475194D01*
Y476194D01*
X1160023Y477193D01*
X1159024Y478193D01*
Y479193D01*
X1160023Y477193D02*
X1162023D01*
X1169020Y480192D02*
X1167021Y479193D01*
X1165022Y477193D01*
Y475194D01*
X1166021Y474194D01*
X1168021D01*
X1169020Y475194D01*
Y476194D01*
X1168021Y477193D01*
X1165022D01*
X1171020Y474194D02*
Y475194D01*
X1172019D01*
Y474194D01*
X1171020D01*
X1180017Y480192D02*
X1178018Y479193D01*
X1176018Y477193D01*
Y475194D01*
X1177018Y474194D01*
X1179017D01*
X1180017Y475194D01*
Y476194D01*
X1179017Y477193D01*
X1176018D01*
X1182016Y474194D02*
X1184016D01*
X1183016D01*
Y480192D01*
X1182016Y479193D01*
X1187015Y474194D02*
Y478193D01*
X1188014D01*
X1189014Y477193D01*
Y474194D01*
Y477193D01*
X1190014Y478193D01*
X1191013Y477193D01*
Y474194D01*
X1193013D02*
X1195012D01*
X1194012D01*
Y478193D01*
X1193013D01*
X1198011Y474194D02*
X1200010D01*
X1199011D01*
Y480192D01*
X1198011D01*
X1203009Y474194D02*
X1205009Y476194D01*
Y478193D01*
X1203009Y480192D01*
X1107041Y462193D02*
X1111039D01*
X1107041Y447193D02*
X1111039D01*
X1107041Y432193D02*
X1111039D01*
X1107041Y417193D02*
X1111039D01*
X1107041Y402193D02*
X1111039D01*
X1107041Y387193D02*
X1111039D01*
X644975Y553193D02*
X641976D01*
X640976Y552193D01*
Y550194D01*
X641976Y549194D01*
X644975D01*
X646974Y554193D02*
X647974Y555192D01*
X649973D01*
X650973Y554193D01*
Y550194D01*
X649973Y549194D01*
X647974D01*
X646974Y550194D01*
Y554193D01*
X652972Y555192D02*
Y549194D01*
Y552193D01*
X653972Y553193D01*
X655971D01*
X656971Y552193D01*
Y549194D01*
X658970D02*
Y553193D01*
X661969D01*
X662969Y552193D01*
Y549194D01*
X668967D02*
X664968D01*
X668967Y553193D01*
Y554193D01*
X667967Y555192D01*
X665968D01*
X664968Y554193D01*
X670966Y549194D02*
X672965D01*
X671966D01*
Y555192D01*
X670966Y554193D01*
X675965D02*
X676964Y555192D01*
X678964D01*
X679963Y554193D01*
Y550194D01*
X678964Y549194D01*
X676964D01*
X675965Y550194D01*
Y554193D01*
X681963Y549194D02*
Y553193D01*
X682962D01*
X683962Y552193D01*
Y549194D01*
Y552193D01*
X684962Y553193D01*
X685961Y552193D01*
Y549194D01*
X691959Y555192D02*
X687961D01*
Y552193D01*
X689960Y553193D01*
X690960D01*
X691959Y552193D01*
Y550194D01*
X690960Y549194D01*
X688960D01*
X687961Y550194D01*
X640976Y538193D02*
Y534194D01*
Y536194D01*
X641976Y537193D01*
X642975Y538193D01*
X643975D01*
X646974Y535194D02*
X647974Y534194D01*
X649973D01*
X650973Y535194D01*
Y539193D01*
X649973Y540192D01*
X647974D01*
X646974Y539193D01*
Y538193D01*
X647974Y537193D01*
X650973D01*
X652972Y539193D02*
X653972Y540192D01*
X655971D01*
X656971Y539193D01*
Y535194D01*
X655971Y534194D01*
X653972D01*
X652972Y535194D01*
Y539193D01*
X658970Y533194D02*
X662969D01*
X664968Y534194D02*
X666967D01*
X665968D01*
Y540192D01*
X664968Y539193D01*
X669967Y540192D02*
X673965D01*
Y539193D01*
X669967Y535194D01*
Y534194D01*
X675965Y539193D02*
X676964Y540192D01*
X678964D01*
X679963Y539193D01*
Y535194D01*
X678964Y534194D01*
X676964D01*
X675965Y535194D01*
Y539193D01*
X681963Y540192D02*
Y534194D01*
Y537193D01*
X682962Y538193D01*
X684962D01*
X685961Y537193D01*
Y534194D01*
X691959Y540192D02*
X689960Y539193D01*
X687961Y537193D01*
Y535194D01*
X688960Y534194D01*
X690960D01*
X691959Y535194D01*
Y536194D01*
X690960Y537193D01*
X687961D01*
X693959Y539193D02*
X694958Y540192D01*
X696958D01*
X697958Y539193D01*
Y535194D01*
X696958Y534194D01*
X694958D01*
X693959Y535194D01*
Y539193D01*
X699957Y533194D02*
X703956D01*
X705955Y534194D02*
X707954D01*
X706955D01*
Y540192D01*
X705955Y539193D01*
X713952Y534194D02*
Y540192D01*
X710953Y537193D01*
X714952D01*
X716951Y539193D02*
X717951Y540192D01*
X719950D01*
X720950Y539193D01*
Y535194D01*
X719950Y534194D01*
X717951D01*
X716951Y535194D01*
Y539193D01*
X722949Y538193D02*
Y534194D01*
Y536194D01*
X723949Y537193D01*
X724949Y538193D01*
X725948D01*
X728947Y534194D02*
X730947D01*
X729947D01*
Y540192D01*
X728947Y539193D01*
X733946D02*
X734945Y540192D01*
X736945D01*
X737945Y539193D01*
Y535194D01*
X736945Y534194D01*
X734945D01*
X733946Y535194D01*
Y539193D01*
X739944D02*
X740943Y540192D01*
X742943D01*
X743943Y539193D01*
Y535194D01*
X742943Y534194D01*
X740943D01*
X739944Y535194D01*
Y539193D01*
X642975Y519194D02*
X640976Y521194D01*
Y523193D01*
X642975Y525192D01*
X645974Y519194D02*
Y525192D01*
X647974Y523193D01*
X649973Y525192D01*
Y519194D01*
X651972D02*
X653972D01*
X652972D01*
Y523193D01*
X651972D01*
X656971D02*
X660969Y519194D01*
X658970Y521194D01*
X660969Y523193D01*
X656971Y519194D01*
X665968D02*
X663969D01*
X662969Y520194D01*
Y522193D01*
X663969Y523193D01*
X665968D01*
X666967Y522193D01*
Y521194D01*
X662969D01*
X672965Y525192D02*
Y519194D01*
X669967D01*
X668967Y520194D01*
Y522193D01*
X669967Y523193D01*
X672965D01*
X674965Y519194D02*
X676964Y521194D01*
Y523193D01*
X674965Y525192D01*
X644975Y508193D02*
X641976D01*
X640976Y507193D01*
Y505194D01*
X641976Y504194D01*
X644975D01*
X646974Y509193D02*
X647974Y510192D01*
X649973D01*
X650973Y509193D01*
Y505194D01*
X649973Y504194D01*
X647974D01*
X646974Y505194D01*
Y509193D01*
X652972Y510192D02*
Y504194D01*
Y507193D01*
X653972Y508193D01*
X655971D01*
X656971Y507193D01*
Y504194D01*
X658970D02*
Y508193D01*
X661969D01*
X662969Y507193D01*
Y504194D01*
X668967Y510192D02*
X666967Y509193D01*
X664968Y507193D01*
Y505194D01*
X665968Y504194D01*
X667967D01*
X668967Y505194D01*
Y506193D01*
X667967Y507193D01*
X664968D01*
X674965Y504194D02*
X670966D01*
X674965Y508193D01*
Y509193D01*
X673965Y510192D01*
X671966D01*
X670966Y509193D01*
X644975Y493193D02*
X641976D01*
X640976Y492193D01*
Y490194D01*
X641976Y489194D01*
X644975D01*
X646974Y494193D02*
X647974Y495192D01*
X649973D01*
X650973Y494193D01*
Y490194D01*
X649973Y489194D01*
X647974D01*
X646974Y490194D01*
Y494193D01*
X652972Y495192D02*
Y489194D01*
Y492193D01*
X653972Y493193D01*
X655971D01*
X656971Y492193D01*
Y489194D01*
X658970D02*
Y493193D01*
X661969D01*
X662969Y492193D01*
Y489194D01*
X664968D02*
X666967D01*
X665968D01*
Y495192D01*
X664968Y494193D01*
X669967D02*
X670966Y495192D01*
X672965D01*
X673965Y494193D01*
Y490194D01*
X672965Y489194D01*
X670966D01*
X669967Y490194D01*
Y494193D01*
X679963Y489194D02*
X675965D01*
X679963Y493193D01*
Y494193D01*
X678964Y495192D01*
X676964D01*
X675965Y494193D01*
X642975Y474194D02*
X640976Y476194D01*
Y478193D01*
X642975Y480192D01*
X645974Y474194D02*
Y480192D01*
X647974Y478193D01*
X649973Y480192D01*
Y474194D01*
X651972D02*
X653972D01*
X652972D01*
Y478193D01*
X651972D01*
X656971D02*
X660969Y474194D01*
X658970Y476194D01*
X660969Y478193D01*
X656971Y474194D01*
X665968D02*
X663969D01*
X662969Y475194D01*
Y477193D01*
X663969Y478193D01*
X665968D01*
X666967Y477193D01*
Y476194D01*
X662969D01*
X672965Y480192D02*
Y474194D01*
X669967D01*
X668967Y475194D01*
Y477193D01*
X669967Y478193D01*
X672965D01*
X674965Y474194D02*
X676964Y476194D01*
Y478193D01*
X674965Y480192D01*
X644975Y463193D02*
X641976D01*
X640976Y462193D01*
Y460194D01*
X641976Y459194D01*
X644975D01*
X650973D02*
X646974D01*
X650973Y463193D01*
Y464193D01*
X649973Y465192D01*
X647974D01*
X646974Y464193D01*
X652972D02*
X653972Y465192D01*
X655971D01*
X656971Y464193D01*
Y460194D01*
X655971Y459194D01*
X653972D01*
X652972Y460194D01*
Y464193D01*
X658970D02*
X659970Y465192D01*
X661969D01*
X662969Y464193D01*
Y460194D01*
X661969Y459194D01*
X659970D01*
X658970Y460194D01*
Y464193D01*
X664968Y465192D02*
Y459194D01*
Y462193D01*
X665968Y463193D01*
X667967D01*
X668967Y462193D01*
Y459194D01*
X670966D02*
X672965D01*
X671966D01*
Y465192D01*
X670966Y464193D01*
X675965D02*
X676964Y465192D01*
X678964D01*
X679963Y464193D01*
Y463193D01*
X678964Y462193D01*
X677964D01*
X678964D01*
X679963Y461194D01*
Y460194D01*
X678964Y459194D01*
X676964D01*
X675965Y460194D01*
X681963Y464193D02*
X682962Y465192D01*
X684962D01*
X685961Y464193D01*
Y460194D01*
X684962Y459194D01*
X682962D01*
X681963Y460194D01*
Y464193D01*
X640976Y444194D02*
X643975D01*
X644975Y445194D01*
X643975Y446194D01*
X641976D01*
X640976Y447193D01*
X641976Y448193D01*
X644975D01*
X646974Y449193D02*
X647974Y450192D01*
X649973D01*
X650973Y449193D01*
Y445194D01*
X649973Y444194D01*
X647974D01*
X646974Y445194D01*
Y449193D01*
X652972Y450192D02*
Y444194D01*
Y447193D01*
X653972Y448193D01*
X655971D01*
X656971Y447193D01*
Y444194D01*
X658970D02*
Y448193D01*
X661969D01*
X662969Y447193D01*
Y444194D01*
X664968Y449193D02*
X665968Y450192D01*
X667967D01*
X668967Y449193D01*
Y448193D01*
X667967Y447193D01*
X666967D01*
X667967D01*
X668967Y446194D01*
Y445194D01*
X667967Y444194D01*
X665968D01*
X664968Y445194D01*
X674965Y444194D02*
X670966D01*
X674965Y448193D01*
Y449193D01*
X673965Y450192D01*
X671966D01*
X670966Y449193D01*
X676964D02*
X677964Y450192D01*
X679963D01*
X680963Y449193D01*
Y445194D01*
X679963Y444194D01*
X677964D01*
X676964Y445194D01*
Y449193D01*
X644975Y433193D02*
X641976D01*
X640976Y432193D01*
Y430194D01*
X641976Y429194D01*
X644975D01*
X650973D02*
X646974D01*
X650973Y433193D01*
Y434193D01*
X649973Y435192D01*
X647974D01*
X646974Y434193D01*
X652972D02*
X653972Y435192D01*
X655971D01*
X656971Y434193D01*
Y433193D01*
X655971Y432193D01*
X656971Y431193D01*
Y430194D01*
X655971Y429194D01*
X653972D01*
X652972Y430194D01*
Y431193D01*
X653972Y432193D01*
X652972Y433193D01*
Y434193D01*
X653972Y432193D02*
X655971D01*
X658970Y434193D02*
X659970Y435192D01*
X661969D01*
X662969Y434193D01*
Y430194D01*
X661969Y429194D01*
X659970D01*
X658970Y430194D01*
Y434193D01*
X664968Y435192D02*
Y429194D01*
Y432193D01*
X665968Y433193D01*
X667967D01*
X668967Y432193D01*
Y429194D01*
X670966D02*
X672965D01*
X671966D01*
Y435192D01*
X670966Y434193D01*
X679963Y435192D02*
X677964Y434193D01*
X675965Y432193D01*
Y430194D01*
X676964Y429194D01*
X678964D01*
X679963Y430194D01*
Y431193D01*
X678964Y432193D01*
X675965D01*
X681963Y434193D02*
X682962Y435192D01*
X684962D01*
X685961Y434193D01*
Y430194D01*
X684962Y429194D01*
X682962D01*
X681963Y430194D01*
Y434193D01*
X642975Y414194D02*
X640976Y416193D01*
Y418193D01*
X642975Y420192D01*
X645974Y414194D02*
Y420192D01*
X647974Y418193D01*
X649973Y420192D01*
Y414194D01*
X651972D02*
X653972D01*
X652972D01*
Y418193D01*
X651972D01*
X656971D02*
X660969Y414194D01*
X658970Y416193D01*
X660969Y418193D01*
X656971Y414194D01*
X665968D02*
X663969D01*
X662969Y415194D01*
Y417193D01*
X663969Y418193D01*
X665968D01*
X666967Y417193D01*
Y416193D01*
X662969D01*
X672965Y420192D02*
Y414194D01*
X669967D01*
X668967Y415194D01*
Y417193D01*
X669967Y418193D01*
X672965D01*
X674965Y414194D02*
X676964Y416193D01*
Y418193D01*
X674965Y420192D01*
X642975Y399194D02*
X640976Y401194D01*
Y403193D01*
X642975Y405192D01*
X645974Y399194D02*
Y405192D01*
X647974Y403193D01*
X649973Y405192D01*
Y399194D01*
X651972D02*
X653972D01*
X652972D01*
Y403193D01*
X651972D01*
X656971D02*
X660969Y399194D01*
X658970Y401194D01*
X660969Y403193D01*
X656971Y399194D01*
X665968D02*
X663969D01*
X662969Y400194D01*
Y402193D01*
X663969Y403193D01*
X665968D01*
X666967Y402193D01*
Y401194D01*
X662969D01*
X672965Y405192D02*
Y399194D01*
X669967D01*
X668967Y400194D01*
Y402193D01*
X669967Y403193D01*
X672965D01*
X674965Y399194D02*
X676964Y401194D01*
Y403193D01*
X674965Y405192D01*
X640976Y388193D02*
X642975Y384194D01*
X644975Y388193D01*
X650973Y390192D02*
X648973Y389193D01*
X646974Y387193D01*
Y385194D01*
X647974Y384194D01*
X649973D01*
X650973Y385194D01*
Y386193D01*
X649973Y387193D01*
X646974D01*
X652972Y389193D02*
X653972Y390192D01*
X655971D01*
X656971Y389193D01*
Y385194D01*
X655971Y384194D01*
X653972D01*
X652972Y385194D01*
Y389193D01*
X658970Y390192D02*
Y384194D01*
Y387193D01*
X659970Y388193D01*
X661969D01*
X662969Y387193D01*
Y384194D01*
X664968Y389193D02*
X665968Y390192D01*
X667967D01*
X668967Y389193D01*
Y388193D01*
X667967Y387193D01*
X666967D01*
X667967D01*
X668967Y386193D01*
Y385194D01*
X667967Y384194D01*
X665968D01*
X664968Y385194D01*
X670966Y389193D02*
X671966Y390192D01*
X673965D01*
X674965Y389193D01*
Y385194D01*
X673965Y384194D01*
X671966D01*
X670966Y385194D01*
Y389193D01*
X566396Y549194D02*
Y555192D01*
X569395D01*
X570395Y554193D01*
Y552193D01*
X569395Y551194D01*
X566396D01*
X568395D02*
X570395Y549194D01*
X573394D02*
X575393D01*
X576393Y550194D01*
Y552193D01*
X575393Y553193D01*
X573394D01*
X572394Y552193D01*
Y550194D01*
X573394Y549194D01*
X578392Y553193D02*
Y550194D01*
X579392Y549194D01*
X582391D01*
Y553193D01*
X584390Y549194D02*
Y553193D01*
X587389D01*
X588389Y552193D01*
Y549194D01*
X594387Y555192D02*
Y549194D01*
X591388D01*
X590388Y550194D01*
Y552193D01*
X591388Y553193D01*
X594387D01*
X599385Y549194D02*
X597386D01*
X596386Y550194D01*
Y552193D01*
X597386Y553193D01*
X599385D01*
X600385Y552193D01*
Y551194D01*
X596386D01*
X606383Y555192D02*
Y549194D01*
X603384D01*
X602384Y550194D01*
Y552193D01*
X603384Y553193D01*
X606383D01*
X566396Y534194D02*
Y540192D01*
X569395D01*
X570395Y539193D01*
Y537193D01*
X569395Y536194D01*
X566396D01*
X568395D02*
X570395Y534194D01*
X573394D02*
X575393D01*
X576393Y535194D01*
Y537193D01*
X575393Y538193D01*
X573394D01*
X572394Y537193D01*
Y535194D01*
X573394Y534194D01*
X578392Y538193D02*
Y535194D01*
X579392Y534194D01*
X582391D01*
Y538193D01*
X584390Y534194D02*
Y538193D01*
X587389D01*
X588389Y537193D01*
Y534194D01*
X594387Y540192D02*
Y534194D01*
X591388D01*
X590388Y535194D01*
Y537193D01*
X591388Y538193D01*
X594387D01*
X599385Y534194D02*
X597386D01*
X596386Y535194D01*
Y537193D01*
X597386Y538193D01*
X599385D01*
X600385Y537193D01*
Y536194D01*
X596386D01*
X606383Y540192D02*
Y534194D01*
X603384D01*
X602384Y535194D01*
Y537193D01*
X603384Y538193D01*
X606383D01*
X566396Y519194D02*
Y525192D01*
X569395D01*
X570395Y524193D01*
Y522193D01*
X569395Y521194D01*
X566396D01*
X568395D02*
X570395Y519194D01*
X573394D02*
X575393D01*
X576393Y520194D01*
Y522193D01*
X575393Y523193D01*
X573394D01*
X572394Y522193D01*
Y520194D01*
X573394Y519194D01*
X578392Y523193D02*
Y520194D01*
X579392Y519194D01*
X582391D01*
Y523193D01*
X584390Y519194D02*
Y523193D01*
X587389D01*
X588389Y522193D01*
Y519194D01*
X594387Y525192D02*
Y519194D01*
X591388D01*
X590388Y520194D01*
Y522193D01*
X591388Y523193D01*
X594387D01*
X599385Y519194D02*
X597386D01*
X596386Y520194D01*
Y522193D01*
X597386Y523193D01*
X599385D01*
X600385Y522193D01*
Y521194D01*
X596386D01*
X606383Y525192D02*
Y519194D01*
X603384D01*
X602384Y520194D01*
Y522193D01*
X603384Y523193D01*
X606383D01*
X566396Y504194D02*
Y510192D01*
X569395D01*
X570395Y509193D01*
Y507193D01*
X569395Y506193D01*
X566396D01*
X568395D02*
X570395Y504194D01*
X573394D02*
X575393D01*
X576393Y505194D01*
Y507193D01*
X575393Y508193D01*
X573394D01*
X572394Y507193D01*
Y505194D01*
X573394Y504194D01*
X578392Y508193D02*
Y505194D01*
X579392Y504194D01*
X582391D01*
Y508193D01*
X584390Y504194D02*
Y508193D01*
X587389D01*
X588389Y507193D01*
Y504194D01*
X594387Y510192D02*
Y504194D01*
X591388D01*
X590388Y505194D01*
Y507193D01*
X591388Y508193D01*
X594387D01*
X599385Y504194D02*
X597386D01*
X596386Y505194D01*
Y507193D01*
X597386Y508193D01*
X599385D01*
X600385Y507193D01*
Y506193D01*
X596386D01*
X606383Y510192D02*
Y504194D01*
X603384D01*
X602384Y505194D01*
Y507193D01*
X603384Y508193D01*
X606383D01*
X566396Y489194D02*
Y495192D01*
X569395D01*
X570395Y494193D01*
Y492193D01*
X569395Y491193D01*
X566396D01*
X568395D02*
X570395Y489194D01*
X573394D02*
X575393D01*
X576393Y490194D01*
Y492193D01*
X575393Y493193D01*
X573394D01*
X572394Y492193D01*
Y490194D01*
X573394Y489194D01*
X578392Y493193D02*
Y490194D01*
X579392Y489194D01*
X582391D01*
Y493193D01*
X584390Y489194D02*
Y493193D01*
X587389D01*
X588389Y492193D01*
Y489194D01*
X594387Y495192D02*
Y489194D01*
X591388D01*
X590388Y490194D01*
Y492193D01*
X591388Y493193D01*
X594387D01*
X599385Y489194D02*
X597386D01*
X596386Y490194D01*
Y492193D01*
X597386Y493193D01*
X599385D01*
X600385Y492193D01*
Y491193D01*
X596386D01*
X606383Y495192D02*
Y489194D01*
X603384D01*
X602384Y490194D01*
Y492193D01*
X603384Y493193D01*
X606383D01*
X566396Y474194D02*
Y480192D01*
X569395D01*
X570395Y479193D01*
Y477193D01*
X569395Y476194D01*
X566396D01*
X568395D02*
X570395Y474194D01*
X575393D02*
X573394D01*
X572394Y475194D01*
Y477193D01*
X573394Y478193D01*
X575393D01*
X576393Y477193D01*
Y476194D01*
X572394D01*
X582391Y478193D02*
X579392D01*
X578392Y477193D01*
Y475194D01*
X579392Y474194D01*
X582391D01*
X585390Y479193D02*
Y478193D01*
X584390D01*
X586390D01*
X585390D01*
Y475194D01*
X586390Y474194D01*
X590388Y478193D02*
X592388D01*
X593387Y477193D01*
Y474194D01*
X590388D01*
X589389Y475194D01*
X590388Y476194D01*
X593387D01*
X595387Y474194D02*
Y478193D01*
X598386D01*
X599385Y477193D01*
Y474194D01*
X603384Y472195D02*
X604384D01*
X605383Y473195D01*
Y478193D01*
X602384D01*
X601385Y477193D01*
Y475194D01*
X602384Y474194D01*
X605383D01*
X607383D02*
X609382D01*
X608383D01*
Y480192D01*
X607383D01*
X615380Y474194D02*
X613381D01*
X612381Y475194D01*
Y477193D01*
X613381Y478193D01*
X615380D01*
X616380Y477193D01*
Y476194D01*
X612381D01*
X566396Y459194D02*
Y465192D01*
X569395D01*
X570395Y464193D01*
Y462193D01*
X569395Y461194D01*
X566396D01*
X568395D02*
X570395Y459194D01*
X573394D02*
X575393D01*
X576393Y460194D01*
Y462193D01*
X575393Y463193D01*
X573394D01*
X572394Y462193D01*
Y460194D01*
X573394Y459194D01*
X578392Y463193D02*
Y460194D01*
X579392Y459194D01*
X582391D01*
Y463193D01*
X584390Y459194D02*
Y463193D01*
X587389D01*
X588389Y462193D01*
Y459194D01*
X594387Y465192D02*
Y459194D01*
X591388D01*
X590388Y460194D01*
Y462193D01*
X591388Y463193D01*
X594387D01*
X599385Y459194D02*
X597386D01*
X596386Y460194D01*
Y462193D01*
X597386Y463193D01*
X599385D01*
X600385Y462193D01*
Y461194D01*
X596386D01*
X606383Y465192D02*
Y459194D01*
X603384D01*
X602384Y460194D01*
Y462193D01*
X603384Y463193D01*
X606383D01*
X566396Y444194D02*
Y450192D01*
X569395D01*
X570395Y449193D01*
Y447193D01*
X569395Y446194D01*
X566396D01*
X568395D02*
X570395Y444194D01*
X575393D02*
X573394D01*
X572394Y445194D01*
Y447193D01*
X573394Y448193D01*
X575393D01*
X576393Y447193D01*
Y446194D01*
X572394D01*
X582391Y448193D02*
X579392D01*
X578392Y447193D01*
Y445194D01*
X579392Y444194D01*
X582391D01*
X585390Y449193D02*
Y448193D01*
X584390D01*
X586390D01*
X585390D01*
Y445194D01*
X586390Y444194D01*
X590388Y448193D02*
X592388D01*
X593387Y447193D01*
Y444194D01*
X590388D01*
X589389Y445194D01*
X590388Y446194D01*
X593387D01*
X595387Y444194D02*
Y448193D01*
X598386D01*
X599385Y447193D01*
Y444194D01*
X603384Y442195D02*
X604384D01*
X605383Y443194D01*
Y448193D01*
X602384D01*
X601385Y447193D01*
Y445194D01*
X602384Y444194D01*
X605383D01*
X607383D02*
X609382D01*
X608383D01*
Y450192D01*
X607383D01*
X615380Y444194D02*
X613381D01*
X612381Y445194D01*
Y447193D01*
X613381Y448193D01*
X615380D01*
X616380Y447193D01*
Y446194D01*
X612381D01*
X566396Y429194D02*
Y435192D01*
X569395D01*
X570395Y434193D01*
Y432193D01*
X569395Y431193D01*
X566396D01*
X568395D02*
X570395Y429194D01*
X573394D02*
X575393D01*
X576393Y430194D01*
Y432193D01*
X575393Y433193D01*
X573394D01*
X572394Y432193D01*
Y430194D01*
X573394Y429194D01*
X578392Y433193D02*
Y430194D01*
X579392Y429194D01*
X582391D01*
Y433193D01*
X584390Y429194D02*
Y433193D01*
X587389D01*
X588389Y432193D01*
Y429194D01*
X594387Y435192D02*
Y429194D01*
X591388D01*
X590388Y430194D01*
Y432193D01*
X591388Y433193D01*
X594387D01*
X599385Y429194D02*
X597386D01*
X596386Y430194D01*
Y432193D01*
X597386Y433193D01*
X599385D01*
X600385Y432193D01*
Y431193D01*
X596386D01*
X606383Y435192D02*
Y429194D01*
X603384D01*
X602384Y430194D01*
Y432193D01*
X603384Y433193D01*
X606383D01*
X568395Y414194D02*
X566396Y416193D01*
Y418193D01*
X568395Y420192D01*
X571394Y414194D02*
Y420192D01*
X573394Y418193D01*
X575393Y420192D01*
Y414194D01*
X577392D02*
X579392D01*
X578392D01*
Y418193D01*
X577392D01*
X582391D02*
X586390Y414194D01*
X584390Y416193D01*
X586390Y418193D01*
X582391Y414194D01*
X591388D02*
X589389D01*
X588389Y415194D01*
Y417193D01*
X589389Y418193D01*
X591388D01*
X592388Y417193D01*
Y416193D01*
X588389D01*
X598386Y420192D02*
Y414194D01*
X595387D01*
X594387Y415194D01*
Y417193D01*
X595387Y418193D01*
X598386D01*
X600385Y414194D02*
X602384Y416193D01*
Y418193D01*
X600385Y420192D01*
X568395Y399194D02*
X566396Y401194D01*
Y403193D01*
X568395Y405192D01*
X571394Y399194D02*
Y405192D01*
X573394Y403193D01*
X575393Y405192D01*
Y399194D01*
X577392D02*
X579392D01*
X578392D01*
Y403193D01*
X577392D01*
X582391D02*
X586390Y399194D01*
X584390Y401194D01*
X586390Y403193D01*
X582391Y399194D01*
X591388D02*
X589389D01*
X588389Y400194D01*
Y402193D01*
X589389Y403193D01*
X591388D01*
X592388Y402193D01*
Y401194D01*
X588389D01*
X598386Y405192D02*
Y399194D01*
X595387D01*
X594387Y400194D01*
Y402193D01*
X595387Y403193D01*
X598386D01*
X600385Y399194D02*
X602384Y401194D01*
Y403193D01*
X600385Y405192D01*
X566396Y384194D02*
Y390192D01*
X569395D01*
X570395Y389193D01*
Y387193D01*
X569395Y386193D01*
X566396D01*
X568395D02*
X570395Y384194D01*
X573394D02*
X575393D01*
X576393Y385194D01*
Y387193D01*
X575393Y388193D01*
X573394D01*
X572394Y387193D01*
Y385194D01*
X573394Y384194D01*
X578392Y388193D02*
Y385194D01*
X579392Y384194D01*
X582391D01*
Y388193D01*
X584390Y384194D02*
Y388193D01*
X587389D01*
X588389Y387193D01*
Y384194D01*
X594387Y390192D02*
Y384194D01*
X591388D01*
X590388Y385194D01*
Y387193D01*
X591388Y388193D01*
X594387D01*
X599385Y384194D02*
X597386D01*
X596386Y385194D01*
Y387193D01*
X597386Y388193D01*
X599385D01*
X600385Y387193D01*
Y386193D01*
X596386D01*
X606383Y390192D02*
Y384194D01*
X603384D01*
X602384Y385194D01*
Y387193D01*
X603384Y388193D01*
X606383D01*
X507411Y549194D02*
Y555192D01*
X510410D01*
X511410Y554193D01*
Y552193D01*
X510410Y551194D01*
X507411D01*
X514409Y553193D02*
X516408D01*
X517408Y552193D01*
Y549194D01*
X514409D01*
X513409Y550194D01*
X514409Y551194D01*
X517408D01*
X523406Y555192D02*
Y549194D01*
X520407D01*
X519407Y550194D01*
Y552193D01*
X520407Y553193D01*
X523406D01*
X507411Y534194D02*
Y540192D01*
X510410D01*
X511410Y539193D01*
Y537193D01*
X510410Y536194D01*
X507411D01*
X514409Y538193D02*
X516408D01*
X517408Y537193D01*
Y534194D01*
X514409D01*
X513409Y535194D01*
X514409Y536194D01*
X517408D01*
X523406Y540192D02*
Y534194D01*
X520407D01*
X519407Y535194D01*
Y537193D01*
X520407Y538193D01*
X523406D01*
X507411Y519194D02*
Y525192D01*
X510410D01*
X511410Y524193D01*
Y522193D01*
X510410Y521194D01*
X507411D01*
X514409Y523193D02*
X516408D01*
X517408Y522193D01*
Y519194D01*
X514409D01*
X513409Y520194D01*
X514409Y521194D01*
X517408D01*
X523406Y525192D02*
Y519194D01*
X520407D01*
X519407Y520194D01*
Y522193D01*
X520407Y523193D01*
X523406D01*
X507411Y504194D02*
Y510192D01*
X510410D01*
X511410Y509193D01*
Y507193D01*
X510410Y506193D01*
X507411D01*
X514409Y508193D02*
X516408D01*
X517408Y507193D01*
Y504194D01*
X514409D01*
X513409Y505194D01*
X514409Y506193D01*
X517408D01*
X523406Y510192D02*
Y504194D01*
X520407D01*
X519407Y505194D01*
Y507193D01*
X520407Y508193D01*
X523406D01*
X507411Y489194D02*
Y495192D01*
X510410D01*
X511410Y494193D01*
Y492193D01*
X510410Y491193D01*
X507411D01*
X514409Y493193D02*
X516408D01*
X517408Y492193D01*
Y489194D01*
X514409D01*
X513409Y490194D01*
X514409Y491193D01*
X517408D01*
X523406Y495192D02*
Y489194D01*
X520407D01*
X519407Y490194D01*
Y492193D01*
X520407Y493193D01*
X523406D01*
X507411Y474194D02*
Y480192D01*
X510410D01*
X511410Y479193D01*
Y477193D01*
X510410Y476194D01*
X507411D01*
X514409Y478193D02*
X516408D01*
X517408Y477193D01*
Y474194D01*
X514409D01*
X513409Y475194D01*
X514409Y476194D01*
X517408D01*
X523406Y480192D02*
Y474194D01*
X520407D01*
X519407Y475194D01*
Y477193D01*
X520407Y478193D01*
X523406D01*
X507411Y459194D02*
Y465192D01*
X510410D01*
X511410Y464193D01*
Y462193D01*
X510410Y461194D01*
X507411D01*
X514409Y463193D02*
X516408D01*
X517408Y462193D01*
Y459194D01*
X514409D01*
X513409Y460194D01*
X514409Y461194D01*
X517408D01*
X523406Y465192D02*
Y459194D01*
X520407D01*
X519407Y460194D01*
Y462193D01*
X520407Y463193D01*
X523406D01*
X507411Y444194D02*
Y450192D01*
X510410D01*
X511410Y449193D01*
Y447193D01*
X510410Y446194D01*
X507411D01*
X514409Y448193D02*
X516408D01*
X517408Y447193D01*
Y444194D01*
X514409D01*
X513409Y445194D01*
X514409Y446194D01*
X517408D01*
X523406Y450192D02*
Y444194D01*
X520407D01*
X519407Y445194D01*
Y447193D01*
X520407Y448193D01*
X523406D01*
X507411Y429194D02*
Y435192D01*
X510410D01*
X511410Y434193D01*
Y432193D01*
X510410Y431193D01*
X507411D01*
X514409Y433193D02*
X516408D01*
X517408Y432193D01*
Y429194D01*
X514409D01*
X513409Y430194D01*
X514409Y431193D01*
X517408D01*
X523406Y435192D02*
Y429194D01*
X520407D01*
X519407Y430194D01*
Y432193D01*
X520407Y433193D01*
X523406D01*
X507411Y414194D02*
Y420192D01*
X510410D01*
X511410Y419193D01*
Y417193D01*
X510410Y416193D01*
X507411D01*
X514409Y418193D02*
X516408D01*
X517408Y417193D01*
Y414194D01*
X514409D01*
X513409Y415194D01*
X514409Y416193D01*
X517408D01*
X523406Y420192D02*
Y414194D01*
X520407D01*
X519407Y415194D01*
Y417193D01*
X520407Y418193D01*
X523406D01*
X507411Y399194D02*
Y405192D01*
X510410D01*
X511410Y404192D01*
Y402193D01*
X510410Y401194D01*
X507411D01*
X514409Y403193D02*
X516408D01*
X517408Y402193D01*
Y399194D01*
X514409D01*
X513409Y400194D01*
X514409Y401194D01*
X517408D01*
X523406Y405192D02*
Y399194D01*
X520407D01*
X519407Y400194D01*
Y402193D01*
X520407Y403193D01*
X523406D01*
X507411Y390192D02*
Y386193D01*
X509411Y384194D01*
X511410Y386193D01*
Y390192D01*
X513409Y384194D02*
X515409D01*
X514409D01*
Y388193D01*
X513409D01*
X519407D02*
X521407D01*
X522406Y387193D01*
Y384194D01*
X519407D01*
X518408Y385194D01*
X519407Y386193D01*
X522406D01*
X357456Y555192D02*
X361455D01*
X359455D01*
Y549194D01*
X364454D02*
X366453D01*
X367453Y550194D01*
Y552193D01*
X366453Y553193D01*
X364454D01*
X363454Y552193D01*
Y550194D01*
X364454Y549194D01*
X369452Y547195D02*
Y553193D01*
X372451D01*
X373451Y552193D01*
Y550194D01*
X372451Y549194D01*
X369452D01*
X381448Y555192D02*
Y549194D01*
X385447D01*
X388446Y553193D02*
X390445D01*
X391445Y552193D01*
Y549194D01*
X388446D01*
X387446Y550194D01*
X388446Y551194D01*
X391445D01*
X393444Y553193D02*
Y550194D01*
X394444Y549194D01*
X397443D01*
Y548195D01*
X396444Y547195D01*
X395444D01*
X397443Y549194D02*
Y553193D01*
X402442Y549194D02*
X400442D01*
X399443Y550194D01*
Y552193D01*
X400442Y553193D01*
X402442D01*
X403441Y552193D01*
Y551194D01*
X399443D01*
X405441Y553193D02*
Y549194D01*
Y551194D01*
X406440Y552193D01*
X407440Y553193D01*
X408440D01*
X417437Y552193D02*
X421435D01*
X429433Y555192D02*
Y549194D01*
X432432D01*
X433432Y550194D01*
Y551194D01*
X432432Y552193D01*
X429433D01*
X432432D01*
X433432Y553193D01*
Y554193D01*
X432432Y555192D01*
X429433D01*
X436431Y549194D02*
X438430D01*
X439430Y550194D01*
Y552193D01*
X438430Y553193D01*
X436431D01*
X435431Y552193D01*
Y550194D01*
X436431Y549194D01*
X442429Y554193D02*
Y553193D01*
X441429D01*
X443428D01*
X442429D01*
Y550194D01*
X443428Y549194D01*
X447427Y554193D02*
Y553193D01*
X446427D01*
X448427D01*
X447427D01*
Y550194D01*
X448427Y549194D01*
X452425D02*
X454425D01*
X455424Y550194D01*
Y552193D01*
X454425Y553193D01*
X452425D01*
X451426Y552193D01*
Y550194D01*
X452425Y549194D01*
X457424D02*
Y553193D01*
X458424D01*
X459423Y552193D01*
Y549194D01*
Y552193D01*
X460423Y553193D01*
X461422Y552193D01*
Y549194D01*
X469420Y555192D02*
Y549194D01*
X473419D01*
X476418Y553193D02*
X478417D01*
X479417Y552193D01*
Y549194D01*
X476418D01*
X475418Y550194D01*
X476418Y551194D01*
X479417D01*
X481416Y553193D02*
Y550194D01*
X482416Y549194D01*
X485415D01*
Y548195D01*
X484415Y547195D01*
X483415D01*
X485415Y549194D02*
Y553193D01*
X490413Y549194D02*
X488414D01*
X487414Y550194D01*
Y552193D01*
X488414Y553193D01*
X490413D01*
X491413Y552193D01*
Y551194D01*
X487414D01*
X493412Y553193D02*
Y549194D01*
Y551194D01*
X494412Y552193D01*
X495411Y553193D01*
X496411D01*
X357456Y540192D02*
X361455D01*
X359455D01*
Y534194D01*
X364454D02*
X366453D01*
X367453Y535194D01*
Y537193D01*
X366453Y538193D01*
X364454D01*
X363454Y537193D01*
Y535194D01*
X364454Y534194D01*
X369452Y532195D02*
Y538193D01*
X372451D01*
X373451Y537193D01*
Y535194D01*
X372451Y534194D01*
X369452D01*
X381448Y540192D02*
Y534194D01*
X385447D01*
X388446Y538193D02*
X390445D01*
X391445Y537193D01*
Y534194D01*
X388446D01*
X387446Y535194D01*
X388446Y536194D01*
X391445D01*
X393444Y538193D02*
Y535194D01*
X394444Y534194D01*
X397443D01*
Y533194D01*
X396444Y532195D01*
X395444D01*
X397443Y534194D02*
Y538193D01*
X402442Y534194D02*
X400442D01*
X399443Y535194D01*
Y537193D01*
X400442Y538193D01*
X402442D01*
X403441Y537193D01*
Y536194D01*
X399443D01*
X405441Y538193D02*
Y534194D01*
Y536194D01*
X406440Y537193D01*
X407440Y538193D01*
X408440D01*
X417437Y537193D02*
X421435D01*
X429433Y540192D02*
Y534194D01*
X432432D01*
X433432Y535194D01*
Y536194D01*
X432432Y537193D01*
X429433D01*
X432432D01*
X433432Y538193D01*
Y539193D01*
X432432Y540192D01*
X429433D01*
X436431Y534194D02*
X438430D01*
X439430Y535194D01*
Y537193D01*
X438430Y538193D01*
X436431D01*
X435431Y537193D01*
Y535194D01*
X436431Y534194D01*
X442429Y539193D02*
Y538193D01*
X441429D01*
X443428D01*
X442429D01*
Y535194D01*
X443428Y534194D01*
X447427Y539193D02*
Y538193D01*
X446427D01*
X448427D01*
X447427D01*
Y535194D01*
X448427Y534194D01*
X452425D02*
X454425D01*
X455424Y535194D01*
Y537193D01*
X454425Y538193D01*
X452425D01*
X451426Y537193D01*
Y535194D01*
X452425Y534194D01*
X457424D02*
Y538193D01*
X458424D01*
X459423Y537193D01*
Y534194D01*
Y537193D01*
X460423Y538193D01*
X461422Y537193D01*
Y534194D01*
X469420Y540192D02*
Y534194D01*
X473419D01*
X476418Y538193D02*
X478417D01*
X479417Y537193D01*
Y534194D01*
X476418D01*
X475418Y535194D01*
X476418Y536194D01*
X479417D01*
X481416Y538193D02*
Y535194D01*
X482416Y534194D01*
X485415D01*
Y533194D01*
X484415Y532195D01*
X483415D01*
X485415Y534194D02*
Y538193D01*
X490413Y534194D02*
X488414D01*
X487414Y535194D01*
Y537193D01*
X488414Y538193D01*
X490413D01*
X491413Y537193D01*
Y536194D01*
X487414D01*
X493412Y538193D02*
Y534194D01*
Y536194D01*
X494412Y537193D01*
X495411Y538193D01*
X496411D01*
X357456Y525192D02*
X361455D01*
X359455D01*
Y519194D01*
X364454D02*
X366453D01*
X367453Y520194D01*
Y522193D01*
X366453Y523193D01*
X364454D01*
X363454Y522193D01*
Y520194D01*
X364454Y519194D01*
X369452Y517195D02*
Y523193D01*
X372451D01*
X373451Y522193D01*
Y520194D01*
X372451Y519194D01*
X369452D01*
X381448Y525192D02*
Y519194D01*
X385447D01*
X388446Y523193D02*
X390445D01*
X391445Y522193D01*
Y519194D01*
X388446D01*
X387446Y520194D01*
X388446Y521194D01*
X391445D01*
X393444Y523193D02*
Y520194D01*
X394444Y519194D01*
X397443D01*
Y518194D01*
X396444Y517195D01*
X395444D01*
X397443Y519194D02*
Y523193D01*
X402442Y519194D02*
X400442D01*
X399443Y520194D01*
Y522193D01*
X400442Y523193D01*
X402442D01*
X403441Y522193D01*
Y521194D01*
X399443D01*
X405441Y523193D02*
Y519194D01*
Y521194D01*
X406440Y522193D01*
X407440Y523193D01*
X408440D01*
X417437Y522193D02*
X421435D01*
X429433Y525192D02*
Y519194D01*
X432432D01*
X433432Y520194D01*
Y521194D01*
X432432Y522193D01*
X429433D01*
X432432D01*
X433432Y523193D01*
Y524193D01*
X432432Y525192D01*
X429433D01*
X436431Y519194D02*
X438430D01*
X439430Y520194D01*
Y522193D01*
X438430Y523193D01*
X436431D01*
X435431Y522193D01*
Y520194D01*
X436431Y519194D01*
X442429Y524193D02*
Y523193D01*
X441429D01*
X443428D01*
X442429D01*
Y520194D01*
X443428Y519194D01*
X447427Y524193D02*
Y523193D01*
X446427D01*
X448427D01*
X447427D01*
Y520194D01*
X448427Y519194D01*
X452425D02*
X454425D01*
X455424Y520194D01*
Y522193D01*
X454425Y523193D01*
X452425D01*
X451426Y522193D01*
Y520194D01*
X452425Y519194D01*
X457424D02*
Y523193D01*
X458424D01*
X459423Y522193D01*
Y519194D01*
Y522193D01*
X460423Y523193D01*
X461422Y522193D01*
Y519194D01*
X469420Y525192D02*
Y519194D01*
X473419D01*
X476418Y523193D02*
X478417D01*
X479417Y522193D01*
Y519194D01*
X476418D01*
X475418Y520194D01*
X476418Y521194D01*
X479417D01*
X481416Y523193D02*
Y520194D01*
X482416Y519194D01*
X485415D01*
Y518194D01*
X484415Y517195D01*
X483415D01*
X485415Y519194D02*
Y523193D01*
X490413Y519194D02*
X488414D01*
X487414Y520194D01*
Y522193D01*
X488414Y523193D01*
X490413D01*
X491413Y522193D01*
Y521194D01*
X487414D01*
X493412Y523193D02*
Y519194D01*
Y521194D01*
X494412Y522193D01*
X495411Y523193D01*
X496411D01*
X357456Y510192D02*
X361455D01*
X359455D01*
Y504194D01*
X364454D02*
X366453D01*
X367453Y505194D01*
Y507193D01*
X366453Y508193D01*
X364454D01*
X363454Y507193D01*
Y505194D01*
X364454Y504194D01*
X369452Y502195D02*
Y508193D01*
X372451D01*
X373451Y507193D01*
Y505194D01*
X372451Y504194D01*
X369452D01*
X381448Y510192D02*
Y504194D01*
X385447D01*
X388446Y508193D02*
X390445D01*
X391445Y507193D01*
Y504194D01*
X388446D01*
X387446Y505194D01*
X388446Y506193D01*
X391445D01*
X393444Y508193D02*
Y505194D01*
X394444Y504194D01*
X397443D01*
Y503195D01*
X396444Y502195D01*
X395444D01*
X397443Y504194D02*
Y508193D01*
X402442Y504194D02*
X400442D01*
X399443Y505194D01*
Y507193D01*
X400442Y508193D01*
X402442D01*
X403441Y507193D01*
Y506193D01*
X399443D01*
X405441Y508193D02*
Y504194D01*
Y506193D01*
X406440Y507193D01*
X407440Y508193D01*
X408440D01*
X417437Y507193D02*
X421435D01*
X429433Y510192D02*
Y504194D01*
X432432D01*
X433432Y505194D01*
Y506193D01*
X432432Y507193D01*
X429433D01*
X432432D01*
X433432Y508193D01*
Y509193D01*
X432432Y510192D01*
X429433D01*
X436431Y504194D02*
X438430D01*
X439430Y505194D01*
Y507193D01*
X438430Y508193D01*
X436431D01*
X435431Y507193D01*
Y505194D01*
X436431Y504194D01*
X442429Y509193D02*
Y508193D01*
X441429D01*
X443428D01*
X442429D01*
Y505194D01*
X443428Y504194D01*
X447427Y509193D02*
Y508193D01*
X446427D01*
X448427D01*
X447427D01*
Y505194D01*
X448427Y504194D01*
X452425D02*
X454425D01*
X455424Y505194D01*
Y507193D01*
X454425Y508193D01*
X452425D01*
X451426Y507193D01*
Y505194D01*
X452425Y504194D01*
X457424D02*
Y508193D01*
X458424D01*
X459423Y507193D01*
Y504194D01*
Y507193D01*
X460423Y508193D01*
X461422Y507193D01*
Y504194D01*
X469420Y510192D02*
Y504194D01*
X473419D01*
X476418Y508193D02*
X478417D01*
X479417Y507193D01*
Y504194D01*
X476418D01*
X475418Y505194D01*
X476418Y506193D01*
X479417D01*
X481416Y508193D02*
Y505194D01*
X482416Y504194D01*
X485415D01*
Y503195D01*
X484415Y502195D01*
X483415D01*
X485415Y504194D02*
Y508193D01*
X490413Y504194D02*
X488414D01*
X487414Y505194D01*
Y507193D01*
X488414Y508193D01*
X490413D01*
X491413Y507193D01*
Y506193D01*
X487414D01*
X493412Y508193D02*
Y504194D01*
Y506193D01*
X494412Y507193D01*
X495411Y508193D01*
X496411D01*
X357456Y495192D02*
X361455D01*
X359455D01*
Y489194D01*
X364454D02*
X366453D01*
X367453Y490194D01*
Y492193D01*
X366453Y493193D01*
X364454D01*
X363454Y492193D01*
Y490194D01*
X364454Y489194D01*
X369452Y487195D02*
Y493193D01*
X372451D01*
X373451Y492193D01*
Y490194D01*
X372451Y489194D01*
X369452D01*
X381448Y495192D02*
Y489194D01*
X385447D01*
X388446Y493193D02*
X390445D01*
X391445Y492193D01*
Y489194D01*
X388446D01*
X387446Y490194D01*
X388446Y491193D01*
X391445D01*
X393444Y493193D02*
Y490194D01*
X394444Y489194D01*
X397443D01*
Y488195D01*
X396444Y487195D01*
X395444D01*
X397443Y489194D02*
Y493193D01*
X402442Y489194D02*
X400442D01*
X399443Y490194D01*
Y492193D01*
X400442Y493193D01*
X402442D01*
X403441Y492193D01*
Y491193D01*
X399443D01*
X405441Y493193D02*
Y489194D01*
Y491193D01*
X406440Y492193D01*
X407440Y493193D01*
X408440D01*
X417437Y492193D02*
X421435D01*
X429433Y495192D02*
Y489194D01*
X432432D01*
X433432Y490194D01*
Y491193D01*
X432432Y492193D01*
X429433D01*
X432432D01*
X433432Y493193D01*
Y494193D01*
X432432Y495192D01*
X429433D01*
X436431Y489194D02*
X438430D01*
X439430Y490194D01*
Y492193D01*
X438430Y493193D01*
X436431D01*
X435431Y492193D01*
Y490194D01*
X436431Y489194D01*
X442429Y494193D02*
Y493193D01*
X441429D01*
X443428D01*
X442429D01*
Y490194D01*
X443428Y489194D01*
X447427Y494193D02*
Y493193D01*
X446427D01*
X448427D01*
X447427D01*
Y490194D01*
X448427Y489194D01*
X452425D02*
X454425D01*
X455424Y490194D01*
Y492193D01*
X454425Y493193D01*
X452425D01*
X451426Y492193D01*
Y490194D01*
X452425Y489194D01*
X457424D02*
Y493193D01*
X458424D01*
X459423Y492193D01*
Y489194D01*
Y492193D01*
X460423Y493193D01*
X461422Y492193D01*
Y489194D01*
X469420Y495192D02*
Y489194D01*
X473419D01*
X476418Y493193D02*
X478417D01*
X479417Y492193D01*
Y489194D01*
X476418D01*
X475418Y490194D01*
X476418Y491193D01*
X479417D01*
X481416Y493193D02*
Y490194D01*
X482416Y489194D01*
X485415D01*
Y488195D01*
X484415Y487195D01*
X483415D01*
X485415Y489194D02*
Y493193D01*
X490413Y489194D02*
X488414D01*
X487414Y490194D01*
Y492193D01*
X488414Y493193D01*
X490413D01*
X491413Y492193D01*
Y491193D01*
X487414D01*
X493412Y493193D02*
Y489194D01*
Y491193D01*
X494412Y492193D01*
X495411Y493193D01*
X496411D01*
X357456Y480192D02*
X361455D01*
X359455D01*
Y474194D01*
X364454D02*
X366453D01*
X367453Y475194D01*
Y477193D01*
X366453Y478193D01*
X364454D01*
X363454Y477193D01*
Y475194D01*
X364454Y474194D01*
X369452Y472195D02*
Y478193D01*
X372451D01*
X373451Y477193D01*
Y475194D01*
X372451Y474194D01*
X369452D01*
X381448Y480192D02*
Y474194D01*
X385447D01*
X388446Y478193D02*
X390445D01*
X391445Y477193D01*
Y474194D01*
X388446D01*
X387446Y475194D01*
X388446Y476194D01*
X391445D01*
X393444Y478193D02*
Y475194D01*
X394444Y474194D01*
X397443D01*
Y473195D01*
X396444Y472195D01*
X395444D01*
X397443Y474194D02*
Y478193D01*
X402442Y474194D02*
X400442D01*
X399443Y475194D01*
Y477193D01*
X400442Y478193D01*
X402442D01*
X403441Y477193D01*
Y476194D01*
X399443D01*
X405441Y478193D02*
Y474194D01*
Y476194D01*
X406440Y477193D01*
X407440Y478193D01*
X408440D01*
X417437Y477193D02*
X421435D01*
X429433Y480192D02*
Y474194D01*
X432432D01*
X433432Y475194D01*
Y476194D01*
X432432Y477193D01*
X429433D01*
X432432D01*
X433432Y478193D01*
Y479193D01*
X432432Y480192D01*
X429433D01*
X436431Y474194D02*
X438430D01*
X439430Y475194D01*
Y477193D01*
X438430Y478193D01*
X436431D01*
X435431Y477193D01*
Y475194D01*
X436431Y474194D01*
X442429Y479193D02*
Y478193D01*
X441429D01*
X443428D01*
X442429D01*
Y475194D01*
X443428Y474194D01*
X447427Y479193D02*
Y478193D01*
X446427D01*
X448427D01*
X447427D01*
Y475194D01*
X448427Y474194D01*
X452425D02*
X454425D01*
X455424Y475194D01*
Y477193D01*
X454425Y478193D01*
X452425D01*
X451426Y477193D01*
Y475194D01*
X452425Y474194D01*
X457424D02*
Y478193D01*
X458424D01*
X459423Y477193D01*
Y474194D01*
Y477193D01*
X460423Y478193D01*
X461422Y477193D01*
Y474194D01*
X469420Y480192D02*
Y474194D01*
X473419D01*
X476418Y478193D02*
X478417D01*
X479417Y477193D01*
Y474194D01*
X476418D01*
X475418Y475194D01*
X476418Y476194D01*
X479417D01*
X481416Y478193D02*
Y475194D01*
X482416Y474194D01*
X485415D01*
Y473195D01*
X484415Y472195D01*
X483415D01*
X485415Y474194D02*
Y478193D01*
X490413Y474194D02*
X488414D01*
X487414Y475194D01*
Y477193D01*
X488414Y478193D01*
X490413D01*
X491413Y477193D01*
Y476194D01*
X487414D01*
X493412Y478193D02*
Y474194D01*
Y476194D01*
X494412Y477193D01*
X495411Y478193D01*
X496411D01*
X357456Y465192D02*
X361455D01*
X359455D01*
Y459194D01*
X364454D02*
X366453D01*
X367453Y460194D01*
Y462193D01*
X366453Y463193D01*
X364454D01*
X363454Y462193D01*
Y460194D01*
X364454Y459194D01*
X369452Y457195D02*
Y463193D01*
X372451D01*
X373451Y462193D01*
Y460194D01*
X372451Y459194D01*
X369452D01*
X381448Y465192D02*
Y459194D01*
X385447D01*
X388446Y463193D02*
X390445D01*
X391445Y462193D01*
Y459194D01*
X388446D01*
X387446Y460194D01*
X388446Y461194D01*
X391445D01*
X393444Y463193D02*
Y460194D01*
X394444Y459194D01*
X397443D01*
Y458194D01*
X396444Y457195D01*
X395444D01*
X397443Y459194D02*
Y463193D01*
X402442Y459194D02*
X400442D01*
X399443Y460194D01*
Y462193D01*
X400442Y463193D01*
X402442D01*
X403441Y462193D01*
Y461194D01*
X399443D01*
X405441Y463193D02*
Y459194D01*
Y461194D01*
X406440Y462193D01*
X407440Y463193D01*
X408440D01*
X417437Y462193D02*
X421435D01*
X429433Y465192D02*
Y459194D01*
X432432D01*
X433432Y460194D01*
Y461194D01*
X432432Y462193D01*
X429433D01*
X432432D01*
X433432Y463193D01*
Y464193D01*
X432432Y465192D01*
X429433D01*
X436431Y459194D02*
X438430D01*
X439430Y460194D01*
Y462193D01*
X438430Y463193D01*
X436431D01*
X435431Y462193D01*
Y460194D01*
X436431Y459194D01*
X442429Y464193D02*
Y463193D01*
X441429D01*
X443428D01*
X442429D01*
Y460194D01*
X443428Y459194D01*
X447427Y464193D02*
Y463193D01*
X446427D01*
X448427D01*
X447427D01*
Y460194D01*
X448427Y459194D01*
X452425D02*
X454425D01*
X455424Y460194D01*
Y462193D01*
X454425Y463193D01*
X452425D01*
X451426Y462193D01*
Y460194D01*
X452425Y459194D01*
X457424D02*
Y463193D01*
X458424D01*
X459423Y462193D01*
Y459194D01*
Y462193D01*
X460423Y463193D01*
X461422Y462193D01*
Y459194D01*
X469420Y465192D02*
Y459194D01*
X473419D01*
X476418Y463193D02*
X478417D01*
X479417Y462193D01*
Y459194D01*
X476418D01*
X475418Y460194D01*
X476418Y461194D01*
X479417D01*
X481416Y463193D02*
Y460194D01*
X482416Y459194D01*
X485415D01*
Y458194D01*
X484415Y457195D01*
X483415D01*
X485415Y459194D02*
Y463193D01*
X490413Y459194D02*
X488414D01*
X487414Y460194D01*
Y462193D01*
X488414Y463193D01*
X490413D01*
X491413Y462193D01*
Y461194D01*
X487414D01*
X493412Y463193D02*
Y459194D01*
Y461194D01*
X494412Y462193D01*
X495411Y463193D01*
X496411D01*
X357456Y450192D02*
X361455D01*
X359455D01*
Y444194D01*
X364454D02*
X366453D01*
X367453Y445194D01*
Y447193D01*
X366453Y448193D01*
X364454D01*
X363454Y447193D01*
Y445194D01*
X364454Y444194D01*
X369452Y442195D02*
Y448193D01*
X372451D01*
X373451Y447193D01*
Y445194D01*
X372451Y444194D01*
X369452D01*
X381448Y450192D02*
Y444194D01*
X385447D01*
X388446Y448193D02*
X390445D01*
X391445Y447193D01*
Y444194D01*
X388446D01*
X387446Y445194D01*
X388446Y446194D01*
X391445D01*
X393444Y448193D02*
Y445194D01*
X394444Y444194D01*
X397443D01*
Y443194D01*
X396444Y442195D01*
X395444D01*
X397443Y444194D02*
Y448193D01*
X402442Y444194D02*
X400442D01*
X399443Y445194D01*
Y447193D01*
X400442Y448193D01*
X402442D01*
X403441Y447193D01*
Y446194D01*
X399443D01*
X405441Y448193D02*
Y444194D01*
Y446194D01*
X406440Y447193D01*
X407440Y448193D01*
X408440D01*
X417437Y447193D02*
X421435D01*
X429433Y450192D02*
Y444194D01*
X432432D01*
X433432Y445194D01*
Y446194D01*
X432432Y447193D01*
X429433D01*
X432432D01*
X433432Y448193D01*
Y449193D01*
X432432Y450192D01*
X429433D01*
X436431Y444194D02*
X438430D01*
X439430Y445194D01*
Y447193D01*
X438430Y448193D01*
X436431D01*
X435431Y447193D01*
Y445194D01*
X436431Y444194D01*
X442429Y449193D02*
Y448193D01*
X441429D01*
X443428D01*
X442429D01*
Y445194D01*
X443428Y444194D01*
X447427Y449193D02*
Y448193D01*
X446427D01*
X448427D01*
X447427D01*
Y445194D01*
X448427Y444194D01*
X452425D02*
X454425D01*
X455424Y445194D01*
Y447193D01*
X454425Y448193D01*
X452425D01*
X451426Y447193D01*
Y445194D01*
X452425Y444194D01*
X457424D02*
Y448193D01*
X458424D01*
X459423Y447193D01*
Y444194D01*
Y447193D01*
X460423Y448193D01*
X461422Y447193D01*
Y444194D01*
X469420Y450192D02*
Y444194D01*
X473419D01*
X476418Y448193D02*
X478417D01*
X479417Y447193D01*
Y444194D01*
X476418D01*
X475418Y445194D01*
X476418Y446194D01*
X479417D01*
X481416Y448193D02*
Y445194D01*
X482416Y444194D01*
X485415D01*
Y443194D01*
X484415Y442195D01*
X483415D01*
X485415Y444194D02*
Y448193D01*
X490413Y444194D02*
X488414D01*
X487414Y445194D01*
Y447193D01*
X488414Y448193D01*
X490413D01*
X491413Y447193D01*
Y446194D01*
X487414D01*
X493412Y448193D02*
Y444194D01*
Y446194D01*
X494412Y447193D01*
X495411Y448193D01*
X496411D01*
X357456Y435192D02*
X361455D01*
X359455D01*
Y429194D01*
X364454D02*
X366453D01*
X367453Y430194D01*
Y432193D01*
X366453Y433193D01*
X364454D01*
X363454Y432193D01*
Y430194D01*
X364454Y429194D01*
X369452Y427195D02*
Y433193D01*
X372451D01*
X373451Y432193D01*
Y430194D01*
X372451Y429194D01*
X369452D01*
X381448Y435192D02*
Y429194D01*
X385447D01*
X388446Y433193D02*
X390445D01*
X391445Y432193D01*
Y429194D01*
X388446D01*
X387446Y430194D01*
X388446Y431193D01*
X391445D01*
X393444Y433193D02*
Y430194D01*
X394444Y429194D01*
X397443D01*
Y428195D01*
X396444Y427195D01*
X395444D01*
X397443Y429194D02*
Y433193D01*
X402442Y429194D02*
X400442D01*
X399443Y430194D01*
Y432193D01*
X400442Y433193D01*
X402442D01*
X403441Y432193D01*
Y431193D01*
X399443D01*
X405441Y433193D02*
Y429194D01*
Y431193D01*
X406440Y432193D01*
X407440Y433193D01*
X408440D01*
X417437Y432193D02*
X421435D01*
X429433Y435192D02*
Y429194D01*
X432432D01*
X433432Y430194D01*
Y431193D01*
X432432Y432193D01*
X429433D01*
X432432D01*
X433432Y433193D01*
Y434193D01*
X432432Y435192D01*
X429433D01*
X436431Y429194D02*
X438430D01*
X439430Y430194D01*
Y432193D01*
X438430Y433193D01*
X436431D01*
X435431Y432193D01*
Y430194D01*
X436431Y429194D01*
X442429Y434193D02*
Y433193D01*
X441429D01*
X443428D01*
X442429D01*
Y430194D01*
X443428Y429194D01*
X447427Y434193D02*
Y433193D01*
X446427D01*
X448427D01*
X447427D01*
Y430194D01*
X448427Y429194D01*
X452425D02*
X454425D01*
X455424Y430194D01*
Y432193D01*
X454425Y433193D01*
X452425D01*
X451426Y432193D01*
Y430194D01*
X452425Y429194D01*
X457424D02*
Y433193D01*
X458424D01*
X459423Y432193D01*
Y429194D01*
Y432193D01*
X460423Y433193D01*
X461422Y432193D01*
Y429194D01*
X469420Y435192D02*
Y429194D01*
X473419D01*
X476418Y433193D02*
X478417D01*
X479417Y432193D01*
Y429194D01*
X476418D01*
X475418Y430194D01*
X476418Y431193D01*
X479417D01*
X481416Y433193D02*
Y430194D01*
X482416Y429194D01*
X485415D01*
Y428195D01*
X484415Y427195D01*
X483415D01*
X485415Y429194D02*
Y433193D01*
X490413Y429194D02*
X488414D01*
X487414Y430194D01*
Y432193D01*
X488414Y433193D01*
X490413D01*
X491413Y432193D01*
Y431193D01*
X487414D01*
X493412Y433193D02*
Y429194D01*
Y431193D01*
X494412Y432193D01*
X495411Y433193D01*
X496411D01*
X357456Y420192D02*
X361455D01*
X359455D01*
Y414194D01*
X364454D02*
X366453D01*
X367453Y415194D01*
Y417193D01*
X366453Y418193D01*
X364454D01*
X363454Y417193D01*
Y415194D01*
X364454Y414194D01*
X369452Y412195D02*
Y418193D01*
X372451D01*
X373451Y417193D01*
Y415194D01*
X372451Y414194D01*
X369452D01*
X381448Y420192D02*
Y414194D01*
X385447D01*
X388446Y418193D02*
X390445D01*
X391445Y417193D01*
Y414194D01*
X388446D01*
X387446Y415194D01*
X388446Y416193D01*
X391445D01*
X393444Y418193D02*
Y415194D01*
X394444Y414194D01*
X397443D01*
Y413195D01*
X396444Y412195D01*
X395444D01*
X397443Y414194D02*
Y418193D01*
X402442Y414194D02*
X400442D01*
X399443Y415194D01*
Y417193D01*
X400442Y418193D01*
X402442D01*
X403441Y417193D01*
Y416193D01*
X399443D01*
X405441Y418193D02*
Y414194D01*
Y416193D01*
X406440Y417193D01*
X407440Y418193D01*
X408440D01*
X417437Y417193D02*
X421435D01*
X429433Y420192D02*
Y414194D01*
X432432D01*
X433432Y415194D01*
Y416193D01*
X432432Y417193D01*
X429433D01*
X432432D01*
X433432Y418193D01*
Y419193D01*
X432432Y420192D01*
X429433D01*
X436431Y414194D02*
X438430D01*
X439430Y415194D01*
Y417193D01*
X438430Y418193D01*
X436431D01*
X435431Y417193D01*
Y415194D01*
X436431Y414194D01*
X442429Y419193D02*
Y418193D01*
X441429D01*
X443428D01*
X442429D01*
Y415194D01*
X443428Y414194D01*
X447427Y419193D02*
Y418193D01*
X446427D01*
X448427D01*
X447427D01*
Y415194D01*
X448427Y414194D01*
X452425D02*
X454425D01*
X455424Y415194D01*
Y417193D01*
X454425Y418193D01*
X452425D01*
X451426Y417193D01*
Y415194D01*
X452425Y414194D01*
X457424D02*
Y418193D01*
X458424D01*
X459423Y417193D01*
Y414194D01*
Y417193D01*
X460423Y418193D01*
X461422Y417193D01*
Y414194D01*
X469420Y420192D02*
Y414194D01*
X473419D01*
X476418Y418193D02*
X478417D01*
X479417Y417193D01*
Y414194D01*
X476418D01*
X475418Y415194D01*
X476418Y416193D01*
X479417D01*
X481416Y418193D02*
Y415194D01*
X482416Y414194D01*
X485415D01*
Y413195D01*
X484415Y412195D01*
X483415D01*
X485415Y414194D02*
Y418193D01*
X490413Y414194D02*
X488414D01*
X487414Y415194D01*
Y417193D01*
X488414Y418193D01*
X490413D01*
X491413Y417193D01*
Y416193D01*
X487414D01*
X493412Y418193D02*
Y414194D01*
Y416193D01*
X494412Y417193D01*
X495411Y418193D01*
X496411D01*
X357456Y405192D02*
X361455D01*
X359455D01*
Y399194D01*
X364454D02*
X366453D01*
X367453Y400194D01*
Y402193D01*
X366453Y403193D01*
X364454D01*
X363454Y402193D01*
Y400194D01*
X364454Y399194D01*
X369452Y397195D02*
Y403193D01*
X372451D01*
X373451Y402193D01*
Y400194D01*
X372451Y399194D01*
X369452D01*
X381448Y405192D02*
Y399194D01*
X385447D01*
X388446Y403193D02*
X390445D01*
X391445Y402193D01*
Y399194D01*
X388446D01*
X387446Y400194D01*
X388446Y401194D01*
X391445D01*
X393444Y403193D02*
Y400194D01*
X394444Y399194D01*
X397443D01*
Y398195D01*
X396444Y397195D01*
X395444D01*
X397443Y399194D02*
Y403193D01*
X402442Y399194D02*
X400442D01*
X399443Y400194D01*
Y402193D01*
X400442Y403193D01*
X402442D01*
X403441Y402193D01*
Y401194D01*
X399443D01*
X405441Y403193D02*
Y399194D01*
Y401194D01*
X406440Y402193D01*
X407440Y403193D01*
X408440D01*
X417437Y402193D02*
X421435D01*
X429433Y405192D02*
Y399194D01*
X432432D01*
X433432Y400194D01*
Y401194D01*
X432432Y402193D01*
X429433D01*
X432432D01*
X433432Y403193D01*
Y404192D01*
X432432Y405192D01*
X429433D01*
X436431Y399194D02*
X438430D01*
X439430Y400194D01*
Y402193D01*
X438430Y403193D01*
X436431D01*
X435431Y402193D01*
Y400194D01*
X436431Y399194D01*
X442429Y404192D02*
Y403193D01*
X441429D01*
X443428D01*
X442429D01*
Y400194D01*
X443428Y399194D01*
X447427Y404192D02*
Y403193D01*
X446427D01*
X448427D01*
X447427D01*
Y400194D01*
X448427Y399194D01*
X452425D02*
X454425D01*
X455424Y400194D01*
Y402193D01*
X454425Y403193D01*
X452425D01*
X451426Y402193D01*
Y400194D01*
X452425Y399194D01*
X457424D02*
Y403193D01*
X458424D01*
X459423Y402193D01*
Y399194D01*
Y402193D01*
X460423Y403193D01*
X461422Y402193D01*
Y399194D01*
X469420Y405192D02*
Y399194D01*
X473419D01*
X476418Y403193D02*
X478417D01*
X479417Y402193D01*
Y399194D01*
X476418D01*
X475418Y400194D01*
X476418Y401194D01*
X479417D01*
X481416Y403193D02*
Y400194D01*
X482416Y399194D01*
X485415D01*
Y398195D01*
X484415Y397195D01*
X483415D01*
X485415Y399194D02*
Y403193D01*
X490413Y399194D02*
X488414D01*
X487414Y400194D01*
Y402193D01*
X488414Y403193D01*
X490413D01*
X491413Y402193D01*
Y401194D01*
X487414D01*
X493412Y403193D02*
Y399194D01*
Y401194D01*
X494412Y402193D01*
X495411Y403193D01*
X496411D01*
X357456Y390192D02*
X361455D01*
X359455D01*
Y384194D01*
X364454D02*
X366453D01*
X367453Y385194D01*
Y387193D01*
X366453Y388193D01*
X364454D01*
X363454Y387193D01*
Y385194D01*
X364454Y384194D01*
X369452Y382195D02*
Y388193D01*
X372451D01*
X373451Y387193D01*
Y385194D01*
X372451Y384194D01*
X369452D01*
X381448Y390192D02*
Y384194D01*
X385447D01*
X388446Y388193D02*
X390445D01*
X391445Y387193D01*
Y384194D01*
X388446D01*
X387446Y385194D01*
X388446Y386193D01*
X391445D01*
X393444Y388193D02*
Y385194D01*
X394444Y384194D01*
X397443D01*
Y383194D01*
X396444Y382195D01*
X395444D01*
X397443Y384194D02*
Y388193D01*
X402442Y384194D02*
X400442D01*
X399443Y385194D01*
Y387193D01*
X400442Y388193D01*
X402442D01*
X403441Y387193D01*
Y386193D01*
X399443D01*
X405441Y388193D02*
Y384194D01*
Y386193D01*
X406440Y387193D01*
X407440Y388193D01*
X408440D01*
X417437Y387193D02*
X421435D01*
X429433Y390192D02*
Y384194D01*
X432432D01*
X433432Y385194D01*
Y386193D01*
X432432Y387193D01*
X429433D01*
X432432D01*
X433432Y388193D01*
Y389193D01*
X432432Y390192D01*
X429433D01*
X436431Y384194D02*
X438430D01*
X439430Y385194D01*
Y387193D01*
X438430Y388193D01*
X436431D01*
X435431Y387193D01*
Y385194D01*
X436431Y384194D01*
X442429Y389193D02*
Y388193D01*
X441429D01*
X443428D01*
X442429D01*
Y385194D01*
X443428Y384194D01*
X447427Y389193D02*
Y388193D01*
X446427D01*
X448427D01*
X447427D01*
Y385194D01*
X448427Y384194D01*
X452425D02*
X454425D01*
X455424Y385194D01*
Y387193D01*
X454425Y388193D01*
X452425D01*
X451426Y387193D01*
Y385194D01*
X452425Y384194D01*
X457424D02*
Y388193D01*
X458424D01*
X459423Y387193D01*
Y384194D01*
Y387193D01*
X460423Y388193D01*
X461422Y387193D01*
Y384194D01*
X469420Y390192D02*
Y384194D01*
X473419D01*
X476418Y388193D02*
X478417D01*
X479417Y387193D01*
Y384194D01*
X476418D01*
X475418Y385194D01*
X476418Y386193D01*
X479417D01*
X481416Y388193D02*
Y385194D01*
X482416Y384194D01*
X485415D01*
Y383194D01*
X484415Y382195D01*
X483415D01*
X485415Y384194D02*
Y388193D01*
X490413Y384194D02*
X488414D01*
X487414Y385194D01*
Y387193D01*
X488414Y388193D01*
X490413D01*
X491413Y387193D01*
Y386193D01*
X487414D01*
X493412Y388193D02*
Y384194D01*
Y386193D01*
X494412Y387193D01*
X495411Y388193D01*
X496411D01*
X284076Y549194D02*
Y555192D01*
X287075D01*
X288075Y554193D01*
Y552193D01*
X287075Y551194D01*
X284076D01*
X286075D02*
X288075Y549194D01*
X291074D02*
X293073D01*
X294073Y550194D01*
Y552193D01*
X293073Y553193D01*
X291074D01*
X290074Y552193D01*
Y550194D01*
X291074Y549194D01*
X296072Y553193D02*
Y550194D01*
X297072Y549194D01*
X300071D01*
Y553193D01*
X302070Y549194D02*
Y553193D01*
X305069D01*
X306069Y552193D01*
Y549194D01*
X312067Y555192D02*
Y549194D01*
X309068D01*
X308068Y550194D01*
Y552193D01*
X309068Y553193D01*
X312067D01*
X288075Y539193D02*
X287075Y540192D01*
X285076D01*
X284076Y539193D01*
Y538193D01*
X285076Y537193D01*
X287075D01*
X288075Y536194D01*
Y535194D01*
X287075Y534194D01*
X285076D01*
X284076Y535194D01*
X290074Y534194D02*
X292073D01*
X291074D01*
Y540192D01*
X290074D01*
X296072Y534194D02*
X298071D01*
X299071Y535194D01*
Y537193D01*
X298071Y538193D01*
X296072D01*
X295072Y537193D01*
Y535194D01*
X296072Y534194D01*
X302070Y539193D02*
Y538193D01*
X301070D01*
X303070D01*
X302070D01*
Y535194D01*
X303070Y534194D01*
X288075Y524193D02*
X287075Y525192D01*
X285076D01*
X284076Y524193D01*
Y523193D01*
X285076Y522193D01*
X287075D01*
X288075Y521194D01*
Y520194D01*
X287075Y519194D01*
X285076D01*
X284076Y520194D01*
X290074Y519194D02*
X292073D01*
X291074D01*
Y525192D01*
X290074D01*
X296072Y519194D02*
X298071D01*
X299071Y520194D01*
Y522193D01*
X298071Y523193D01*
X296072D01*
X295072Y522193D01*
Y520194D01*
X296072Y519194D01*
X302070Y524193D02*
Y523193D01*
X301070D01*
X303070D01*
X302070D01*
Y520194D01*
X303070Y519194D01*
X284076Y504194D02*
Y510192D01*
X287075D01*
X288075Y509193D01*
Y507193D01*
X287075Y506193D01*
X284076D01*
X286075D02*
X288075Y504194D01*
X291074D02*
X293073D01*
X294073Y505194D01*
Y507193D01*
X293073Y508193D01*
X291074D01*
X290074Y507193D01*
Y505194D01*
X291074Y504194D01*
X296072Y508193D02*
Y505194D01*
X297072Y504194D01*
X300071D01*
Y508193D01*
X302070Y504194D02*
Y508193D01*
X305069D01*
X306069Y507193D01*
Y504194D01*
X312067Y510192D02*
Y504194D01*
X309068D01*
X308068Y505194D01*
Y507193D01*
X309068Y508193D01*
X312067D01*
X284076Y489194D02*
Y495192D01*
X287075D01*
X288075Y494193D01*
Y492193D01*
X287075Y491193D01*
X284076D01*
X286075D02*
X288075Y489194D01*
X291074D02*
X293073D01*
X294073Y490194D01*
Y492193D01*
X293073Y493193D01*
X291074D01*
X290074Y492193D01*
Y490194D01*
X291074Y489194D01*
X296072Y493193D02*
Y490194D01*
X297072Y489194D01*
X300071D01*
Y493193D01*
X302070Y489194D02*
Y493193D01*
X305069D01*
X306069Y492193D01*
Y489194D01*
X312067Y495192D02*
Y489194D01*
X309068D01*
X308068Y490194D01*
Y492193D01*
X309068Y493193D01*
X312067D01*
X288075Y479193D02*
X287075Y480192D01*
X285076D01*
X284076Y479193D01*
Y478193D01*
X285076Y477193D01*
X287075D01*
X288075Y476194D01*
Y475194D01*
X287075Y474194D01*
X285076D01*
X284076Y475194D01*
X290074Y474194D02*
X292073D01*
X291074D01*
Y480192D01*
X290074D01*
X296072Y474194D02*
X298071D01*
X299071Y475194D01*
Y477193D01*
X298071Y478193D01*
X296072D01*
X295072Y477193D01*
Y475194D01*
X296072Y474194D01*
X302070Y479193D02*
Y478193D01*
X301070D01*
X303070D01*
X302070D01*
Y475194D01*
X303070Y474194D01*
X284076Y459194D02*
Y465192D01*
X287075D01*
X288075Y464193D01*
Y462193D01*
X287075Y461194D01*
X284076D01*
X286075D02*
X288075Y459194D01*
X291074D02*
X293073D01*
X294073Y460194D01*
Y462193D01*
X293073Y463193D01*
X291074D01*
X290074Y462193D01*
Y460194D01*
X291074Y459194D01*
X296072Y463193D02*
Y460194D01*
X297072Y459194D01*
X300071D01*
Y463193D01*
X302070Y459194D02*
Y463193D01*
X305069D01*
X306069Y462193D01*
Y459194D01*
X312067Y465192D02*
Y459194D01*
X309068D01*
X308068Y460194D01*
Y462193D01*
X309068Y463193D01*
X312067D01*
X284076Y444194D02*
Y450192D01*
X287075D01*
X288075Y449193D01*
Y447193D01*
X287075Y446194D01*
X284076D01*
X286075D02*
X288075Y444194D01*
X291074D02*
X293073D01*
X294073Y445194D01*
Y447193D01*
X293073Y448193D01*
X291074D01*
X290074Y447193D01*
Y445194D01*
X291074Y444194D01*
X296072Y448193D02*
Y445194D01*
X297072Y444194D01*
X300071D01*
Y448193D01*
X302070Y444194D02*
Y448193D01*
X305069D01*
X306069Y447193D01*
Y444194D01*
X312067Y450192D02*
Y444194D01*
X309068D01*
X308068Y445194D01*
Y447193D01*
X309068Y448193D01*
X312067D01*
X284076Y429194D02*
Y435192D01*
X287075D01*
X288075Y434193D01*
Y432193D01*
X287075Y431193D01*
X284076D01*
X286075D02*
X288075Y429194D01*
X291074D02*
X293073D01*
X294073Y430194D01*
Y432193D01*
X293073Y433193D01*
X291074D01*
X290074Y432193D01*
Y430194D01*
X291074Y429194D01*
X296072Y433193D02*
Y430194D01*
X297072Y429194D01*
X300071D01*
Y433193D01*
X302070Y429194D02*
Y433193D01*
X305069D01*
X306069Y432193D01*
Y429194D01*
X312067Y435192D02*
Y429194D01*
X309068D01*
X308068Y430194D01*
Y432193D01*
X309068Y433193D01*
X312067D01*
X284076Y414194D02*
Y420192D01*
X287075D01*
X288075Y419193D01*
Y417193D01*
X287075Y416193D01*
X284076D01*
X286075D02*
X288075Y414194D01*
X291074D02*
X293073D01*
X294073Y415194D01*
Y417193D01*
X293073Y418193D01*
X291074D01*
X290074Y417193D01*
Y415194D01*
X291074Y414194D01*
X296072Y418193D02*
Y415194D01*
X297072Y414194D01*
X300071D01*
Y418193D01*
X302070Y414194D02*
Y418193D01*
X305069D01*
X306069Y417193D01*
Y414194D01*
X312067Y420192D02*
Y414194D01*
X309068D01*
X308068Y415194D01*
Y417193D01*
X309068Y418193D01*
X312067D01*
X284076Y399194D02*
Y405192D01*
X287075D01*
X288075Y404192D01*
Y402193D01*
X287075Y401194D01*
X284076D01*
X286075D02*
X288075Y399194D01*
X291074D02*
X293073D01*
X294073Y400194D01*
Y402193D01*
X293073Y403193D01*
X291074D01*
X290074Y402193D01*
Y400194D01*
X291074Y399194D01*
X296072Y403193D02*
Y400194D01*
X297072Y399194D01*
X300071D01*
Y403193D01*
X302070Y399194D02*
Y403193D01*
X305069D01*
X306069Y402193D01*
Y399194D01*
X312067Y405192D02*
Y399194D01*
X309068D01*
X308068Y400194D01*
Y402193D01*
X309068Y403193D01*
X312067D01*
X284076Y384194D02*
Y390192D01*
X287075D01*
X288075Y389193D01*
Y387193D01*
X287075Y386193D01*
X284076D01*
X286075D02*
X288075Y384194D01*
X291074D02*
X293073D01*
X294073Y385194D01*
Y387193D01*
X293073Y388193D01*
X291074D01*
X290074Y387193D01*
Y385194D01*
X291074Y384194D01*
X296072Y388193D02*
Y385194D01*
X297072Y384194D01*
X300071D01*
Y388193D01*
X302070Y384194D02*
Y388193D01*
X305069D01*
X306069Y387193D01*
Y384194D01*
X312067Y390192D02*
Y384194D01*
X309068D01*
X308068Y385194D01*
Y387193D01*
X309068Y388193D01*
X312067D01*
X233488Y549194D02*
Y555192D01*
X237487Y549194D01*
Y555192D01*
X239487Y549194D02*
Y555192D01*
X242485D01*
X243485Y554193D01*
Y552193D01*
X242485Y551194D01*
X239487D01*
X245484Y555192D02*
X249483D01*
X247484D01*
Y549194D01*
X251483Y555192D02*
Y549194D01*
Y552193D01*
X255481D01*
Y555192D01*
Y549194D01*
X233488Y534194D02*
Y540192D01*
X236487D01*
X237487Y539193D01*
Y537193D01*
X236487Y536194D01*
X233488D01*
X239487Y540192D02*
X243485D01*
X241486D01*
Y534194D01*
X245484Y540192D02*
Y534194D01*
Y537193D01*
X249483D01*
Y540192D01*
Y534194D01*
X233488Y519194D02*
Y525192D01*
X236487D01*
X237487Y524193D01*
Y522193D01*
X236487Y521194D01*
X233488D01*
X239487Y525192D02*
X243485D01*
X241486D01*
Y519194D01*
X245484Y525192D02*
Y519194D01*
Y522193D01*
X249483D01*
Y525192D01*
Y519194D01*
X233488Y504194D02*
Y510192D01*
X237487Y504194D01*
Y510192D01*
X239487Y504194D02*
Y510192D01*
X242485D01*
X243485Y509193D01*
Y507193D01*
X242485Y506193D01*
X239487D01*
X245484Y510192D02*
X249483D01*
X247484D01*
Y504194D01*
X251483Y510192D02*
Y504194D01*
Y507193D01*
X255481D01*
Y510192D01*
Y504194D01*
X233488Y489194D02*
Y495192D01*
X237487Y489194D01*
Y495192D01*
X239487Y489194D02*
Y495192D01*
X242485D01*
X243485Y494193D01*
Y492193D01*
X242485Y491193D01*
X239487D01*
X245484Y495192D02*
X249483D01*
X247484D01*
Y489194D01*
X251483Y495192D02*
Y489194D01*
Y492193D01*
X255481D01*
Y495192D01*
Y489194D01*
X233488Y474194D02*
Y480192D01*
X236487D01*
X237487Y479193D01*
Y477193D01*
X236487Y476194D01*
X233488D01*
X239487Y480192D02*
X243485D01*
X241486D01*
Y474194D01*
X245484Y480192D02*
Y474194D01*
Y477193D01*
X249483D01*
Y480192D01*
Y474194D01*
X233488Y459194D02*
Y465192D01*
X236487D01*
X237487Y464193D01*
Y462193D01*
X236487Y461194D01*
X233488D01*
X239487Y465192D02*
X243485D01*
X241486D01*
Y459194D01*
X245484Y465192D02*
Y459194D01*
Y462193D01*
X249483D01*
Y465192D01*
Y459194D01*
X233488Y444194D02*
Y450192D01*
X237487Y444194D01*
Y450192D01*
X239487Y444194D02*
Y450192D01*
X242485D01*
X243485Y449193D01*
Y447193D01*
X242485Y446194D01*
X239487D01*
X245484Y450192D02*
X249483D01*
X247484D01*
Y444194D01*
X251483Y450192D02*
Y444194D01*
Y447193D01*
X255481D01*
Y450192D01*
Y444194D01*
X233488Y429194D02*
Y435192D01*
X236487D01*
X237487Y434193D01*
Y432193D01*
X236487Y431193D01*
X233488D01*
X239487Y435192D02*
X243485D01*
X241486D01*
Y429194D01*
X245484Y435192D02*
Y429194D01*
Y432193D01*
X249483D01*
Y435192D01*
Y429194D01*
X233488Y414194D02*
Y420192D01*
X236487D01*
X237487Y419193D01*
Y417193D01*
X236487Y416193D01*
X233488D01*
X239487Y420192D02*
X243485D01*
X241486D01*
Y414194D01*
X245484Y420192D02*
Y414194D01*
Y417193D01*
X249483D01*
Y420192D01*
Y414194D01*
X233488Y399194D02*
Y405192D01*
X236487D01*
X237487Y404192D01*
Y402193D01*
X236487Y401194D01*
X233488D01*
X239487Y405192D02*
X243485D01*
X241486D01*
Y399194D01*
X245484Y405192D02*
Y399194D01*
Y402193D01*
X249483D01*
Y405192D01*
Y399194D01*
X233488Y384194D02*
Y390192D01*
X236487D01*
X237487Y389193D01*
Y387193D01*
X236487Y386193D01*
X233488D01*
X239487Y390192D02*
X243485D01*
X241486D01*
Y384194D01*
X245484Y390192D02*
Y384194D01*
Y387193D01*
X249483D01*
Y390192D01*
Y384194D01*
X122521Y549194D02*
X118522D01*
X122521Y553193D01*
Y554193D01*
X121521Y555192D01*
X119522D01*
X118522Y554193D01*
X124520Y549194D02*
Y550194D01*
X125520D01*
Y549194D01*
X124520D01*
X129518D02*
X131518D01*
X130518D01*
Y555192D01*
X129518Y554193D01*
X134517D02*
X135517Y555192D01*
X137516D01*
X138516Y554193D01*
Y550194D01*
X137516Y549194D01*
X135517D01*
X134517Y550194D01*
Y554193D01*
X140515D02*
X141515Y555192D01*
X143514D01*
X144514Y554193D01*
Y550194D01*
X143514Y549194D01*
X141515D01*
X140515Y550194D01*
Y554193D01*
X146513Y549194D02*
Y553193D01*
X147513D01*
X148512Y552193D01*
Y549194D01*
Y552193D01*
X149512Y553193D01*
X150512Y552193D01*
Y549194D01*
X152511D02*
Y553193D01*
X153511D01*
X154510Y552193D01*
Y549194D01*
Y552193D01*
X155510Y553193D01*
X156510Y552193D01*
Y549194D01*
X166507D02*
X164507Y551194D01*
Y553193D01*
X166507Y555192D01*
X169506Y554193D02*
X170505Y555192D01*
X172505D01*
X173504Y554193D01*
Y553193D01*
X172505Y552193D01*
X173504Y551194D01*
Y550194D01*
X172505Y549194D01*
X170505D01*
X169506Y550194D01*
Y551194D01*
X170505Y552193D01*
X169506Y553193D01*
Y554193D01*
X170505Y552193D02*
X172505D01*
X179502Y549194D02*
X175504D01*
X179502Y553193D01*
Y554193D01*
X178503Y555192D01*
X176503D01*
X175504Y554193D01*
X181502Y549194D02*
Y550194D01*
X182501D01*
Y549194D01*
X181502D01*
X190499Y555192D02*
X188499Y554193D01*
X186500Y552193D01*
Y550194D01*
X187500Y549194D01*
X189499D01*
X190499Y550194D01*
Y551194D01*
X189499Y552193D01*
X186500D01*
X192498Y554193D02*
X193498Y555192D01*
X195497D01*
X196497Y554193D01*
Y553193D01*
X195497Y552193D01*
X196497Y551194D01*
Y550194D01*
X195497Y549194D01*
X193498D01*
X192498Y550194D01*
Y551194D01*
X193498Y552193D01*
X192498Y553193D01*
Y554193D01*
X193498Y552193D02*
X195497D01*
X198496Y549194D02*
Y553193D01*
X199496D01*
X200496Y552193D01*
Y549194D01*
Y552193D01*
X201495Y553193D01*
X202495Y552193D01*
Y549194D01*
X204494D02*
X206494D01*
X205494D01*
Y553193D01*
X204494D01*
X209493Y549194D02*
X211492D01*
X210492D01*
Y555192D01*
X209493D01*
X214491Y549194D02*
X216490Y551194D01*
Y553193D01*
X214491Y555192D01*
X118522Y539193D02*
X119522Y540192D01*
X121521D01*
X122521Y539193D01*
Y535194D01*
X121521Y534194D01*
X119522D01*
X118522Y535194D01*
Y539193D01*
X124520Y534194D02*
Y535194D01*
X125520D01*
Y534194D01*
X124520D01*
X133517Y540192D02*
X131518Y539193D01*
X129518Y537193D01*
Y535194D01*
X130518Y534194D01*
X132518D01*
X133517Y535194D01*
Y536194D01*
X132518Y537193D01*
X129518D01*
X135517Y539193D02*
X136516Y540192D01*
X138516D01*
X139515Y539193D01*
Y535194D01*
X138516Y534194D01*
X136516D01*
X135517Y535194D01*
Y539193D01*
X141515D02*
X142514Y540192D01*
X144514D01*
X145513Y539193D01*
Y535194D01*
X144514Y534194D01*
X142514D01*
X141515Y535194D01*
Y539193D01*
X147513Y534194D02*
Y538193D01*
X148512D01*
X149512Y537193D01*
Y534194D01*
Y537193D01*
X150512Y538193D01*
X151511Y537193D01*
Y534194D01*
X153511D02*
Y538193D01*
X154510D01*
X155510Y537193D01*
Y534194D01*
Y537193D01*
X156510Y538193D01*
X157509Y537193D01*
Y534194D01*
X167506D02*
X165507Y536194D01*
Y538193D01*
X167506Y540192D01*
X174504Y534194D02*
X170505D01*
X174504Y538193D01*
Y539193D01*
X173504Y540192D01*
X171505D01*
X170505Y539193D01*
X176503D02*
X177503Y540192D01*
X179502D01*
X180502Y539193D01*
Y538193D01*
X179502Y537193D01*
X178503D01*
X179502D01*
X180502Y536194D01*
Y535194D01*
X179502Y534194D01*
X177503D01*
X176503Y535194D01*
X182501Y534194D02*
Y535194D01*
X183501D01*
Y534194D01*
X182501D01*
X191498Y540192D02*
X189499Y539193D01*
X187500Y537193D01*
Y535194D01*
X188499Y534194D01*
X190499D01*
X191498Y535194D01*
Y536194D01*
X190499Y537193D01*
X187500D01*
X197496Y534194D02*
X193498D01*
X197496Y538193D01*
Y539193D01*
X196497Y540192D01*
X194498D01*
X193498Y539193D01*
X199496Y534194D02*
Y538193D01*
X200496D01*
X201495Y537193D01*
Y534194D01*
Y537193D01*
X202495Y538193D01*
X203495Y537193D01*
Y534194D01*
X205494D02*
X207493D01*
X206494D01*
Y538193D01*
X205494D01*
X210492Y534194D02*
X212492D01*
X211492D01*
Y540192D01*
X210492D01*
X215491Y534194D02*
X217490Y536194D01*
Y538193D01*
X215491Y540192D01*
X118522Y524193D02*
X119522Y525192D01*
X121521D01*
X122521Y524193D01*
Y520194D01*
X121521Y519194D01*
X119522D01*
X118522Y520194D01*
Y524193D01*
X124520Y519194D02*
Y520194D01*
X125520D01*
Y519194D01*
X124520D01*
X133517Y525192D02*
X131518Y524193D01*
X129518Y522193D01*
Y520194D01*
X130518Y519194D01*
X132518D01*
X133517Y520194D01*
Y521194D01*
X132518Y522193D01*
X129518D01*
X135517Y524193D02*
X136516Y525192D01*
X138516D01*
X139515Y524193D01*
Y520194D01*
X138516Y519194D01*
X136516D01*
X135517Y520194D01*
Y524193D01*
X141515D02*
X142514Y525192D01*
X144514D01*
X145513Y524193D01*
Y520194D01*
X144514Y519194D01*
X142514D01*
X141515Y520194D01*
Y524193D01*
X147513Y519194D02*
Y523193D01*
X148512D01*
X149512Y522193D01*
Y519194D01*
Y522193D01*
X150512Y523193D01*
X151511Y522193D01*
Y519194D01*
X153511D02*
Y523193D01*
X154510D01*
X155510Y522193D01*
Y519194D01*
Y522193D01*
X156510Y523193D01*
X157509Y522193D01*
Y519194D01*
X167506D02*
X165507Y521194D01*
Y523193D01*
X167506Y525192D01*
X174504Y519194D02*
X170505D01*
X174504Y523193D01*
Y524193D01*
X173504Y525192D01*
X171505D01*
X170505Y524193D01*
X176503D02*
X177503Y525192D01*
X179502D01*
X180502Y524193D01*
Y523193D01*
X179502Y522193D01*
X178503D01*
X179502D01*
X180502Y521194D01*
Y520194D01*
X179502Y519194D01*
X177503D01*
X176503Y520194D01*
X182501Y519194D02*
Y520194D01*
X183501D01*
Y519194D01*
X182501D01*
X191498Y525192D02*
X189499Y524193D01*
X187500Y522193D01*
Y520194D01*
X188499Y519194D01*
X190499D01*
X191498Y520194D01*
Y521194D01*
X190499Y522193D01*
X187500D01*
X197496Y519194D02*
X193498D01*
X197496Y523193D01*
Y524193D01*
X196497Y525192D01*
X194498D01*
X193498Y524193D01*
X199496Y519194D02*
Y523193D01*
X200496D01*
X201495Y522193D01*
Y519194D01*
Y522193D01*
X202495Y523193D01*
X203495Y522193D01*
Y519194D01*
X205494D02*
X207493D01*
X206494D01*
Y523193D01*
X205494D01*
X210492Y519194D02*
X212492D01*
X211492D01*
Y525192D01*
X210492D01*
X215491Y519194D02*
X217490Y521194D01*
Y523193D01*
X215491Y525192D01*
X118522Y509193D02*
X119522Y510192D01*
X121521D01*
X122521Y509193D01*
Y505194D01*
X121521Y504194D01*
X119522D01*
X118522Y505194D01*
Y509193D01*
X124520Y504194D02*
Y505194D01*
X125520D01*
Y504194D01*
X124520D01*
X133517Y510192D02*
X131518Y509193D01*
X129518Y507193D01*
Y505194D01*
X130518Y504194D01*
X132518D01*
X133517Y505194D01*
Y506193D01*
X132518Y507193D01*
X129518D01*
X139515Y504194D02*
X135517D01*
X139515Y508193D01*
Y509193D01*
X138516Y510192D01*
X136516D01*
X135517Y509193D01*
X141515D02*
X142514Y510192D01*
X144514D01*
X145513Y509193D01*
Y505194D01*
X144514Y504194D01*
X142514D01*
X141515Y505194D01*
Y509193D01*
X147513Y504194D02*
Y508193D01*
X148512D01*
X149512Y507193D01*
Y504194D01*
Y507193D01*
X150512Y508193D01*
X151511Y507193D01*
Y504194D01*
X153511D02*
Y508193D01*
X154510D01*
X155510Y507193D01*
Y504194D01*
Y507193D01*
X156510Y508193D01*
X157509Y507193D01*
Y504194D01*
X167506D02*
X165507Y506193D01*
Y508193D01*
X167506Y510192D01*
X174504Y504194D02*
X170505D01*
X174504Y508193D01*
Y509193D01*
X173504Y510192D01*
X171505D01*
X170505Y509193D01*
X179502Y504194D02*
Y510192D01*
X176503Y507193D01*
X180502D01*
X182501Y504194D02*
Y505194D01*
X183501D01*
Y504194D01*
X182501D01*
X190499D02*
Y510192D01*
X187500Y507193D01*
X191498D01*
X193498Y504194D02*
X195497D01*
X194498D01*
Y510192D01*
X193498Y509193D01*
X198496Y504194D02*
Y508193D01*
X199496D01*
X200496Y507193D01*
Y504194D01*
Y507193D01*
X201495Y508193D01*
X202495Y507193D01*
Y504194D01*
X204494D02*
X206494D01*
X205494D01*
Y508193D01*
X204494D01*
X209493Y504194D02*
X211492D01*
X210492D01*
Y510192D01*
X209493D01*
X214491Y504194D02*
X216490Y506193D01*
Y508193D01*
X214491Y510192D01*
X118522Y489194D02*
X120521D01*
X119522D01*
Y495192D01*
X118522Y494193D01*
X123520Y489194D02*
Y490194D01*
X124520D01*
Y489194D01*
X123520D01*
X128519Y494193D02*
X129518Y495192D01*
X131518D01*
X132518Y494193D01*
Y490194D01*
X131518Y489194D01*
X129518D01*
X128519Y490194D01*
Y494193D01*
X138516Y489194D02*
X134517D01*
X138516Y493193D01*
Y494193D01*
X137516Y495192D01*
X135517D01*
X134517Y494193D01*
X140515D02*
X141515Y495192D01*
X143514D01*
X144514Y494193D01*
Y490194D01*
X143514Y489194D01*
X141515D01*
X140515Y490194D01*
Y494193D01*
X146513Y489194D02*
Y493193D01*
X147513D01*
X148512Y492193D01*
Y489194D01*
Y492193D01*
X149512Y493193D01*
X150512Y492193D01*
Y489194D01*
X152511D02*
Y493193D01*
X153511D01*
X154510Y492193D01*
Y489194D01*
Y492193D01*
X155510Y493193D01*
X156510Y492193D01*
Y489194D01*
X166507D02*
X164507Y491193D01*
Y493193D01*
X166507Y495192D01*
X172505Y489194D02*
Y495192D01*
X169506Y492193D01*
X173504D01*
X175504Y494193D02*
X176503Y495192D01*
X178503D01*
X179502Y494193D01*
Y490194D01*
X178503Y489194D01*
X176503D01*
X175504Y490194D01*
Y494193D01*
X181502Y489194D02*
Y490194D01*
X182501D01*
Y489194D01*
X181502D01*
X186500D02*
X188499D01*
X187500D01*
Y495192D01*
X186500Y494193D01*
X195497Y495192D02*
X193498Y494193D01*
X191498Y492193D01*
Y490194D01*
X192498Y489194D01*
X194498D01*
X195497Y490194D01*
Y491193D01*
X194498Y492193D01*
X191498D01*
X197496Y489194D02*
Y493193D01*
X198496D01*
X199496Y492193D01*
Y489194D01*
Y492193D01*
X200496Y493193D01*
X201495Y492193D01*
Y489194D01*
X203495D02*
X205494D01*
X204494D01*
Y493193D01*
X203495D01*
X208493Y489194D02*
X210492D01*
X209493D01*
Y495192D01*
X208493D01*
X213491Y489194D02*
X215491Y491193D01*
Y493193D01*
X213491Y495192D01*
X118522Y474194D02*
X120521D01*
X119522D01*
Y480192D01*
X118522Y479193D01*
X123520Y474194D02*
Y475194D01*
X124520D01*
Y474194D01*
X123520D01*
X128519Y479193D02*
X129518Y480192D01*
X131518D01*
X132518Y479193D01*
Y475194D01*
X131518Y474194D01*
X129518D01*
X128519Y475194D01*
Y479193D01*
X134517D02*
X135517Y480192D01*
X137516D01*
X138516Y479193D01*
Y475194D01*
X137516Y474194D01*
X135517D01*
X134517Y475194D01*
Y479193D01*
X140515D02*
X141515Y480192D01*
X143514D01*
X144514Y479193D01*
Y475194D01*
X143514Y474194D01*
X141515D01*
X140515Y475194D01*
Y479193D01*
X146513Y474194D02*
Y478193D01*
X147513D01*
X148512Y477193D01*
Y474194D01*
Y477193D01*
X149512Y478193D01*
X150512Y477193D01*
Y474194D01*
X152511D02*
Y478193D01*
X153511D01*
X154510Y477193D01*
Y474194D01*
Y477193D01*
X155510Y478193D01*
X156510Y477193D01*
Y474194D01*
X166507D02*
X164507Y476194D01*
Y478193D01*
X166507Y480192D01*
X169506Y479193D02*
X170505Y480192D01*
X172505D01*
X173504Y479193D01*
Y478193D01*
X172505Y477193D01*
X171505D01*
X172505D01*
X173504Y476194D01*
Y475194D01*
X172505Y474194D01*
X170505D01*
X169506Y475194D01*
X175504D02*
X176503Y474194D01*
X178503D01*
X179502Y475194D01*
Y479193D01*
X178503Y480192D01*
X176503D01*
X175504Y479193D01*
Y478193D01*
X176503Y477193D01*
X179502D01*
X181502Y474194D02*
Y475194D01*
X182501D01*
Y474194D01*
X181502D01*
X186500Y479193D02*
X187500Y480192D01*
X189499D01*
X190499Y479193D01*
Y478193D01*
X189499Y477193D01*
X188499D01*
X189499D01*
X190499Y476194D01*
Y475194D01*
X189499Y474194D01*
X187500D01*
X186500Y475194D01*
X192498Y480192D02*
X196497D01*
Y479193D01*
X192498Y475194D01*
Y474194D01*
X198496D02*
Y478193D01*
X199496D01*
X200496Y477193D01*
Y474194D01*
Y477193D01*
X201495Y478193D01*
X202495Y477193D01*
Y474194D01*
X204494D02*
X206494D01*
X205494D01*
Y478193D01*
X204494D01*
X209493Y474194D02*
X211492D01*
X210492D01*
Y480192D01*
X209493D01*
X214491Y474194D02*
X216490Y476194D01*
Y478193D01*
X214491Y480192D01*
X118522Y459194D02*
X120521D01*
X119522D01*
Y465192D01*
X118522Y464193D01*
X123520Y459194D02*
Y460194D01*
X124520D01*
Y459194D01*
X123520D01*
X128519Y464193D02*
X129518Y465192D01*
X131518D01*
X132518Y464193D01*
Y463193D01*
X131518Y462193D01*
X130518D01*
X131518D01*
X132518Y461194D01*
Y460194D01*
X131518Y459194D01*
X129518D01*
X128519Y460194D01*
X134517Y464193D02*
X135517Y465192D01*
X137516D01*
X138516Y464193D01*
Y460194D01*
X137516Y459194D01*
X135517D01*
X134517Y460194D01*
Y464193D01*
X140515D02*
X141515Y465192D01*
X143514D01*
X144514Y464193D01*
Y460194D01*
X143514Y459194D01*
X141515D01*
X140515Y460194D01*
Y464193D01*
X146513Y459194D02*
Y463193D01*
X147513D01*
X148512Y462193D01*
Y459194D01*
Y462193D01*
X149512Y463193D01*
X150512Y462193D01*
Y459194D01*
X152511D02*
Y463193D01*
X153511D01*
X154510Y462193D01*
Y459194D01*
Y462193D01*
X155510Y463193D01*
X156510Y462193D01*
Y459194D01*
X166507D02*
X164507Y461194D01*
Y463193D01*
X166507Y465192D01*
X173504D02*
X169506D01*
Y462193D01*
X171505Y463193D01*
X172505D01*
X173504Y462193D01*
Y460194D01*
X172505Y459194D01*
X170505D01*
X169506Y460194D01*
X175504Y459194D02*
X177503D01*
X176503D01*
Y465192D01*
X175504Y464193D01*
X180502Y459194D02*
Y460194D01*
X181502D01*
Y459194D01*
X180502D01*
X185500D02*
X187500D01*
X186500D01*
Y465192D01*
X185500Y464193D01*
X190499D02*
X191498Y465192D01*
X193498D01*
X194498Y464193D01*
Y463193D01*
X193498Y462193D01*
X194498Y461194D01*
Y460194D01*
X193498Y459194D01*
X191498D01*
X190499Y460194D01*
Y461194D01*
X191498Y462193D01*
X190499Y463193D01*
Y464193D01*
X191498Y462193D02*
X193498D01*
X196497Y459194D02*
Y463193D01*
X197496D01*
X198496Y462193D01*
Y459194D01*
Y462193D01*
X199496Y463193D01*
X200496Y462193D01*
Y459194D01*
X202495D02*
X204494D01*
X203495D01*
Y463193D01*
X202495D01*
X207493Y459194D02*
X209493D01*
X208493D01*
Y465192D01*
X207493D01*
X212492Y459194D02*
X214491Y461194D01*
Y463193D01*
X212492Y465192D01*
X118522Y449193D02*
X119522Y450192D01*
X121521D01*
X122521Y449193D01*
Y448193D01*
X121521Y447193D01*
X120521D01*
X121521D01*
X122521Y446194D01*
Y445194D01*
X121521Y444194D01*
X119522D01*
X118522Y445194D01*
X124520Y444194D02*
Y445194D01*
X125520D01*
Y444194D01*
X124520D01*
X133517D02*
X129518D01*
X133517Y448193D01*
Y449193D01*
X132518Y450192D01*
X130518D01*
X129518Y449193D01*
X135517D02*
X136516Y450192D01*
X138516D01*
X139515Y449193D01*
Y445194D01*
X138516Y444194D01*
X136516D01*
X135517Y445194D01*
Y449193D01*
X141515D02*
X142514Y450192D01*
X144514D01*
X145513Y449193D01*
Y445194D01*
X144514Y444194D01*
X142514D01*
X141515Y445194D01*
Y449193D01*
X147513Y444194D02*
Y448193D01*
X148512D01*
X149512Y447193D01*
Y444194D01*
Y447193D01*
X150512Y448193D01*
X151511Y447193D01*
Y444194D01*
X153511D02*
Y448193D01*
X154510D01*
X155510Y447193D01*
Y444194D01*
Y447193D01*
X156510Y448193D01*
X157509Y447193D01*
Y444194D01*
X167506D02*
X165507Y446194D01*
Y448193D01*
X167506Y450192D01*
X170505Y444194D02*
X172505D01*
X171505D01*
Y450192D01*
X170505Y449193D01*
X179502Y444194D02*
X175504D01*
X179502Y448193D01*
Y449193D01*
X178503Y450192D01*
X176503D01*
X175504Y449193D01*
X185500Y450192D02*
X181502D01*
Y447193D01*
X183501Y448193D01*
X184501D01*
X185500Y447193D01*
Y445194D01*
X184501Y444194D01*
X182501D01*
X181502Y445194D01*
X187500Y444194D02*
Y445194D01*
X188499D01*
Y444194D01*
X187500D01*
X192498Y445194D02*
X193498Y444194D01*
X195497D01*
X196497Y445194D01*
Y449193D01*
X195497Y450192D01*
X193498D01*
X192498Y449193D01*
Y448193D01*
X193498Y447193D01*
X196497D01*
X198496Y449193D02*
X199496Y450192D01*
X201495D01*
X202495Y449193D01*
Y448193D01*
X201495Y447193D01*
X202495Y446194D01*
Y445194D01*
X201495Y444194D01*
X199496D01*
X198496Y445194D01*
Y446194D01*
X199496Y447193D01*
X198496Y448193D01*
Y449193D01*
X199496Y447193D02*
X201495D01*
X204494Y444194D02*
Y448193D01*
X205494D01*
X206494Y447193D01*
Y444194D01*
Y447193D01*
X207493Y448193D01*
X208493Y447193D01*
Y444194D01*
X210492D02*
X212492D01*
X211492D01*
Y448193D01*
X210492D01*
X215491Y444194D02*
X217490D01*
X216490D01*
Y450192D01*
X215491D01*
X220489Y444194D02*
X222488Y446194D01*
Y448193D01*
X220489Y450192D01*
X118522Y429194D02*
X120521D01*
X119522D01*
Y435192D01*
X118522Y434193D01*
X123520Y429194D02*
Y430194D01*
X124520D01*
Y429194D01*
X123520D01*
X132518Y435192D02*
X130518Y434193D01*
X128519Y432193D01*
Y430194D01*
X129518Y429194D01*
X131518D01*
X132518Y430194D01*
Y431193D01*
X131518Y432193D01*
X128519D01*
X134517Y434193D02*
X135517Y435192D01*
X137516D01*
X138516Y434193D01*
Y430194D01*
X137516Y429194D01*
X135517D01*
X134517Y430194D01*
Y434193D01*
X140515D02*
X141515Y435192D01*
X143514D01*
X144514Y434193D01*
Y430194D01*
X143514Y429194D01*
X141515D01*
X140515Y430194D01*
Y434193D01*
X146513Y429194D02*
Y433193D01*
X147513D01*
X148512Y432193D01*
Y429194D01*
Y432193D01*
X149512Y433193D01*
X150512Y432193D01*
Y429194D01*
X152511D02*
Y433193D01*
X153511D01*
X154510Y432193D01*
Y429194D01*
Y432193D01*
X155510Y433193D01*
X156510Y432193D01*
Y429194D01*
X166507D02*
X164507Y431193D01*
Y433193D01*
X166507Y435192D01*
X173504D02*
X171505Y434193D01*
X169506Y432193D01*
Y430194D01*
X170505Y429194D01*
X172505D01*
X173504Y430194D01*
Y431193D01*
X172505Y432193D01*
X169506D01*
X179502Y429194D02*
X175504D01*
X179502Y433193D01*
Y434193D01*
X178503Y435192D01*
X176503D01*
X175504Y434193D01*
X181502Y429194D02*
Y430194D01*
X182501D01*
Y429194D01*
X181502D01*
X186500Y430194D02*
X187500Y429194D01*
X189499D01*
X190499Y430194D01*
Y434193D01*
X189499Y435192D01*
X187500D01*
X186500Y434193D01*
Y433193D01*
X187500Y432193D01*
X190499D01*
X192498Y430194D02*
X193498Y429194D01*
X195497D01*
X196497Y430194D01*
Y434193D01*
X195497Y435192D01*
X193498D01*
X192498Y434193D01*
Y433193D01*
X193498Y432193D01*
X196497D01*
X198496Y429194D02*
Y433193D01*
X199496D01*
X200496Y432193D01*
Y429194D01*
Y432193D01*
X201495Y433193D01*
X202495Y432193D01*
Y429194D01*
X204494D02*
X206494D01*
X205494D01*
Y433193D01*
X204494D01*
X209493Y429194D02*
X211492D01*
X210492D01*
Y435192D01*
X209493D01*
X214491Y429194D02*
X216490Y431193D01*
Y433193D01*
X214491Y435192D01*
X118522Y419193D02*
X119522Y420192D01*
X121521D01*
X122521Y419193D01*
Y415194D01*
X121521Y414194D01*
X119522D01*
X118522Y415194D01*
Y419193D01*
X124520Y414194D02*
Y415194D01*
X125520D01*
Y414194D01*
X124520D01*
X129518Y415194D02*
X130518Y414194D01*
X132518D01*
X133517Y415194D01*
Y419193D01*
X132518Y420192D01*
X130518D01*
X129518Y419193D01*
Y418193D01*
X130518Y417193D01*
X133517D01*
X135517Y419193D02*
X136516Y420192D01*
X138516D01*
X139515Y419193D01*
Y415194D01*
X138516Y414194D01*
X136516D01*
X135517Y415194D01*
Y419193D01*
X141515D02*
X142514Y420192D01*
X144514D01*
X145513Y419193D01*
Y415194D01*
X144514Y414194D01*
X142514D01*
X141515Y415194D01*
Y419193D01*
X147513Y414194D02*
Y418193D01*
X148512D01*
X149512Y417193D01*
Y414194D01*
Y417193D01*
X150512Y418193D01*
X151511Y417193D01*
Y414194D01*
X153511D02*
Y418193D01*
X154510D01*
X155510Y417193D01*
Y414194D01*
Y417193D01*
X156510Y418193D01*
X157509Y417193D01*
Y414194D01*
X167506D02*
X165507Y416193D01*
Y418193D01*
X167506Y420192D01*
X170505Y419193D02*
X171505Y420192D01*
X173504D01*
X174504Y419193D01*
Y418193D01*
X173504Y417193D01*
X172505D01*
X173504D01*
X174504Y416193D01*
Y415194D01*
X173504Y414194D01*
X171505D01*
X170505Y415194D01*
X180502Y420192D02*
X176503D01*
Y417193D01*
X178503Y418193D01*
X179502D01*
X180502Y417193D01*
Y415194D01*
X179502Y414194D01*
X177503D01*
X176503Y415194D01*
X182501Y414194D02*
Y415194D01*
X183501D01*
Y414194D01*
X182501D01*
X190499D02*
Y420192D01*
X187500Y417193D01*
X191498D01*
X193498Y419193D02*
X194498Y420192D01*
X196497D01*
X197496Y419193D01*
Y418193D01*
X196497Y417193D01*
X195497D01*
X196497D01*
X197496Y416193D01*
Y415194D01*
X196497Y414194D01*
X194498D01*
X193498Y415194D01*
X199496Y414194D02*
Y418193D01*
X200496D01*
X201495Y417193D01*
Y414194D01*
Y417193D01*
X202495Y418193D01*
X203495Y417193D01*
Y414194D01*
X205494D02*
X207493D01*
X206494D01*
Y418193D01*
X205494D01*
X210492Y414194D02*
X212492D01*
X211492D01*
Y420192D01*
X210492D01*
X215491Y414194D02*
X217490Y416193D01*
Y418193D01*
X215491Y420192D01*
X118522Y399194D02*
X120521D01*
X119522D01*
Y405192D01*
X118522Y404192D01*
X123520Y399194D02*
Y400194D01*
X124520D01*
Y399194D01*
X123520D01*
X128519Y404192D02*
X129518Y405192D01*
X131518D01*
X132518Y404192D01*
Y400194D01*
X131518Y399194D01*
X129518D01*
X128519Y400194D01*
Y404192D01*
X134517D02*
X135517Y405192D01*
X137516D01*
X138516Y404192D01*
Y400194D01*
X137516Y399194D01*
X135517D01*
X134517Y400194D01*
Y404192D01*
X140515D02*
X141515Y405192D01*
X143514D01*
X144514Y404192D01*
Y400194D01*
X143514Y399194D01*
X141515D01*
X140515Y400194D01*
Y404192D01*
X146513Y399194D02*
Y403193D01*
X147513D01*
X148512Y402193D01*
Y399194D01*
Y402193D01*
X149512Y403193D01*
X150512Y402193D01*
Y399194D01*
X152511D02*
Y403193D01*
X153511D01*
X154510Y402193D01*
Y399194D01*
Y402193D01*
X155510Y403193D01*
X156510Y402193D01*
Y399194D01*
X166507D02*
X164507Y401194D01*
Y403193D01*
X166507Y405192D01*
X169506Y404192D02*
X170505Y405192D01*
X172505D01*
X173504Y404192D01*
Y403193D01*
X172505Y402193D01*
X171505D01*
X172505D01*
X173504Y401194D01*
Y400194D01*
X172505Y399194D01*
X170505D01*
X169506Y400194D01*
X175504D02*
X176503Y399194D01*
X178503D01*
X179502Y400194D01*
Y404192D01*
X178503Y405192D01*
X176503D01*
X175504Y404192D01*
Y403193D01*
X176503Y402193D01*
X179502D01*
X181502Y399194D02*
Y400194D01*
X182501D01*
Y399194D01*
X181502D01*
X186500Y404192D02*
X187500Y405192D01*
X189499D01*
X190499Y404192D01*
Y403193D01*
X189499Y402193D01*
X188499D01*
X189499D01*
X190499Y401194D01*
Y400194D01*
X189499Y399194D01*
X187500D01*
X186500Y400194D01*
X192498Y405192D02*
X196497D01*
Y404192D01*
X192498Y400194D01*
Y399194D01*
X198496D02*
Y403193D01*
X199496D01*
X200496Y402193D01*
Y399194D01*
Y402193D01*
X201495Y403193D01*
X202495Y402193D01*
Y399194D01*
X204494D02*
X206494D01*
X205494D01*
Y403193D01*
X204494D01*
X209493Y399194D02*
X211492D01*
X210492D01*
Y405192D01*
X209493D01*
X214491Y399194D02*
X216490Y401194D01*
Y403193D01*
X214491Y405192D01*
X118522Y389193D02*
X119522Y390192D01*
X121521D01*
X122521Y389193D01*
Y385194D01*
X121521Y384194D01*
X119522D01*
X118522Y385194D01*
Y389193D01*
X124520Y384194D02*
Y385194D01*
X125520D01*
Y384194D01*
X124520D01*
X129518Y389193D02*
X130518Y390192D01*
X132518D01*
X133517Y389193D01*
Y388193D01*
X132518Y387193D01*
X131518D01*
X132518D01*
X133517Y386193D01*
Y385194D01*
X132518Y384194D01*
X130518D01*
X129518Y385194D01*
X135517Y389193D02*
X136516Y390192D01*
X138516D01*
X139515Y389193D01*
Y385194D01*
X138516Y384194D01*
X136516D01*
X135517Y385194D01*
Y389193D01*
X141515D02*
X142514Y390192D01*
X144514D01*
X145513Y389193D01*
Y385194D01*
X144514Y384194D01*
X142514D01*
X141515Y385194D01*
Y389193D01*
X147513Y384194D02*
Y388193D01*
X148512D01*
X149512Y387193D01*
Y384194D01*
Y387193D01*
X150512Y388193D01*
X151511Y387193D01*
Y384194D01*
X153511D02*
Y388193D01*
X154510D01*
X155510Y387193D01*
Y384194D01*
Y387193D01*
X156510Y388193D01*
X157509Y387193D01*
Y384194D01*
X167506D02*
X165507Y386193D01*
Y388193D01*
X167506Y390192D01*
X170505Y384194D02*
X172505D01*
X171505D01*
Y390192D01*
X170505Y389193D01*
X175504Y384194D02*
X177503D01*
X176503D01*
Y390192D01*
X175504Y389193D01*
X180502Y384194D02*
Y385194D01*
X181502D01*
Y384194D01*
X180502D01*
X185500Y389193D02*
X186500Y390192D01*
X188499D01*
X189499Y389193D01*
Y388193D01*
X188499Y387193D01*
X189499Y386193D01*
Y385194D01*
X188499Y384194D01*
X186500D01*
X185500Y385194D01*
Y386193D01*
X186500Y387193D01*
X185500Y388193D01*
Y389193D01*
X186500Y387193D02*
X188499D01*
X191498Y384194D02*
X193498D01*
X192498D01*
Y390192D01*
X191498Y389193D01*
X196497Y384194D02*
Y388193D01*
X197496D01*
X198496Y387193D01*
Y384194D01*
Y387193D01*
X199496Y388193D01*
X200496Y387193D01*
Y384194D01*
X202495D02*
X204494D01*
X203495D01*
Y388193D01*
X202495D01*
X207493Y384194D02*
X209493D01*
X208493D01*
Y390192D01*
X207493D01*
X212492Y384194D02*
X214491Y386193D01*
Y388193D01*
X212492Y390192D01*
X63536Y369194D02*
X59538D01*
X63536Y373193D01*
Y374193D01*
X62537Y375192D01*
X60537D01*
X59538Y374193D01*
X65536Y369194D02*
X67535D01*
X66535D01*
Y375192D01*
X65536Y374193D01*
X74533Y369194D02*
X70534D01*
X74533Y373193D01*
Y374193D01*
X73533Y375192D01*
X71534D01*
X70534Y374193D01*
X82530Y375192D02*
X86529D01*
X84530D01*
Y369194D01*
X89528D02*
X91527D01*
X92527Y370194D01*
Y372193D01*
X91527Y373193D01*
X89528D01*
X88528Y372193D01*
Y370194D01*
X89528Y369194D01*
X95526Y374193D02*
Y373193D01*
X94526D01*
X96526D01*
X95526D01*
Y370194D01*
X96526Y369194D01*
X100524Y373193D02*
X102524D01*
X103523Y372193D01*
Y369194D01*
X100524D01*
X99525Y370194D01*
X100524Y371194D01*
X103523D01*
X105523Y369194D02*
X107522D01*
X106522D01*
Y375192D01*
X105523D01*
X59538Y549194D02*
X61537D01*
X60537D01*
Y555192D01*
X59538Y554193D01*
X63536Y534194D02*
X59538D01*
X63536Y538193D01*
Y539193D01*
X62537Y540192D01*
X60537D01*
X59538Y539193D01*
X63536Y519194D02*
X59538D01*
X63536Y523193D01*
Y524193D01*
X62537Y525192D01*
X60537D01*
X59538Y524193D01*
X63536Y504194D02*
X59538D01*
X63536Y508193D01*
Y509193D01*
X62537Y510192D01*
X60537D01*
X59538Y509193D01*
X63536Y489194D02*
X59538D01*
X63536Y493193D01*
Y494193D01*
X62537Y495192D01*
X60537D01*
X59538Y494193D01*
Y479193D02*
X60537Y480192D01*
X62537D01*
X63536Y479193D01*
Y478193D01*
X62537Y477193D01*
X61537D01*
X62537D01*
X63536Y476194D01*
Y475194D01*
X62537Y474194D01*
X60537D01*
X59538Y475194D01*
X62537Y459194D02*
Y465192D01*
X59538Y462193D01*
X63536D01*
X62537Y444194D02*
Y450192D01*
X59538Y447193D01*
X63536D01*
Y435192D02*
X59538D01*
Y432193D01*
X61537Y433193D01*
X62537D01*
X63536Y432193D01*
Y430194D01*
X62537Y429194D01*
X60537D01*
X59538Y430194D01*
X63536Y420192D02*
X61537Y419193D01*
X59538Y417193D01*
Y415194D01*
X60537Y414194D01*
X62537D01*
X63536Y415194D01*
Y416193D01*
X62537Y417193D01*
X59538D01*
X63536Y405192D02*
X61537Y404192D01*
X59538Y402193D01*
Y400194D01*
X60537Y399194D01*
X62537D01*
X63536Y400194D01*
Y401194D01*
X62537Y402193D01*
X59538D01*
Y384194D02*
X61537D01*
X60537D01*
Y390192D01*
X59538Y389193D01*
X64536Y390192D02*
X68535D01*
Y389193D01*
X64536Y385194D01*
Y384194D01*
X74533Y390192D02*
X70534D01*
Y387193D01*
X72533Y388193D01*
X73533D01*
X74533Y387193D01*
Y385194D01*
X73533Y384194D01*
X71534D01*
X70534Y385194D01*
X187497Y346699D02*
X191496D01*
X187497Y348698D02*
X191496D01*
X199493Y344699D02*
Y350697D01*
X202492D01*
X203492Y349698D01*
Y347698D01*
X202492Y346699D01*
X199493D01*
X201492D02*
X203492Y344699D01*
X206491D02*
X208490D01*
X209490Y345699D01*
Y347698D01*
X208490Y348698D01*
X206491D01*
X205491Y347698D01*
Y345699D01*
X206491Y344699D01*
X211489Y348698D02*
Y345699D01*
X212489Y344699D01*
X215488D01*
Y348698D01*
X218487Y349698D02*
Y348698D01*
X217487D01*
X219487D01*
X218487D01*
Y345699D01*
X219487Y344699D01*
X225485D02*
X223485D01*
X222486Y345699D01*
Y347698D01*
X223485Y348698D01*
X225485D01*
X226484Y347698D01*
Y346699D01*
X222486D01*
X232482Y350697D02*
Y344699D01*
X229483D01*
X228484Y345699D01*
Y347698D01*
X229483Y348698D01*
X232482D01*
X240480Y344699D02*
Y350697D01*
X243479D01*
X244479Y349698D01*
Y347698D01*
X243479Y346699D01*
X240480D01*
X247478Y348698D02*
X249477D01*
X250477Y347698D01*
Y344699D01*
X247478D01*
X246478Y345699D01*
X247478Y346699D01*
X250477D01*
X253476Y349698D02*
Y348698D01*
X252476D01*
X254475D01*
X253476D01*
Y345699D01*
X254475Y344699D01*
X257474Y350697D02*
Y344699D01*
Y347698D01*
X258474Y348698D01*
X260473D01*
X261473Y347698D01*
Y344699D01*
X269470Y350697D02*
Y344699D01*
X273469D01*
X278467D02*
X276468D01*
X275468Y345699D01*
Y347698D01*
X276468Y348698D01*
X278467D01*
X279467Y347698D01*
Y346699D01*
X275468D01*
X281467Y344699D02*
Y348698D01*
X284466D01*
X285465Y347698D01*
Y344699D01*
X289464Y342700D02*
X290464D01*
X291463Y343700D01*
Y348698D01*
X288464D01*
X287465Y347698D01*
Y345699D01*
X288464Y344699D01*
X291463D01*
X294462Y349698D02*
Y348698D01*
X293463D01*
X295462D01*
X294462D01*
Y345699D01*
X295462Y344699D01*
X298461Y350697D02*
Y344699D01*
Y347698D01*
X299461Y348698D01*
X301460D01*
X302460Y347698D01*
Y344699D01*
X310457Y347698D02*
X314456D01*
X312456Y349698D02*
Y345699D01*
X322453Y350697D02*
X326452D01*
X324453D01*
Y344699D01*
X329451D02*
X331450D01*
X332450Y345699D01*
Y347698D01*
X331450Y348698D01*
X329451D01*
X328451Y347698D01*
Y345699D01*
X329451Y344699D01*
X335449D02*
X337448D01*
X338448Y345699D01*
Y347698D01*
X337448Y348698D01*
X335449D01*
X334449Y347698D01*
Y345699D01*
X335449Y344699D01*
X340447D02*
X342447D01*
X341447D01*
Y350697D01*
X340447D01*
X355443Y349698D02*
X354443Y350697D01*
X352444D01*
X351444Y349698D01*
Y348698D01*
X352444Y347698D01*
X354443D01*
X355443Y346699D01*
Y345699D01*
X354443Y344699D01*
X352444D01*
X351444Y345699D01*
X357442Y344699D02*
X359441D01*
X358442D01*
Y348698D01*
X357442D01*
X362440D02*
X366439D01*
X362440Y344699D01*
X366439D01*
X371437D02*
X369438D01*
X368438Y345699D01*
Y347698D01*
X369438Y348698D01*
X371437D01*
X372437Y347698D01*
Y346699D01*
X368438D01*
X380434D02*
X384433D01*
X380434Y348698D02*
X384433D01*
X396429Y349698D02*
X395430Y350697D01*
X393430D01*
X392431Y349698D01*
Y348698D01*
X393430Y347698D01*
X395430D01*
X396429Y346699D01*
Y345699D01*
X395430Y344699D01*
X393430D01*
X392431Y345699D01*
X398429Y344699D02*
X400428D01*
X399428D01*
Y350697D01*
X398429D01*
X404427Y344699D02*
X406426D01*
X407426Y345699D01*
Y347698D01*
X406426Y348698D01*
X404427D01*
X403427Y347698D01*
Y345699D01*
X404427Y344699D01*
X410425Y349698D02*
Y348698D01*
X409425D01*
X411424D01*
X410425D01*
Y345699D01*
X411424Y344699D01*
X420422D02*
X422421D01*
X421421D01*
Y350697D01*
X420422D01*
X428419Y344699D02*
X426420D01*
X425420Y345699D01*
Y347698D01*
X426420Y348698D01*
X428419D01*
X429419Y347698D01*
Y346699D01*
X425420D01*
X431418Y344699D02*
Y348698D01*
X434417D01*
X435417Y347698D01*
Y344699D01*
X439415Y342700D02*
X440415D01*
X441415Y343700D01*
Y348698D01*
X438416D01*
X437416Y347698D01*
Y345699D01*
X438416Y344699D01*
X441415D01*
X444414Y349698D02*
Y348698D01*
X443414D01*
X445413D01*
X444414D01*
Y345699D01*
X445413Y344699D01*
X448413Y350697D02*
Y344699D01*
Y347698D01*
X449412Y348698D01*
X451412D01*
X452411Y347698D01*
Y344699D01*
X461408Y348698D02*
X463408D01*
X464407Y347698D01*
Y344699D01*
X461408D01*
X460409Y345699D01*
X461408Y346699D01*
X464407D01*
X466407Y344699D02*
X469406D01*
X470405Y345699D01*
X469406Y346699D01*
X467406D01*
X466407Y347698D01*
X467406Y348698D01*
X470405D01*
X482402Y350697D02*
Y344699D01*
X479402D01*
X478403Y345699D01*
Y347698D01*
X479402Y348698D01*
X482402D01*
X487400Y344699D02*
X485401D01*
X484401Y345699D01*
Y347698D01*
X485401Y348698D01*
X487400D01*
X488400Y347698D01*
Y346699D01*
X484401D01*
X491399Y344699D02*
Y349698D01*
Y347698D01*
X490399D01*
X492398D01*
X491399D01*
Y349698D01*
X492398Y350697D01*
X495397Y344699D02*
X497397D01*
X496397D01*
Y348698D01*
X495397D01*
X500396Y344699D02*
Y348698D01*
X503395D01*
X504394Y347698D01*
Y344699D01*
X509393D02*
X507394D01*
X506394Y345699D01*
Y347698D01*
X507394Y348698D01*
X509393D01*
X510393Y347698D01*
Y346699D01*
X506394D01*
X516391Y350697D02*
Y344699D01*
X513391D01*
X512392Y345699D01*
Y347698D01*
X513391Y348698D01*
X516391D01*
X524388Y344699D02*
X526387D01*
X525388D01*
Y348698D01*
X524388D01*
X529386Y344699D02*
Y348698D01*
X532385D01*
X533385Y347698D01*
Y344699D01*
X542382Y349698D02*
Y348698D01*
X541382D01*
X543382D01*
X542382D01*
Y345699D01*
X543382Y344699D01*
X546381Y350697D02*
Y344699D01*
Y347698D01*
X547380Y348698D01*
X549380D01*
X550380Y347698D01*
Y344699D01*
X555378D02*
X553379D01*
X552379Y345699D01*
Y347698D01*
X553379Y348698D01*
X555378D01*
X556378Y347698D01*
Y346699D01*
X552379D01*
X564375Y344699D02*
Y350697D01*
X567374D01*
X568374Y349698D01*
Y347698D01*
X567374Y346699D01*
X564375D01*
X574372Y349698D02*
X573372Y350697D01*
X571373D01*
X570373Y349698D01*
Y345699D01*
X571373Y344699D01*
X573372D01*
X574372Y345699D01*
X576371Y350697D02*
Y344699D01*
X579370D01*
X580370Y345699D01*
Y346699D01*
X579370Y347698D01*
X576371D01*
X579370D01*
X580370Y348698D01*
Y349698D01*
X579370Y350697D01*
X576371D01*
X588367Y344699D02*
X590367D01*
X589367D01*
Y350697D01*
X588367D01*
X594365Y348698D02*
X596365D01*
X597364Y347698D01*
Y344699D01*
X594365D01*
X593366Y345699D01*
X594365Y346699D01*
X597364D01*
X599364Y348698D02*
Y345699D01*
X600363Y344699D01*
X603362D01*
Y343700D01*
X602363Y342700D01*
X601363D01*
X603362Y344699D02*
Y348698D01*
X606361Y344699D02*
X608361D01*
X609361Y345699D01*
Y347698D01*
X608361Y348698D01*
X606361D01*
X605362Y347698D01*
Y345699D01*
X606361Y344699D01*
X611360Y348698D02*
Y345699D01*
X612360Y344699D01*
X615358D01*
Y348698D01*
X618358Y349698D02*
Y348698D01*
X617358D01*
X619357D01*
X618358D01*
Y345699D01*
X619357Y344699D01*
X222486Y356696D02*
X226484D01*
X222486Y358696D02*
X226484D01*
X238480Y359695D02*
X237481Y360695D01*
X235481D01*
X234482Y359695D01*
Y355696D01*
X235481Y354697D01*
X237481D01*
X238480Y355696D01*
X241479Y358696D02*
X243479D01*
X244479Y357696D01*
Y354697D01*
X241479D01*
X240480Y355696D01*
X241479Y356696D01*
X244479D01*
X246478Y354697D02*
X248477D01*
X247478D01*
Y360695D01*
X246478D01*
X255475Y358696D02*
X252476D01*
X251476Y357696D01*
Y355696D01*
X252476Y354697D01*
X255475D01*
X257474Y358696D02*
Y355696D01*
X258474Y354697D01*
X261473D01*
Y358696D01*
X263472Y354697D02*
X265472D01*
X264472D01*
Y360695D01*
X263472D01*
X269470Y358696D02*
X271470D01*
X272469Y357696D01*
Y354697D01*
X269470D01*
X268471Y355696D01*
X269470Y356696D01*
X272469D01*
X275468Y359695D02*
Y358696D01*
X274469D01*
X276468D01*
X275468D01*
Y355696D01*
X276468Y354697D01*
X282466D02*
X280467D01*
X279467Y355696D01*
Y357696D01*
X280467Y358696D01*
X282466D01*
X283466Y357696D01*
Y356696D01*
X279467D01*
X289464Y360695D02*
Y354697D01*
X286465D01*
X285465Y355696D01*
Y357696D01*
X286465Y358696D01*
X289464D01*
X298461Y354697D02*
Y359695D01*
Y357696D01*
X297461D01*
X299461D01*
X298461D01*
Y359695D01*
X299461Y360695D01*
X302460Y358696D02*
Y354697D01*
Y356696D01*
X303459Y357696D01*
X304459Y358696D01*
X305459D01*
X309457Y354697D02*
X311457D01*
X312456Y355696D01*
Y357696D01*
X311457Y358696D01*
X309457D01*
X308458Y357696D01*
Y355696D01*
X309457Y354697D01*
X314456D02*
Y358696D01*
X315456D01*
X316455Y357696D01*
Y354697D01*
Y357696D01*
X317455Y358696D01*
X318455Y357696D01*
Y354697D01*
X327452Y359695D02*
Y358696D01*
X326452D01*
X328451D01*
X327452D01*
Y355696D01*
X328451Y354697D01*
X332450D02*
X334449D01*
X335449Y355696D01*
Y357696D01*
X334449Y358696D01*
X332450D01*
X331450Y357696D01*
Y355696D01*
X332450Y354697D01*
X338448D02*
X340447D01*
X341447Y355696D01*
Y357696D01*
X340447Y358696D01*
X338448D01*
X337448Y357696D01*
Y355696D01*
X338448Y354697D01*
X343446D02*
X345446D01*
X344446D01*
Y360695D01*
X343446D01*
X354443Y354697D02*
X357442D01*
X358442Y355696D01*
X357442Y356696D01*
X355443D01*
X354443Y357696D01*
X355443Y358696D01*
X358442D01*
X361441Y359695D02*
Y358696D01*
X360441D01*
X362440D01*
X361441D01*
Y355696D01*
X362440Y354697D01*
X366439Y358696D02*
X368438D01*
X369438Y357696D01*
Y354697D01*
X366439D01*
X365439Y355696D01*
X366439Y356696D01*
X369438D01*
X371437Y358696D02*
Y354697D01*
Y356696D01*
X372437Y357696D01*
X373437Y358696D01*
X374436D01*
X378435Y359695D02*
Y358696D01*
X377435D01*
X379435D01*
X378435D01*
Y355696D01*
X379435Y354697D01*
X392431Y358696D02*
X389432D01*
X388432Y357696D01*
Y355696D01*
X389432Y354697D01*
X392431D01*
X397429D02*
X395430D01*
X394430Y355696D01*
Y357696D01*
X395430Y358696D01*
X397429D01*
X398429Y357696D01*
Y356696D01*
X394430D01*
X400428Y354697D02*
Y358696D01*
X403427D01*
X404427Y357696D01*
Y354697D01*
X407426Y359695D02*
Y358696D01*
X406426D01*
X408426D01*
X407426D01*
Y355696D01*
X408426Y354697D01*
X411424Y358696D02*
Y354697D01*
Y356696D01*
X412424Y357696D01*
X413424Y358696D01*
X414424D01*
X420422Y354697D02*
X418422D01*
X417422Y355696D01*
Y357696D01*
X418422Y358696D01*
X420422D01*
X421421Y357696D01*
Y356696D01*
X417422D01*
X429419Y352697D02*
Y358696D01*
X432418D01*
X433417Y357696D01*
Y355696D01*
X432418Y354697D01*
X429419D01*
X436416D02*
X438416D01*
X439415Y355696D01*
Y357696D01*
X438416Y358696D01*
X436416D01*
X435417Y357696D01*
Y355696D01*
X436416Y354697D01*
X441415D02*
X444414D01*
X445413Y355696D01*
X444414Y356696D01*
X442415D01*
X441415Y357696D01*
X442415Y358696D01*
X445413D01*
X447413Y354697D02*
X449412D01*
X448413D01*
Y358696D01*
X447413D01*
X453411Y359695D02*
Y358696D01*
X452411D01*
X454411D01*
X453411D01*
Y355696D01*
X454411Y354697D01*
X457410D02*
X459409D01*
X458409D01*
Y358696D01*
X457410D01*
X463408Y354697D02*
X465407D01*
X466407Y355696D01*
Y357696D01*
X465407Y358696D01*
X463408D01*
X462408Y357696D01*
Y355696D01*
X463408Y354697D01*
X468406D02*
Y358696D01*
X471405D01*
X472405Y357696D01*
Y354697D01*
X481402Y359695D02*
Y358696D01*
X480402D01*
X482402D01*
X481402D01*
Y355696D01*
X482402Y354697D01*
X486400D02*
X488400D01*
X489399Y355696D01*
Y357696D01*
X488400Y358696D01*
X486400D01*
X485401Y357696D01*
Y355696D01*
X486400Y354697D01*
X498396Y359695D02*
Y358696D01*
X497397D01*
X499396D01*
X498396D01*
Y355696D01*
X499396Y354697D01*
X503395D02*
X505394D01*
X506394Y355696D01*
Y357696D01*
X505394Y358696D01*
X503395D01*
X502395Y357696D01*
Y355696D01*
X503395Y354697D01*
X509393D02*
X511392D01*
X512392Y355696D01*
Y357696D01*
X511392Y358696D01*
X509393D01*
X508393Y357696D01*
Y355696D01*
X509393Y354697D01*
X514391D02*
X516391D01*
X515391D01*
Y360695D01*
X514391D01*
X528387Y354697D02*
X526387D01*
X525388Y355696D01*
Y357696D01*
X526387Y358696D01*
X528387D01*
X529386Y357696D01*
Y356696D01*
X525388D01*
X531386Y354697D02*
Y358696D01*
X534385D01*
X535384Y357696D01*
Y354697D01*
X541382Y360695D02*
Y354697D01*
X538383D01*
X537384Y355696D01*
Y357696D01*
X538383Y358696D01*
X541382D01*
X553379D02*
X550380D01*
X549380Y357696D01*
Y355696D01*
X550380Y354697D01*
X553379D01*
X558377D02*
X556378D01*
X555378Y355696D01*
Y357696D01*
X556378Y358696D01*
X558377D01*
X559377Y357696D01*
Y356696D01*
X555378D01*
X561376Y354697D02*
Y358696D01*
X564375D01*
X565375Y357696D01*
Y354697D01*
X568374Y359695D02*
Y358696D01*
X567374D01*
X569373D01*
X568374D01*
Y355696D01*
X569373Y354697D01*
X572372Y358696D02*
Y354697D01*
Y356696D01*
X573372Y357696D01*
X574372Y358696D01*
X575371D01*
X581369Y354697D02*
X579370D01*
X578371Y355696D01*
Y357696D01*
X579370Y358696D01*
X581369D01*
X582369Y357696D01*
Y356696D01*
X578371D01*
X590367Y352697D02*
Y358696D01*
X593366D01*
X594365Y357696D01*
Y355696D01*
X593366Y354697D01*
X590367D01*
X597364D02*
X599364D01*
X600363Y355696D01*
Y357696D01*
X599364Y358696D01*
X597364D01*
X596365Y357696D01*
Y355696D01*
X597364Y354697D01*
X602363D02*
X605362D01*
X606361Y355696D01*
X605362Y356696D01*
X603362D01*
X602363Y357696D01*
X603362Y358696D01*
X606361D01*
X608361Y354697D02*
X610360D01*
X609361D01*
Y358696D01*
X608361D01*
X614359Y359695D02*
Y358696D01*
X613359D01*
X615358D01*
X614359D01*
Y355696D01*
X615358Y354697D01*
X618358D02*
X620357D01*
X619357D01*
Y358696D01*
X618358D01*
X624356Y354697D02*
X626355D01*
X627355Y355696D01*
Y357696D01*
X626355Y358696D01*
X624356D01*
X623356Y357696D01*
Y355696D01*
X624356Y354697D01*
X629354D02*
Y358696D01*
X632353D01*
X633353Y357696D01*
Y354697D01*
X635352D02*
Y355696D01*
X636352D01*
Y354697D01*
X635352D01*
D135*
X-50Y559694D02*
X1351769D01*
X-50Y379694D02*
X1351769D01*
X-50Y364694D02*
X1351769D01*
Y574694D01*
X-50D02*
X1351769D01*
X-50Y364694D02*
Y574694D01*
X1211509Y364694D02*
Y574694D01*
X1102540Y364694D02*
Y574694D01*
X969180Y364694D02*
Y574694D01*
X835819Y364694D02*
Y574694D01*
X750443Y364694D02*
Y574694D01*
X636476Y364694D02*
Y574694D01*
X561896Y364694D02*
Y574694D01*
X502911Y364694D02*
Y574694D01*
X352956Y364694D02*
Y574694D01*
X279576Y364694D02*
Y574694D01*
X228988Y364694D02*
Y574694D01*
X114022Y364694D02*
Y574694D01*
X55038Y364694D02*
Y574694D01*
D176*
X1216009Y564194D02*
Y571392D01*
X1219608D01*
X1220807Y570192D01*
Y567793D01*
X1219608Y566593D01*
X1216009D01*
X1218408D02*
X1220807Y564194D01*
X1224406D02*
X1226805D01*
X1228005Y565394D01*
Y567793D01*
X1226805Y568993D01*
X1224406D01*
X1223206Y567793D01*
Y565394D01*
X1224406Y564194D01*
X1230404Y568993D02*
Y565394D01*
X1231604Y564194D01*
X1235203D01*
Y568993D01*
X1238801Y570192D02*
Y568993D01*
X1237602D01*
X1240001D01*
X1238801D01*
Y565394D01*
X1240001Y564194D01*
X1247199D02*
X1244799D01*
X1243600Y565394D01*
Y567793D01*
X1244799Y568993D01*
X1247199D01*
X1248398Y567793D01*
Y566593D01*
X1243600D01*
X1255596Y571392D02*
Y564194D01*
X1251997D01*
X1250797Y565394D01*
Y567793D01*
X1251997Y568993D01*
X1255596D01*
X1265193Y564194D02*
Y571392D01*
X1268792D01*
X1269991Y570192D01*
Y567793D01*
X1268792Y566593D01*
X1265193D01*
X1273590Y568993D02*
X1275989D01*
X1277189Y567793D01*
Y564194D01*
X1273590D01*
X1272390Y565394D01*
X1273590Y566593D01*
X1277189D01*
X1280788Y570192D02*
Y568993D01*
X1279588D01*
X1281987D01*
X1280788D01*
Y565394D01*
X1281987Y564194D01*
X1285586Y571392D02*
Y564194D01*
Y567793D01*
X1286786Y568993D01*
X1289185D01*
X1290385Y567793D01*
Y564194D01*
X1299982Y571392D02*
Y564194D01*
X1304780D01*
X1310778D02*
X1308379D01*
X1307179Y565394D01*
Y567793D01*
X1308379Y568993D01*
X1310778D01*
X1311978Y567793D01*
Y566593D01*
X1307179D01*
X1314377Y564194D02*
Y568993D01*
X1317976D01*
X1319175Y567793D01*
Y564194D01*
X1323974Y561795D02*
X1325173D01*
X1326373Y562995D01*
Y568993D01*
X1322774D01*
X1321575Y567793D01*
Y565394D01*
X1322774Y564194D01*
X1326373D01*
X1329972Y570192D02*
Y568993D01*
X1328772D01*
X1331172D01*
X1329972D01*
Y565394D01*
X1331172Y564194D01*
X1334770Y571392D02*
Y564194D01*
Y567793D01*
X1335970Y568993D01*
X1338369D01*
X1339569Y567793D01*
Y564194D01*
X1107041Y571392D02*
Y564194D01*
Y567793D01*
X1111839D01*
Y571392D01*
Y564194D01*
X1115438D02*
X1117837D01*
X1119037Y565394D01*
Y567793D01*
X1117837Y568993D01*
X1115438D01*
X1114238Y567793D01*
Y565394D01*
X1115438Y564194D01*
X1121436D02*
X1123835D01*
X1122635D01*
Y571392D01*
X1121436D01*
X1131033Y564194D02*
X1128633D01*
X1127434Y565394D01*
Y567793D01*
X1128633Y568993D01*
X1131033D01*
X1132232Y567793D01*
Y566593D01*
X1127434D01*
X1141829Y571392D02*
Y564194D01*
X1146628D01*
X1152626D02*
X1150226D01*
X1149027Y565394D01*
Y567793D01*
X1150226Y568993D01*
X1152626D01*
X1153825Y567793D01*
Y566593D01*
X1149027D01*
X1156225Y564194D02*
Y568993D01*
X1159823D01*
X1161023Y567793D01*
Y564194D01*
X1165821Y561795D02*
X1167021D01*
X1168221Y562995D01*
Y568993D01*
X1164622D01*
X1163422Y567793D01*
Y565394D01*
X1164622Y564194D01*
X1168221D01*
X1171819Y570192D02*
Y568993D01*
X1170620D01*
X1173019D01*
X1171819D01*
Y565394D01*
X1173019Y564194D01*
X1176618Y571392D02*
Y564194D01*
Y567793D01*
X1177818Y568993D01*
X1180217D01*
X1181416Y567793D01*
Y564194D01*
X973680Y571392D02*
Y564194D01*
Y567793D01*
X978478D01*
Y571392D01*
Y564194D01*
X982077D02*
X984476D01*
X985676Y565394D01*
Y567793D01*
X984476Y568993D01*
X982077D01*
X980877Y567793D01*
Y565394D01*
X982077Y564194D01*
X988075D02*
X990474D01*
X989275D01*
Y571392D01*
X988075D01*
X997672Y564194D02*
X995273D01*
X994073Y565394D01*
Y567793D01*
X995273Y568993D01*
X997672D01*
X998872Y567793D01*
Y566593D01*
X994073D01*
X1008468Y571392D02*
X1013267D01*
X1010868D01*
Y564194D01*
X1016866D02*
X1019265D01*
X1020465Y565394D01*
Y567793D01*
X1019265Y568993D01*
X1016866D01*
X1015666Y567793D01*
Y565394D01*
X1016866Y564194D01*
X1022864D02*
X1025263D01*
X1024063D01*
Y571392D01*
X1022864D01*
X1032461Y564194D02*
X1030061D01*
X1028862Y565394D01*
Y567793D01*
X1030061Y568993D01*
X1032461D01*
X1033660Y567793D01*
Y566593D01*
X1028862D01*
X1036059Y568993D02*
Y564194D01*
Y566593D01*
X1037259Y567793D01*
X1038459Y568993D01*
X1039658D01*
X1044457D02*
X1046856D01*
X1048056Y567793D01*
Y564194D01*
X1044457D01*
X1043257Y565394D01*
X1044457Y566593D01*
X1048056D01*
X1050455Y564194D02*
Y568993D01*
X1054054D01*
X1055253Y567793D01*
Y564194D01*
X1062451Y568993D02*
X1058852D01*
X1057652Y567793D01*
Y565394D01*
X1058852Y564194D01*
X1062451D01*
X1068449D02*
X1066050D01*
X1064850Y565394D01*
Y567793D01*
X1066050Y568993D01*
X1068449D01*
X1069649Y567793D01*
Y566593D01*
X1064850D01*
X1081645Y564194D02*
X1079245Y566593D01*
Y568993D01*
X1081645Y571392D01*
X1085244Y567793D02*
X1090042D01*
X1092441Y564194D02*
X1094841Y566593D01*
Y568993D01*
X1092441Y571392D01*
X840319D02*
Y564194D01*
Y567793D01*
X845117D01*
Y571392D01*
Y564194D01*
X848716D02*
X851115D01*
X852315Y565394D01*
Y567793D01*
X851115Y568993D01*
X848716D01*
X847517Y567793D01*
Y565394D01*
X848716Y564194D01*
X854714D02*
X857113D01*
X855914D01*
Y571392D01*
X854714D01*
X864311Y564194D02*
X861912D01*
X860712Y565394D01*
Y567793D01*
X861912Y568993D01*
X864311D01*
X865511Y567793D01*
Y566593D01*
X860712D01*
X875108Y571392D02*
X879906D01*
X877507D01*
Y564194D01*
X883505D02*
X885904D01*
X887104Y565394D01*
Y567793D01*
X885904Y568993D01*
X883505D01*
X882305Y567793D01*
Y565394D01*
X883505Y564194D01*
X889503D02*
X891902D01*
X890703D01*
Y571392D01*
X889503D01*
X899100Y564194D02*
X896701D01*
X895501Y565394D01*
Y567793D01*
X896701Y568993D01*
X899100D01*
X900299Y567793D01*
Y566593D01*
X895501D01*
X902699Y568993D02*
Y564194D01*
Y566593D01*
X903898Y567793D01*
X905098Y568993D01*
X906298D01*
X911096D02*
X913495D01*
X914695Y567793D01*
Y564194D01*
X911096D01*
X909896Y565394D01*
X911096Y566593D01*
X914695D01*
X917094Y564194D02*
Y568993D01*
X920693D01*
X921893Y567793D01*
Y564194D01*
X929090Y568993D02*
X925491D01*
X924292Y567793D01*
Y565394D01*
X925491Y564194D01*
X929090D01*
X935088D02*
X932689D01*
X931489Y565394D01*
Y567793D01*
X932689Y568993D01*
X935088D01*
X936288Y567793D01*
Y566593D01*
X931489D01*
X948284Y564194D02*
X945885Y566593D01*
Y568993D01*
X948284Y571392D01*
X951883Y567793D02*
X956681D01*
X954282Y570192D02*
Y565394D01*
X959081Y564194D02*
X961480Y566593D01*
Y568993D01*
X959081Y571392D01*
X754943D02*
Y564194D01*
X758541D01*
X759741Y565394D01*
Y570192D01*
X758541Y571392D01*
X754943D01*
X765739Y564194D02*
X763340D01*
X762140Y565394D01*
Y567793D01*
X763340Y568993D01*
X765739D01*
X766939Y567793D01*
Y566593D01*
X762140D01*
X769338Y564194D02*
X772937D01*
X774136Y565394D01*
X772937Y566593D01*
X770538D01*
X769338Y567793D01*
X770538Y568993D01*
X774136D01*
X781334D02*
X777735D01*
X776536Y567793D01*
Y565394D01*
X777735Y564194D01*
X781334D01*
X783733Y568993D02*
Y564194D01*
Y566593D01*
X784933Y567793D01*
X786132Y568993D01*
X787332D01*
X790931Y564194D02*
X793330D01*
X792131D01*
Y568993D01*
X790931D01*
X796929Y561795D02*
Y568993D01*
X800528D01*
X801727Y567793D01*
Y565394D01*
X800528Y564194D01*
X796929D01*
X805326Y570192D02*
Y568993D01*
X804127D01*
X806526D01*
X805326D01*
Y565394D01*
X806526Y564194D01*
X810125D02*
X812524D01*
X811324D01*
Y568993D01*
X810125D01*
X817322Y564194D02*
X819722D01*
X820921Y565394D01*
Y567793D01*
X819722Y568993D01*
X817322D01*
X816123Y567793D01*
Y565394D01*
X817322Y564194D01*
X823320D02*
Y568993D01*
X826919D01*
X828119Y567793D01*
Y564194D01*
X640976Y571392D02*
X645774D01*
X643375D01*
Y564194D01*
X651772D02*
X649373D01*
X648174Y565394D01*
Y567793D01*
X649373Y568993D01*
X651772D01*
X652972Y567793D01*
Y566593D01*
X648174D01*
X655371Y564194D02*
Y568993D01*
X656571D01*
X657770Y567793D01*
Y564194D01*
Y567793D01*
X658970Y568993D01*
X660170Y567793D01*
Y564194D01*
X662569Y561795D02*
Y568993D01*
X666168D01*
X667367Y567793D01*
Y565394D01*
X666168Y564194D01*
X662569D01*
X669767D02*
X672166D01*
X670966D01*
Y571392D01*
X669767D01*
X676964Y568993D02*
X679363D01*
X680563Y567793D01*
Y564194D01*
X676964D01*
X675765Y565394D01*
X676964Y566593D01*
X680563D01*
X684162Y570192D02*
Y568993D01*
X682962D01*
X685361D01*
X684162D01*
Y565394D01*
X685361Y564194D01*
X692559D02*
X690160D01*
X688960Y565394D01*
Y567793D01*
X690160Y568993D01*
X692559D01*
X693759Y567793D01*
Y566593D01*
X688960D01*
X566396Y564194D02*
Y571392D01*
X569995D01*
X571195Y570192D01*
Y567793D01*
X569995Y566593D01*
X566396D01*
X574793Y568993D02*
X577193D01*
X578392Y567793D01*
Y564194D01*
X574793D01*
X573594Y565394D01*
X574793Y566593D01*
X578392D01*
X585590Y571392D02*
Y564194D01*
X581991D01*
X580791Y565394D01*
Y567793D01*
X581991Y568993D01*
X585590D01*
X599985Y570192D02*
X598786Y571392D01*
X596386D01*
X595187Y570192D01*
Y568993D01*
X596386Y567793D01*
X598786D01*
X599985Y566593D01*
Y565394D01*
X598786Y564194D01*
X596386D01*
X595187Y565394D01*
X602384Y571392D02*
Y564194D01*
Y567793D01*
X603584Y568993D01*
X605983D01*
X607183Y567793D01*
Y564194D01*
X610782Y568993D02*
X613181D01*
X614381Y567793D01*
Y564194D01*
X610782D01*
X609582Y565394D01*
X610782Y566593D01*
X614381D01*
X616780Y561795D02*
Y568993D01*
X620379D01*
X621578Y567793D01*
Y565394D01*
X620379Y564194D01*
X616780D01*
X627576D02*
X625177D01*
X623977Y565394D01*
Y567793D01*
X625177Y568993D01*
X627576D01*
X628776Y567793D01*
Y566593D01*
X623977D01*
X507411Y571392D02*
Y566593D01*
X509810Y564194D01*
X512210Y566593D01*
Y571392D01*
X514609Y564194D02*
X517008D01*
X515808D01*
Y568993D01*
X514609D01*
X521807D02*
X524206D01*
X525405Y567793D01*
Y564194D01*
X521807D01*
X520607Y565394D01*
X521807Y566593D01*
X525405D01*
X527805Y564194D02*
X532603Y568993D01*
X535002Y564194D02*
Y571392D01*
X538601D01*
X539801Y570192D01*
Y567793D01*
X538601Y566593D01*
X535002D01*
X543400Y568993D02*
X545799D01*
X546998Y567793D01*
Y564194D01*
X543400D01*
X542200Y565394D01*
X543400Y566593D01*
X546998D01*
X554196Y571392D02*
Y564194D01*
X550597D01*
X549398Y565394D01*
Y567793D01*
X550597Y568993D01*
X554196D01*
X357456Y571392D02*
Y564194D01*
X361055D01*
X362255Y565394D01*
Y570192D01*
X361055Y571392D01*
X357456D01*
X364654Y568993D02*
Y564194D01*
Y566593D01*
X365854Y567793D01*
X367053Y568993D01*
X368253D01*
X371851Y564194D02*
X374251D01*
X373051D01*
Y568993D01*
X371851D01*
X377850Y564194D02*
X380249D01*
X379049D01*
Y571392D01*
X377850D01*
X383848Y564194D02*
X386247D01*
X385047D01*
Y571392D01*
X383848D01*
X397043D02*
Y564194D01*
X401842D01*
X405441Y568993D02*
X407840D01*
X409039Y567793D01*
Y564194D01*
X405441D01*
X404241Y565394D01*
X405441Y566593D01*
X409039D01*
X411439Y568993D02*
Y565394D01*
X412638Y564194D01*
X416237D01*
Y562995D01*
X415037Y561795D01*
X413838D01*
X416237Y564194D02*
Y568993D01*
X422235Y564194D02*
X419836D01*
X418636Y565394D01*
Y567793D01*
X419836Y568993D01*
X422235D01*
X423435Y567793D01*
Y566593D01*
X418636D01*
X425834Y568993D02*
Y564194D01*
Y566593D01*
X427034Y567793D01*
X428233Y568993D01*
X429433D01*
X440229Y564194D02*
Y571392D01*
X443828D01*
X445028Y570192D01*
Y567793D01*
X443828Y566593D01*
X440229D01*
X448627Y568993D02*
X451026D01*
X452225Y567793D01*
Y564194D01*
X448627D01*
X447427Y565394D01*
X448627Y566593D01*
X452225D01*
X454625Y564194D02*
X457024D01*
X455824D01*
Y568993D01*
X454625D01*
X460623D02*
Y564194D01*
Y566593D01*
X461822Y567793D01*
X463022Y568993D01*
X464222D01*
X284076Y571392D02*
Y564194D01*
Y567793D01*
X288874D01*
Y571392D01*
Y564194D01*
X292473D02*
X294872D01*
X296072Y565394D01*
Y567793D01*
X294872Y568993D01*
X292473D01*
X291274Y567793D01*
Y565394D01*
X292473Y564194D01*
X298471D02*
X300870D01*
X299671D01*
Y571392D01*
X298471D01*
X308068Y564194D02*
X305669D01*
X304469Y565394D01*
Y567793D01*
X305669Y568993D01*
X308068D01*
X309268Y567793D01*
Y566593D01*
X304469D01*
X318865Y571392D02*
X323663D01*
X321264D01*
Y564194D01*
X326062Y568993D02*
Y565394D01*
X327262Y564194D01*
X330861D01*
Y562995D01*
X329661Y561795D01*
X328462D01*
X330861Y564194D02*
Y568993D01*
X333260Y561795D02*
Y568993D01*
X336859D01*
X338058Y567793D01*
Y565394D01*
X336859Y564194D01*
X333260D01*
X344057D02*
X341657D01*
X340458Y565394D01*
Y567793D01*
X341657Y568993D01*
X344057D01*
X345256Y567793D01*
Y566593D01*
X340458D01*
X233488Y564194D02*
Y571392D01*
X237087D01*
X238287Y570192D01*
Y567793D01*
X237087Y566593D01*
X233488D01*
X240686Y564194D02*
X243085D01*
X241886D01*
Y571392D01*
X240686D01*
X247884Y568993D02*
X250283D01*
X251483Y567793D01*
Y564194D01*
X247884D01*
X246684Y565394D01*
X247884Y566593D01*
X251483D01*
X255081Y570192D02*
Y568993D01*
X253882D01*
X256281D01*
X255081D01*
Y565394D01*
X256281Y564194D01*
X263479D02*
X261080D01*
X259880Y565394D01*
Y567793D01*
X261080Y568993D01*
X263479D01*
X264678Y567793D01*
Y566593D01*
X259880D01*
X271876Y571392D02*
Y564194D01*
X268277D01*
X267077Y565394D01*
Y567793D01*
X268277Y568993D01*
X271876D01*
X118522Y571392D02*
Y564194D01*
Y567793D01*
X123320D01*
Y571392D01*
Y564194D01*
X126919D02*
X129319D01*
X130518Y565394D01*
Y567793D01*
X129319Y568993D01*
X126919D01*
X125720Y567793D01*
Y565394D01*
X126919Y564194D01*
X132917D02*
X135317D01*
X134117D01*
Y571392D01*
X132917D01*
X142514Y564194D02*
X140115D01*
X138915Y565394D01*
Y567793D01*
X140115Y568993D01*
X142514D01*
X143714Y567793D01*
Y566593D01*
X138915D01*
X158109Y570192D02*
X156910Y571392D01*
X154510D01*
X153311Y570192D01*
Y568993D01*
X154510Y567793D01*
X156910D01*
X158109Y566593D01*
Y565394D01*
X156910Y564194D01*
X154510D01*
X153311Y565394D01*
X160508Y564194D02*
X162908D01*
X161708D01*
Y568993D01*
X160508D01*
X166507D02*
X171305D01*
X166507Y564194D01*
X171305D01*
X177303D02*
X174904D01*
X173704Y565394D01*
Y567793D01*
X174904Y568993D01*
X177303D01*
X178503Y567793D01*
Y566593D01*
X173704D01*
X64336Y570192D02*
X63136Y571392D01*
X60737D01*
X59538Y570192D01*
Y565394D01*
X60737Y564194D01*
X63136D01*
X64336Y565394D01*
X67935Y564194D02*
X70334D01*
X71534Y565394D01*
Y567793D01*
X70334Y568993D01*
X67935D01*
X66735Y567793D01*
Y565394D01*
X67935Y564194D01*
X73933Y568993D02*
Y565394D01*
X75133Y564194D01*
X78731D01*
Y568993D01*
X81131Y564194D02*
Y568993D01*
X84729D01*
X85929Y567793D01*
Y564194D01*
X89528Y570192D02*
Y568993D01*
X88328D01*
X90728D01*
X89528D01*
Y565394D01*
X90728Y564194D01*
X13748Y570192D02*
X12549Y571392D01*
X10150D01*
X8950Y570192D01*
Y568993D01*
X10150Y567793D01*
X12549D01*
X13748Y566593D01*
Y565394D01*
X12549Y564194D01*
X10150D01*
X8950Y565394D01*
X16148Y568993D02*
Y565394D01*
X17347Y564194D01*
X20946D01*
Y562995D01*
X19747Y561795D01*
X18547D01*
X20946Y564194D02*
Y568993D01*
X23345Y564194D02*
Y568993D01*
X24545D01*
X25745Y567793D01*
Y564194D01*
Y567793D01*
X26944Y568993D01*
X28144Y567793D01*
Y564194D01*
X30543Y571392D02*
Y564194D01*
X34142D01*
X35342Y565394D01*
Y566593D01*
Y567793D01*
X34142Y568993D01*
X30543D01*
X38940Y564194D02*
X41339D01*
X42539Y565394D01*
Y567793D01*
X41339Y568993D01*
X38940D01*
X37741Y567793D01*
Y565394D01*
X38940Y564194D01*
X44938D02*
X47338D01*
X46138D01*
Y571392D01*
X44938D01*
D177*
X112219Y350697D02*
Y344699D01*
Y347698D01*
X116218D01*
Y350697D01*
Y344699D01*
X119217D02*
X121216D01*
X122216Y345699D01*
Y347698D01*
X121216Y348698D01*
X119217D01*
X118217Y347698D01*
Y345699D01*
X119217Y344699D01*
X124215D02*
X126214D01*
X125215D01*
Y350697D01*
X124215D01*
X132212Y344699D02*
X130213D01*
X129213Y345699D01*
Y347698D01*
X130213Y348698D01*
X132212D01*
X133212Y347698D01*
Y346699D01*
X129213D01*
X141210Y350697D02*
Y344699D01*
X145208D01*
X150207D02*
X148207D01*
X147208Y345699D01*
Y347698D01*
X148207Y348698D01*
X150207D01*
X151206Y347698D01*
Y346699D01*
X147208D01*
X153206Y344699D02*
Y348698D01*
X156205D01*
X157204Y347698D01*
Y344699D01*
X161203Y342700D02*
X162203D01*
X163202Y343700D01*
Y348698D01*
X160203D01*
X159204Y347698D01*
Y345699D01*
X160203Y344699D01*
X163202D01*
X166201Y349698D02*
Y348698D01*
X165202D01*
X167201D01*
X166201D01*
Y345699D01*
X167201Y344699D01*
X170200Y350697D02*
Y344699D01*
Y347698D01*
X171200Y348698D01*
X173199D01*
X174199Y347698D01*
Y344699D01*
X112219Y354697D02*
Y360695D01*
X115218D01*
X116218Y359695D01*
Y357696D01*
X115218Y356696D01*
X112219D01*
X114218D02*
X116218Y354697D01*
X119217D02*
X121216D01*
X122216Y355696D01*
Y357696D01*
X121216Y358696D01*
X119217D01*
X118217Y357696D01*
Y355696D01*
X119217Y354697D01*
X124215Y358696D02*
Y355696D01*
X125215Y354697D01*
X128214D01*
Y358696D01*
X131213Y359695D02*
Y358696D01*
X130213D01*
X132212D01*
X131213D01*
Y355696D01*
X132212Y354697D01*
X138210D02*
X136211D01*
X135212Y355696D01*
Y357696D01*
X136211Y358696D01*
X138210D01*
X139210Y357696D01*
Y356696D01*
X135212D01*
X145208Y360695D02*
Y354697D01*
X142209D01*
X141210Y355696D01*
Y357696D01*
X142209Y358696D01*
X145208D01*
X153206Y354697D02*
Y360695D01*
X156205D01*
X157204Y359695D01*
Y357696D01*
X156205Y356696D01*
X153206D01*
X160203Y358696D02*
X162203D01*
X163202Y357696D01*
Y354697D01*
X160203D01*
X159204Y355696D01*
X160203Y356696D01*
X163202D01*
X166201Y359695D02*
Y358696D01*
X165202D01*
X167201D01*
X166201D01*
Y355696D01*
X167201Y354697D01*
X170200Y360695D02*
Y354697D01*
Y357696D01*
X171200Y358696D01*
X173199D01*
X174199Y357696D01*
Y354697D01*
X182196Y360695D02*
Y354697D01*
X186195D01*
X191193D02*
X189194D01*
X188194Y355696D01*
Y357696D01*
X189194Y358696D01*
X191193D01*
X192193Y357696D01*
Y356696D01*
X188194D01*
X194192Y354697D02*
Y358696D01*
X197192D01*
X198191Y357696D01*
Y354697D01*
X202190Y352697D02*
X203189D01*
X204189Y353697D01*
Y358696D01*
X201190D01*
X200190Y357696D01*
Y355696D01*
X201190Y354697D01*
X204189D01*
X207188Y359695D02*
Y358696D01*
X206189D01*
X208188D01*
X207188D01*
Y355696D01*
X208188Y354697D01*
X211187Y360695D02*
Y354697D01*
Y357696D01*
X212187Y358696D01*
X214186D01*
X215186Y357696D01*
Y354697D01*
X12949Y359695D02*
X11949Y360695D01*
X9950D01*
X8950Y359695D01*
Y358696D01*
X9950Y357696D01*
X11949D01*
X12949Y356696D01*
Y355696D01*
X11949Y354697D01*
X9950D01*
X8950Y355696D01*
X14948Y354697D02*
X16947D01*
X15948D01*
Y360695D01*
X14948D01*
X20946Y354697D02*
X22945D01*
X23945Y355696D01*
Y357696D01*
X22945Y358696D01*
X20946D01*
X19946Y357696D01*
Y355696D01*
X20946Y354697D01*
X26944Y359695D02*
Y358696D01*
X25945D01*
X27944D01*
X26944D01*
Y355696D01*
X27944Y354697D01*
X40940Y360695D02*
Y354697D01*
X37941D01*
X36941Y355696D01*
Y357696D01*
X37941Y358696D01*
X40940D01*
X45938Y354697D02*
X43939D01*
X42939Y355696D01*
Y357696D01*
X43939Y358696D01*
X45938D01*
X46938Y357696D01*
Y356696D01*
X42939D01*
X49937Y354697D02*
Y359695D01*
Y357696D01*
X48937D01*
X50936D01*
X49937D01*
Y359695D01*
X50936Y360695D01*
X53935Y354697D02*
X55935D01*
X54935D01*
Y358696D01*
X53935D01*
X58934Y354697D02*
Y358696D01*
X61933D01*
X62932Y357696D01*
Y354697D01*
X64932D02*
X66931D01*
X65932D01*
Y358696D01*
X64932D01*
X70930Y359695D02*
Y358696D01*
X69930D01*
X71930D01*
X70930D01*
Y355696D01*
X71930Y354697D01*
X74929D02*
X76928D01*
X75928D01*
Y358696D01*
X74929D01*
X80927Y354697D02*
X82926D01*
X83926Y355696D01*
Y357696D01*
X82926Y358696D01*
X80927D01*
X79927Y357696D01*
Y355696D01*
X80927Y354697D01*
X85925D02*
Y358696D01*
X88924D01*
X89924Y357696D01*
Y354697D01*
X91923D02*
X94922D01*
X95922Y355696D01*
X94922Y356696D01*
X92923D01*
X91923Y357696D01*
X92923Y358696D01*
X95922D01*
X103919D02*
X104919D01*
Y357696D01*
X103919D01*
Y358696D01*
Y355696D02*
X104919D01*
Y354697D01*
X103919D01*
Y355696D01*
M02*
